/* XPM */
static char *magick[] = {
/* columns rows colors chars-per-pixel */
"17 18 34 1",
"  c #df2b2c",
". c #de3535",
"X c #dc3e3f",
"o c #e40101",
"O c #e30c0c",
"+ c #e11a1a",
"@ c #e02121",
"# c #dc4344",
"$ c #db4748",
"% c #db4848",
"& c #da5455",
"* c #d95959",
"= c #d76d6e",
"- c #d86262",
"; c #d66f70",
": c #d67273",
"> c #d57e7f",
", c #d38a8b",
"< c #d29091",
"1 c #d19b9c",
"2 c #d09fa0",
"3 c #cfa6a7",
"4 c #cfadae",
"5 c None",
"6 c None",
"7 c None",
"8 c None",
"9 c None",
"0 c None",
"q c None",
"w c None",
"e c None",
"r c None",
"t c None",
/* pixels */
"99997wre57er07999",
"999906-X@ #:50899",
"9890&oooooooO>089",
"880#oooooooooo;q8",
"70*oooooooooooo,0",
"q4ooooooooooooo+9",
"r-oooooooooooooo<",
"w#oooooooooooooo=",
"5@oooooooooooooo$",
"7@oooooooooooooo&",
"t#oooooooooooooo:",
"r:oooooooooooooo2",
"05Ooooooooooooo.9",
"70>oooooooooooO30",
"99q:oooooooooO108",
"998q,+oooooo 6089",
"999709,=$&:100899"
"99997wre57er07999",
};
