/* XPM */
static char * control_play_next_xpm[] = {
"24 24 220 2",
"  	c None",
". 	c #C8C8C8",
"+ 	c #CFCFCF",
"@ 	c #ADADAD",
"# 	c #939393",
"$ 	c #C1C1C1",
"% 	c #5B5B5B",
"& 	c #F6F6F6",
"* 	c #AEAEAE",
"= 	c #454545",
"- 	c #919191",
"; 	c #BCBCBC",
"> 	c #434343",
", 	c #545454",
"' 	c #D2D2D2",
") 	c #AAAAAA",
"! 	c #555555",
"~ 	c #4B4B4B",
"{ 	c #B4B4B4",
"] 	c #414141",
"^ 	c #E4E0E0",
"/ 	c #ABABAB",
"( 	c #A1A1A1",
"_ 	c #494949",
": 	c #D6D2D2",
"< 	c #484848",
"[ 	c #898989",
"} 	c #A9A9A9",
"| 	c #626262",
"1 	c #DCE1E4",
"2 	c #EAECEE",
"3 	c #ACACAC",
"4 	c #A4A4A4",
"5 	c #999999",
"6 	c #D3DADF",
"7 	c #DCE1E3",
"8 	c #9B9B9B",
"9 	c #828282",
"0 	c #A2A2A2",
"a 	c #7C7C7C",
"b 	c #E9EEF1",
"c 	c #F0F2F4",
"d 	c #E8EEF1",
"e 	c #6B6B6B",
"f 	c #9C9C9C",
"g 	c #969696",
"h 	c #737373",
"i 	c #E0E8EC",
"j 	c #EAF0F1",
"k 	c #E2E9EC",
"l 	c #6A6A6A",
"m 	c #787878",
"n 	c #A0A0A0",
"o 	c #7F7F7F",
"p 	c #DAE4EA",
"q 	c #F0F5FB",
"r 	c #D8E5E9",
"s 	c #7A9DB1",
"t 	c #909090",
"u 	c #6D6D6D",
"v 	c #D2DEE8",
"w 	c #ECF3F8",
"x 	c #D9E6ED",
"y 	c #96B4C7",
"z 	c #363636",
"A 	c #696969",
"B 	c #81A3B8",
"C 	c #AECFE1",
"D 	c #A4C8DE",
"E 	c #6691AD",
"F 	c #407392",
"G 	c #404040",
"H 	c #8D8D8D",
"I 	c #4A4A4A",
"J 	c #8CAFC8",
"K 	c #BCD6E6",
"L 	c #B7D3E4",
"M 	c #7EA3BC",
"N 	c #477D9E",
"O 	c #2B2B2B",
"P 	c #656565",
"Q 	c #A8A8A8",
"R 	c #487996",
"S 	c #64A0C6",
"T 	c #619EC5",
"U 	c #5597C0",
"V 	c #3D7291",
"W 	c #3C6F8F",
"X 	c #3D3D3D",
"Y 	c #313131",
"Z 	c #4681A6",
"` 	c #5898C2",
" .	c #5B9BC2",
"..	c #5697C1",
"+.	c #40779A",
"@.	c #407598",
"#.	c #5D5D5D",
"$.	c #646464",
"%.	c #366B8C",
"&.	c #488EBA",
"*.	c #376C8E",
"=.	c #326583",
"-.	c #3C3C3C",
";.	c #2F2F2F",
">.	c #3E7BA1",
",.	c #376D8F",
"'.	c #262626",
").	c #515151",
"!.	c #8E8E8E",
"~.	c #275E81",
"{.	c #347CAB",
"].	c #245777",
"^.	c #245878",
"/.	c #868686",
"(.	c #C6C6C6",
"_.	c #C2C2C2",
":.	c #2E2E2E",
"<.	c #2D6C94",
"[.	c #25597A",
"}.	c #255A7B",
"|.	c #242424",
"1.	c #7A7A7A",
"2.	c #505050",
"3.	c #215475",
"4.	c #2C709C",
"5.	c #1F5171",
"6.	c #1F4E6D",
"7.	c #707070",
"8.	c #9F9F9F",
"9.	c #266187",
"0.	c #1E4C69",
"a.	c #1F4D6C",
"b.	c #232323",
"c.	c #1C4B6B",
"d.	c #25648E",
"e.	c #135584",
"f.	c #0A4E7D",
"g.	c #0F5281",
"h.	c #1D5275",
"i.	c #1C4D6E",
"j.	c #666666",
"k.	c #878787",
"l.	c #474747",
"m.	c #20577B",
"n.	c #1D4D6D",
"o.	c #194460",
"p.	c #323232",
"q.	c #686868",
"r.	c #464646",
"s.	c #13405D",
"t.	c #043D6B",
"u.	c #003867",
"v.	c #002349",
"w.	c #144161",
"x.	c #727272",
"y.	c #4D4D4D",
"z.	c #174765",
"A.	c #1E5980",
"B.	c #124C76",
"C.	c #0B4370",
"D.	c #0A3151",
"E.	c #14415E",
"F.	c #424242",
"G.	c #2D2D2D",
"H.	c #4F4F4F",
"I.	c #041130",
"J.	c #000F40",
"K.	c #001545",
"L.	c #001035",
"M.	c #00193B",
"N.	c #AFAFAF",
"O.	c #616161",
"P.	c #113750",
"Q.	c #03305A",
"R.	c #002B56",
"S.	c #001435",
"T.	c #001535",
"U.	c #000210",
"V.	c #000044",
"W.	c #000007",
"X.	c #001B47",
"Y.	c #A6A6A6",
"Z.	c #585858",
"`.	c #072445",
" +	c #003E73",
".+	c #001D43",
"++	c #00224A",
"@+	c #252525",
"#+	c #525252",
"$+	c #00020E",
"%+	c #000001",
"&+	c #00000E",
"*+	c #989898",
"=+	c #565656",
"-+	c #00082E",
";+	c #000826",
">+	c #002252",
",+	c #0B0B0B",
"'+	c #010729",
")+	c #000317",
"!+	c #0D0D0D",
"~+	c #00052D",
"{+	c #000430",
"]+	c #3A3A3A",
"^+	c #090909",
"/+	c #5F5F5F",
"(+	c #04468F",
"_+	c #393939",
":+	c #171717",
"<+	c #012265",
"[+	c #161616",
"}+	c #303030",
"|+	c #151515",
"1+	c #202020",
"2+	c #1E1E1E",
"3+	c #121212",
"4+	c #333333",
"5+	c #373737",
"6+	c #282828",
"7+	c #4E4E4E",
"                                                ",
". +                     @ #                     ",
"$ % &                   * = -                   ",
"; > , '                 ) ! ~ #                 ",
"{ ] ^ > /               ( _ : < [               ",
"} | 1 2 3 4             5 | 6 7 8 9             ",
"0 a b c d e f           g h i j k l m           ",
"n o p q r s = {         t u v w x y z e         ",
"0 A B C D E F G [       H I J K L M N O P       ",
"Q A R S T U V W X o     } Y Z `  ...+.@.z #.    ",
"8 $.%.&.&.&.&.*.=.-.t   + ;.>.&.&.&.&.,.%.'.).  ",
"!.! ~.{.{.{.{.{.].^./.(._.:.<.{.{.{.{.{.[.}.|.< ",
"1.2.3.4.4.4.4.4.5.6.7.8.} X 9.4.4.4.4.4.0.a.b.G ",
"l = c.d.e.f.g.h.i.j.2.  k.l.m.d.d.d.d.n.o.p.;.  ",
"q.r.s.t.u.u.v.w.5 ,     x.y.z.A.B.C.D.E.F.G.    ",
"l H.I.J.K.L.M.N.O.      j.< P.Q.R.S.T.1.G.      ",
"j.2.U.V.W.X.Y.Z.        $.= `. +.+++1.@+        ",
"P #+$+%+&+*+z           =+|.-+;+>+7.,+          ",
"| r.'+)+/.I             < !+~+{+]+^+            ",
"/+G (+_+:+              -.^+<+|.[+              ",
"Z.l.}+|+                z 1+2+3+                ",
"! ~ z                   4+5+6+                  ",
"7+>                     }+G.                    ",
"                                                "};
