/* XPM */
static char * control_play_prev_xpm[] = {
"24 24 204 2",
"  	c None",
". 	c #939393",
"+ 	c #ADADAD",
"@ 	c #CFCFCF",
"# 	c #C8C8C8",
"$ 	c #919191",
"% 	c #454545",
"& 	c #AEAEAE",
"* 	c #F6F6F6",
"= 	c #5B5B5B",
"- 	c #C1C1C1",
"; 	c #4B4B4B",
"> 	c #555555",
", 	c #AAAAAA",
"' 	c #D2D2D2",
") 	c #545454",
"! 	c #434343",
"~ 	c #BCBCBC",
"{ 	c #949494",
"] 	c #696969",
"^ 	c #DCD9D9",
"/ 	c #4F4F4F",
"( 	c #A1A1A1",
"_ 	c #8F8F8F",
": 	c #EFEDED",
"< 	c #B4B4B4",
"[ 	c #A3A3A3",
"} 	c #D7DCDF",
"| 	c #D0D6DC",
"1 	c #616161",
"2 	c #999999",
"3 	c #B1B1B1",
"4 	c #C0C0C0",
"5 	c #EAECEE",
"6 	c #DDE2E5",
"7 	c #878787",
"8 	c #A9A9A9",
"9 	c #767676",
"0 	c #707070",
"a 	c #CEDAE1",
"b 	c #D9E2E7",
"c 	c #CDDAE1",
"d 	c #636363",
"e 	c #969696",
"f 	c #9C9C9C",
"g 	c #828282",
"h 	c #D6E0E4",
"i 	c #E2E6E8",
"j 	c #D3DCE3",
"k 	c #858585",
"l 	c #A2A2A2",
"m 	c #6B6B6B",
"n 	c #323232",
"o 	c #81A5BC",
"p 	c #BCD0DE",
"q 	c #D4E5F0",
"r 	c #AFC7D2",
"s 	c #5A5A5A",
"t 	c #909090",
"u 	c #6C95AB",
"v 	c #B2C3D0",
"w 	c #C9DFEC",
"x 	c #9BB6C4",
"y 	c #6D6D6D",
"z 	c #A0A0A0",
"A 	c #656565",
"B 	c #2B2B2B",
"C 	c #457B9D",
"D 	c #5C8AAA",
"E 	c #86B6D5",
"F 	c #8AB8D5",
"G 	c #6A99B8",
"H 	c #444444",
"I 	c #8D8D8D",
"J 	c #898989",
"K 	c #404040",
"L 	c #407392",
"M 	c #477B9C",
"N 	c #61A0C6",
"O 	c #447897",
"P 	c #5D5D5D",
"Q 	c #363636",
"R 	c #407598",
"S 	c #40779A",
"T 	c #4F93BE",
"U 	c #4580A5",
"V 	c #313131",
"W 	c #7F7F7F",
"X 	c #3D3D3D",
"Y 	c #3C6F8F",
"Z 	c #3D7291",
"` 	c #A8A8A8",
" .	c #515151",
"..	c #262626",
"+.	c #366B8C",
"@.	c #376D8F",
"#.	c #488EBA",
"$.	c #3E7BA1",
"%.	c #2F2F2F",
"&.	c #3C3C3C",
"*.	c #326583",
"=.	c #376C8E",
"-.	c #646464",
";.	c #9B9B9B",
">.	c #484848",
",.	c #242424",
"'.	c #255A7B",
").	c #25597A",
"!.	c #347CAB",
"~.	c #2D6C94",
"{.	c #2E2E2E",
"].	c #C2C2C2",
"^.	c #C6C6C6",
"/.	c #868686",
"(.	c #245878",
"_.	c #245777",
":.	c #275E81",
"<.	c #8E8E8E",
"[.	c #232323",
"}.	c #1F4D6C",
"|.	c #1E4C69",
"1.	c #2C709C",
"2.	c #266187",
"3.	c #9F9F9F",
"4.	c #1F4E6D",
"5.	c #1F5171",
"6.	c #215475",
"7.	c #505050",
"8.	c #7A7A7A",
"9.	c #194460",
"0.	c #1D4D6D",
"a.	c #25648E",
"b.	c #20577B",
"c.	c #474747",
"d.	c #666666",
"e.	c #1C4D6E",
"f.	c #1F5477",
"g.	c #1C4B6B",
"h.	c #6A6A6A",
"i.	c #2D2D2D",
"j.	c #424242",
"k.	c #164360",
"l.	c #164461",
"m.	c #1E5980",
"n.	c #174765",
"o.	c #4D4D4D",
"p.	c #727272",
"q.	c #184867",
"r.	c #19547C",
"s.	c #154F79",
"t.	c #113B59",
"u.	c #686868",
"v.	c #123B56",
"w.	c #0F3451",
"x.	c #0C3B64",
"y.	c #0B3962",
"z.	c #0D2D47",
"A.	c #B2B2B2",
"B.	c #133F5C",
"C.	c #0E3150",
"D.	c #031542",
"E.	c #01072D",
"F.	c #020819",
"G.	c #0A3257",
"H.	c #010C28",
"I.	c #000F50",
"J.	c #030E28",
"K.	c #0B355C",
"L.	c #00010C",
"M.	c #000133",
"N.	c #000104",
"O.	c #3A3A3A",
"P.	c #797979",
"Q.	c #00041A",
"R.	c #000002",
"S.	c #000107",
"T.	c #252525",
"U.	c #565656",
"V.	c #010829",
"W.	c #000009",
"X.	c #000211",
"Y.	c #373737",
"Z.	c #1F1F1F",
"`.	c #131313",
" +	c #00021C",
".+	c #121212",
"++	c #4C4C4C",
"@+	c #03194D",
"#+	c #383838",
"$+	c #5F5F5F",
"%+	c #0F0F0F",
"&+	c #022F6D",
"*+	c #1B1B1B",
"=+	c #606060",
"-+	c #0B609F",
";+	c #5C5C5C",
">+	c #222222",
",+	c #3E3E3E",
"'+	c #353535",
")+	c #4E4E4E",
"!+	c #575757",
"~+	c #333333",
"{+	c #3B3B3B",
"]+	c #303030",
"                                                ",
"                    . +                     @ # ",
"                  $ % &                   * = - ",
"                . ; > ,                 ' ) ! ~ ",
"              { ] ^ / (               ~ _ : ] < ",
"            _ [ } | 1 2             3 4 5 6 7 8 ",
"          9 0 a b c d e           f g h i j k l ",
"        m n o p q r s t         < % u v w x y z ",
"      A B C D E F G H I       J K L M N N O A l ",
"    P Q R S T T T U V 8     W X Y Z T T T Y ] ` ",
"   ...+.@.#.#.#.#.$.%.@   t &.*.=.#.#.#.#.+.-.;.",
">.,.'.).!.!.!.!.!.~.{.].^./.(._.!.!.!.!.!.:.> <.",
"K [.}.|.1.1.1.1.1.2.X 8 3.0 4.5.1.1.1.1.1.6.7.8.",
"  %.n 9.0.a.a.a.a.b.c.7   7.d.e.f.a.a.a.a.g.% h.",
"    i.j.k.l.m.m.m.n.o.p.    ) 2 q.q.m.r.s.t.% u.",
"      i.W v.w.x.y.z.>.d.      1 A.B.C.D.E.F.H h.",
"        i.t G.H.I.J.% -.        s < K.L.M.N.O.d.",
"          {.P.Q.R.S.T.U.          Q z V.W.X.Y.-.",
"            Z.`.W. +.+>.            ++3.@+@+#+$+",
"              %+i.&+*+&.              Q =+-+j.;+",
"                >+,+Y.Q                 '+>.)+!+",
"                  i.O.~+                  {+o.> ",
"                    i.]+                    ! )+",
"                                                "};
