/* XPM */
static char * control_pause_xpm[] = {
"24 24 119 2",
"  	c None",
". 	c #C5C5C5",
"+ 	c #FFFFFF",
"@ 	c #ADADAD",
"# 	c #EDEDED",
"$ 	c #7B7979",
"% 	c #585858",
"& 	c #565656",
"* 	c #5C5C5C",
"= 	c #646464",
"- 	c #767676",
"; 	c #282828",
"> 	c #BFBFBF",
", 	c #B1AF00",
"' 	c #E7E568",
") 	c #FDFCC8",
"! 	c #F1EF82",
"~ 	c #BBBBBB",
"{ 	c #B4B100",
"] 	c #DCDB55",
"^ 	c #FAFAB5",
"/ 	c #F4F391",
"( 	c #DAD84F",
"_ 	c #303030",
": 	c #E7E7E7",
"< 	c #929292",
"[ 	c #B6B300",
"} 	c #DBD924",
"| 	c #EFED7C",
"1 	c #C8C607",
"2 	c #858585",
"3 	c #444444",
"4 	c #9D9D9D",
"5 	c #A4A200",
"6 	c #C7C402",
"7 	c #DBD952",
"8 	c #D6D31B",
"9 	c #AEAB00",
"0 	c #D5D5D5",
"a 	c #898800",
"b 	c #ACA900",
"c 	c #D8D62F",
"d 	c #C7C506",
"e 	c #949200",
"f 	c #E3E3E3",
"g 	c #767400",
"h 	c #999800",
"i 	c #CDCB0E",
"j 	c #B7B500",
"k 	c #7F7E00",
"l 	c #F8F8F8",
"m 	c #676600",
"n 	c #878600",
"o 	c #B9B700",
"p 	c #A1A000",
"q 	c #7E7C00",
"r 	c #F7F7F7",
"s 	c #6F6F6F",
"t 	c #636200",
"u 	c #6E6C00",
"v 	c #9F9E00",
"w 	c #818000",
"x 	c #D8D8D8",
"y 	c #828282",
"z 	c #5B5A00",
"A 	c #5F5E00",
"B 	c #868400",
"C 	c #727000",
"D 	c #969696",
"E 	c #5A5800",
"F 	c #737200",
"G 	c #6B6A00",
"H 	c #818181",
"I 	c #4F4F00",
"J 	c #575600",
"K 	c #565400",
"L 	c #8A8282",
"M 	c #4A4A4A",
"N 	c #8E8E8E",
"O 	c #434300",
"P 	c #525100",
"Q 	c #675858",
"R 	c #333333",
"S 	c #D7D7D7",
"T 	c #7F7F7F",
"U 	c #424100",
"V 	c #4A4900",
"W 	c #645A5A",
"X 	c #2B2B2B",
"Y 	c #CACACA",
"Z 	c #464500",
"` 	c #777474",
" .	c #B2B2B2",
"..	c #6B6B6B",
"+.	c #8A8A8A",
"@.	c #353535",
"#.	c #717171",
"$.	c #4E4D00",
"%.	c #7A7800",
"&.	c #949494",
"*.	c #424242",
"=.	c #7C7C7C",
"-.	c #A9A700",
";.	c #777600",
">.	c #9B9B9B",
",.	c #7E7E7E",
"'.	c #626000",
").	c #8E8C00",
"!.	c #C9C708",
"~.	c #9A9A9A",
"{.	c #484848",
"].	c #A7A7A7",
"^.	c #575757",
"/.	c #787878",
"(.	c #747474",
"_.	c #3F3F3F",
":.	c #4E4E4E",
"<.	c #494949",
"[.	c #2F2F2F",
"                                                ",
"    . + . . @ @ @ @ @     . + . . @ @ @ @ @     ",
"    # $ % % & * = - ;     # $ % % & * = - ;     ",
"    > $ , ' + ) ! - ;     > $ , ' + ) ! - ;     ",
"    ~ $ { ] ^ / ( - _     ~ $ { ] ^ / ( - _     ",
"    : < [ } | ] 1 2 3     : < [ } | ] 1 2 3     ",
"    + 4 5 6 7 8 9 0 &     + 4 5 6 7 8 9 0 &     ",
"    + < a b c d e f *     + < a b c d e f *     ",
"    + < g h i j k l =     + < g h i j k l =     ",
"    + < m n o p q r s     + < m n o p q r s     ",
"    + < t u v w g x y     + < t u v w g x y     ",
"    + < z A B C u 0 D     + < z A B C u 0 D     ",
"    + < E E F G G 0 H     + < E E F G G 0 H     ",
"    + < I J t z K L M     + < I J t z K L M     ",
"    + N O I J P I Q R     + N O I J P I Q R     ",
"    S T U V P P I W X     S T U V P P I W X     ",
"    Y - O Z P P I ` _     Y - O Z P P I ` _     ",
"     ...O U P I I +.@.     ...O U P I I +.@.    ",
"     .#.O $.%.z P &.*.     .#.O $.%.z P &.*.    ",
"     .=.V t -.;.J >.M      .=.V t -.;.J >.M     ",
"     .,.'.).!.-.F ~.{.     .,.'.).!.-.F ~.{.    ",
"    ]...^.#./.#...(._.    ]...^.#./.#...(._.    ",
"    2 :.{.& <.<.<.{.[.    2 :.{.& <.<.<.{.[.    ",
"                                                "};
