/* XPM */
static char * control_play_pattern_all_xpm[] = {
"24 24 200 2",
"  	c None",
". 	c #E2E2E2",
"+ 	c #FCFCFC",
"@ 	c #BFBFBF",
"# 	c #BBBBBB",
"$ 	c #E7E7E7",
"% 	c #FFFFFF",
"& 	c #D7D7D7",
"* 	c #CACACA",
"= 	c #B2B2B2",
"- 	c #8B8B8B",
"; 	c #5E5E5E",
"> 	c #9B9B9B",
", 	c #ABABAB",
"' 	c #7A7A7A",
") 	c #929292",
"! 	c #9D9D9D",
"~ 	c #778EA4",
"{ 	c #7F7F7F",
"] 	c #767676",
"^ 	c #626B74",
"/ 	c #56718C",
"( 	c #7C7C7C",
"_ 	c #595959",
": 	c #272727",
"< 	c #A5A5A5",
"[ 	c #818181",
"} 	c #1869B5",
"| 	c #5797D7",
"1 	c #8CB7E6",
"2 	c #7AADDF",
"3 	c #337AC5",
"4 	c #003575",
"5 	c #002E67",
"6 	c #002C63",
"7 	c #00265B",
"8 	c #00265A",
"9 	c #001F4F",
"0 	c #001943",
"a 	c #001742",
"b 	c #001B4A",
"c 	c #6D6D6D",
"d 	c #686868",
"e 	c #A4A4A4",
"f 	c #206CB5",
"g 	c #93BDE7",
"h 	c #D7EDFC",
"i 	c #ABD0F3",
"j 	c #5392D4",
"k 	c #034B99",
"l 	c #004387",
"m 	c #00316E",
"n 	c #00285F",
"o 	c #002557",
"p 	c #001A46",
"q 	c #001F4E",
"r 	c #9C9C9C",
"s 	c #777777",
"t 	c #424242",
"u 	c #C1C1C1",
"v 	c #737373",
"w 	c #81B0E0",
"x 	c #DFF2FC",
"y 	c #BFDFF8",
"z 	c #77ACE2",
"A 	c #2F7ECE",
"B 	c #0A5FAF",
"C 	c #00529F",
"D 	c #004286",
"E 	c #003673",
"F 	c #002D66",
"G 	c #00275E",
"H 	c #002153",
"I 	c #00458C",
"J 	c #8C8C8C",
"K 	c #585858",
"L 	c #979797",
"M 	c #6B6B6B",
"N 	c #ABD3F5",
"O 	c #97C5EE",
"P 	c #71A8DF",
"Q 	c #317ECC",
"R 	c #176BBA",
"S 	c #0359AA",
"T 	c #004F99",
"U 	c #003272",
"V 	c #002962",
"W 	c #002256",
"X 	c #002052",
"Y 	c #525252",
"Z 	c #6FA8E2",
"` 	c #8FC0ED",
" .	c #67A0DB",
"..	c #327FCD",
"+.	c #003A7B",
"@.	c #00306B",
"#.	c #696969",
"$.	c #8A8A8A",
"%.	c #555555",
"&.	c #79B5EC",
"*.	c #3D72A8",
"=.	c #1B4978",
"-.	c #0D3B67",
";.	c #032B52",
">.	c #00264A",
",.	c #002144",
"'.	c #001C3C",
").	c #001735",
"!.	c #001736",
"~.	c #00122D",
"{.	c #00336D",
"].	c #878787",
"^.	c #3E3E3E",
"/.	c #AAAAAA",
"(.	c #6C6C6C",
"_.	c #2776C6",
":.	c #1D538B",
"<.	c #173D64",
"[.	c #0B3157",
"}.	c #032444",
"|.	c #00203E",
"1.	c #001C39",
"2.	c #001732",
"3.	c #00132C",
"4.	c #00132D",
"5.	c #535353",
"6.	c #DFDFDF",
"7.	c #8D99A3",
"8.	c #B2BCC6",
"9.	c #B7C1CB",
"0.	c #B4BFCA",
"a.	c #B4BEC7",
"b.	c #B4BCC6",
"c.	c #9EA5AD",
"d.	c #848A91",
"e.	c #7D828A",
"f.	c #757A80",
"g.	c #545454",
"h.	c #343434",
"i.	c #E1E1E1",
"j.	c #919191",
"k.	c #3BC63B",
"l.	c #7CED7C",
"m.	c #39B339",
"n.	c #2D742D",
"o.	c #2D6C2D",
"p.	c #2D642D",
"q.	c #265826",
"r.	c #205320",
"s.	c #1F5A1F",
"t.	c #494949",
"u.	c #B0B0B0",
"v.	c #4AC94A",
"w.	c #D9FFD9",
"x.	c #3FF93F",
"y.	c #009C00",
"z.	c #007300",
"A.	c #006000",
"B.	c #005200",
"C.	c #004B00",
"D.	c #448044",
"E.	c #363636",
"F.	c #72EA72",
"G.	c #3CD93C",
"H.	c #06C306",
"I.	c #009800",
"J.	c #007700",
"K.	c #005B00",
"L.	c #005800",
"M.	c #949494",
"N.	c #5A5A5A",
"O.	c #5EA65E",
"P.	c #32D732",
"Q.	c #007C00",
"R.	c #006100",
"S.	c #177017",
"T.	c #6E6E6E",
"U.	c #0FCE0F",
"V.	c #4C6D4C",
"W.	c #484848",
"X.	c #BABABA",
"Y.	c #317D31",
"Z.	c #007600",
"`.	c #5B5B5B",
" +	c #383838",
".+	c #66AE66",
"++	c #009B00",
"@+	c #768876",
"#+	c #414141",
"$+	c #276827",
"%+	c #008100",
"&+	c #0B680B",
"*+	c #515351",
"=+	c #2A2A2A",
"-+	c #898989",
";+	c #024102",
">+	c #617961",
",+	c #3D3D3D",
"'+	c #838383",
")+	c #505050",
"                                                ",
"                                                ",
"  . + @ # $ % % % % % % % % % & * = = = = - ;   ",
"  > , ' ' ) ! ) ) ) ) ) ) ) ~ { ] ^ / ( ' _ :   ",
"  < [ } | 1 2 3 4 5 6 7 8 9 0 a 0 0 0 b c d     ",
"    e f g h i j k l m n 8 o 9 b p a q r s t     ",
"    u v w x y z A B C D E F G o H 9 I J K       ",
"      L M N O P Q R S T I U V W X o < - Y       ",
"      u d Z `  ...R S T I +.@.7 9 F , #.        ",
"        $.%.&.*.=.-.;.>.,.'.).!.~.{.].^.        ",
"        /.(._.:.<.[.}.|.1.2.3.4.3.(.5.          ",
"          { 6.7.8.9.0.a.b.c.d.e.f.g.h.          ",
"          i.j.k.l.m.n.o.p.q.r.s.c t.            ",
"            u.v.w.x.y.z.A.B.C.D.d E.            ",
"              v F.G.H.I.J.K.L.M.N.              ",
"              > O.P.H.I.Q.R.S.#.E.              ",
"                T.U.H.I.Q.R.V.W.                ",
"                X.Y.H.I.Q.Z.`. +                ",
"                  .+++I.Q.@+#+                  ",
"                  X.$+%+&+*+=+                  ",
"                    -+;+>+,+                    ",
"                      '+)+                      ",
"                                                ",
"                                                "};
