/* XPM */
static char * control_stop_xpm[] = {
"24 24 277 2",
"  	c None",
". 	c #B4B4B4",
"+ 	c #D5D5D5",
"@ 	c #EDEDED",
"# 	c #E9E9E9",
"$ 	c #ECECEC",
"% 	c #E7E7E7",
"& 	c #E3E3E3",
"* 	c #DFDFDF",
"= 	c #DDDDDD",
"- 	c #CFCFCF",
"; 	c #BEBEBE",
"> 	c #B3B3B3",
", 	c #A0A0A0",
"' 	c #9D9D9D",
") 	c #989898",
"! 	c #868686",
"~ 	c #828282",
"{ 	c #7E7E7E",
"] 	c #7A7A7A",
"^ 	c #767676",
"/ 	c #BBBBBB",
"( 	c #666666",
"_ 	c #B0B0B0",
": 	c #B8B8B8",
"< 	c #C5C5C5",
"[ 	c #C6C6C6",
"} 	c #C3C3C3",
"| 	c #C8C8C8",
"1 	c #BABABA",
"2 	c #8E8E8E",
"3 	c #747474",
"4 	c #656565",
"5 	c #686868",
"6 	c #696969",
"7 	c #616161",
"8 	c #717171",
"9 	c #D2D2D2",
"0 	c #C26D96",
"a 	c #B0457A",
"b 	c #BD6E95",
"c 	c #DDA6C0",
"d 	c #E3B6CA",
"e 	c #DEACC5",
"f 	c #CF89AC",
"g 	c #C681A2",
"h 	c #BB7496",
"i 	c #BA6A90",
"j 	c #AD6184",
"k 	c #9E436E",
"l 	c #A32A5C",
"m 	c #A02256",
"n 	c #920633",
"o 	c #7E0021",
"p 	c #800021",
"q 	c #8C8C8C",
"r 	c #6C6C6C",
"s 	c #BA5D89",
"t 	c #A92648",
"u 	c #B54A66",
"v 	c #DCA4B4",
"w 	c #E0A9B7",
"x 	c #DDA1B0",
"y 	c #DA98A9",
"z 	c #DE98AA",
"A 	c #DE98A9",
"B 	c #DC9FAF",
"C 	c #E1A9B7",
"D 	c #E5A7B6",
"E 	c #E393A7",
"F 	c #DD7D95",
"G 	c #D45776",
"H 	c #C72D54",
"I 	c #650A22",
"J 	c #878787",
"K 	c #646464",
"L 	c #DBDBDB",
"M 	c #999999",
"N 	c #BE5173",
"O 	c #B44865",
"P 	c #F5638A",
"Q 	c #FBB6C8",
"R 	c #FCB7CA",
"S 	c #FFBECF",
"T 	c #FFC3D3",
"U 	c #FFBBCD",
"V 	c #FFB7CA",
"W 	c #FFACC3",
"X 	c #FFB3C7",
"Y 	c #FCADC2",
"Z 	c #FC89A6",
"` 	c #F95E86",
" .	c #BA3154",
"..	c #8A1333",
"+.	c #808080",
"@.	c #5C5C5C",
"#.	c #D3D3D3",
"$.	c #8D8D8D",
"%.	c #C5506D",
"&.	c #AE4C63",
"*.	c #F17F9C",
"=.	c #F7B7C8",
"-.	c #F7C1D0",
";.	c #F9CAD7",
">.	c #F9CED9",
",.	c #F8C9D5",
"'.	c #F8C4D2",
").	c #F8C7D4",
"!.	c #F8C0CF",
"~.	c #F6A9BB",
"{.	c #F288A2",
"].	c #E35275",
"^.	c #BB3153",
"/.	c #8A112E",
"(.	c #7D7D7D",
"_.	c #575757",
":.	c #9E9E9E",
"<.	c #BB566E",
"[.	c #B03151",
"}.	c #E26C89",
"|.	c #E67F99",
"1.	c #E8879F",
"2.	c #E990A7",
"3.	c #EC9AAF",
"4.	c #E98DA4",
"5.	c #E8869F",
"6.	c #E888A0",
"7.	c #E7859D",
"8.	c #E3708C",
"9.	c #E26383",
"0.	c #D93D65",
"a.	c #C9254D",
"b.	c #AE183C",
"c.	c #900827",
"d.	c #7B7B7B",
"e.	c #525252",
"f.	c #B2596E",
"g.	c #A91F40",
"h.	c #BF425F",
"i.	c #CF5572",
"j.	c #CD4F6D",
"k.	c #C53356",
"l.	c #B90A34",
"m.	c #AC0930",
"n.	c #95072A",
"o.	c #810724",
"p.	c #4D4D4D",
"q.	c #CACACA",
"r.	c #939393",
"s.	c #973C52",
"t.	c #8F0B2A",
"u.	c #990C2D",
"v.	c #A40D30",
"w.	c #A61134",
"x.	c #AB2141",
"y.	c #AD2746",
"z.	c #AA1C3D",
"A.	c #850A27",
"B.	c #740822",
"C.	c #787878",
"D.	c #484848",
"E.	c #BFBFBF",
"F.	c #949494",
"G.	c #914A59",
"H.	c #7C0F26",
"I.	c #851029",
"J.	c #8F112C",
"K.	c #740E23",
"L.	c #650C1F",
"M.	c #737373",
"N.	c #424242",
"O.	c #979797",
"P.	c #885059",
"Q.	c #6A1222",
"R.	c #721325",
"S.	c #7A1428",
"T.	c #631120",
"U.	c #560F1C",
"V.	c #3F3F3F",
"W.	c #BDBDBD",
"X.	c #783D47",
"Y.	c #611322",
"Z.	c #681424",
"`.	c #701627",
" +	c #5A1220",
".+	c #4E101C",
"++	c #353535",
"@+	c #581220",
"#+	c #5E1322",
"$+	c #651424",
"%+	c #6C1627",
"&+	c #4C101C",
"*+	c #333333",
"=+	c #B2B2B2",
"-+	c #797979",
";+	c #5C1322",
">+	c #5B1322",
",+	c #621424",
"'+	c #691627",
")+	c #551220",
"!+	c #4A101C",
"~+	c #651627",
"{+	c #581322",
"]+	c #5E1424",
"^+	c #4B0306",
"/+	c #3F0101",
"(+	c #320203",
"_+	c #420C17",
":+	c #4F4F4F",
"<+	c #611627",
"[+	c #551322",
"}+	c #561423",
"|+	c #450305",
"1+	c #410000",
"2+	c #390000",
"3+	c #2B0000",
"4+	c #3A0810",
"5+	c #4A4A4A",
"6+	c #5C1627",
"7+	c #4D101E",
"8+	c #320305",
"9+	c #3C0001",
"0+	c #3B0000",
"a+	c #2E0000",
"b+	c #190000",
"c+	c #140000",
"d+	c #150000",
"e+	c #0A0000",
"f+	c #100000",
"g+	c #37080D",
"h+	c #454545",
"i+	c #4A1321",
"j+	c #390A13",
"k+	c #280000",
"l+	c #2F0000",
"m+	c #160000",
"n+	c #060000",
"o+	c #050000",
"p+	c #000000",
"q+	c #370B14",
"r+	c #6E6E6E",
"s+	c #444444",
"t+	c #5F0E22",
"u+	c #520713",
"v+	c #3F0000",
"w+	c #460000",
"x+	c #1B0000",
"y+	c #0B0000",
"z+	c #130102",
"A+	c #4D0B1B",
"B+	c #777777",
"C+	c #4B4B4B",
"D+	c #780A27",
"E+	c #6C071E",
"F+	c #580105",
"G+	c #530001",
"H+	c #530000",
"I+	c #510000",
"J+	c #4A0000",
"K+	c #490000",
"L+	c #4F0000",
"M+	c #540001",
"N+	c #530105",
"O+	c #5D0516",
"P+	c #680821",
"Q+	c #919191",
"R+	c #535353",
"S+	c #6F6F6F",
"T+	c #6A6A6A",
"U+	c #2E2E2E",
"V+	c #5F5F5F",
"W+	c #5B5B5B",
"X+	c #494949",
"Y+	c #464646",
"Z+	c #3B3B3B",
"`+	c #363636",
" @	c #323232",
"                                                ",
"  . + @ @ # $ % & * * = - ; > , ' ) ! ~ { ] ^   ",
"  / ( _ : < - [ } | [ 1 ' 2 3 4 5 6 4 7 6 3 8   ",
"  9 { 0 a b c d e f g h i j k l l m n o p q r   ",
"  = ' s t u v w x y y z A B C D E F G H I J K   ",
"  L M N O P Q R S T U V W X V V Y Z `  ...+.@.  ",
"  #.$.%.&.*.=.-.;.>.,.'.'.).!.=.~.{.].^./.(._.  ",
"  + :.<.[.}.|.1.2.3.4.5.5.6.7.8.9.0.a.b.c.d.e.  ",
"  - , f.g.h.i.i.i.i.i.i.i.j.k.l.l.l.m.n.o.] p.  ",
"  q.r.s.t.u.v.v.v.v.v.w.x.y.z.v.v.v.u.A.B.C.D.  ",
"  E.F.G.H.I.J.J.J.J.J.J.J.J.J.J.J.J.I.K.L.M.N.  ",
"  ; O.P.Q.R.S.S.S.S.S.S.S.S.S.S.S.S.R.T.U.8 V.  ",
"  W.r.X.Y.Z.`.`.`.`.`.`.`.`.`.`.`.`.Z. +.+8 ++  ",
"  1 2 @+#+$+%+%+%+%+%+%+%+%+%+%+%+%+$+@+&+8 *+  ",
"  =+-+;+>+,+'+'+'+'+'+'+'+'+'+'+'+'+,+)+!+8 *+  ",
"  ' @.~+{+]+~+~+~+~+~+~+~+~+~+~+~+^+/+(+_+8 *+  ",
"  $.:+<+[+}+<+<+<+<+<+<+<+<+|+1+1+1+2+3+4+8 *+  ",
"  J 5+6+7+8+9+0+0+0+0+0+a+b+c+c+c+d+e+f+g+8 *+  ",
"  M.h+i+j+k+k+k+l+l+l+l+m+n+o+o+p+p+p+p+q+8 *+  ",
"  r+s+t+u+v+v+w+v+v+v+v+a+x+b+b+b+b+y+z+A+B+*+  ",
"  6 C+D+E+F+G+H+H+H+H+H+I+J+K+L+H+M+N+O+P+Q+*+  ",
"  K R+S+6 5 T+r S+8 8 8 8 8 8 8 8 8 8 B+Q+r.U+  ",
"  V+W+_.R+X+Y+h+h+V.V.Z+`+*+*+*+*+*+*+*+ @U+U+  ",
"                                                "};
