/* XPM */
static char * control_play_xpm[] = {
"24 24 189 2",
"  	c None",
". 	c #C4C4C4",
"+ 	c #C7C7C7",
"@ 	c #C6C6C6",
"# 	c #CBCBCB",
"$ 	c #999999",
"% 	c #A7A7A7",
"& 	c #BABABA",
"* 	c #5C5C5C",
"= 	c #393939",
"- 	c #595959",
"; 	c #ACACAC",
"> 	c #B2B2B2",
", 	c #585858",
"' 	c #D5F8D1",
") 	c #C7EBC4",
"! 	c #4F4F4F",
"~ 	c #525252",
"{ 	c #787878",
"] 	c #686868",
"^ 	c #88CA83",
"/ 	c #7EBE79",
"( 	c #76B66F",
"_ 	c #68AA63",
": 	c #5D5D5D",
"< 	c #919191",
"[ 	c #ABABAB",
"} 	c #707070",
"| 	c #48A840",
"1 	c #5AD251",
"2 	c #59D150",
"3 	c #3E9439",
"4 	c #3D9037",
"5 	c #398935",
"6 	c #606060",
"7 	c #717171",
"8 	c #45A53D",
"9 	c #55CD4C",
"0 	c #56CD4A",
"a 	c #388530",
"b 	c #358530",
"c 	c #474747",
"d 	c #4D4D4D",
"e 	c #757575",
"f 	c #8B8B8B",
"g 	c #40A239",
"h 	c #4FC946",
"i 	c #4EC845",
"j 	c #32812D",
"k 	c #3D3D3D",
"l 	c #454545",
"m 	c #7E7E7E",
"n 	c #767676",
"o 	c #3DA035",
"p 	c #4AC441",
"q 	c #49C340",
"r 	c #48C23F",
"s 	c #47C23D",
"t 	c #45C13C",
"u 	c #2D8127",
"v 	c #2E8528",
"w 	c #2E8527",
"x 	c #383838",
"y 	c #424242",
"z 	c #676767",
"A 	c #656565",
"B 	c #6C6C6C",
"C 	c #349F2D",
"D 	c #3AB631",
"E 	c #39B530",
"F 	c #3BB42F",
"G 	c #38B22F",
"H 	c #37B12E",
"I 	c #36B02D",
"J 	c #35AF2C",
"K 	c #34AE2B",
"L 	c #33AD2A",
"M 	c #23781D",
"N 	c #278220",
"O 	c #2F9722",
"P 	c #464646",
"Q 	c #626262",
"R 	c #A4A4A4",
"S 	c #5F5F5F",
"T 	c #2A9122",
"U 	c #30A827",
"V 	c #2FA726",
"W 	c #2EA625",
"X 	c #2EA425",
"Y 	c #30A324",
"Z 	c #2FA223",
"` 	c #2EA122",
" .	c #2B9F22",
"..	c #2EA924",
"+.	c #23801B",
"@.	c #28901C",
"#.	c #2B9921",
"$.	c #535353",
"%.	c #4E4E4E",
"&.	c #303030",
"*.	c #2A2A2A",
"=.	c #949494",
"-.	c #25871B",
";.	c #289A1F",
">.	c #27991E",
",.	c #28981D",
"'.	c #27971C",
").	c #24951C",
"!.	c #23941B",
"~.	c #25931A",
"{.	c #22911A",
"].	c #25991D",
"^.	c #1B7316",
"/.	c #228616",
"(.	c #228D18",
"_.	c #575757",
":.	c #444444",
"<.	c #222222",
"[.	c #1C7A14",
"}.	c #208D18",
"|.	c #1F8C17",
"1.	c #1F8A17",
"2.	c #1E8916",
"3.	c #1D8815",
"4.	c #208615",
"5.	c #1E8514",
"6.	c #156511",
"7.	c #14600F",
"8.	c #14630E",
"9.	c #6B6B6B",
"0.	c #202020",
"a.	c #8E8E8E",
"b.	c #166E10",
"c.	c #1B7E11",
"d.	c #187C11",
"e.	c #1A7B10",
"f.	c #177910",
"g.	c #16780F",
"h.	c #11580B",
"i.	c #135D0C",
"j.	c #7C7C7C",
"k.	c #2B2B2B",
"l.	c #1D1D1D",
"m.	c #888888",
"n.	c #5B5B5B",
"o.	c #196F11",
"p.	c #1C8314",
"q.	c #186812",
"r.	c #186713",
"s.	c #186612",
"t.	c #7A7A7A",
"u.	c #1F1F1F",
"v.	c #848484",
"w.	c #1D6F16",
"x.	c #2C9D20",
"y.	c #237A1B",
"z.	c #23771B",
"A.	c #20741A",
"B.	c #939393",
"C.	c #878787",
"D.	c #414141",
"E.	c #636363",
"F.	c #257C1F",
"G.	c #2A8723",
"H.	c #2B8222",
"I.	c #287F22",
"J.	c #9F9F9F",
"K.	c #959595",
"L.	c #262626",
"M.	c #696969",
"N.	c #35932D",
"O.	c #34912D",
"P.	c #399B31",
"Q.	c #359330",
"R.	c #9C9C9C",
"S.	c #9D9D9D",
"T.	c #4B4B4B",
"U.	c #272727",
"V.	c #797979",
"W.	c #3D9F36",
"X.	c #3B9B34",
"Y.	c #B3B3B3",
"Z.	c #A0A0A0",
"`.	c #545454",
" +	c #6A6A6A",
".+	c #363636",
"++	c #2F2F2F",
"@+	c #313131",
"#+	c #2D2D2D",
"                                                ",
"  . +                                           ",
"  @ # $ %                                       ",
"  & * = - % ;                                   ",
"  > , ' ) ! ~ { >                               ",
"  > ] ^ / ( _ ~ : < [                           ",
"  > } | 1 2 3 4 5 ! 6 $ $                       ",
"  > 7 8 9 9 0 0 a b b c d e f                   ",
"  > 7 g h h i i i i j j j k l m n               ",
"  > 7 o p p q q q r s t u v w x y z A           ",
"  > B C D E F G H I J J K L M N O P Q d l       ",
"  R S T U V W W X X Y Z ` `  ...+.@.#.$.%.&.*.  ",
"  =.S -.;.>.>.,.'.).).!.~.~.{.].^./.(._.:.*.<.  ",
"  < S [.}.|.1.2.2.3.3.4.5.5.6.7.8.9.Q <.0.      ",
"  a.* b.c.c.d.d.e.f.g.g.h.h.i.j.Q k.l.          ",
"  m.n.o.p.5.4.2.1.|.q.r.s.m.t.k u.              ",
"  v.: w.x.x. .` y.z.A.B.C.D.<.                  ",
"  j.E.F.I H G.H.I.J.K.$.L.                      ",
"  7 M.N.O.P.Q.R.S.T.U.                          ",
"  B V.W.X.Y.Z.y U.                              ",
"  `. +B.{ &.*.                                  ",
"  = .+++++                                      ",
"  @+#+                                          ",
"                                                "};
