/* XPM */
static char * control_play_pattern_xpm[] = {
"24 24 175 2",
"  	c None",
". 	c #E2E2E2",
"+ 	c #FCFCFC",
"@ 	c #BFBFBF",
"# 	c #C1C1C1",
"$ 	c #EBEBEB",
"% 	c #FFFFFF",
"& 	c #D7D7D7",
"* 	c #CACACA",
"= 	c #B2B2B2",
"- 	c #8B8B8B",
"; 	c #5E5E5E",
"> 	c #9B9B9B",
", 	c #ABABAB",
"' 	c #7A7A7A",
") 	c #8F8F8F",
"! 	c #A8A8A8",
"~ 	c #B1B1B1",
"{ 	c #969696",
"] 	c #929292",
"^ 	c #778EA4",
"/ 	c #7F7F7F",
"( 	c #767676",
"_ 	c #626B74",
": 	c #56718C",
"< 	c #7C7C7C",
"[ 	c #595959",
"} 	c #272727",
"| 	c #A5A5A5",
"1 	c #818181",
"2 	c #0D62B2",
"3 	c #82B0E1",
"4 	c #C0D8F2",
"5 	c #B9D3EE",
"6 	c #7AA9DA",
"7 	c #3D6696",
"8 	c #163F74",
"9 	c #002C63",
"0 	c #00265B",
"a 	c #00265A",
"b 	c #001F4F",
"c 	c #001943",
"d 	c #001742",
"e 	c #001B4A",
"f 	c #6D6D6D",
"g 	c #686868",
"h 	c #A4A4A4",
"i 	c #0B5FAE",
"j 	c #BED7F1",
"k 	c #EBF6FC",
"l 	c #E0EDFC",
"m 	c #B6D2EC",
"n 	c #6794C5",
"o 	c #2E669C",
"p 	c #00316E",
"q 	c #00285F",
"r 	c #002557",
"s 	c #001A46",
"t 	c #001F4E",
"u 	c #9C9C9C",
"v 	c #777777",
"w 	c #424242",
"x 	c #696969",
"y 	c #B6D2EE",
"z 	c #EEF7FC",
"A 	c #E5F0FB",
"B 	c #C4DDF2",
"C 	c #89B5E2",
"D 	c #3379BC",
"E 	c #00529F",
"F 	c #004286",
"G 	c #003673",
"H 	c #002D66",
"I 	c #00275E",
"J 	c #002153",
"K 	c #00458C",
"L 	c #8C8C8C",
"M 	c #585858",
"N 	c #8A8A8A",
"O 	c #C3E1F7",
"P 	c #BDDBF3",
"Q 	c #A5C7EA",
"R 	c #6EA4DA",
"S 	c #2977C0",
"T 	c #0359AA",
"U 	c #004F99",
"V 	c #003272",
"W 	c #002962",
"X 	c #002256",
"Y 	c #002052",
"Z 	c #525252",
"` 	c #666666",
" .	c #5C9CDD",
"..	c #83BAEB",
"+.	c #6EA5DD",
"@.	c #4B8FD3",
"#.	c #1C6EBB",
"$.	c #003A7B",
"%.	c #00306B",
"&.	c #555555",
"*.	c #7EB8ED",
"=.	c #5A98D6",
"-.	c #3883CE",
";.	c #196DBB",
">.	c #00397A",
",.	c #878787",
"'.	c #3E3E3E",
").	c #AAAAAA",
"!.	c #6C6C6C",
"~.	c #2776C6",
"{.	c #2A79C9",
"].	c #2C7BCB",
"^.	c #176BBA",
"/.	c #626262",
"(.	c #166AB9",
"_.	c #003779",
":.	c #000B50",
"<.	c #00003E",
"[.	c #00023C",
"}.	c #727272",
"|.	c #E1E1E1",
"1.	c #7E7E7E",
"2.	c #1468B7",
"3.	c #001762",
"4.	c #000149",
"5.	c #00003B",
"6.	c #4A4A4A",
"7.	c #9F9F9F",
"8.	c #015CAA",
"9.	c #002879",
"0.	c #000044",
"a.	c #000029",
"b.	c #000045",
"c.	c #2D2D2D",
"d.	c #7B7B7B",
"e.	c #0053A1",
"f.	c #004C96",
"g.	c #000961",
"h.	c #000041",
"i.	c #7D7D7D",
"j.	c #414141",
"k.	c #004B91",
"l.	c #002D86",
"m.	c #000C63",
"n.	c #000042",
"o.	c #00001D",
"p.	c #606060",
"q.	c #343434",
"r.	c #6A6A6A",
"s.	c #00468E",
"t.	c #002060",
"u.	c #002C85",
"v.	c #00196F",
"w.	c #000548",
"x.	c #646D77",
"y.	c #363636",
"z.	c #DDDDDD",
"A.	c #000340",
"B.	c #000E57",
"C.	c #000B3F",
"D.	c #6B6B6B",
"E.	c #383838",
"F.	c #737373",
"G.	c #2F2F2F",
"H.	c #000938",
"I.	c #4A5F74",
"J.	c #212121",
"K.	c #4C4C4C",
"L.	c #000019",
"M.	c #020202",
"N.	c #4D4D4D",
"O.	c #2A2A2A",
"P.	c #BEBEBE",
"Q.	c #3F3F3F",
"R.	c #717171",
"                                                ",
"                                                ",
"  . + @ # $ % % % % % % % % % & * = = = = - ;   ",
"  > , ' ) ! ~ { ] ] ] ] ] ] ^ / ( _ : < ' [ }   ",
"  | 1 2 3 4 5 6 7 8 9 0 a b c d c c c e f g     ",
"    h i j k l m n o p q a r b e s d t u v w     ",
"    # x y z A B C D E F G H I r J b K L M       ",
"      { N O P Q R S T U K V W X Y r | - Z       ",
"      # `  ...+.@.#.T U K $.%.0 b H , x         ",
"        N &.*.=.-.;.T U K $.%.I t >.,.'.        ",
"        ).!.~.{.].^.T U K $.%.I a | /.          ",
"          / &.(.].^.T U K _.:.<.[.}.'.          ",
"          |.1.2.2.^.T U K 3.4.5.v 6.            ",
"            7.&.8.^.T U 9.0.a.b.< c.            ",
"              d.8.e.T f.g.h.a.i.j.              ",
"              = 2 k.T l.m.n.o.p.q.              ",
"                r.s.t.u.v.w.x.y.                ",
"                z.Z A.B.B.C.D.E.                ",
"                  F.G.o.H.I.J.                  ",
"                  # K.L.M.N.O.                  ",
"                    P.!.` Q.                    ",
"                      P.R.                      ",
"                                                ",
"                                                "};
