/* XPM */
static char * file_disk_open_xpm[] = {
"24 24 201 2",
"  	c None",
". 	c #010000",
"+ 	c #C7B55E",
"@ 	c #E4DAA2",
"# 	c #E1D79D",
"$ 	c #D8CB83",
"% 	c #734B03",
"& 	c #D2C36F",
"* 	c #D2C370",
"= 	c #EAE2B2",
"- 	c #E5DBA3",
"; 	c #D7CB7E",
"> 	c #3C1C00",
", 	c #DFD287",
"' 	c #E0D48A",
") 	c #E1DA93",
"! 	c #C2A43F",
"~ 	c #B09733",
"{ 	c #D4CA74",
"] 	c #AA871F",
"^ 	c #EBE19F",
"/ 	c #EAE19D",
"( 	c #C7AC3A",
"_ 	c #9E780F",
": 	c #936F0D",
"< 	c #000000",
"[ 	c #F5F0C9",
"} 	c #F2ECBD",
"| 	c #F0E8B5",
"1 	c #EEE6AD",
"2 	c #EAE09B",
"3 	c #E9DF98",
"4 	c #D8C764",
"5 	c #D1BC4F",
"6 	c #D1BC4D",
"7 	c #CCB646",
"8 	c #B69A25",
"9 	c #AF921D",
"0 	c #9A7D1D",
"a 	c #F6EBA6",
"b 	c #F1E078",
"c 	c #B58E0D",
"d 	c #A57406",
"e 	c #F9EFAE",
"f 	c #F9F4C9",
"g 	c #F7F2C0",
"h 	c #F7F1BE",
"i 	c #F6F1BC",
"j 	c #F4EDB0",
"k 	c #ECE085",
"l 	c #E5D463",
"m 	c #E4D360",
"n 	c #E4D05C",
"o 	c #E0CC52",
"p 	c #D0B52C",
"q 	c #D0B42B",
"r 	c #513200",
"s 	c #F6E988",
"t 	c #E6CA35",
"u 	c #C19806",
"v 	c #BD8305",
"w 	c #FAF4B0",
"x 	c #FAF5C1",
"y 	c #FAF6C3",
"z 	c #FAF5BF",
"A 	c #F9F3B4",
"B 	c #F5ED99",
"C 	c #EFE26F",
"D 	c #EEE069",
"E 	c #EDDD63",
"F 	c #EBDB5B",
"G 	c #E0C932",
"H 	c #100400",
"I 	c #EBE146",
"J 	c #D6B60B",
"K 	c #BEA602",
"L 	c #F2E863",
"M 	c #F8F39B",
"N 	c #F8F39E",
"O 	c #F8F3A0",
"P 	c #F8F39A",
"Q 	c #F6EF8D",
"R 	c #F3EA6F",
"S 	c #F2E865",
"T 	c #F1E75F",
"U 	c #E9DA37",
"V 	c #D2AD1B",
"W 	c #B07C03",
"X 	c #8E6B01",
"Y 	c #F0E782",
"Z 	c #F1E889",
"` 	c #EFE580",
" .	c #EADE65",
"..	c #E8DA5A",
"+.	c #E5D44E",
"@.	c #DAC52E",
"#.	c #B08F0F",
"$.	c #997F07",
"%.	c #856A03",
"&.	c #E8DD7C",
"*.	c #E7DC7A",
"=.	c #E3D66C",
"-.	c #DDCE58",
";.	c #D9C84C",
">.	c #D0BA36",
",.	c #C3AC23",
"'.	c #090100",
").	c #9D8112",
"!.	c #9D7D0F",
"~.	c #D9C65B",
"{.	c #DFD06F",
"].	c #DDCD6A",
"^.	c #D3C052",
"/.	c #D0BC4A",
"(.	c #C9B33B",
"_.	c #B99F24",
":.	c #AE9219",
"<.	c #270A00",
"[.	c #A98A1E",
"}.	c #AB8E27",
"|.	c #D0BC57",
"1.	c #D3BF5D",
"2.	c #D1BC59",
"3.	c #C7AF47",
"4.	c #C1A63A",
"5.	c #C0A539",
"6.	c #BDA236",
"7.	c #B39528",
"8.	c #A27E17",
"9.	c #96720F",
"0.	c #190400",
"a.	c #9A7819",
"b.	c #030000",
"c.	c #B39630",
"d.	c #C4AC49",
"e.	c #C8B250",
"f.	c #C9B352",
"g.	c #C7B04E",
"h.	c #C1A845",
"i.	c #BA9F39",
"j.	c #B59931",
"k.	c #B4972F",
"l.	c #AE9028",
"m.	c #9F7C19",
"n.	c #906A0F",
"o.	c #0A0100",
"p.	c #8A6F14",
"q.	c #9C801F",
"r.	c #AB922E",
"s.	c #AC9330",
"t.	c #AD9431",
"u.	c #AB912E",
"v.	c #A98F2B",
"w.	c #A88E2A",
"x.	c #9C8020",
"y.	c #86670F",
"z.	c #7C5D0B",
"A.	c #7A5709",
"B.	c #0A0200",
"C.	c #87640F",
"D.	c #8D6A0F",
"E.	c #8F6B10",
"F.	c #957114",
"G.	c #967715",
"H.	c #A1801B",
"I.	c #A4841E",
"J.	c #A78822",
"K.	c #AC8E27",
"L.	c #B1952D",
"M.	c #B3962E",
"N.	c #A58520",
"O.	c #997817",
"P.	c #5C3F06",
"Q.	c #442203",
"R.	c #805605",
"S.	c #7D5305",
"T.	c #764C03",
"U.	c #784C04",
"V.	c #7C5204",
"W.	c #865906",
"X.	c #8A5F07",
"Y.	c #8B6208",
"Z.	c #784B04",
"`.	c #724603",
" +	c #8C721D",
".+	c #4F3000",
"++	c #3D2000",
"@+	c #210F00",
"#+	c #190C00",
"$+	c #170A00",
"%+	c #1C0B00",
"&+	c #3F2400",
"*+	c #372300",
"=+	c #231102",
"-+	c #472E02",
";+	c #482B01",
">+	c #311A00",
",+	c #1E0D00",
"'+	c #140700",
")+	c #070200",
"!+	c #020000",
"                                                ",
"                                                ",
"                                                ",
"      . . . . .                                 ",
"    . + + @ # $ %                               ",
"    . & * = - ; >                               ",
"    . , ' ) ! ~ { . . . . . . . . . . . . . ]   ",
"    . ^ / ( _ : < [ } | 1 2 3 4 5 6 7 8 9 0 .   ",
"    . a b c d < e f g h i j k l m n o p q q r   ",
"    . s t u v < w x y z A B C D D E F G G G H   ",
"    . I J K < L M N O N P Q R R R S T U U <     ",
"    . V W X < Y Z Z Z Z Z `  . . ...+.@.@..     ",
"    . #.$.%.< &.&.&.&.&.*.=.-.-.-.;.>.,.,.'.    ",
"    . ).!.< ~.{.{.{.{.{.].^./././.(._.:.<.      ",
"    . [.}.. |.1.1.1.1.2.3.4.5.5.6.7.8.9.0.      ",
"    . a.b.c.d.e.f.g.h.i.j.k.k.k.l.m.n.o.        ",
"    . p.b.q.r.s.t.s.u.v.w.w.w.w.x.y.z..         ",
"    . A.B.C.D.E.F.G.H.I.J.K.L.M.N.O.D.<         ",
"    P.Q.R.S.T.% U.V.R.R.R.W.X.Y.Z.`.<           ",
"     +.+++@+#+$+%+&+*+=+-+;+>+,+'+)+!+          ",
"                                                ",
"                                                ",
"                                                ",
"                                                "};
