/* XPM */
static char * file_disk_saveas_xpm[] = {
"24 24 238 2",
"  	c None",
". 	c #8BCAEB",
"+ 	c #82C1E1",
"@ 	c #7DB9D8",
"# 	c #54A4D7",
"$ 	c #549DCA",
"% 	c #509DD3",
"& 	c #4497D3",
"* 	c #4B9CD4",
"= 	c #B9FFFF",
"- 	c #51A3D7",
"; 	c #4197D4",
"> 	c #4295D3",
", 	c #499FD4",
"' 	c #489ED4",
") 	c #54A7D8",
"! 	c #98D2D2",
"~ 	c #57A9D9",
"{ 	c #3A8FD0",
"] 	c #52A5D5",
"^ 	c #0A479E",
"/ 	c #B5FAFA",
"( 	c #B3F7F7",
"_ 	c #58A7D5",
": 	c #3387CC",
"< 	c #4BA1D4",
"[ 	c #58ABD9",
"} 	c #97D1D1",
"| 	c #99D4D4",
"1 	c #9CD8D9",
"2 	c #93CCCD",
"3 	c #2D4951",
"4 	c #89C0C2",
"5 	c #97D1D2",
"6 	c #9CD8D8",
"7 	c #9AD6D6",
"8 	c #5AABDA",
"9 	c #2B7FC7",
"0 	c #54A6D5",
"a 	c #AEEFEF",
"b 	c #98D2D3",
"c 	c #2E474A",
"d 	c #203439",
"e 	c #A0D9D7",
"f 	c #AAEAEA",
"g 	c #B2F5F5",
"h 	c #4196D4",
"i 	c #287CC5",
"j 	c #54A8D8",
"k 	c #9AD5D5",
"l 	c #9CCDC7",
"m 	c #84B7B6",
"n 	c #344644",
"o 	c #3F5049",
"p 	c #90C1BC",
"q 	c #97D1D0",
"r 	c #9CD7D7",
"s 	c #56A8D9",
"t 	c #4095D4",
"u 	c #2073C2",
"v 	c #4FA3D5",
"w 	c #ABDFD9",
"x 	c #9ECEC8",
"y 	c #1F2D2C",
"z 	c #DFB850",
"A 	c #CEBF7B",
"B 	c #3D5655",
"C 	c #92C9C9",
"D 	c #A8E8E8",
"E 	c #B6FBFB",
"F 	c #51A3D5",
"G 	c #3F95D4",
"H 	c #1F71C0",
"I 	c #92BEB7",
"J 	c #0B1052",
"K 	c #0C1A1F",
"L 	c #DDB949",
"M 	c #141E20",
"N 	c #424941",
"O 	c #85ADA8",
"P 	c #92CCCD",
"Q 	c #9BD7D7",
"R 	c #53A5D8",
"S 	c #3F94D4",
"T 	c #1D70BF",
"U 	c #51A3D6",
"V 	c #AAE0DF",
"W 	c #154FA3",
"X 	c #0E2D6C",
"Y 	c #172126",
"Z 	c #DA8D3F",
"` 	c #E1A05E",
" .	c #43514F",
"..	c #87C0C7",
"+.	c #9DE3EA",
"@.	c #A7EFF6",
"#.	c #4A9ED6",
"$.	c #3E93D4",
"%.	c #499ED4",
"&.	c #499ED6",
"*.	c #51A4D9",
"=.	c #56A9D9",
"-.	c #5298C4",
";.	c #1B379D",
">.	c #2F5F93",
",.	c #272C33",
"'.	c #E18E3C",
").	c #F29F4C",
"!.	c #262F2F",
"~.	c #5E96AD",
"{.	c #61A9CC",
"].	c #57A8D7",
"^.	c #499DD6",
"/.	c #3E92D4",
"(.	c #4094D2",
"_.	c #306BB0",
":.	c #0D2286",
"<.	c #1F2439",
"[.	c #C27C35",
"}.	c #D98D3F",
"|.	c #DA9958",
"1.	c #31434B",
"2.	c #4084B0",
"3.	c #4194CD",
"4.	c #4196D2",
"5.	c #1D6EBF",
"6.	c #287BCC",
"7.	c #3085CA",
"8.	c #2E83CA",
"9.	c #336EAB",
"0.	c #0F1A86",
"a.	c #0D106A",
"b.	c #2C2823",
"c.	c #D98B3C",
"d.	c #C3803C",
"e.	c #3B3A30",
"f.	c #417296",
"g.	c #3F87BB",
"h.	c #4194CF",
"i.	c #3F94D2",
"j.	c #1664B8",
"k.	c #7DC1E8",
"l.	c #2B82C8",
"m.	c #D4D5D2",
"n.	c #C3C4BF",
"o.	c #ADA49B",
"p.	c #19437F",
"q.	c #091559",
"r.	c #1B1E26",
"s.	c #C98036",
"t.	c #C68038",
"u.	c #D58D44",
"v.	c #444F50",
"w.	c #4D89B1",
"x.	c #4292CB",
"y.	c #3A8FCE",
"z.	c #1562B7",
"A.	c #69B5E3",
"B.	c #3186CB",
"C.	c #D0D5CC",
"D.	c #9BA2A5",
"E.	c #101E60",
"F.	c #081A7D",
"G.	c #0E1921",
"H.	c #C27D36",
"I.	c #BC7B39",
"J.	c #504C3F",
"K.	c #4F84A3",
"L.	c #4391C6",
"M.	c #3489C8",
"N.	c #1561B5",
"O.	c #56A7DB",
"P.	c #338ACA",
"Q.	c #B8B7AE",
"R.	c #1D2F6D",
"S.	c #081B7D",
"T.	c #19202C",
"U.	c #B57332",
"V.	c #D6883A",
"W.	c #353128",
"X.	c #55829B",
"Y.	c #3C85B9",
"Z.	c #3183C4",
"`.	c #135CAC",
" +	c #4B9ED4",
".+	c #2E83CB",
"++	c #D1D7CE",
"@+	c #7A757B",
"#+	c #0F217F",
"$+	c #19203A",
"%+	c #9B6430",
"&+	c #D58738",
"*+	c #C98038",
"=+	c #32434C",
"-+	c #3679AB",
";+	c #2E7CBE",
">+	c #13559F",
",+	c #3E92CF",
"'+	c #348ACC",
")+	c #B8B5B5",
"!+	c #8A8687",
"~+	c #888485",
"{+	c #7F7B7C",
"]+	c #4C4049",
"^+	c #0F217D",
"/+	c #12176E",
"(+	c #3A2E2A",
"_+	c #BE7933",
":+	c #C67E36",
"<+	c #273338",
"[+	c #2D6DA1",
"}+	c #2975B8",
"|+	c #125196",
"1+	c #3487CB",
"2+	c #2B7EC5",
"3+	c #2372C0",
"4+	c #1C66B7",
"5+	c #155CB0",
"6+	c #053996",
"7+	c #053895",
"8+	c #052473",
"9+	c #050756",
"0+	c #05074F",
"a+	c #2F2928",
"b+	c #AE7031",
"c+	c #C17A35",
"d+	c #1C2528",
"e+	c #1D508A",
"f+	c #114D90",
"g+	c #0F4A8E",
"h+	c #1C1C1D",
"i+	c #D49454",
"j+	c #BA7632",
"k+	c #DA8A3B",
"l+	c #0A1821",
"m+	c #03131D",
"n+	c #8D5824",
"o+	c #CE8235",
"                                                ",
"                                                ",
"      . + @ # # # # # # # # # # # # $ % &       ",
"      . * # = = = = = = = = = = = = - ; >       ",
"      , ' ) ! ! ! ! ! ! ! ! ! ! ! ! ~ ; {       ",
"        , ] ^ ^ = ^ / ( / = = = = = _ ; :       ",
"        < [ } | 1 2 3 4 5 6 7 ! ! ! 8 ; 9       ",
"      , < 0 = / a b c d e f g = = = 0 h i       ",
"      . < j ! k l m n d o p q r ! ! s t u       ",
"      . , v = = w x y z A B C D E = F G H       ",
"      . , j ! ! I J K L M N O P Q ! R S T       ",
"      . , U = = V W X Y Z `  ...+.@.#.$.T       ",
"      . %.&.*.=.-.;.>.,.'.).!.~.{.].^./.T       ",
"      . ; ; ; ; (._.:.<.[.}.|.1.2.3.4.; 5.      ",
"      . ; ; 6.7.8.9.0.a.b.c.d.e.f.g.h.i.j.      ",
"      k.; ; l.m.n.o.p.q.r.s.t.u.v.w.x.y.z.      ",
"      A.; ; B.m.C.C.D.E.F.G.H.I.J.K.L.M.N.      ",
"      O.; ; P.m.C.C.Q.R.S.T.U.V.W.X.Y.Z.`.      ",
"       +; ; .+m.C.C.++@+#+$+%+&+*+=+-+;+>+      ",
"      ,+; ; '+)+!+~+{+]+^+/+(+_+:+<+[+}+|+      ",
"      1+2+3+4+5+^ 6+7+8+9+0+a+b+c+d+e+f+g+      ",
"                            h+i+j+k+l+          ",
"                              m+n+o+m+          ",
"                                m+m+            "};
