/* XPM */
static char * file_disk_xpm[] = {
"24 24 112 2",
"  	c None",
". 	c #8BCAEB",
"+ 	c #82C1E1",
"@ 	c #7DB9D8",
"# 	c #54A4D7",
"$ 	c #549DCA",
"% 	c #509DD3",
"& 	c #4497D3",
"* 	c #4B9CD4",
"= 	c #B9FFFF",
"- 	c #51A3D7",
"; 	c #4197D4",
"> 	c #4295D3",
", 	c #499FD4",
"' 	c #489ED4",
") 	c #54A7D8",
"! 	c #98D2D2",
"~ 	c #57A9D9",
"{ 	c #3A8FD0",
"] 	c #52A5D5",
"^ 	c #58A7D5",
"/ 	c #3387CC",
"( 	c #4BA1D4",
"_ 	c #58ABD9",
": 	c #5AABDA",
"< 	c #2B7FC7",
"[ 	c #54A6D5",
"} 	c #4196D4",
"| 	c #287CC5",
"1 	c #54A8D8",
"2 	c #56A8D9",
"3 	c #4095D4",
"4 	c #2073C2",
"5 	c #4FA3D5",
"6 	c #51A3D5",
"7 	c #3F95D4",
"8 	c #1F71C0",
"9 	c #53A5D8",
"0 	c #3F94D4",
"a 	c #1D70BF",
"b 	c #51A3D6",
"c 	c #4A9ED6",
"d 	c #3E93D4",
"e 	c #499ED4",
"f 	c #499ED6",
"g 	c #51A4D9",
"h 	c #56A9D9",
"i 	c #52A5D8",
"j 	c #5AACDA",
"k 	c #5EAFDB",
"l 	c #5EB0DB",
"m 	c #51A5D9",
"n 	c #489DD6",
"o 	c #3E92D4",
"p 	c #1D6EBF",
"q 	c #287BCC",
"r 	c #3085CA",
"s 	c #2E83CA",
"t 	c #2F84CB",
"u 	c #2D80C9",
"v 	c #2C7FC9",
"w 	c #2D80CA",
"x 	c #4291D2",
"y 	c #1664B8",
"z 	c #7DC1E8",
"A 	c #2B82C8",
"B 	c #D4D5D2",
"C 	c #C3C4BF",
"D 	c #B9BBB5",
"E 	c #B3B5AF",
"F 	c #949791",
"G 	c #3D93D4",
"H 	c #6DB6E3",
"I 	c #1562B7",
"J 	c #69B5E3",
"K 	c #3186CB",
"L 	c #D0D5CC",
"M 	c #7ABEE6",
"N 	c #1561B5",
"O 	c #56A7DB",
"P 	c #338ACA",
"Q 	c #67B2E1",
"R 	c #135FB4",
"S 	c #4B9ED4",
"T 	c #2E83CB",
"U 	c #D1D7CE",
"V 	c #71B9E4",
"W 	c #135EB4",
"X 	c #3E92CF",
"Y 	c #348ACC",
"Z 	c #B8B5B5",
"` 	c #8A8687",
" .	c #888485",
"..	c #7F7B7C",
"+.	c #555152",
"@.	c #72BAE4",
"#.	c #3487CB",
"$.	c #2B7EC5",
"%.	c #2372C0",
"&.	c #1C66B7",
"*.	c #155CB0",
"=.	c #0A479E",
"-.	c #053996",
";.	c #053895",
">.	c #073D99",
",.	c #0845A0",
"'.	c #0A4CA4",
").	c #0C50AB",
"!.	c #0E55AD",
"~.	c #0F56AE",
"{.	c #0F58AF",
"].	c #115AB0",
"                                                ",
"                                                ",
"      . + @ # # # # # # # # # # # # $ % &       ",
"      . * # = = = = = = = = = = = = - ; >       ",
"      , ' ) ! ! ! ! ! ! ! ! ! ! ! ! ~ ; {       ",
"        , ] = = = = = = = = = = = = ^ ; /       ",
"        ( _ ! ! ! ! ! ! ! ! ! ! ! ! : ; <       ",
"      , ( [ = = = = = = = = = = = = [ } |       ",
"      . ( 1 ! ! ! ! ! ! ! ! ! ! ! ! 2 3 4       ",
"      . , 5 = = = = = = = = = = = = 6 7 8       ",
"      . , 1 ! ! ! ! ! ! ! ! ! ! ! ! 9 0 a       ",
"      . , b = = = = = = = = = = = = c d a       ",
"      . e f g h h 9 i i h j k l j m n o a       ",
"      . ; ; ; ; ; ; ; ; ; ; ; ; ; ; ; ; p       ",
"      . ; ; q r s t t t u v v v w x ; ; y       ",
"      z ; ; A B C D E F G G G G 7 H ; ; I       ",
"      J ; ; K B L L L F ; ; ; ; ; M ; ; N       ",
"      O ; ; P B L L L F ; ; ; ; ; Q ; ; R       ",
"      S ; ; T B L L U F ; ; ; ; ; V ; ; W       ",
"      X ; ; Y Z `  ...+.; ; ; ; ; @.; ; W       ",
"      #.$.%.&.*.=.-.;.;.>.,.'.).!.~.{.].W       ",
"                                                ",
"                                                ",
"                                                "};
