/* XPM */
static char * file_disk_new_song_xpm[] = {
"24 24 148 2",
"  	c None",
". 	c #686868",
"+ 	c #666666",
"@ 	c #737373",
"# 	c #696969",
"$ 	c #5C5C5C",
"% 	c #5F5F5F",
"& 	c #4A4A4A",
"* 	c #646464",
"= 	c #585858",
"- 	c #616161",
"; 	c #404040",
"> 	c #545454",
", 	c #595959",
"' 	c #484848",
") 	c #747474",
"! 	c #E7E7E7",
"~ 	c #F3F3F3",
"{ 	c #F5F5F5",
"] 	c #F6F6F6",
"^ 	c #EFEFEF",
"/ 	c #D6D6D6",
"( 	c #ABABAB",
"_ 	c #A3A3A3",
": 	c #C9C9C9",
"< 	c #D7D7D7",
"[ 	c #C4C4C4",
"} 	c #F7F7F7",
"| 	c #838383",
"1 	c #FCFCFC",
"2 	c #FEFEFE",
"3 	c #F4F4F4",
"4 	c #DEDEDE",
"5 	c #D5D5D5",
"6 	c #D9D9D9",
"7 	c #D1D1D1",
"8 	c #7A7A7A",
"9 	c #979797",
"0 	c #F9F9F9",
"a 	c #E0E0E0",
"b 	c #D2D2D2",
"c 	c #CBCBCB",
"d 	c #EEEEEE",
"e 	c #929292",
"f 	c #F0F0F0",
"g 	c #DFDFDF",
"h 	c #E2E2E2",
"i 	c #BEBEBE",
"j 	c #AAAAAA",
"k 	c #C7C7C7",
"l 	c #D4D4D4",
"m 	c #FBFBFB",
"n 	c #C8C8C8",
"o 	c #565656",
"p 	c #515151",
"q 	c #5D5D5D",
"r 	c #555555",
"s 	c #F8F8F8",
"t 	c #BFBFBF",
"u 	c #B4B4B4",
"v 	c #878787",
"w 	c #959595",
"x 	c #656565",
"y 	c #ACACAC",
"z 	c #4B4B4B",
"A 	c #797979",
"B 	c #E1E1E1",
"C 	c #C5C5C5",
"D 	c #BCBCBC",
"E 	c #DCDCDC",
"F 	c #E4E4E4",
"G 	c #E3E3E3",
"H 	c #3B3B3B",
"I 	c #818181",
"J 	c #C0C0C0",
"K 	c #DADADA",
"L 	c #CFCFCF",
"M 	c #CDCDCD",
"N 	c #C6C6C6",
"O 	c #AFAFAF",
"P 	c #717171",
"Q 	c #707070",
"R 	c #898989",
"S 	c #242424",
"T 	c #FAFAFA",
"U 	c #6B6B6B",
"V 	c #8F8F8F",
"W 	c #F1F1F1",
"X 	c #6E6E6E",
"Y 	c #E8E8E8",
"Z 	c #E5E5E5",
"` 	c #EAEAEA",
" .	c #6A6A6A",
"..	c #A9A9A9",
"+.	c #EBEBEB",
"@.	c #D0D0D0",
"#.	c #C3C3C3",
"$.	c #767676",
"%.	c #D3D3D3",
"&.	c #DDDDDD",
"*.	c #F2F2F2",
"=.	c #ECECEC",
"-.	c #FDFDFD",
";.	c #E9E9E9",
">.	c #E6E6E6",
",.	c #A4A4A4",
"'.	c #3D3D3D",
").	c #323232",
"!.	c #919191",
"~.	c #303030",
"{.	c #9C9C9C",
"].	c #424242",
"^.	c #9D9D9D",
"/.	c #EDEDED",
"(.	c #343434",
"_.	c #353535",
":.	c #4E4E4E",
"<.	c #444444",
"[.	c #DBDBDB",
"}.	c #212121",
"|.	c #333333",
"1.	c #393939",
"2.	c #B2B2B2",
"3.	c #888888",
"4.	c #191919",
"5.	c #6F6F6F",
"6.	c #B8B8B8",
"7.	c #A5A5A5",
"8.	c #969696",
"9.	c #B7B7B7",
"0.	c #0F0F0F",
"a.	c #CACACA",
"b.	c #020202",
"c.	c #373737",
"d.	c #2D2D2D",
"e.	c #0E0E0E",
"f.	c #121212",
"g.	c #151515",
"h.	c #171717",
"i.	c #1F1F1F",
"j.	c #2F2F2F",
"k.	c #292929",
"l.	c #111111",
"m.	c #131313",
"n.	c #101010",
"o.	c #090909",
"p.	c #030303",
"q.	c #040404",
"                                                ",
"      . + @ # $ % & * = - ; > , '               ",
"      ) ! ~ { ] ^ / ( _ : < [ , } '             ",
"      | } 1 2 2 1 3 4 5 6 7 5 # 3 } 8           ",
"      9 0 2 2 2 2 } a 7 b 7 c # d } } '         ",
"      e { 2 2 2 1 f / g ] ] h # i j k } '       ",
"      | l m 1 m { g n { 2 2 } o p q r , ,       ",
"      ) 7 s 3 f 4 t i 3 2 2 } u v w x y z       ",
"      A 6 ! B 4 : C D E } s F b G c u E H       ",
"      I J K L M N O P Q R S S S S d 3 T U       ",
"      V t B M L C S S S S S S S S ! W 3 X       ",
"      w K Y 6 b M S S S S K Z G S ` T ^  .      ",
"      ..3 T +.5 @.S c #.5 g S S S ] 1 m $.      ",
"      ( 2 2 m 5 %.S ! 1 2 s g ` S { } 0 X       ",
"      ..2 2 m 4 @.S 3 2 2 2 &.+.S ^ { } %       ",
"      ..m T *.G < S =.2 2 -.;.>.S ~ ] W ,       ",
"      ,.{ W =.g b S >.;.~ &.'.).S #.W s z       ",
"      !.] Y [ ~.).S {.>.G ].S S ].g 3 u H       ",
"      ^./.F (.S S _.< ! h :.S S <.[.^ w }.      ",
"      A g 4 |.S S (.%.3 3 /.1.; 2.( ` 3.4.      ",
"      5.4 < 6.~.).7.8.} } s Z ` f >.=.9.0.      ",
"      % < @.L a.%.%.h W { W ` G F [ e e b.      ",
"      X c.d.e.f.g.0.h.i.j.k.l.m.m.n.o.p.q.      ",
"                                                "};
