/* XPM */
static char * file_disk_close_xpm[] = {
"24 24 177 2",
"  	c None",
". 	c #DA7283",
"+ 	c #C04658",
"@ 	c #E18694",
"# 	c #D56170",
"$ 	c #A01721",
"% 	c #BB4354",
"& 	c #AC3141",
"* 	c #D9717F",
"= 	c #B62F3C",
"- 	c #98131C",
"; 	c #97111A",
"> 	c #BE4657",
", 	c #BC4355",
"' 	c #9A1F2D",
") 	c #8E1622",
"! 	c #DB7786",
"~ 	c #CA5361",
"{ 	c #B02735",
"] 	c #B72C3A",
"^ 	c #AB212C",
"/ 	c #951019",
"( 	c #8B0D16",
"_ 	c #AB303F",
": 	c #991E2C",
"< 	c #8B1420",
"[ 	c #790C14",
"} 	c #750A13",
"| 	c #AA202C",
"1 	c #A31924",
"2 	c #AB212E",
"3 	c #B42B39",
"4 	c #A8222E",
"5 	c #8D0E17",
"6 	c #860B13",
"7 	c #BD4556",
"8 	c #BA4354",
"9 	c #931A28",
"0 	c #780C14",
"a 	c #740A13",
"b 	c #A21923",
"c 	c #9E1720",
"d 	c #A11B25",
"e 	c #A9222E",
"f 	c #9F1A26",
"g 	c #810B12",
"h 	c #7C090F",
"i 	c #B93F4F",
"j 	c #AE3443",
"k 	c #981D2B",
"l 	c #891420",
"m 	c #770D15",
"n 	c #96131D",
"o 	c #95131D",
"p 	c #9F1B28",
"q 	c #A11F2A",
"r 	c #991823",
"s 	c #7F0B13",
"t 	c #921622",
"u 	c #A92C39",
"v 	c #B13545",
"w 	c #B13748",
"x 	c #8B1521",
"y 	c #7A0E17",
"z 	c #720A13",
"A 	c #91111B",
"B 	c #8F121C",
"C 	c #A11E2B",
"D 	c #9D1E2A",
"E 	c #9A1B28",
"F 	c #921824",
"G 	c #971B28",
"H 	c #911926",
"I 	c #941A28",
"J 	c #780C16",
"K 	c #880E17",
"L 	c #951723",
"M 	c #991C28",
"N 	c #A12231",
"O 	c #981C29",
"P 	c #8F1723",
"Q 	c #8E1623",
"R 	c #8B1522",
"S 	c #7B0E18",
"T 	c #710912",
"U 	c #A22432",
"V 	c #A72A3A",
"W 	c #9D202E",
"X 	c #971C2A",
"Y 	c #7E0E1A",
"Z 	c #64050D",
"` 	c #9D1F2F",
" .	c #B13749",
"..	c #951C2A",
"+.	c #8F1826",
"@.	c #790E18",
"#.	c #62070C",
"$.	c #A62838",
"%.	c #A62839",
"&.	c #AC3343",
"*.	c #911A27",
"=.	c #8A1724",
"-.	c #7D101C",
";.	c #740C17",
">.	c #700B15",
",.	c #B4394A",
"'.	c #AE3243",
").	c #AB3243",
"!.	c #99212F",
"~.	c #8D1825",
"{.	c #881522",
"].	c #831420",
"^.	c #7C101D",
"/.	c #710C16",
"(.	c #6B0A13",
"_.	c #670912",
":.	c #B94153",
"<.	c #B63F50",
"[.	c #AE3446",
"}.	c #941B29",
"|.	c #8C1623",
"1.	c #81111C",
"2.	c #7C0F19",
"3.	c #680810",
"4.	c #690911",
"5.	c #79101C",
"6.	c #720D18",
"7.	c #630811",
"8.	c #5E070F",
"9.	c #AB3143",
"0.	c #8C1724",
"a.	c #7F0F1A",
"b.	c #7A0E18",
"c.	c #60070D",
"d.	c #5C050C",
"e.	c #5F080E",
"f.	c #700D18",
"g.	c #6C0B16",
"h.	c #5D0710",
"i.	c #54050C",
"j.	c #B94051",
"k.	c #B53D4F",
"l.	c #A52B3B",
"m.	c #8B1623",
"n.	c #57050B",
"o.	c #530409",
"p.	c #56050D",
"q.	c #670A15",
"r.	c #620913",
"s.	c #50040B",
"t.	c #4C040A",
"u.	c #B53C4E",
"v.	c #A32B3B",
"w.	c #881421",
"x.	c #7D0F1A",
"y.	c #780E18",
"z.	c #4E0409",
"A.	c #490308",
"B.	c #4B040A",
"C.	c #5D0811",
"D.	c #55070E",
"E.	c #470309",
"F.	c #420309",
"G.	c #9B2231",
"H.	c #901926",
"I.	c #871320",
"J.	c #450207",
"K.	c #400207",
"L.	c #470409",
"M.	c #53060E",
"N.	c #44040A",
"O.	c #84131E",
"P.	c #3B0105",
"Q.	c #380105",
"R.	c #4A040C",
"S.	c #770D17",
"T.	c #360105",
"                                                ",
"                                                ",
"          .                         +           ",
"        @ # $                     + % &         ",
"      @ * = - ;                 > , & ' )       ",
"    ! ~ { ] ^ / (             > , _ : < [ }     ",
"      | 1 2 3 4 5 6         7 8 _ : 9 0 a       ",
"        b c d e f g h     i 8 j k l m a         ",
"          n o p q r s t u v w k x y z           ",
"            A B C D E F G H I l J z             ",
"              K L M N O P Q R S T               ",
"                U V W : X 9 Y Z                 ",
"                `  .: ..9 +.@.#.                ",
"              $.%.&...*.+.=.-.;.>.              ",
"            ,.'.).!.*.~.{.].^./.(._.            ",
"          :.<.[.}.|.1.2.3.4.(.5.6.7.8.          ",
"        :.<.9.}.0.a.b.    c.d.e.f.g.h.i.        ",
"      j.k.l.9 m.a.b.        n.o.p.q.r.s.t.      ",
"    j.u.v.9 w.x.y.            z.A.B.C.D.E.F.    ",
"      G.H.I.x.y.                J.K.L.M.N.      ",
"        O.2.y.                    P.Q.R.        ",
"          S.                        T.          ",
"                                                ",
"                                                "};
