/* XPM */
static char * file_disk_new_base_xpm[] = {
"24 24 120 2",
"  	c None",
". 	c #686868",
"+ 	c #666666",
"@ 	c #737373",
"# 	c #696969",
"$ 	c #5C5C5C",
"% 	c #5F5F5F",
"& 	c #4A4A4A",
"* 	c #646464",
"= 	c #585858",
"- 	c #616161",
"; 	c #404040",
"> 	c #545454",
", 	c #595959",
"' 	c #484848",
") 	c #747474",
"! 	c #DADADA",
"~ 	c #E5E5E5",
"{ 	c #E3E3E3",
"] 	c #E4E4E4",
"^ 	c #E1E1E1",
"/ 	c #D9D9D9",
"( 	c #D2D2D2",
"_ 	c #D5D5D5",
": 	c #DBDBDB",
"< 	c #D7D7D7",
"[ 	c #C4C4C4",
"} 	c #F7F7F7",
"| 	c #7F7F7F",
"1 	c #E8E8E8",
"2 	c #EAEAEA",
"3 	c #F0F0F0",
"4 	c #DFDFDF",
"5 	c #D6D6D6",
"6 	c #D0D0D0",
"7 	c #D1D1D1",
"8 	c #F5F5F5",
"9 	c #919191",
"0 	c #E6E6E6",
"a 	c #EFEFEF",
"b 	c #DDDDDD",
"c 	c #CDCDCD",
"d 	c #CBCBCB",
"e 	c #F3F3F3",
"f 	c #8F8F8F",
"g 	c #EDEDED",
"h 	c #DEDEDE",
"i 	c #C9C9C9",
"j 	c #CACACA",
"k 	c #C8C8C8",
"l 	c #C6C6C6",
"m 	c #EBEBEB",
"n 	c #838383",
"o 	c #C2C2C2",
"p 	c #C7C7C7",
"q 	c #565656",
"r 	c #515151",
"s 	c #5D5D5D",
"t 	c #555555",
"u 	c #E7E7E7",
"v 	c #BFBFBF",
"w 	c #C3C3C3",
"x 	c #B4B4B4",
"y 	c #878787",
"z 	c #959595",
"A 	c #656565",
"B 	c #ACACAC",
"C 	c #4B4B4B",
"D 	c #797979",
"E 	c #C5C5C5",
"F 	c #BBBBBB",
"G 	c #BEBEBE",
"H 	c #CECECE",
"I 	c #DCDCDC",
"J 	c #3B3B3B",
"K 	c #848484",
"L 	c #D3D3D3",
"M 	c #CCCCCC",
"N 	c #BDBDBD",
"O 	c #BCBCBC",
"P 	c #E9E9E9",
"Q 	c #4E4E4E",
"R 	c #989898",
"S 	c #CFCFCF",
"T 	c #B6B6B6",
"U 	c #D8D8D8",
"V 	c #EEEEEE",
"W 	c #BABABA",
"X 	c #E0E0E0",
"Y 	c #454545",
"Z 	c #A4A4A4",
"` 	c #F6F6F6",
" .	c #505050",
"..	c #9F9F9F",
"+.	c #9D9D9D",
"@.	c #D4D4D4",
"#.	c #424242",
"$.	c #E2E2E2",
"%.	c #464646",
"&.	c #F1F1F1",
"*.	c #ECECEC",
"=.	c #F4F4F4",
"-.	c #4F4F4F",
";.	c #F2F2F2",
">.	c #373737",
",.	c #6F6F6F",
"'.	c #161616",
").	c #020202",
"!.	c #6E6E6E",
"~.	c #2D2D2D",
"{.	c #0E0E0E",
"].	c #121212",
"^.	c #151515",
"/.	c #0F0F0F",
"(.	c #171717",
"_.	c #101010",
":.	c #131313",
"<.	c #090909",
"[.	c #030303",
"}.	c #040404",
"                                                ",
"      . + @ # $ % & * = - ; > , '               ",
"      ) ! ~ { ] ^ / ( _ : < [ , } '             ",
"      | 1 2 3 4 4 5 6 < / 7 _ # 8 } '           ",
"      9 0 8 a b b c d 5 _ ( d # e } } '         ",
"      f g 0 3 h / 7 i j k l j # m } } } '       ",
"      n ^ ^ / / _ ( k o p p k q r s t , ,       ",
"      ) u / j ( 7 l l v w j k x y z A B C       ",
"      D ^ < [ 6 i E F G l H c ( { d x I J       ",
"      K u L M c l G N O M j E _ L P a } Q       ",
"      R a 4 [ S E l T G H S ! ] U I 2 V '       ",
"      z a 0 < ( c k W M 6 ! ~ { { X } 1 Y       ",
"      Z P V _ _ 6 c d w _ 4 ] 2 g a } `  .      ",
"      ..3 2 _ _ L < S 7 L ! I 2 a a g 3 Q       ",
"      +.} ] U h 6 @.@.d ! ^ ( m P ~ m g #.      ",
"      Z ` g ] { < I S 6 ! I $.0 m V g u %.      ",
"      Z 8 &.*.4 ( 5 $./ 4 ^ 3 2 m 3 a } %.      ",
"      9 ` 1 4 I L ] u 0 { 1 0 m P a =.8 -.      ",
"      +.g ] h < < ^ 1 ] b V V m ;.2 ;.8 #.      ",
"      D 4 h ( ! h / { 2 4 I 1 1 g a { 3 >.      ",
"      ,.h < 7 I ! : b 0 / ~ { 2 3 u m V '.      ",
"      % < 6 S j L L $.^ ! I 1 { ] { g &.).      ",
"      !.>.~.{.].^./.(._./.:./.:.:._.<.[.}.      ",
"                                                "};
