/* XPM */
static char * icon_audio_config_xpm[] = {
"24 24 192 2",
"  	c None",
". 	c #32306F",
"+ 	c #201D62",
"@ 	c #575757",
"# 	c #595696",
"$ 	c #585299",
"% 	c #25236D",
"& 	c #F4F4F4",
"* 	c #3B3B3B",
"= 	c #EAEAEA",
"- 	c #2E2E2E",
"; 	c #423F80",
"> 	c #8885BA",
", 	c #9491C2",
"' 	c #322D69",
") 	c #FBFBFB",
"! 	c #A4A4A4",
"~ 	c #F8F8F8",
"{ 	c #636363",
"] 	c #595693",
"^ 	c #BCBADC",
"/ 	c #B4B1DA",
"( 	c #2B285E",
"_ 	c #E6E6E6",
": 	c #A3A3A3",
"< 	c #EDEDED",
"[ 	c #5C5C5C",
"} 	c #434080",
"| 	c #6961A2",
"1 	c #C6C4E1",
"2 	c #DCDAED",
"3 	c #A29DCB",
"4 	c #352F6A",
"5 	c #E9E9E9",
"6 	c #5B5B5B",
"7 	c #4C4887",
"8 	c #6965A5",
"9 	c #AFABD4",
"0 	c #E3E0F1",
"a 	c #CCC8E3",
"b 	c #847DB4",
"c 	c #3B3671",
"d 	c #B8B8B8",
"e 	c #767676",
"f 	c #D3D3D3",
"g 	c #CFCFCF",
"h 	c #B1B1B1",
"i 	c #A6A6A6",
"j 	c #3C3877",
"k 	c #7069A9",
"l 	c #C0BEDF",
"m 	c #D7D5EA",
"n 	c #C1BEDB",
"o 	c #AAA5CF",
"p 	c #867FB8",
"q 	c #47427E",
"r 	c #C2C2C2",
"s 	c #D5D5D5",
"t 	c #E2E2E2",
"u 	c #C8C8C8",
"v 	c #949494",
"w 	c #656565",
"x 	c #302B75",
"y 	c #403888",
"z 	c #332C71",
"A 	c #3F3980",
"B 	c #A4A3D2",
"C 	c #CFCCE4",
"D 	c #D4D1E8",
"E 	c #B6B1D7",
"F 	c #A6A2CE",
"G 	c #A49FCE",
"H 	c #8882B4",
"I 	c #3D3876",
"J 	c #ABABAB",
"K 	c #8E8E8E",
"L 	c #7E7E7E",
"M 	c #3E3E3E",
"N 	c #6C68A3",
"O 	c #B4B0D8",
"P 	c #A098CB",
"Q 	c #A29FCE",
"R 	c #D3CFEA",
"S 	c #CBC8E4",
"T 	c #A9A5CD",
"U 	c #A39FCD",
"V 	c #A19DCB",
"W 	c #9C98C8",
"X 	c #7974AD",
"Y 	c #37326E",
"Z 	c #C5C5C5",
"` 	c #A5A5A5",
" .	c #292929",
"..	c #595494",
"+.	c #8E89C1",
"@.	c #6B67A7",
"#.	c #504C93",
"$.	c #9692C6",
"%.	c #A09CCB",
"&.	c #9792C7",
"*.	c #928DC3",
"=.	c #746FAA",
"-.	c #312C6A",
";.	c #9F9F9F",
">.	c #2B2B2B",
",.	c #423C7A",
"'.	c #6F6AA9",
").	c #4F4A95",
"!.	c #2F2B6B",
"~.	c #726CA9",
"{.	c #7772AF",
"].	c #847FB7",
"^.	c #8782BC",
"/.	c #847FB6",
"(.	c #726DAC",
"_.	c #4B4585",
":.	c #1B1651",
"<.	c #A1A1A1",
"[.	c #464646",
"}.	c #393939",
"|.	c #2D2969",
"1.	c #453F84",
"2.	c #403A7D",
"3.	c #141146",
"4.	c #4C4688",
"5.	c #5C5697",
"6.	c #5D5798",
"7.	c #5E589B",
"8.	c #635D9F",
"9.	c #605A9C",
"0.	c #3F397E",
"a.	c #1D1853",
"b.	c #CDCDCD",
"c.	c #B6B6B6",
"d.	c #565656",
"e.	c #27225F",
"f.	c #1B1750",
"g.	c #2A2665",
"h.	c #17144A",
"i.	c #3A3579",
"j.	c #443E7F",
"k.	c #484284",
"l.	c #4E488A",
"m.	c #4F498B",
"n.	c #4B4589",
"o.	c #393477",
"p.	c #19164D",
"q.	c #D7D7D7",
"r.	c #ADADAD",
"s.	c #464182",
"t.	c #3B357B",
"u.	c #453F81",
"v.	c #4B458A",
"w.	c #4C468A",
"x.	c #2B2665",
"y.	c #151148",
"z.	c #433D7E",
"A.	c #443E83",
"B.	c #433D7F",
"C.	c #282360",
"D.	c #120F41",
"E.	c #878787",
"F.	c #686868",
"G.	c #484283",
"H.	c #433D81",
"I.	c #3A3477",
"J.	c #413B7E",
"K.	c #231D5F",
"L.	c #0F0C3C",
"M.	c #A0A0A0",
"N.	c #ACACAC",
"O.	c #494384",
"P.	c #3C3678",
"Q.	c #24205E",
"R.	c #0F0D3E",
"S.	c #6A6A6A",
"T.	c #313131",
"U.	c #403A7E",
"V.	c #332D6E",
"W.	c #201D59",
"X.	c #0F0D3C",
"Y.	c #8F8F8F",
"Z.	c #898989",
"`.	c #333333",
" +	c #352F72",
".+	c #1A1651",
"++	c #0F0C3F",
"@+	c #5F5F5F",
"#+	c #454545",
"$+	c #494949",
"%+	c #2C2668",
"&+	c #1F1C58",
"                                                ",
"                                                ",
"                      . +       @         @     ",
"                    # $ %     @ & *     @ = -   ",
"                  ; > , '   @ ) ! *     @ ~ { - ",
"                ; ] ^ / (   @ _ : *     @ < [ - ",
"              } | 1 2 3 4   @ < : * @ @ @ 5 6 - ",
"            7 8 9 0 a b c   @ = d e f g h i 6 * ",
"          j k l m n o p q     @ r s t u v w *   ",
"  x y z A B C D E F G H I       @ J K L M *     ",
"  N O P Q R S T U V W X Y       @ Z ` @  .*     ",
"  ..+.@.#.$.U %.W &.*.=.-.      @ Z ;.* >.*     ",
"  ,.'.).!.~.{.].^./.(._.:.      @ Z <.[.}.*     ",
"  |.1.2.3.4.5.6.7.8.9.0.a.      @ b.c.w d.*     ",
"  e.f.g.h.i.j.k.l.m.n.o.p.      @ q.r.w @ *     ",
"          s.t.u.u.v.w.x.y.      @ q.r.w @ *     ",
"            z.A.2.2.B.C.D.      @ q.E.F.[ *     ",
"              G.H.I.J.K.L.      @ M.    N.*     ",
"                O.I.P.Q.R.      @ S.    N.T.    ",
"                  U.V.W.X.      @ N.Y.Z.}.`.    ",
"                     +.+++        @ @+#+$+      ",
"                      %+&+          @ $+        ",
"                                                ",
"                                                "};
