/* XPM */
static char * icon_vumeter_xpm[] = {
"24 24 15 1",
" 	c None",
".	c #FF0311",
"+	c #000000",
"@	c #E93228",
"#	c #D3623E",
"$	c #BF8D52",
"%	c #ADB464",
"&	c #9BDC77",
"*	c #7FEA66",
"=	c #5BE43C",
"-	c #42E01E",
";	c #29DC00",
">	c #1D9F00",
",	c #105A00",
"'	c #082D00",
"            .....       ",
"            +++++       ",
"            @@@@@       ",
"            +++++       ",
"#####       #####       ",
"+++++       +++++       ",
"$$$$$       $$$$$       ",
"+++++       +++++       ",
"%%%%%       %%%%%       ",
"+++++       +++++       ",
"&&&&&       &&&&&       ",
"+++++       +++++       ",
"***** ***** *****       ",
"+++++ +++++ +++++       ",
"===== ===== =====       ",
"+++++ +++++ +++++       ",
"----- ----- ----- ----- ",
"+++++ +++++ +++++ +++++ ",
";;;;; ;;;;; ;;;;; ;;;;; ",
"+++++ +++++ +++++ +++++ ",
">>>>> >>>>> >>>>> >>>>> ",
"+++++ +++++ +++++ +++++ ",
",,,,, ,,,,, ,,,,, ,,,,, ",
"''''' ''''' ''''' ''''' "};
