/* XPM */
static char * icon_filter_lowpass2_xpm[] = {
"20 20 76 1",
" 	c None",
".	c #FF0606",
"+	c #100F10",
"@	c #7E7E7E",
"#	c #7F7F7E",
"$	c #7F7E7E",
"%	c #767676",
"&	c #777676",
"*	c #6E6F6F",
"=	c #6E6F6E",
"-	c #6E6E6E",
";	c #6F6E6E",
">	c #6F6F6E",
",	c #676766",
"'	c #666766",
")	c #666767",
"!	c #676667",
"~	c #666667",
"{	c #676666",
"]	c #5F5F5F",
"^	c #5F5E5F",
"/	c #5E5F5E",
"(	c #5F5E5E",
"_	c #5E5F5F",
":	c #5E5E5F",
"<	c #575757",
"[	c #575756",
"}	c #565757",
"|	c #565657",
"1	c #575656",
"2	c #575657",
"3	c #4F4F4F",
"4	c #4E4F4F",
"5	c #4F4F4E",
"6	c #4E4E4F",
"7	c #474747",
"8	c #3F3F3F",
"9	c #3F3F40",
"0	c #3F403F",
"a	c #40403F",
"b	c #403F3F",
"c	c #383737",
"d	c #383738",
"e	c #373737",
"f	c #373837",
"g	c #2F2F2F",
"h	c #2F3030",
"i	c #302F2F",
"j	c #303030",
"k	c #30302F",
"l	c #282828",
"m	c #282827",
"n	c #272727",
"o	c #272827",
"p	c #282727",
"q	c #272828",
"r	c #272728",
"s	c #282728",
"t	c #201F20",
"u	c #202020",
"v	c #1F201F",
"w	c #1F2020",
"x	c #201F1F",
"y	c #20201F",
"z	c #1F1F1F",
"A	c #181717",
"B	c #171817",
"C	c #171818",
"D	c #171717",
"E	c #181818",
"F	c #171718",
"G	c #181718",
"H	c #10100F",
"I	c #101010",
"J	c #0F1010",
"K	c #0F100F",
"         ...        ",
"          .         ",
"          .         ",
"          .         ",
"       +++.         ",
"      +@#$.+        ",
"+++++++%%&.%+       ",
"+*=-=*-;>*.*>+      ",
"+,,')!!'~,.!,{+     ",
"+]^/^](]^/.^]_:+    ",
"+<[<<<[<}|.<1}}2+   ",
"+333334533.46333+   ",
"+777777777.777777+  ",
"+89808888a.9b8888+  ",
"+cdcefceee.eeccef+  ",
"+ghijikigh.gghgigi+ ",
"+lmnooompm.qrsmools ",
"+ttuvwuuxw.wttuyzzw ",
"+ABCDEBFCE.GABBCDDGE",
"+HIII++IJ...JI+IKJII"};
