/* XPM */
static char * icon_envelope_xpm[] = {
"24 24 10 1",
" 	c None",
".	c #4D4D4D",
"+	c #A0A0A0",
"@	c #291FEB",
"#	c #140F72",
"$	c #2A20EC",
"%	c #FEFEFE",
"&	c #FEFEFF",
"*	c #AEAAFF",
"=	c #FDFDFE",
"     .+           .+    ",
"     .+           .+    ",
"     .+           .+    ",
"    @##$          .+    ",
"    #%&#$         .+    ",
"    #&&#$         .+    ",
"    $##**$        .+    ",
"   $**$$*$        .+    ",
"   $*$+$*$        .+    ",
"   $*$+ $*$$$$$$$$##    ",
"  $*$.+ $********#&&$   ",
"  $*$.+  $$$$$$$$$%&#$  ",
" $**$.+           ##*$  ",
" $*$ .+           .$**$ ",
"$**$ .+           .+$*$ ",
"##$  .+           .+ $*$",
"&=#  .+           .+ $##",
"&=#  .+           .+ #%&",
"##   .+           .+ #%&",
"     .+           .+  ##",
"     .+           .+    ",
"     .+           .+    ",
"     .+           .+    ",
"     .+           .+    "};
