/* XPM */
static char * icon_variables_xpm[] = {
"24 24 21 1",
" 	c None",
".	c #3C96EC",
"+	c #0642D2",
"@	c #4D4D4D",
"#	c #3288E9",
"$	c #F0FAFE",
"%	c #4EA9F1",
"&	c #0C5ADD",
"*	c #C4C0C0",
"=	c #C5C1C1",
"-	c #0D50D8",
";	c #4BA2EE",
">	c #3895EC",
",	c #053FD1",
"'	c #B4AEAE",
")	c #9F9F9F",
"!	c #0D5BDD",
"~	c #0C5ADC",
"{	c #032DC7",
"]	c #383838",
"^	c #0224BF",
"            .+          ",
"  @  @  @  #$%&  @  @   ",
" *=========-;>,'=====)  ",
" )@@@@@@@@@+!~{]@@@@@@  ",
"  *  *  *  {~^{  *  *   ",
"            ^^          ",
"     .+                 ",
"  @ #$%&@  @  @  @  @   ",
" *==-;>,=============)  ",
" )@@+!~{@@@@@@@@@@@@@@  ",
"  = {~^{*  *  *  *  *   ",
"     ^^                 ",
"                 .+     ",
"  @  @  @  @  @ #$%&@   ",
" *==============-;>,=)  ",
" )@@@@@@@@@@@@@@+!~{@@  ",
"  *  *  *  *  * {~^{*   ",
"                 ^^     ",
"         .+             ",
"  @  @  #$%&  @  @  @   ",
" *======-;>,=========)  ",
" )@@@@@@+!~{@@@@@@@@@@  ",
"  =  =  {~^{  =  =  =   ",
"         ^^             "};
