/* XPM */
static char * icon_wave_chirp_xpm[] = {
"20 20 3 1",
" 	c None",
".	c #00CCFF",
"+	c #000000",
"                    ",
"                    ",
"                    ",
"     .              ",
"    .+.             ",
"   .+ +.            ",
"   .+  .+           ",
"   .+  .+   .       ",
"   .+  .+  .+.      ",
"....+  .+  . +.   ..",
"++++   .+  .+ .+ .++",
"       .+  .+ .+.+  ",
"       .+  .+ +.+   ",
"       .+  .+  +    ",
"       +. .+        ",
"        +.+         ",
"         +          ",
"                    ",
"                    ",
"                    "};
