/* XPM */
static char * icon_colors_xpm[] = {
"24 24 474 2",
"  	c None",
". 	c #057F7F",
"+ 	c #05DC7F",
"@ 	c #05FE7F",
"# 	c #05DA7F",
"$ 	c #058A7F",
"% 	c #05387F",
"& 	c #05077F",
"* 	c #05047F",
"= 	c #052A7F",
"- 	c #05677F",
"; 	c #05A67F",
"> 	c #000000",
", 	c #05F47F",
"' 	c #05DD7F",
") 	c #05C07F",
"! 	c #05A27F",
"~ 	c #05857F",
"{ 	c #056D7F",
"] 	c #055A7F",
"^ 	c #054B7F",
"/ 	c #05417F",
"( 	c #053C7F",
"_ 	c #057FDA",
": 	c #057FDB",
"< 	c #06FEDD",
"[ 	c #07D680",
"} 	c #088181",
"| 	c #082F83",
"1 	c #090385",
"2 	c #0A0986",
"3 	c #0B3888",
"4 	c #0C7B8A",
"5 	c #0DBB8B",
"6 	c #10FA90",
"7 	c #11E492",
"8 	c #12C493",
"9 	c #13A095",
"0 	c #157C97",
"a 	c #165E98",
"b 	c #17459A",
"c 	c #18329C",
"d 	c #1A259D",
"e 	c #1B1C9F",
"f 	c #1CDAA0",
"g 	c #057FFE",
"h 	c #0681FE",
"i 	c #08FEFE",
"j 	c #09D1FE",
"k 	c #0B78FE",
"l 	c #0D2780",
"m 	c #0F0183",
"n 	c #111087",
"o 	c #13488B",
"p 	c #168F8E",
"q 	c #18CD92",
"r 	c #21EF9D",
"s 	c #24CFA1",
"t 	c #27A6A4",
"u 	c #2A7CA8",
"v 	c #2E58AB",
"w 	c #313AAF",
"x 	c #3523B2",
"y 	c #3814B5",
"z 	c #3C0BB9",
"A 	c #40FEBC",
"B 	c #44F6BF",
"C 	c #057FE7",
"D 	c #0783E3",
"E 	c #0983E0",
"F 	c #0CCBDB",
"G 	c #0F6FD7",
"H 	c #121FD3",
"I 	c #1600CE",
"J 	c #1A1882",
"K 	c #1E5888",
"L 	c #22A28E",
"M 	c #27DE94",
"N 	c #36DFA6",
"O 	c #3CB4AB",
"P 	c #4285B1",
"Q 	c #485AB7",
"R 	c #4E36BC",
"S 	c #541CC1",
"T 	c #5A0CC6",
"U 	c #6103CB",
"V 	c #67E7D0",
"W 	c #6EF7D5",
"X 	c #74FED9",
"Y 	c #057FAC",
"Z 	c #0886A4",
"` 	c #0B889B",
" .	c #0F8693",
"..	c #137F8A",
"+.	c #181881",
"@.	c #1E0078",
"#.	c #24226F",
"$.	c #2A697F",
"%.	c #31B588",
"&.	c #38EB91",
"*.	c #50C9AA",
"=.	c #5897B3",
"-.	c #6164BB",
";.	c #693AC2",
">.	c #721BCA",
",.	c #7B08D1",
"'.	c #8400D7",
").	c #8CACDD",
"!.	c #95C6E3",
"~.	c #9EDFE8",
"{.	c #A6F3ED",
"].	c #057F6B",
"^.	c #08885F",
"/.	c #0D8C54",
"(.	c #128C49",
"_.	c #18883E",
":.	c #1F1234",
"<.	c #27022B",
"[.	c #2F2E22",
"}.	c #387B1A",
"|.	c #42C613",
"1.	c #4CF588",
"2.	c #6BB0AB",
"3.	c #7678B6",
"4.	c #8145C1",
"5.	c #8C1FCB",
"6.	c #9708D4",
"7.	c #A200DD",
"8.	c #AD6BE4",
"9.	c #B781EB",
"0.	c #C19BF1",
"a.	c #CAB9F6",
"b.	c #D2D6FA",
"c.	c #057F36",
"d.	c #098A2A",
"e.	c #0F911F",
"f.	c #169316",
"g.	c #1E910E",
"h.	c #278A07",
"i.	c #310503",
"j.	c #3C3A00",
"k.	c #488C00",
"l.	c #54D601",
"m.	c #61FC04",
"n.	c #8895A8",
"o.	c #955AB7",
"p.	c #A22AC4",
"q.	c #AF0CD1",
"r.	c #BB00DC",
"s.	c #C636E6",
"t.	c #D143EE",
"u.	c #DA56F5",
"v.	c #E36DFA",
"w.	c #EB8AFD",
"x.	c #F1AAFE",
"y.	c #057F14",
"z.	c #0A8C0B",
"A.	c #119504",
"B.	c #1A9900",
"C.	c #249900",
"D.	c #2F9502",
"E.	c #3C8C06",
"F.	c #4A480E",
"G.	c #589E18",
"H.	c #67E325",
"I.	c #76FE34",
"J.	c #A478A1",
"K.	c #B33DB4",
"L.	c #C114C5",
"M.	c #CD01D4",
"N.	c #D903E1",
"O.	c #E319ED",
"P.	c #EC22F5",
"Q.	c #F32FFB",
"R.	c #F941FE",
"S.	c #FC5AFE",
"T.	c #FE78FB",
"U.	c #057F04",
"V.	c #0B8E00",
"W.	c #139900",
"X.	c #1EA005",
"Y.	c #2AA20D",
"Z.	c #38A01A",
"`.	c #48992A",
" +	c #588E3D",
".+	c #697F52",
"++	c #7BEE69",
"@+	c #8CFD81",
"#+	c #BF5C96",
"$+	c #CD25AD",
"%+	c #DA06C2",
"&+	c #E604D5",
"*+	c #EF05E5",
"=+	c #F707F1",
"-+	c #FC0BFA",
";+	c #FE12FE",
">+	c #FE1EFE",
",+	c #FC2FF9",
"'+	c #F747F1",
")+	c #057F00",
"!+	c #0C9102",
"~+	c #169E0A",
"{+	c #22A619",
"]+	c #31AA2C",
"^+	c #42AA43",
"/+	c #54A65D",
"(+	c #679E79",
"_+	c #7B9195",
":+	c #8FF7B0",
"<+	c #A2F9C9",
"[+	c #D64187",
"}+	c #E312A3",
"|+	c #EE00BD",
"1+	c #F700D4",
"2+	c #FC00E7",
"3+	c #FE00F4",
"4+	c #FE00FC",
"5+	c #FA02FE",
"6+	c #F307FA",
"7+	c #E910F0",
"8+	c #DD1FE0",
"9+	c #057F01",
"0+	c #0D930A",
"a+	c #18A21B",
"b+	c #27AC33",
"c+	c #38B350",
"d+	c #4CB570",
"e+	c #61B391",
"f+	c #76ACB1",
"g+	c #8CA2CD",
"h+	c #A293E5",
"i+	c #B7F0F5",
"j+	c #E82AF5",
"k+	c #F30595",
"l+	c #FB03B5",
"m+	c #FE05D1",
"n+	c #FE05E7",
"o+	c #FA05F7",
"p+	c #F203FE",
"q+	c #E701FD",
"r+	c #D900F3",
"s+	c #C801E2",
"t+	c #B406CA",
"u+	c #109919",
"v+	c #21AF3F",
"w+	c #36BE6E",
"x+	c #50CAA0",
"y+	c #6BD1CD",
"z+	c #88D4EE",
"A+	c #A4D4FE",
"B+	c #BFD1FA",
"C+	c #D6CAE3",
"D+	c #E8BEBD",
"E+	c #FE1E2F",
"F+	c #F92E0F",
"G+	c #ED3C86",
"H+	c #DC48B7",
"I+	c #C650DE",
"J+	c #AC54F8",
"K+	c #9054FE",
"L+	c #7450F1",
"M+	c #5848D3",
"N+	c #3D3CA7",
"O+	c #972E76",
"P+	c #119C15",
"Q+	c #24B33E",
"R+	c #3CC474",
"S+	c #58D1AC",
"T+	c #76D9DB",
"U+	c #95DDF8",
"V+	c #B3DFFD",
"W+	c #CDDDEA",
"X+	c #E3D9C2",
"Y+	c #F3018D",
"Z+	c #F93307",
"`+	c #EC4800",
" @	c #D95A12",
".@	c #C069A8",
"+@	c #A474D8",
"@@	c #857BF7",
"#@	c #677DFE",
"$@	c #497BED",
"%@	c #8C74C6",
"&@	c #AA6991",
"*@	c #C65A59",
"=@	c #129E0E",
"-@	c #27B737",
";@	c #42CA72",
">@	c #61D7B1",
",@	c #81E0E3",
"'@	c #A2E6FD",
")@	c #C1E8F8",
"!@	c #DAE8D5",
"~@	c #EE009E",
"{@	c #FB065F",
"]@	c #ED4C02",
"^@	c #D9651C",
"/@	c #BE7B4E",
"(@	c #A08C95",
"_@	c #7F9ACE",
":@	c #5EA2F4",
"<@	c #3FA6FE",
"[@	c #99A6E8",
"}@	c #B9A2B9",
"|@	c #D49A7C",
"1@	c #EA8C3F",
"2@	c #13A004",
"3@	c #2ABB04",
"4@	c #48CF04",
"5@	c #69DD04",
"6@	c #8CE704",
"7@	c #AFED04",
"8@	c #CDF004",
"9@	c #E60404",
"0@	c #F70104",
"a@	c #FE0F04",
"b@	c #DC6704",
"c@	c #C08404",
"d@	c #A09C04",
"e@	c #7CAF04",
"f@	c #5ABD04",
"g@	c #3AC604",
"h@	c #A2CC04",
"i@	c #C2CD04",
"j@	c #DDCC04",
"k@	c #F1C604",
"l@	c #FCBD04",
"m@	c #15A213",
"n@	c #2EBE11",
"o@	c #4ED410",
"p@	c #72E30E",
"q@	c #97ED0D",
"r@	c #BBF30B",
"s@	c #D9140A",
"t@	c #EF0109",
"u@	c #FC0508",
"v@	c #FE1B07",
"w@	c #C68404",
"x@	c #A4A203",
"y@	c #7FBB02",
"z@	c #5ACD02",
"A@	c #81DA01",
"B@	c #A6E301",
"C@	c #C8E800",
"D@	c #E3EB00",
"E@	c #F6EB00",
"F@	c #FEE800",
"G@	c #FBE300",
"H@	c #16A431",
"I@	c #31C22C",
"J@	c #54D927",
"K@	c #7BE822",
"L@	c #A2F21E",
"M@	c #C63619",
"N@	c #E30D16",
"O@	c #F70012",
"P@	c #FE0C0F",
"Q@	c #FA2A0C",
"R@	c #ACA005",
"S@	c #85BF03",
"T@	c #5ED602",
"U@	c #3AE601",
"V@	c #A6F000",
"W@	c #CAF700",
"X@	c #E6FA00",
"Y@	c #F8FC00",
"Z@	c #FEFC01",
"`@	c #F9FC02",
" #	c #E7FA03",
".#	c #17A661",
"+#	c #35C657",
"@#	c #5ADD4D",
"##	c #84ED43",
"$#	c #AD6B3A",
"%#	c #D12C32",
"&#	c #EC072A",
"*#	c #FC0122",
"=#	c #FE161B",
"-#	c #F23C15",
";#	c #90BB07",
">#	c #67D704",
",#	c #3FEB01",
"'#	c #A2F700",
")#	c #C8FC00",
"!#	c #E6FE00",
"~#	c #F9FE01",
"{#	c #FEFD03",
"]#	c #F6FD06",
"^#	c #E2FD0A",
"/#	c #C2FD0E",
"(#	c #18A89E",
"_#	c #38CA90",
":#	c #61E281",
"<#	c #8CAC72",
"[#	c #B76064",
"}#	c #DA2256",
"|#	c #F30248",
"1#	c #FE053B",
"2#	c #FA222F",
"3#	c #E75024",
"4#	c #74D20B",
"5#	c #49EB06",
"6#	c #99F902",
"7#	c #C2FE00",
"8#	c #E3FE00",
"9#	c #F8FA01",
"0#	c #FEF504",
"a#	c #F6F009",
"b#	c #DFED0F",
"c#	c #BCEC17",
"d#	c #93ED20",
"e#	c #1AAADB",
"f#	c #3CCDCC",
"g#	c #67E7BC",
"h#	c #95A4AA",
"i#	c #C15698",
"j#	c #E31984",
"k#	c #F90071",
"l#	c #FE0B5E",
"m#	c #F3314C",
"n#	c #D9653B",
"o#	c #58E612",
"p#	c #8CF809",
"q#	c #B9FE03",
"r#	c #DDFC00",
"s#	c #F6F400",
"t#	c #FEE902",
"u#	c #F6DF08",
"v#	c #DFD510",
"w#	c #BACF1B",
"x#	c #8ECB28",
"y#	c #60CB37",
"z#	c #1BACFD",
"A#	c #40FEF7",
"B#	c #6EE3ED",
"C#	c #9E9BDF",
"D#	c #CA4BCD",
"E#	c #EB12B9",
"F#	c #FC00A2",
"G#	c #FC138A",
"H#	c #E94272",
"I#	c #C87B5A",
"J#	c #3DF41E",
"K#	c #AAFE10",
"L#	c #D4FB06",
"M#	c #F1F001",
"N#	c #FEE000",
"O#	c #F9CF04",
"P#	c #E2BE0C",
"Q#	c #BCB018",
"R#	c #8EA629",
"S#	c #5EA03C",
"T#	c #339D52",
"U#	c #1CDAEC",
"V#	c #44FEF9",
"W#	c #74DFFE",
"X#	c #A693FD",
"Y#	c #D241F5",
"Z#	c #F10CE6",
"`#	c #FE01D2",
" $	c #F71EBA",
".$	c #DD549E",
"+$	c #B49181",
"@$	c #97FC2E",
"#$	c #C6FD1A",
"$$	c #EAF00B",
"%$	c #FCDC02",
"&$	c #FBC400",
"*$	c #E7AC04",
"=$	c #C29710",
"-$	c #938521",
";$	c #607838",
">$	c #336F52",
",$	c #116B6F",
". + @ # $ % & * = - ; > > @ , ' ) ! ~ { ] ^ / ( ",
"_ : < [ } | 1 2 3 4 5 > > 6 7 8 9 0 a b c d e f ",
"g h i j k l m n o p q > > r s t u v w x y z A B ",
"C D E F G H I J K L M > > N O P Q R S T U V W X ",
"Y Z `  ...+.@.#.$.%.&.> > *.=.-.;.>.,.'.).!.~.{.",
"].^./.(._.:.<.[.}.|.1.> > 2.3.4.5.6.7.8.9.0.a.b.",
"c.d.e.f.g.h.i.j.k.l.m.> > n.o.p.q.r.s.t.u.v.w.x.",
"y.z.A.B.C.D.E.F.G.H.I.> > J.K.L.M.N.O.P.Q.R.S.T.",
"U.V.W.X.Y.Z.`. +.+++@+> > #+$+%+&+*+=+-+;+>+,+'+",
")+!+~+{+]+^+/+(+_+:+<+> > [+}+|+1+2+3+4+5+6+7+8+",
"9+0+a+b+c+d+e+f+g+h+i+> > j+k+l+m+n+o+p+q+r+s+t+",
"> > > > > > > > > > > > > > > > > > > > > > > > ",
"> > > > > > > > > > > > > > > > > > > > > > > > ",
"U.u+v+w+x+y+z+A+B+C+D+> > E+F+G+H+I+J+K+L+M+N+O+",
"9+P+Q+R+S+T+U+V+W+X+Y+> > Z+`+ @.@+@@@#@$@%@&@*@",
")+=@-@;@>@,@'@)@!@~@{@> > ]@^@/@(@_@:@<@[@}@|@1@",
"U.2@3@4@5@6@7@8@9@0@a@> > b@c@d@e@f@g@h@i@j@k@l@",
"y.m@n@o@p@q@r@s@t@u@v@> > w@x@y@z@A@B@C@D@E@F@G@",
"c.H@I@J@K@L@M@N@O@P@Q@> > R@S@T@U@V@W@X@Y@Z@`@ #",
"]..#+#@###$#%#&#*#=#-#> > ;#>#,#'#)#!#~#{#]#^#/#",
"Y (#_#:#<#[#}#|#1#2#3#> > 4#5#6#7#8#9#0#a#b#c#d#",
"C e#f#g#h#i#j#k#l#m#n#> > o#p#q#r#s#t#u#v#w#x#y#",
"g z#A#B#C#D#E#F#G#H#I#> > J#K#L#M#N#O#P#Q#R#S#T#",
"_ U#V#W#X#Y#Z#`# $.$+$> > @$#$$$%$&$*$=$-$;$>$,$"};
