/* XPM */
static char * icon_filter_band_xpm[] = {
"20 20 52 1",
" 	c None",
".	c #FF0606",
"+	c #100F10",
"@	c #6F6F6E",
"#	c #6E6F6F",
"$	c #676666",
"%	c #676766",
"&	c #676667",
"*	c #5E5E5F",
"=	c #5E5F5F",
"-	c #5F5F5F",
";	c #5E5F5E",
">	c #5F5E5F",
",	c #575657",
"'	c #565757",
")	c #575656",
"!	c #565657",
"~	c #575757",
"{	c #4F4F4F",
"]	c #4E4E4F",
"^	c #4E4F4F",
"/	c #474747",
"(	c #3F3F3F",
"_	c #403F3F",
":	c #40403F",
"<	c #3F3F40",
"[	c #373837",
"}	c #373737",
"|	c #383737",
"1	c #302F2F",
"2	c #2F2F2F",
"3	c #2F3030",
"4	c #282728",
"5	c #282828",
"6	c #272827",
"7	c #282827",
"8	c #272728",
"9	c #272828",
"0	c #1F2020",
"a	c #1F1F1F",
"b	c #20201F",
"c	c #202020",
"d	c #201F20",
"e	c #181818",
"f	c #181718",
"g	c #171717",
"h	c #171818",
"i	c #171817",
"j	c #181717",
"k	c #101010",
"l	c #0F1010",
"m	c #0F100F",
"         ...        ",
"          .         ",
"          .         ",
"          .         ",
"          .         ",
"          .         ",
"        ++.++       ",
"       +@#.#@+      ",
"      +$%%.&%$+     ",
"     +*=-;.>-=*+    ",
"    +,'')!.~)'',+   ",
"    +{{{]{.^]{{{+   ",
"   +//////.//////+  ",
"   +((((_:.<_((((+  ",
"   +[}||}}.}}||}[+  ",
"  +1212323.2232121+ ",
"  45667487.98476654 ",
"  0aabcdd0.0ddcbaa0 ",
" efgghiije.fjiihggfe",
" kklmk+kl...lk+kmlkk"};
