/* XPM */
static char * icon_filter_lowpass1_xpm[] = {
"20 20 71 1",
" 	c None",
".	c #FF0606",
"+	c #100F10",
"@	c #6E6F6F",
"#	c #6E6F6E",
"$	c #6E6E6E",
"%	c #6F6E6E",
"&	c #6F6F6E",
"*	c #676766",
"=	c #666766",
"-	c #666767",
";	c #676667",
">	c #666667",
",	c #676666",
"'	c #5F5F5F",
")	c #5F5E5F",
"!	c #5E5F5E",
"~	c #5F5E5E",
"{	c #5E5F5F",
"]	c #5E5E5F",
"^	c #575757",
"/	c #575756",
"(	c #565757",
"_	c #565657",
":	c #575656",
"<	c #575657",
"[	c #4F4F4F",
"}	c #4E4F4F",
"|	c #4F4F4E",
"1	c #4E4E4F",
"2	c #474747",
"3	c #3F3F3F",
"4	c #3F3F40",
"5	c #3F403F",
"6	c #40403F",
"7	c #403F3F",
"8	c #383737",
"9	c #383738",
"0	c #373737",
"a	c #373837",
"b	c #2F2F2F",
"c	c #2F3030",
"d	c #302F2F",
"e	c #303030",
"f	c #30302F",
"g	c #282828",
"h	c #282827",
"i	c #272727",
"j	c #272827",
"k	c #282727",
"l	c #272828",
"m	c #272728",
"n	c #282728",
"o	c #201F20",
"p	c #202020",
"q	c #1F201F",
"r	c #1F2020",
"s	c #201F1F",
"t	c #20201F",
"u	c #1F1F1F",
"v	c #181717",
"w	c #171817",
"x	c #171818",
"y	c #171717",
"z	c #181818",
"A	c #171718",
"B	c #181718",
"C	c #10100F",
"D	c #101010",
"E	c #0F1010",
"F	c #0F100F",
"         ...        ",
"          .         ",
"          .         ",
"          .         ",
"          .         ",
"          .         ",
"++++++++++.++       ",
"+@#$#@$%&@.@&+      ",
"+**=-;;=>*.;*,+     ",
"+')!)'~')!.)'{]+    ",
"+^/^^^/^(_.^:((<+   ",
"+[[[[[}|[[.}1[[[+   ",
"+222222222.222222+  ",
"+343533336.473333+  ",
"+8980a8000.00880a+  ",
"+bcdedfdbc.bbcbdbd+ ",
"+ghijjjhkh.lmnhjjgn ",
"+oopqrppsr.rooptuur ",
"+vwxyzwAxz.BvwwxyyBz",
"+CDDD++DE...ED+DFEDD"};
