/* XPM */
static char * icon_volume_xpm[] = {
"20 20 46 1",
" 	c None",
".	c #100F10",
"+	c #92CFC9",
"@	c #8DC9C6",
"#	c #8DC9C5",
"$	c #87C3C0",
"%	c #87C3C1",
"&	c #81BDBC",
"*	c #82BEBC",
"=	c #82BDBC",
"-	c #7CB8B8",
";	c #7CB7B8",
">	c #7BB7B7",
",	c #7CB8B7",
"'	c #77B2B2",
")	c #76B1B3",
"!	c #76B1B2",
"~	c #76B2B3",
"{	c #77B2B3",
"]	c #77B1B3",
"^	c #71ABAE",
"/	c #70ABAE",
"(	c #70ACAE",
"_	c #71ACAE",
":	c #6BA6A9",
"<	c #6CA5AA",
"[	c #6BA5AA",
"}	c #6BA6AA",
"|	c #669FA5",
"1	c #66A0A5",
"2	c #65A0A5",
"3	c #659FA5",
"4	c #609AA1",
"5	c #609AA0",
"6	c #6099A0",
"7	c #5B949C",
"8	c #5A949B",
"9	c #5A949C",
"0	c #5B949B",
"a	c #558E97",
"b	c #548E97",
"c	c #508892",
"d	c #508893",
"e	c #4A828D",
"f	c #4A828E",
"g	c #457C89",
"                    ",
"           .     .  ",
"          ..    .   ",
"         .+.   .    ",
"        .@#.  .     ",
"       .$$%.        ",
" .... .&*&=..       ",
" .-;. .;>;,.;.      ",
" .'). .)!~{.].  ... ",
" .^/. .(_^^._.      ",
" .:<. .[}::.:.      ",
" .|1. .1211.3.      ",
" .44. .5456.5.      ",
" .78. .9009.0.  ... ",
" .... .aaba..       ",
"       .cdc.        ",
"        .ef.  .     ",
"         .g.   .    ",
"          ..    .   ",
"           .     .  "};
