/* XPM */
static char * icon_pitch_xpm[] = {
"20 20 8 1",
" 	c None",
".	c #000000",
"+	c #7BBDBB",
"@	c #E3E114",
"#	c #5A9794",
"$	c #B5B300",
"%	c #4D8583",
"&	c #7B7A1F",
"                    ",
"                    ",
"             ..     ",
"     ..      ..     ",
"     ..      ...    ",
"     ...     ...    ",
"     ...     . .    ",
"     . .     . ..   ",
"     . ..    .  .   ",
"     .  .    .   .  ",
"     .   .   .      ",
"     .       .      ",
"     .     . .      ",
"   . .    .+..      ",
"  .@..   .###.      ",
" .$$$.    .%.       ",
"  .&.      .        ",
"   .                ",
"                    ",
"                    "};
