/* XPM */
static char * icon_wave_saw_xpm[] = {
"20 20 3 1",
" 	c None",
".	c #F9CD00",
"+	c #000000",
"                    ",
"                    ",
"   .                ",
"   ..               ",
"   .+.              ",
"   . +.             ",
"   .  +.            ",
"   .   +.           ",
"   .    +.          ",
"....     +.     ....",
"++++      +.    .+++",
"           +.   .   ",
"            +.  .   ",
"             +. .   ",
"              +..   ",
"               +.   ",
"                +   ",
"                    ",
"                    ",
"                    "};
