/* XPM */
static char * icon_digit_0_xpm[] = {
"24 24 24 1",
" 	c #EFEFEF",
".	c #888888",
"+	c #D2D2D2",
"@	c #4B4A4A",
"#	c #9F9F9F",
"$	c #002101",
"%	c #002601",
"&	c #002C02",
"*	c #383737",
"=	c #084F0C",
"-	c #09540F",
";	c #0D5D13",
">	c #09310C",
",	c #205A25",
"'	c #ADFFC2",
")	c #004707",
"!	c #8DFFA4",
"~	c #1D7926",
"{	c #AAFFC3",
"]	c #002701",
"^	c #002501",
"/	c #0F3E13",
"(	c #0A330D",
"_	c #0C5912",
"                       .",
" +++++++++++++++++++++@.",
" +####################@.",
" +#$$$$$$$%&&&&&&&&&&*@.",
" +#=======-;;;;;;;;;;*@.",
" +#>>,,,'''''''',,,,,*@.",
" +#$$))))!!!!!!))))))*@.",
" +#==~~{~~~~~~~~{~~~~*@.",
" +#>>,,'',,,,,,'',,,,*@.",
" +#]^))!!))))))!!))))*@.",
" +#;;~~{{~~~~~~{{~~~~*@.",
" +#//,,',,,,,,,,',,,,*@.",
" +#&&))))))))))))))))*@.",
" +#;;~~{~~~~~~~~{~~~~*@.",
" +#(>,,'',,,,,,'',,,,*@.",
" +#$$))!!))))))!!))))*@.",
" +#-_~~{{~~~~~~{{~~~~*@.",
" +#//,,'',,,,,,'',,,,*@.",
" +#&&))!))))))))!))))*@.",
" +#;;~~~~{{{{{{~~~~~~*@.",
" +#//,,,'''''''',,,,,*@.",
" +#*******************@.",
" +@@@@@@@@@@@@@@@@@@@@@.",
" ......................."};
