/* XPM */
static char * icon_filter_notch_xpm[] = {
"20 20 76 1",
" 	c None",
".	c #100F10",
"+	c #FF0606",
"@	c #878787",
"#	c #888787",
"$	c #888888",
"%	c #888889",
"&	c #8A8989",
"*	c #8A898A",
"=	c #8B8B8C",
"-	c #8A8A8A",
";	c #7F7E7E",
">	c #7F7F7F",
",	c #807F7F",
"'	c #808080",
")	c #818181",
"!	c #828283",
"~	c #767676",
"{	c #777676",
"]	c #777677",
"^	c #777777",
"/	c #787778",
"(	c #7A7879",
"_	c #797879",
":	c #6D6D6D",
"<	c #6E6E6E",
"[	c #6F6E6E",
"}	c #6F6E6F",
"|	c #707071",
"1	c #706F70",
"2	c #656365",
"3	c #656564",
"4	c #656565",
"5	c #656566",
"6	c #666666",
"7	c #686667",
"8	c #666667",
"9	c #5C5B5B",
"0	c #5C5B5C",
"a	c #5D5C5D",
"b	c #5C5C5D",
"c	c #5D5D5D",
"d	c #5E5D5F",
"e	c #5D5D5E",
"f	c #525252",
"g	c #535253",
"h	c #535354",
"i	c #545354",
"j	c #545454",
"k	c #565555",
"l	c #555454",
"m	c #4A494A",
"n	c #4A4A4A",
"o	c #4B4A4A",
"p	c #4B4A4B",
"q	c #4D4C4C",
"r	c #4B4B4C",
"s	c #414041",
"t	c #414042",
"u	c #424142",
"v	c #434242",
"w	c #444244",
"x	c #434243",
"y	c #393839",
"z	c #393939",
"A	c #3B393B",
"B	c #3A393A",
"C	c #312F30",
"D	c #302F31",
"E	c #313132",
"F	c #303030",
"G	c #282727",
"H	c #292829",
"I	c #282728",
"J	c #201F20",
"K	c #1F1E1F",
" ........+++........",
" .@#$%&&*=+-*&&%$#@.",
"  .;>,'')!+))'',>;. ",
"  .~{]^//(+_//^]{~. ",
"  .::<<[}|+1}[<<::. ",
"   .234567+865432.  ",
"   .90abcd+ecba09.  ",
"   .fghijk+ljihgf.  ",
"    .mnopq+rponm.   ",
"    .stuvw+xvuts.   ",
"     .yyzA+Bzyy.    ",
"      .CDE+FDC.     ",
"       .GH+IG.      ",
"        .J+K.       ",
"          +         ",
"          +         ",
"          +         ",
"          +         ",
"          +         ",
"         +++        "};
