/* XPM */
static char * icon_wave_pulse_xpm[] = {
"20 20 3 1",
" 	c None",
".	c #00FF4E",
"+	c #000000",
"                    ",
"                    ",
"   ........         ",
"   .++++++.+        ",
"   .+     .+        ",
"   .+     .+        ",
"   .+     .+        ",
"   .+     .+        ",
"   .+     .+        ",
"....+     .+    ....",
"+++++     .+    .+++",
"          .+    .+  ",
"          .+    .+  ",
"          .+    .+  ",
"          .+    .+  ",
"          .+    .+  ",
"          .......+  ",
"           ++++++   ",
"                    ",
"                    "};
