/* XPM */
static char * icon_sample_xpm[] = {
"24 24 8 1",
" 	c None",
".	c #9A2424",
"+	c #FF0000",
"@	c #FF5757",
"#	c #FF8686",
"$	c #FE5656",
"%	c #FF8787",
"&	c #FE0000",
"                        ",
"                        ",
"                        ",
"                        ",
"          .             ",
"         .+.            ",
"     .  .+++.        .  ",
"   ..+. .+@++.     ..+. ",
"  .+.+. .+@++..   .+.+. ",
" .@+.@+.+@#@+.@. .+@+@+.",
".@#@@#@@@###@$@@.@@#@#@.",
".%%%%%%%%%%%%%%%%%%%%%%.",
".@#@@#@@@###@&+@.@@#@#@.",
" .@+.@+.+@#@+$+. .+@+@+.",
"  .+.+. .+@++..   .+.+. ",
"   ..+. .+@+.      ..+. ",
"     .  .+++.        .  ",
"         .+.            ",
"          .             ",
"                        ",
"                        ",
"                        ",
"                        ",
"                        "};
