/* XPM */
static char * icon_patterns_xpm[] = {
"24 24 23 1",
" 	c None",
".	c #767676",
"+	c #626262",
"@	c #575757",
"#	c #5A5A5A",
"$	c #6E6E6E",
"%	c #000000",
"&	c #B3B3B3",
"*	c #4C4C4C",
"=	c #B5B5B5",
"-	c #4ACD65",
";	c #47CB62",
">	c #505050",
",	c #49CC64",
"'	c #4D4D4D",
")	c #616161",
"!	c #CCCCCC",
"~	c #808080",
"{	c #ADADAD",
"]	c #CBCBCB",
"^	c #BDBDBD",
"/	c #DBDBDB",
"(	c #E6E6E6",
"........................",
".+@###################$.",
".#%%%%%%%%%%%%%%%%%%%%&.",
".*%%%%%%%%%%%%%%%%%%%%=.",
".*%--%%%%-%-%%%---%%-%=.",
".#%-%-%%%-%-%%%%%-%--%=.",
".#%-%-%-%;--%%%%-%%%-%=.",
".#%--%%%%%%-%%%---%%-%=.",
".#%%%%%%%%%%%%%%%%%%%%=.",
".#%%%%%%%%%%%%%%%%%%%%=.",
".#%%%%%%%%%%%%%%%%%%%%=.",
".#%%%%%%%%%%%%%%%%%%%%=.",
".>%%,%%,%%,%%%%%,%%,%%=.",
".*%%%%%%%%%%%%%%%%%%%%=.",
".*%%%%%%%%%%%%%%%%%%%%=.",
".*''''''''''''''''''''=.",
".#'',,''',,'''',','','=.",
".#',''''''',''',',',,'=.",
".#',''',''',''';,,'','=.",
".#'',,''''',''''','','=.",
".#''''''''''''''''''''=.",
".)%%%%%%%%%%%%%%%%%%%%!.",
".~{]]]]]]^======]////(!.",
"........................"};
