/* XPM */
static char * icon_interface_xpm[] = {
"24 24 73 1",
" 	c None",
".	c #17267C",
"+	c #1B2980",
"@	c #213089",
"#	c #33429B",
"$	c #1D2B82",
"%	c #25368E",
"&	c #35459C",
"*	c #4F60AB",
"=	c #5968B2",
"-	c #5464AE",
";	c #2F3F99",
">	c #1C2A81",
",	c #6575BA",
"'	c #8290C9",
")	c #000105",
"!	c #7987C3",
"~	c #04070E",
"{	c #6D7DBE",
"]	c #31409B",
"^	c #B4BCD8",
"/	c #070910",
"(	c #7A8094",
"_	c #9DA5BE",
":	c #A8B2D4",
"<	c #98A3CD",
"[	c #000106",
"}	c #B1BAD7",
"|	c #7383C2",
"1	c #DDDEDF",
"2	c #010206",
"3	c #AFB2C0",
"4	c #C3C6D3",
"5	c #C3C7D9",
"6	c #BBC2D5",
"7	c #0D0E14",
"8	c #9FA1AA",
"9	c #D3D5DD",
"0	c #BBC3DA",
"a	c #B8C0D9",
"b	c #B7BFD8",
"c	c #BBC0D1",
"d	c #BFC5D9",
"e	c #BFC5D8",
"f	c #BBC2D8",
"g	c #A6ACBF",
"h	c #B2B9CF",
"i	c #A9B4D6",
"j	c #A0ACD3",
"k	c #919ECE",
"l	c #9FA9D1",
"m	c #939FCE",
"n	c #A8B2D2",
"o	c #9CA7D0",
"p	c #626A8D",
"q	c #090A12",
"r	c #9DA8CC",
"s	c #96A2CE",
"t	c #39489C",
"u	c #6474B9",
"v	c #7887C3",
"w	c #6E7EBF",
"x	c #6370AB",
"y	c #7D8CC4",
"z	c #5C6896",
"A	c #6F7FBE",
"B	c #4555A3",
"C	c #5061AC",
"D	c #5A69B3",
"E	c #404F9E",
"F	c #303F9A",
"G	c #3F4E9D",
"H	c #FFFFFF",
"                        ",
"                        ",
"  ....................  ",
" +.@################+.. ",
"$%&*================-;>.",
"%%,'''''))''!~'')''''{].",
".%^^^^^/(_/:<[^)}^^^^^].",
".|11111234)56)789111110.",
".{abbbb)cd)ef)2ghbbbbbi.",
".%jkkkk)lm)no)pqrskkkkt.",
".%uvwwww))xyw)zA)vwww,t.",
" .tB**************CD-E. ",
"  .FFFFFFF))FFFFFFtGG.  ",
"          )H)           ",
"          )HH)          ",
"          )HHH)         ",
"          )HHHH)        ",
"          )HH))         ",
"          )H)H)         ",
"          )))HH)        ",
"             )H)        ",
"              )         ",
"                        ",
"                        "};
