/* XPM */
static char * icon_wave_sine_xpm[] = {
"20 20 3 1",
" 	c None",
".	c #539AF3",
"+	c #000000",
"                    ",
"                    ",
"                    ",
"      .             ",
"     .+.            ",
"    .+ +.           ",
"    .+  .           ",
"   .+   +.          ",
"   .+   +.          ",
"....+    +.     ....",
"+++++    +.     .+++",
"          +.   .+   ",
"          +.   .+   ",
"           +. .+    ",
"            +.+     ",
"             +      ",
"                    ",
"                    ",
"                    ",
"                    "};
