/* XPM */
static char * icon_tempo_xpm[] = {
"24 24 11 1",
" 	c None",
".	c #CB1818",
"+	c #660F0F",
"@	c #3AA646",
"#	c #0F2F13",
"$	c #413310",
"%	c #111111",
"&	c #650F0F",
"*	c #39A545",
"=	c #0F2E12",
"-	c #CA1717",
"        ...             ",
"       ..+.+            ",
"       .+ .+            ",
"       .+ .+            ",
"       .+ .+      @# @# ",
"       .+..+      @# @# ",
"$$%%%%%.&.&%%%%%%%*#%*=%",
"$$     .+.+       @@@@# ",
"$$     ...+          @# ",
"$$%%%%%..&%%%%%%%%%%%*=%",
"$$    ..+            @# ",
"$$$  ...+        ###### ",
"$$%%%.&&+%%%%%%%%******%",
"$$   .......+           ",
"$$$ .+. ++ ..+    @# @# ",
"$$%%..&%.&%..&%%%%*=%*=%",
"$$   ..+.. .+     @##@# ",
"$$    .....+      @@@@# ",
"$$%%%%%%%.%%%%%%%%%%%*=%",
"         .+          @# ",
"     ..+ .+          @# ",
"     +.+ .+             ",
"      ...-+             ",
"       +++              "};
