/* XPM */
static char * icon_filter_hipass1_xpm[] = {
"20 20 160 2",
"  	c None",
". 	c #100F10",
"+ 	c #FF0606",
"@ 	c #8F8E8F",
"# 	c #8E8E8E",
"$ 	c #8E8D8D",
"% 	c #8D8D8D",
"& 	c #8C8D8C",
"* 	c #8D8C8D",
"= 	c #8C8C8C",
"- 	c #8B8B8C",
"; 	c #8A8A8A",
"> 	c #8A898A",
", 	c #8A8989",
"' 	c #888889",
") 	c #888888",
"! 	c #888787",
"~ 	c #878787",
"{ 	c #868586",
"] 	c #858585",
"^ 	c #858484",
"/ 	c #848484",
"( 	c #848483",
"_ 	c #838383",
": 	c #828283",
"< 	c #818181",
"[ 	c #808080",
"} 	c #807F7F",
"| 	c #7F7F7F",
"1 	c #7F7E7E",
"2 	c #7D7C7C",
"3 	c #7C7B7C",
"4 	c #7B7B7B",
"5 	c #7A7A7A",
"6 	c #79797A",
"7 	c #7A7879",
"8 	c #797879",
"9 	c #787778",
"0 	c #777777",
"a 	c #777677",
"b 	c #777676",
"c 	c #767676",
"d 	c #737374",
"e 	c #737373",
"f 	c #727273",
"g 	c #727272",
"h 	c #727172",
"i 	c #717172",
"j 	c #727071",
"k 	c #707070",
"l 	c #707071",
"m 	c #706F70",
"n 	c #6F6E6F",
"o 	c #6F6E6E",
"p 	c #6E6E6E",
"q 	c #6D6D6D",
"r 	c #6A6A6B",
"s 	c #6A6A6A",
"t 	c #6A696A",
"u 	c #696869",
"v 	c #686868",
"w 	c #686768",
"x 	c #686667",
"y 	c #666667",
"z 	c #666666",
"A 	c #656566",
"B 	c #656565",
"C 	c #656564",
"D 	c #656365",
"E 	c #626161",
"F 	c #616161",
"G 	c #616060",
"H 	c #606060",
"I 	c #605F60",
"J 	c #605F5F",
"K 	c #5F5F5F",
"L 	c #5E5E5F",
"M 	c #5E5D5F",
"N 	c #5D5D5E",
"O 	c #5D5D5D",
"P 	c #5C5C5D",
"Q 	c #5D5C5D",
"R 	c #5C5B5C",
"S 	c #5C5B5B",
"T 	c #595859",
"U 	c #585858",
"V 	c #585758",
"W 	c #575657",
"X 	c #575656",
"Y 	c #565656",
"Z 	c #565555",
"` 	c #555454",
" .	c #545454",
"..	c #545354",
"+.	c #535354",
"@.	c #535253",
"#.	c #525252",
"$.	c #504F50",
"%.	c #504F4F",
"&.	c #4F4F4F",
"*.	c #4E4E4F",
"=.	c #4F4E4E",
"-.	c #4E4D4E",
";.	c #4D4C4E",
">.	c #4D4C4D",
",.	c #4D4C4C",
"'.	c #4B4B4C",
").	c #4B4A4B",
"!.	c #4B4A4A",
"~.	c #4A4A4A",
"{.	c #4A494A",
"].	c #474647",
"^.	c #474546",
"/.	c #464546",
"(.	c #464445",
"_.	c #454445",
":.	c #444345",
"<.	c #444344",
"[.	c #444244",
"}.	c #434243",
"|.	c #434242",
"1.	c #424142",
"2.	c #414042",
"3.	c #414041",
"4.	c #3E3E3E",
"5.	c #3D3D3D",
"6.	c #3D3C3D",
"7.	c #3C3C3C",
"8.	c #3C3C3D",
"9.	c #3C3B3C",
"0.	c #3B3B3B",
"a.	c #3B3A3B",
"b.	c #3B393B",
"c.	c #3A393A",
"d.	c #393939",
"e.	c #393839",
"f.	c #353435",
"g.	c #343334",
"h.	c #333334",
"i.	c #343234",
"j.	c #333233",
"k.	c #323132",
"l.	c #313132",
"m.	c #303030",
"n.	c #302F31",
"o.	c #312F30",
"p.	c #2C2B2C",
"q.	c #2B2B2C",
"r.	c #2B2A2B",
"s.	c #2B2A2A",
"t.	c #2A292A",
"u.	c #29282A",
"v.	c #292829",
"w.	c #282728",
"x.	c #282727",
"y.	c #212021",
"z.	c #202020",
"A.	c #201F21",
"B.	c #201F20",
"C.	c #1F1E1F",
". . . . . . . . . + + + . . . . . . . . ",
". @ # $ % & * = - - + ; > , , ' ) ! ~ . ",
". { ] ^ / ( _ _ _ : + < < [ [ } | 1 .   ",
". 2 3 3 4 4 5 5 6 7 + 8 9 9 0 a b c .   ",
". d e f g h i j k l + m n o p p q q .   ",
". r s t u u v w w x + y z A B C D .     ",
". E F G H I J K L M + N O P Q R S .     ",
". T U V V W W X Y Z + `  ...+.@.#..     ",
". $.%.&.*.=.-.;.>.,.+ '.).!.~.{..       ",
". ].^././.(._.:.<.[.+ }.|.1.2.3..       ",
". 4.5.6.7.8.9.0.a.b.+ c.d.e.e..         ",
". f.f.g.h.i.j.j.k.l.+ m.n.o..           ",
". p.q.q.r.s.t.u.u.v.+ w.x..             ",
". . . . . . y.z.A.B.+ C..               ",
"                    +                   ",
"                    +                   ",
"                    +                   ",
"                    +                   ",
"                    +                   ",
"                  + + +                 "};
