/* XPM */
static char * icon_keys_xpm[] = {
"24 24 21 1",
" 	c None",
".	c #110202",
"+	c #B6B6B6",
"@	c #D5D5D5",
"#	c #959595",
"$	c #CACACA",
"%	c #E7E7E7",
"&	c #FCFCFC",
"*	c #FFFFFF",
"=	c #D9D9D9",
"-	c #AFAFAF",
";	c #D8D8D8",
">	c #5D5454",
",	c #B4B4B4",
"'	c #969696",
")	c #D3D3D3",
"!	c #D2D2D2",
"~	c #A0A0A0",
"{	c #858585",
"]	c #979797",
"^	c #7D7D7D",
"........................",
".+@@@@@@@#+@@@@@@@#+@@@.",
".$%&****=-$%&****=-$%&*.",
".@&;;>;;,'@&>;;;>,'@&>>.",
".)&;>;>;,')&>;;;>,')&>;.",
".!&;>;>;,'!&>;>;>,'!&>>.",
".!&;;>>>,'!&;>;>;,'!&>>.",
".-!,,,,,~{-!,,,,,~{-!,,.",
".#-]'''''^#-]'''''^#-]'.",
".@@@@#+@@@@@@@#+@@@@@@@.",
".***=-$%&****=-$%&****=.",
".;;;,'@&;;>;;,'@&;;>>;,.",
".;;;,')&;>;>;,')&;>;;;,.",
".;;;,'!&;>>>;,'!&;;>>;,.",
".;;;,'!&;>;>;,'!&;>>>;,.",
".,,,~{-!,,,,,~{-!,,,,,~.",
".''''^#-]'''''^#-]'''''.",
".@@@@@@@@#+@@@@@@@#+@@@.",
".*******=-$%&****=-$%&*.",
".;;;;;;;,'@&;>>>;,'@&>;.",
".;;;;;;;,')&;;;>;,')&;>.",
".;;;;;;;,'!&;;>;;,'!&;>.",
".;;;;;;;,'!&;>>>;,'!&>;.",
"........................"};
