/* XPM */
static char * menu_previous_xpm[] = {
"16 16 7 1",
" 	c None",
".	c #DBDBDB",
"+	c #ECECEC",
"@	c #FFFFFF",
"#	c #000000",
"$	c #2F2F2F",
"%	c #B5B5B5",
"     ......     ",
"   ..+@@@@+..   ",
"  .++@@@@@@++.  ",
" .+@@@@@@@@@@+. ",
" .+@@@#@@@@@@+. ",
".+@@@##@@@@@@@+.",
".@@@###@@@@@@@@.",
".@@#########@@@.",
".@@$###$$$$$@@@.",
".@@%$##%%%%%@@@.",
".+@@%$#@@@@@@@+.",
" .+@@%$@@@@@@+. ",
" .+@@@%@@@@@@+. ",
"  .++@@@@@@++.  ",
"   ..+@@@@+..   ",
"     ......     "};
