/* XPM */
static char * transp_14_down_xpm[] = {
"24 24 4 1",
" 	c None",
".	c #000000",
"+	c #727272",
"@	c #FFFFFF",
"                        ",
"                        ",
"   ..                   ",
"  ...   ..         ..   ",
"   ..   ..         ..   ",
"   ..  ..          .+.  ",
"   ..  ..          ...  ",
"   .. .. ......    .... ",
"   .. .. ..  ..    .. ..",
"      .. ..  ..    ..  .",
"     ..   ....     ..   ",
"     ..  ..  ..    ..   ",
"    ..   ..  ..    ..   ",
"    ..   ......    ..   ",
"                   ..   ",
"                .....   ",
"               .@+...   ",
"     ......    .+...    ",
"    .@@@@@@.   .....    ",
"    .@@@@@@.    ...     ",
"     ......             ",
"                        ",
"                        ",
"                        "};
