/* XPM */
static char * transp_base_xpm[] = {
"24 24 2 1",
" 	c None",
".	c #000000",
"                        ",
"                        ",
"                        ",
"                   ..   ",
"                   ..   ",
"                   ...  ",
"                   ...  ",
"                   .... ",
"                   .. ..",
"                   ..  .",
"                   ..   ",
"                   ..   ",
"                   ..   ",
"                   ..   ",
"                   ..   ",
"                .....   ",
"               ......   ",
"               .....    ",
"               .....    ",
"                ...     ",
"                        ",
"                        ",
"                        ",
"                        "};
