/* XPM */
static char * transp_octave_up_xpm[] = {
"24 24 4 1",
" 	c None",
".	c #000000",
"+	c #727272",
"@	c #FFFFFF",
"                        ",
"                        ",
"                        ",
"                   ..   ",
"     ..  ....      ..   ",
"    ...    ..      .+.  ",
"     ..    ..      ...  ",
"     ..  ....      .... ",
"     ..  ..        .. ..",
"     ..  ..        ..  .",
"     ..  ....      ..   ",
"                   ..   ",
"                   ..   ",
"                   ..   ",
"                   ..   ",
"       ..       .....   ",
"      .@@.     .@+...   ",
"     ..@@..    .+...    ",
"    .@@@@@@.   .....    ",
"    .@@@@@@.    ...     ",
"     ..@@..             ",
"      .@@.              ",
"       ..               ",
"                        "};
