/* XPM */
static char * zoom_plus_xpm[] = {
"24 24 88 1",
" 	c None",
".	c #BBBBBB",
"+	c #DEDEDE",
"@	c #CACACA",
"#	c #BFBFBF",
"$	c #999999",
"%	c #000000",
"&	c #949494",
"*	c #7F7F7F",
"=	c #FFFFFF",
"-	c #6A6A6A",
";	c #FDFDFD",
">	c #7D7D7D",
",	c #3A3A3A",
"'	c #585858",
")	c #8A8A8A",
"!	c #353535",
"~	c #929292",
"{	c #AEAEAE",
"]	c #373737",
"^	c #515151",
"/	c #A0A0A0",
"(	c #ADADAD",
"_	c #797979",
":	c #666666",
"<	c #4F4F4F",
"[	c #464646",
"}	c #4C4C4C",
"|	c #737373",
"1	c #A3A3A3",
"2	c #7B7B7B",
"3	c #545454",
"4	c #3F3F3F",
"5	c #3C3C3C",
"6	c #3B3B3B",
"7	c #9A9A9A",
"8	c #878787",
"9	c #272727",
"0	c #2C2C2C",
"a	c #454545",
"b	c #1A1A1A",
"c	c #171717",
"d	c #202020",
"e	c #1F1F1F",
"f	c #777777",
"g	c #484848",
"h	c #161616",
"i	c #494949",
"j	c #5E5E5E",
"k	c #686868",
"l	c #575757",
"m	c #5B5B5B",
"n	c #535353",
"o	c #1E1E1E",
"p	c #414141",
"q	c #868686",
"r	c #C4C4C4",
"s	c #3D3D3D",
"t	c #808080",
"u	c #D7D7D7",
"v	c #9C9C9C",
"w	c #919191",
"x	c #606060",
"y	c #5A5A5A",
"z	c #2F2F2F",
"A	c #474747",
"B	c #A82929",
"C	c #DA3E3E",
"D	c #711B1B",
"E	c #9E2727",
"F	c #FF4646",
"G	c #FF4949",
"H	c #701B1B",
"I	c #731C1C",
"J	c #C52E2E",
"K	c #FF3F3F",
"L	c #892121",
"M	c #C12E2E",
"N	c #9D2626",
"O	c #F33B3B",
"P	c #FF4747",
"Q	c #711C1C",
"R	c #8C2222",
"S	c #E43535",
"T	c #F83A3A",
"U	c #721D1D",
"V	c #A12626",
"W	c #5E1717",
"                        ",
"      .+@@#$%           ",
"    ++%     &*%         ",
"   =%         -%        ",
"  ;%    .>,    '%       ",
"  =%    #)!    '%       ",
" ~%     {-]     ^%      ",
" &%  /#(_:<[}}  }%      ",
" &%  |12^'3456  7%      ",
" 8%  }}90abcde  ^%      ",
" f%     ]gh     i%      ",
"  j%    klc    i%       ",
"  '%    mno    p%       ",
"   '%         i%        ",
"    qr%     is^t        ",
"      uvwxyi% zABC      ",
"               DEFG     ",
"               HIJKG    ",
"                HLMKG   ",
"                 HNMOP  ",
"                  QRMST ",
"                   QUV  ",
"                    W   ",
"                        "};
