/* XPM */
static char * zoom_minus_xpm[] = {
"24 24 75 1",
" 	c None",
".	c #BBBBBB",
"+	c #DEDEDE",
"@	c #CACACA",
"#	c #BFBFBF",
"$	c #999999",
"%	c #000000",
"&	c #949494",
"*	c #7F7F7F",
"=	c #FFFFFF",
"-	c #6A6A6A",
";	c #FDFDFD",
">	c #585858",
",	c #929292",
"'	c #515151",
")	c #A0A0A0",
"!	c #ADADAD",
"~	c #797979",
"{	c #666666",
"]	c #4F4F4F",
"^	c #464646",
"/	c #4C4C4C",
"(	c #737373",
"_	c #A3A3A3",
":	c #7B7B7B",
"<	c #545454",
"[	c #3F3F3F",
"}	c #3C3C3C",
"|	c #3B3B3B",
"1	c #9A9A9A",
"2	c #878787",
"3	c #272727",
"4	c #2C2C2C",
"5	c #454545",
"6	c #1A1A1A",
"7	c #171717",
"8	c #202020",
"9	c #1F1F1F",
"0	c #777777",
"a	c #494949",
"b	c #5E5E5E",
"c	c #414141",
"d	c #868686",
"e	c #C4C4C4",
"f	c #3D3D3D",
"g	c #808080",
"h	c #D7D7D7",
"i	c #9C9C9C",
"j	c #919191",
"k	c #606060",
"l	c #5A5A5A",
"m	c #2F2F2F",
"n	c #474747",
"o	c #A82929",
"p	c #DA3E3E",
"q	c #711B1B",
"r	c #9E2727",
"s	c #FF4646",
"t	c #FF4949",
"u	c #701B1B",
"v	c #731C1C",
"w	c #C52E2E",
"x	c #FF3F3F",
"y	c #892121",
"z	c #C12E2E",
"A	c #9D2626",
"B	c #F33B3B",
"C	c #FF4747",
"D	c #711C1C",
"E	c #8C2222",
"F	c #E43535",
"G	c #F83A3A",
"H	c #721D1D",
"I	c #A12626",
"J	c #5E1717",
"                        ",
"      .+@@#$%           ",
"    ++%     &*%         ",
"   =%         -%        ",
"  ;%           >%       ",
"  =%           >%       ",
" ,%             '%      ",
" &%  )#!~{]^//  /%      ",
" &%  (_:'><[}|  1%      ",
" 2%  //3456789  '%      ",
" 0%             a%      ",
"  b%           a%       ",
"  >%           c%       ",
"   >%         a%        ",
"    de%     af'g        ",
"      hijkla% mnop      ",
"               qrst     ",
"               uvwxt    ",
"                uyzxt   ",
"                 uAzBC  ",
"                  DEzFG ",
"                   DHI  ",
"                    J   ",
"                        "};
