/* XPM */
static char * zoom_all_xpm[] = {
"24 24 71 1",
" 	c None",
".	c #BBBBBB",
"+	c #DEDEDE",
"@	c #CACACA",
"#	c #BFBFBF",
"$	c #999999",
"%	c #000000",
"&	c #949494",
"*	c #7F7F7F",
"=	c #FFFFFF",
"-	c #6A6A6A",
";	c #FDFDFD",
">	c #585858",
",	c #787878",
"'	c #5A5A5A",
")	c #929292",
"!	c #5E5E5E",
"~	c #3D3D3D",
"{	c #8D8D8D",
"]	c #3F3F3F",
"^	c #515151",
"/	c #353535",
"(	c #4C4C4C",
"_	c #202020",
":	c #393939",
"<	c #616161",
"[	c #5B5B5B",
"}	c #555555",
"|	c #9A9A9A",
"1	c #878787",
"2	c #373737",
"3	c #565656",
"4	c #292929",
"5	c #777777",
"6	c #626262",
"7	c #666666",
"8	c #3E3E3E",
"9	c #494949",
"0	c #676767",
"a	c #414141",
"b	c #868686",
"c	c #C4C4C4",
"d	c #808080",
"e	c #D7D7D7",
"f	c #9C9C9C",
"g	c #919191",
"h	c #606060",
"i	c #2F2F2F",
"j	c #474747",
"k	c #A82929",
"l	c #DA3E3E",
"m	c #711B1B",
"n	c #9E2727",
"o	c #FF4646",
"p	c #FF4949",
"q	c #701B1B",
"r	c #731C1C",
"s	c #C52E2E",
"t	c #FF3F3F",
"u	c #892121",
"v	c #C12E2E",
"w	c #9D2626",
"x	c #F33B3B",
"y	c #FF4747",
"z	c #711C1C",
"A	c #8C2222",
"B	c #E43535",
"C	c #F83A3A",
"D	c #721D1D",
"E	c #A12626",
"F	c #5E1717",
"                        ",
"      .+@@#$%           ",
"    ++%     &*%         ",
"   =%         -%        ",
"  ;%           >%       ",
"  =%   ,   '   >%       ",
" )%   !~   {]   ^%      ",
" &%  !!     ]/  (%      ",
" &% __:<^>[}'__ |%      ",
" 1%  }2     34  ^%      ",
" 5%   6(   78   9%      ",
"  !%   0   a   9%       ",
"  >%           a%       ",
"   >%         9%        ",
"    bc%     9~^d        ",
"      efgh'9% ijkl      ",
"               mnop     ",
"               qrstp    ",
"                quvtp   ",
"                 qwvxy  ",
"                  zAvBC ",
"                   zDE  ",
"                    F   ",
"                        "};
