/* XPM */
static char * zoom_selection_xpm[] = {
"24 24 81 1",
" 	c None",
".	c #BBBBBB",
"+	c #DEDEDE",
"@	c #CACACA",
"#	c #BFBFBF",
"$	c #999999",
"%	c #000000",
"&	c #949494",
"*	c #7F7F7F",
"=	c #FFFFFF",
"-	c #6A6A6A",
";	c #FDFDFD",
">	c #585858",
",	c #B9B9B9",
"'	c #717171",
")	c #909090",
"!	c #4C4C4C",
"~	c #929292",
"{	c #BDBDBD",
"]	c #787878",
"^	c #888888",
"/	c #393939",
"(	c #515151",
"_	c #9F9F9F",
":	c #848484",
"<	c #797979",
"[	c #2D2D2D",
"}	c #6F6F6F",
"|	c #636363",
"1	c #939393",
"2	c #545454",
"3	c #494949",
"4	c #5D5D5D",
"5	c #2C2C2C",
"6	c #9A9A9A",
"7	c #878787",
"8	c #595959",
"9	c #333333",
"0	c #535353",
"a	c #777777",
"b	c #5E5E5E",
"c	c #2B2B2B",
"d	c #767676",
"e	c #505050",
"f	c #313131",
"g	c #6D6D6D",
"h	c #343434",
"i	c #414141",
"j	c #868686",
"k	c #C4C4C4",
"l	c #3D3D3D",
"m	c #808080",
"n	c #D7D7D7",
"o	c #9C9C9C",
"p	c #919191",
"q	c #606060",
"r	c #5A5A5A",
"s	c #2F2F2F",
"t	c #474747",
"u	c #A82929",
"v	c #DA3E3E",
"w	c #711B1B",
"x	c #9E2727",
"y	c #FF4646",
"z	c #FF4949",
"A	c #701B1B",
"B	c #731C1C",
"C	c #C52E2E",
"D	c #FF3F3F",
"E	c #892121",
"F	c #C12E2E",
"G	c #9D2626",
"H	c #F33B3B",
"I	c #FF4747",
"J	c #711C1C",
"K	c #8C2222",
"L	c #E43535",
"M	c #F83A3A",
"N	c #721D1D",
"O	c #A12626",
"P	c #5E1717",
"                        ",
"      .+@@#$%           ",
"    ++%     &*%         ",
"   =%         -%        ",
"  ;%           >%       ",
"  =% ,'     )! >%       ",
" ~%  {]     ^/  (%      ",
" &%  _:     <[  !%      ",
" &%  }|1(>2345  6%      ",
" 7%  89     05  (%      ",
" a%  bc     d5  3%      ",
"  b% ef     gh 3%       ",
"  >%           i%       ",
"   >%         3%        ",
"    jk%     3l(m        ",
"      nopqr3% stuv      ",
"               wxyz     ",
"               ABCDz    ",
"                AEFDz   ",
"                 AGFHI  ",
"                  JKFLM ",
"                   JNO  ",
"                    P   ",
"                        "};
