char tune[] = {
  0x4d, 0x54, 0x68, 0x64, 0x00, 0x00, 0x00, 0x06, 
  0x00, 0x01, 0x00, 0x05, 0x01, 0x80, 0x4d, 0x54, 
  0x72, 0x6b, 0x00, 0x00, 0x00, 0x0b, 0x00, 0xff, 
  0x51, 0x03, 0x07, 0xa1, 0x19, 0x00, 0xff, 0x2f, 
  0x00, 0x4d, 0x54, 0x72, 0x6b, 0x00, 0x00, 0x01, 
  0x41, 0x00, 0xc0, 0x51, 0x00, 0xb0, 0x0a, 0x56, 
  0x00, 0xb0, 0x01, 0x54, 0x00, 0xb0, 0x5b, 0x7f, 
  0x00, 0xb0, 0x5d, 0x7f, 0x00, 0x90, 0x1c, 0x7f, 
  0x82, 0x1c, 0x80, 0x1c, 0x00, 0x60, 0x80, 0x1c, 
  0x00, 0x04, 0x90, 0x1c, 0x7f, 0x82, 0x1c, 0x80, 
  0x1c, 0x00, 0x83, 0x60, 0x80, 0x1c, 0x00, 0x04, 
  0x90, 0x28, 0x7f, 0x82, 0x7c, 0x80, 0x28, 0x00, 
  0x04, 0x90, 0x1c, 0x7f, 0x82, 0x1c, 0x80, 0x1c, 
  0x00, 0x60, 0x80, 0x1c, 0x00, 0x04, 0x90, 0x1c, 
  0x7f, 0x82, 0x1c, 0x80, 0x1c, 0x00, 0x83, 0x60, 
  0x80, 0x1c, 0x00, 0x04, 0x90, 0x29, 0x7f, 0x82, 
  0x7c, 0x80, 0x29, 0x00, 0x04, 0x90, 0x1c, 0x7f, 
  0x82, 0x1c, 0x80, 0x1c, 0x00, 0x60, 0x80, 0x1c, 
  0x00, 0x04, 0x90, 0x1c, 0x7f, 0x82, 0x1c, 0x80, 
  0x1c, 0x00, 0x83, 0x60, 0x80, 0x1c, 0x00, 0x04, 
  0x90, 0x28, 0x7f, 0x82, 0x7c, 0x80, 0x28, 0x00, 
  0x04, 0x90, 0x1c, 0x7f, 0x82, 0x1c, 0x80, 0x1c, 
  0x00, 0x82, 0x20, 0x80, 0x1c, 0x00, 0x04, 0x90, 
  0x28, 0x7f, 0x81, 0x3c, 0x80, 0x28, 0x00, 0x04, 
  0x90, 0x2b, 0x7f, 0x82, 0x7c, 0x80, 0x2b, 0x00, 
  0x04, 0x90, 0x29, 0x7f, 0x82, 0x7c, 0x80, 0x29, 
  0x00, 0x04, 0x90, 0x1c, 0x7f, 0x82, 0x1c, 0x80, 
  0x1c, 0x00, 0x60, 0x80, 0x1c, 0x00, 0x04, 0x90, 
  0x1c, 0x7f, 0x82, 0x1c, 0x80, 0x1c, 0x00, 0x83, 
  0x60, 0x80, 0x1c, 0x00, 0x04, 0x90, 0x28, 0x7f, 
  0x82, 0x7c, 0x80, 0x28, 0x00, 0x04, 0x90, 0x1c, 
  0x7f, 0x82, 0x1c, 0x80, 0x1c, 0x00, 0x60, 0x80, 
  0x1c, 0x00, 0x04, 0x90, 0x1c, 0x7f, 0x82, 0x1c, 
  0x80, 0x1c, 0x00, 0x83, 0x60, 0x80, 0x1c, 0x00, 
  0x04, 0x90, 0x29, 0x7f, 0x82, 0x7c, 0x80, 0x29, 
  0x00, 0x04, 0x90, 0x1c, 0x7f, 0x82, 0x1c, 0x80, 
  0x1c, 0x00, 0x60, 0x80, 0x1c, 0x00, 0x04, 0x90, 
  0x1c, 0x7f, 0x82, 0x1c, 0x80, 0x1c, 0x00, 0x83, 
  0x60, 0x80, 0x1c, 0x00, 0x04, 0x90, 0x28, 0x7f, 
  0x82, 0x7c, 0x80, 0x28, 0x00, 0x04, 0x90, 0x1c, 
  0x7f, 0x82, 0x1c, 0x80, 0x1c, 0x00, 0x82, 0x20, 
  0x80, 0x1c, 0x00, 0x04, 0x90, 0x28, 0x7f, 0x81, 
  0x3c, 0x80, 0x28, 0x00, 0x04, 0x90, 0x2b, 0x7f, 
  0x82, 0x7c, 0x80, 0x2b, 0x00, 0x04, 0x90, 0x29, 
  0x7f, 0x82, 0x7c, 0x80, 0x29, 0x00, 0x00, 0xff, 
  0x2f, 0x00, 0x4d, 0x54, 0x72, 0x6b, 0x00, 0x00, 
  0x00, 0x57, 0x00, 0xc1, 0x59, 0x00, 0xb1, 0x5b, 
  0x7f, 0x00, 0xb1, 0x5d, 0x7f, 0x00, 0x91, 0x3b, 
  0x68, 0x8b, 0x7c, 0x81, 0x3b, 0x00, 0x04, 0x91, 
  0x30, 0x68, 0x8b, 0x7c, 0x81, 0x30, 0x00, 0x04, 
  0x91, 0x32, 0x68, 0x8b, 0x7c, 0x81, 0x32, 0x00, 
  0x04, 0x91, 0x34, 0x68, 0x8b, 0x7c, 0x81, 0x34, 
  0x00, 0x04, 0x91, 0x3b, 0x68, 0x8b, 0x7c, 0x81, 
  0x3b, 0x00, 0x04, 0x91, 0x30, 0x68, 0x8b, 0x7c, 
  0x81, 0x30, 0x00, 0x04, 0x91, 0x32, 0x68, 0x8b, 
  0x7c, 0x81, 0x32, 0x00, 0x04, 0x91, 0x34, 0x68, 
  0x8b, 0x7c, 0x81, 0x34, 0x00, 0x00, 0xff, 0x2f, 
  0x00, 0x4d, 0x54, 0x72, 0x6b, 0x00, 0x00, 0x01, 
  0x84, 0x00, 0xc2, 0x50, 0x00, 0xb2, 0x0a, 0x48, 
  0x00, 0xb2, 0x01, 0x20, 0x00, 0xb2, 0x5b, 0x7f, 
  0x00, 0x92, 0x40, 0x64, 0x81, 0x3c, 0x82, 0x40, 
  0x00, 0x04, 0x92, 0x40, 0x64, 0x81, 0x3c, 0x82, 
  0x40, 0x00, 0x04, 0x92, 0x43, 0x64, 0x81, 0x3c, 
  0x82, 0x43, 0x00, 0x04, 0x92, 0x40, 0x64, 0x82, 
  0x7c, 0x82, 0x40, 0x00, 0x04, 0x92, 0x40, 0x64, 
  0x81, 0x3c, 0x82, 0x40, 0x00, 0x04, 0x92, 0x43, 
  0x64, 0x82, 0x7c, 0x82, 0x43, 0x00, 0x04, 0x92, 
  0x40, 0x64, 0x81, 0x3c, 0x82, 0x40, 0x00, 0x04, 
  0x92, 0x40, 0x64, 0x81, 0x3c, 0x82, 0x40, 0x00, 
  0x04, 0x92, 0x43, 0x64, 0x81, 0x3c, 0x82, 0x43, 
  0x00, 0x04, 0x92, 0x40, 0x64, 0x82, 0x7c, 0x82, 
  0x40, 0x00, 0x04, 0x92, 0x40, 0x64, 0x81, 0x3c, 
  0x82, 0x40, 0x00, 0x04, 0x92, 0x45, 0x64, 0x82, 
  0x7c, 0x82, 0x45, 0x00, 0x04, 0x92, 0x40, 0x64, 
  0x81, 0x3c, 0x82, 0x40, 0x00, 0x04, 0x92, 0x40, 
  0x64, 0x81, 0x3c, 0x82, 0x40, 0x00, 0x04, 0x92, 
  0x43, 0x64, 0x81, 0x3c, 0x82, 0x43, 0x00, 0x04, 
  0x92, 0x40, 0x64, 0x84, 0x3c, 0x82, 0x40, 0x00, 
  0x04, 0x92, 0x3e, 0x64, 0x82, 0x7c, 0x82, 0x3e, 
  0x00, 0x04, 0x92, 0x40, 0x64, 0x8b, 0x7c, 0x82, 
  0x40, 0x00, 0x04, 0x92, 0x40, 0x64, 0x81, 0x3c, 
  0x82, 0x40, 0x00, 0x04, 0x92, 0x40, 0x64, 0x81, 
  0x3c, 0x82, 0x40, 0x00, 0x04, 0x92, 0x43, 0x64, 
  0x81, 0x3c, 0x82, 0x43, 0x00, 0x04, 0x92, 0x40, 
  0x64, 0x81, 0x3c, 0x82, 0x40, 0x00, 0x04, 0x92, 
  0x40, 0x64, 0x81, 0x3c, 0x82, 0x40, 0x00, 0x04, 
  0x92, 0x40, 0x64, 0x81, 0x3c, 0x82, 0x40, 0x00, 
  0x04, 0x92, 0x43, 0x64, 0x81, 0x3c, 0x82, 0x43, 
  0x00, 0x04, 0x92, 0x40, 0x64, 0x81, 0x3c, 0x82, 
  0x40, 0x00, 0x04, 0x92, 0x40, 0x64, 0x81, 0x3c, 
  0x82, 0x40, 0x00, 0x04, 0x92, 0x40, 0x64, 0x81, 
  0x3c, 0x82, 0x40, 0x00, 0x04, 0x92, 0x45, 0x64, 
  0x81, 0x3c, 0x82, 0x45, 0x00, 0x04, 0x92, 0x40, 
  0x64, 0x81, 0x3c, 0x82, 0x40, 0x00, 0x04, 0x92, 
  0x40, 0x64, 0x81, 0x3c, 0x82, 0x40, 0x00, 0x04, 
  0x92, 0x40, 0x64, 0x81, 0x3c, 0x82, 0x40, 0x00, 
  0x04, 0x92, 0x45, 0x64, 0x81, 0x3c, 0x82, 0x45, 
  0x00, 0x04, 0x92, 0x40, 0x64, 0x81, 0x3c, 0x82, 
  0x40, 0x00, 0x04, 0x92, 0x40, 0x64, 0x81, 0x3c, 
  0x82, 0x40, 0x00, 0x04, 0x92, 0x40, 0x64, 0x81, 
  0x3c, 0x82, 0x40, 0x00, 0x04, 0x92, 0x43, 0x64, 
  0x81, 0x3c, 0x82, 0x43, 0x00, 0x04, 0x92, 0x40, 
  0x64, 0x82, 0x7c, 0x82, 0x40, 0x00, 0x04, 0x92, 
  0x40, 0x64, 0x81, 0x3c, 0x82, 0x40, 0x00, 0x04, 
  0x92, 0x3e, 0x64, 0x82, 0x7c, 0x82, 0x3e, 0x00, 
  0x04, 0x92, 0x40, 0x64, 0x8b, 0x7c, 0x82, 0x40, 
  0x00, 0x00, 0xff, 0x2f, 0x00, 0x4d, 0x54, 0x72, 
  0x6b, 0x00, 0x00, 0x02, 0x66, 0x00, 0xc9, 0x00, 
  0x00, 0xb9, 0x5b, 0x7f, 0x00, 0x99, 0x23, 0x64, 
  0x81, 0x3c, 0x89, 0x00, 0x00, 0x04, 0x99, 0x33, 
  0x64, 0x81, 0x3c, 0x89, 0x23, 0x00, 0x04, 0x99, 
  0x26, 0x64, 0x81, 0x3c, 0x89, 0x26, 0x00, 0x04, 
  0x99, 0x23, 0x64, 0x81, 0x3c, 0x89, 0x33, 0x00, 
  0x04, 0x99, 0x2c, 0x64, 0x81, 0x3c, 0x89, 0x23, 
  0x00, 0x04, 0x99, 0x23, 0x64, 0x81, 0x3c, 0x89, 
  0x23, 0x00, 0x04, 0x99, 0x26, 0x64, 0x81, 0x3c, 
  0x89, 0x2c, 0x00, 0x04, 0x99, 0x2c, 0x64, 0x81, 
  0x3c, 0x89, 0x26, 0x00, 0x04, 0x99, 0x23, 0x64, 
  0x81, 0x3c, 0x89, 0x2c, 0x00, 0x04, 0x99, 0x33, 
  0x64, 0x81, 0x3c, 0x89, 0x23, 0x00, 0x04, 0x99, 
  0x26, 0x64, 0x81, 0x3c, 0x89, 0x26, 0x00, 0x04, 
  0x99, 0x23, 0x64, 0x81, 0x3c, 0x89, 0x33, 0x00, 
  0x04, 0x99, 0x2c, 0x64, 0x81, 0x3c, 0x89, 0x23, 
  0x00, 0x04, 0x99, 0x23, 0x64, 0x81, 0x3c, 0x89, 
  0x23, 0x00, 0x04, 0x99, 0x26, 0x64, 0x81, 0x3c, 
  0x89, 0x26, 0x00, 0x00, 0x2c, 0x00, 0x04, 0x99, 
  0x26, 0x64, 0x00, 0x2c, 0x64, 0x81, 0x3c, 0x89, 
  0x26, 0x00, 0x04, 0x99, 0x23, 0x64, 0x81, 0x3c, 
  0x89, 0x2c, 0x00, 0x04, 0x99, 0x33, 0x64, 0x81, 
  0x3c, 0x89, 0x23, 0x00, 0x04, 0x99, 0x26, 0x64, 
  0x81, 0x3c, 0x89, 0x26, 0x00, 0x04, 0x99, 0x23, 
  0x64, 0x81, 0x3c, 0x89, 0x33, 0x00, 0x04, 0x99, 
  0x2c, 0x64, 0x81, 0x3c, 0x89, 0x23, 0x00, 0x04, 
  0x99, 0x23, 0x64, 0x81, 0x3c, 0x89, 0x23, 0x00, 
  0x04, 0x99, 0x26, 0x64, 0x81, 0x3c, 0x89, 0x2c, 
  0x00, 0x04, 0x99, 0x2c, 0x64, 0x81, 0x3c, 0x89, 
  0x26, 0x00, 0x04, 0x99, 0x23, 0x64, 0x81, 0x3c, 
  0x89, 0x2c, 0x00, 0x04, 0x99, 0x33, 0x64, 0x81, 
  0x3c, 0x89, 0x23, 0x00, 0x04, 0x99, 0x26, 0x64, 
  0x81, 0x3c, 0x89, 0x26, 0x00, 0x04, 0x99, 0x23, 
  0x64, 0x81, 0x3c, 0x89, 0x33, 0x00, 0x04, 0x99, 
  0x2c, 0x64, 0x81, 0x3c, 0x89, 0x23, 0x00, 0x04, 
  0x99, 0x23, 0x64, 0x81, 0x3c, 0x89, 0x23, 0x00, 
  0x04, 0x99, 0x26, 0x64, 0x81, 0x3c, 0x89, 0x26, 
  0x00, 0x00, 0x2c, 0x00, 0x04, 0x99, 0x26, 0x64, 
  0x00, 0x2c, 0x64, 0x81, 0x3c, 0x89, 0x26, 0x00, 
  0x04, 0x99, 0x23, 0x64, 0x81, 0x3c, 0x89, 0x2c, 
  0x00, 0x04, 0x99, 0x33, 0x64, 0x81, 0x3c, 0x89, 
  0x23, 0x00, 0x04, 0x99, 0x26, 0x64, 0x81, 0x3c, 
  0x89, 0x26, 0x00, 0x04, 0x99, 0x23, 0x64, 0x81, 
  0x3c, 0x89, 0x33, 0x00, 0x04, 0x99, 0x2c, 0x64, 
  0x81, 0x3c, 0x89, 0x23, 0x00, 0x04, 0x99, 0x23, 
  0x64, 0x81, 0x3c, 0x89, 0x23, 0x00, 0x04, 0x99, 
  0x26, 0x64, 0x81, 0x3c, 0x89, 0x2c, 0x00, 0x04, 
  0x99, 0x2c, 0x64, 0x81, 0x3c, 0x89, 0x26, 0x00, 
  0x04, 0x99, 0x23, 0x64, 0x81, 0x3c, 0x89, 0x2c, 
  0x00, 0x04, 0x99, 0x33, 0x64, 0x81, 0x3c, 0x89, 
  0x23, 0x00, 0x04, 0x99, 0x26, 0x64, 0x81, 0x3c, 
  0x89, 0x26, 0x00, 0x04, 0x99, 0x23, 0x64, 0x81, 
  0x3c, 0x89, 0x33, 0x00, 0x04, 0x99, 0x2c, 0x64, 
  0x81, 0x3c, 0x89, 0x23, 0x00, 0x04, 0x99, 0x23, 
  0x64, 0x81, 0x3c, 0x89, 0x23, 0x00, 0x04, 0x99, 
  0x26, 0x64, 0x81, 0x3c, 0x89, 0x26, 0x00, 0x00, 
  0x2c, 0x00, 0x04, 0x99, 0x26, 0x64, 0x00, 0x2c, 
  0x64, 0x81, 0x3c, 0x89, 0x26, 0x00, 0x04, 0x99, 
  0x23, 0x64, 0x81, 0x3c, 0x89, 0x2c, 0x00, 0x04, 
  0x99, 0x33, 0x64, 0x81, 0x3c, 0x89, 0x23, 0x00, 
  0x04, 0x99, 0x26, 0x64, 0x81, 0x3c, 0x89, 0x26, 
  0x00, 0x04, 0x99, 0x23, 0x64, 0x81, 0x3c, 0x89, 
  0x33, 0x00, 0x04, 0x99, 0x2c, 0x64, 0x81, 0x3c, 
  0x89, 0x23, 0x00, 0x04, 0x99, 0x23, 0x64, 0x81, 
  0x3c, 0x89, 0x23, 0x00, 0x04, 0x99, 0x26, 0x64, 
  0x81, 0x3c, 0x89, 0x2c, 0x00, 0x04, 0x99, 0x2c, 
  0x64, 0x81, 0x3c, 0x89, 0x26, 0x00, 0x04, 0x99, 
  0x23, 0x64, 0x81, 0x3c, 0x89, 0x2c, 0x00, 0x04, 
  0x99, 0x33, 0x64, 0x81, 0x3c, 0x89, 0x23, 0x00, 
  0x04, 0x99, 0x26, 0x64, 0x81, 0x3c, 0x89, 0x26, 
  0x00, 0x04, 0x99, 0x23, 0x64, 0x81, 0x3c, 0x89, 
  0x33, 0x00, 0x04, 0x99, 0x2c, 0x64, 0x81, 0x3c, 
  0x89, 0x23, 0x00, 0x04, 0x99, 0x23, 0x64, 0x81, 
  0x3c, 0x89, 0x23, 0x00, 0x04, 0x99, 0x26, 0x64, 
  0x81, 0x3c, 0x89, 0x26, 0x00, 0x00, 0x2c, 0x00, 
  0x04, 0x99, 0x26, 0x64, 0x00, 0x2c, 0x64, 0x81, 
  0x3c, 0x89, 0x26, 0x00, 0x00, 0x2c, 0x00, 0x00, 
  0xff, 0x2f, 0x00
};
