P3
# Created by IrfanView
64 64
255
0 0 0 0 0 0 0 0 0 0 0 0 0 0 0 0 0 0 0 0 0 0 0 0 0 0 0 
0 0 0 0 0 0 0 0 0 0 0 0 0 0 0 0 0 0 0 0 0 0 0 0 
0 0 0 0 0 0 0 0 0 0 0 0 0 0 0 12 12 12 84 84 84 151 151 151 
60 60 60 15 15 15 22 22 22 40 40 40 72 72 72 106 106 106 100 100 100 52 52 52 
57 57 57 103 103 103 50 50 50 6 6 6 2 2 2 0 0 0 0 0 0 0 0 0 
0 0 0 0 0 0 0 0 0 0 0 0 0 0 0 0 0 0 0 0 0 0 0 0 
0 0 0 0 0 0 0 0 0 0 0 0 0 0 0 0 0 0 0 0 0 0 0 0 
0 0 0 0 0 0 0 0 0 0 0 0 0 0 0 0 0 0 0 0 0 0 0 0 0 0 0 0 0 0 0 0 0 0 0 0 0 0 0 0 0 0 0 0 0 0 0 0 
0 0 0 0 0 0 0 0 0 0 0 0 0 0 0 0 0 0 0 0 0 0 0 0 
0 0 0 0 0 0 0 0 0 0 0 0 0 0 0 43 43 43 165 165 165 175 175 175 
119 119 119 103 103 103 106 106 106 96 96 96 138 138 138 0 0 0 0 0 0 12 12 12 
51 51 51 71 71 71 67 67 67 59 59 59 43 43 43 0 0 0 0 0 0 0 0 0 
0 0 0 0 0 0 0 0 0 0 0 0 0 0 0 0 0 0 0 0 0 0 0 0 
0 0 0 0 0 0 0 0 0 0 0 0 0 0 0 0 0 0 0 0 0 0 0 0 
0 0 0 0 0 0 0 0 0 0 0 0 0 0 0 0 0 0 0 0 0 0 0 0 0 0 0 0 0 0 0 0 0 0 0 0 0 0 0 0 0 0 0 0 0 0 0 0 
0 0 0 0 0 0 0 0 0 0 0 0 0 0 0 0 0 0 0 0 0 0 0 0 
8 8 8 0 0 0 2 2 2 0 0 0 33 33 33 51 51 51 66 66 66 122 122 122 
149 149 149 165 165 165 116 116 116 25 25 25 68 68 68 65 65 65 35 35 35 0 0 0 
8 8 8 131 131 131 46 46 46 73 73 73 106 106 106 31 31 31 0 0 0 0 0 0 
0 0 0 0 0 0 0 0 0 0 0 0 0 0 0 0 0 0 0 0 0 0 0 0 
0 0 0 0 0 0 0 0 0 0 0 0 0 0 0 0 0 0 0 0 0 0 0 0 
0 0 0 0 0 0 0 0 0 0 0 0 0 0 0 0 0 0 0 0 0 0 0 0 0 0 0 0 0 0 0 0 0 0 0 0 0 0 0 0 0 0 0 0 0 0 0 0 
0 0 0 78 78 78 51 51 51 35 35 35 34 34 34 42 42 42 47 47 47 120 120 120 
189 189 189 124 124 124 191 191 191 133 133 133 128 128 128 48 48 48 170 170 170 241 241 241 
233 233 233 241 241 241 231 231 231 126 126 126 160 160 160 144 144 144 73 73 73 70 70 70 
60 60 60 71 71 71 46 46 46 37 37 37 91 91 91 75 75 75 25 25 25 0 0 0 
0 0 0 0 0 0 0 0 0 0 0 0 0 0 0 0 0 0 0 0 0 0 0 0 
0 0 0 0 0 0 0 0 0 0 0 0 0 0 0 0 0 0 0 0 0 0 0 0 
0 0 0 0 0 0 0 0 0 0 0 0 0 0 0 0 0 0 0 0 0 0 0 0 0 0 0 0 0 0 0 0 0 0 0 0 0 0 0 71 71 71 143 143 143 42 42 42 
30 30 30 115 115 115 106 106 106 118 118 118 140 140 140 156 156 156 161 161 161 149 149 149 
143 143 143 142 142 142 151 151 151 164 164 164 128 128 128 134 134 134 231 231 231 235 235 235 
226 226 226 227 227 227 231 231 231 121 121 121 120 120 120 177 177 177 59 59 59 91 91 91 
74 74 74 30 30 30 18 18 18 0 0 0 13 13 13 85 85 85 82 82 82 28 28 28 
25 25 25 0 0 0 0 0 0 0 0 0 0 0 0 0 0 0 0 0 0 0 0 0 
0 0 0 0 0 0 0 0 0 0 0 0 0 0 0 0 0 0 0 0 0 0 0 0 
0 0 0 0 0 0 0 0 0 0 0 0 0 0 0 0 0 0 0 0 0 0 0 0 0 0 0 0 0 0 0 0 0 0 0 0 0 0 0 136 136 136 70 70 70 109 109 109 
165 165 165 207 207 207 213 213 213 221 221 221 226 226 226 225 225 225 222 222 222 214 214 214 
202 202 202 177 177 177 183 183 183 214 214 214 186 186 186 211 211 211 234 234 234 222 222 222 
223 223 223 225 225 225 232 232 232 144 144 144 48 48 48 89 89 89 77 77 77 156 156 156 
131 131 131 78 78 78 68 68 68 47 47 47 87 87 87 39 39 39 93 93 93 107 107 107 
139 139 139 17 17 17 0 0 0 0 0 0 0 0 0 0 0 0 0 0 0 0 0 0 
0 0 0 0 0 0 0 0 0 0 0 0 0 0 0 0 0 0 0 0 0 0 0 0 
0 0 0 0 0 0 0 0 0 0 0 0 0 0 0 0 0 0 0 0 0 0 0 0 0 0 0 0 0 0 0 0 0 0 0 0 0 0 0 47 47 47 128 128 128 255 255 255 
255 255 255 255 255 255 244 244 244 232 232 232 233 233 233 229 229 229 226 226 226 228 228 228 
234 234 234 233 233 233 226 226 226 235 235 235 223 223 223 227 227 227 228 228 228 224 224 224 
226 226 226 226 226 226 239 239 239 215 215 215 120 120 120 202 202 202 227 227 227 203 203 203 
160 160 160 130 130 130 141 141 141 199 199 199 255 255 255 25 25 25 0 0 0 100 100 100 
115 115 115 95 95 95 0 0 0 0 0 0 0 0 0 0 0 0 0 0 0 0 0 0 
0 0 0 0 0 0 0 0 0 0 0 0 0 0 0 0 0 0 0 0 0 0 0 0 
0 0 0 0 0 0 0 0 0 0 0 0 0 0 0 0 0 0 0 0 0 0 0 0 0 0 0 0 0 0 0 0 0 0 0 0 0 0 0 110 110 110 98 98 98 123 123 123 
68 68 68 126 126 126 212 212 212 228 228 228 226 226 226 226 226 226 227 227 227 227 227 227 
225 225 225 225 225 225 225 225 225 228 228 228 225 225 225 228 228 228 227 227 227 227 227 227 
227 227 227 227 227 227 231 231 231 228 228 228 138 138 138 163 163 163 255 255 255 255 255 255 
250 250 250 236 236 236 183 183 183 104 104 104 120 120 120 161 161 161 80 80 80 8 8 8 
46 46 46 33 33 33 0 0 0 0 0 0 0 0 0 0 0 0 0 0 0 0 0 0 
0 0 0 0 0 0 0 0 0 0 0 0 0 0 0 0 0 0 0 0 0 0 0 0 
0 0 0 0 0 0 0 0 0 0 0 0 0 0 0 0 0 0 0 0 0 0 0 0 0 0 0 55 55 55 65 65 65 26 26 26 0 0 0 18 18 18 185 185 185 97 97 97 
32 32 32 176 176 176 231 231 231 227 227 227 223 223 223 223 223 223 225 225 225 225 225 225 
225 225 225 225 225 225 221 221 221 225 225 225 224 224 224 227 227 227 227 227 227 227 227 227 
227 227 227 227 227 227 226 226 226 243 243 243 178 178 178 112 112 112 238 238 238 239 239 239 
240 240 240 248 248 248 250 250 250 255 255 255 198 198 198 118 118 118 148 148 148 164 164 164 
111 111 111 111 111 111 46 46 46 0 0 0 0 0 0 0 0 0 0 0 0 0 0 0 
0 0 0 0 0 0 0 0 0 0 0 0 0 0 0 0 0 0 0 0 0 0 0 0 
0 0 0 0 0 0 0 0 0 0 0 0 0 0 0 0 0 0 0 0 0 0 0 0 0 0 0 73 73 73 207 207 207 127 127 127 129 129 129 159 159 159 127 127 127 111 111 111 
180 180 180 245 245 245 227 227 227 222 222 222 224 224 224 221 221 221 221 221 221 222 222 222 
226 226 226 230 230 230 229 229 229 229 229 229 227 227 227 226 226 226 225 225 225 227 227 227 
227 227 227 227 227 227 227 227 227 232 232 232 204 204 204 97 97 97 204 204 204 248 248 248 
239 239 239 237 237 237 235 235 235 242 242 242 253 253 253 234 234 234 189 189 189 132 132 132 
160 160 160 169 169 169 65 65 65 37 37 37 0 0 0 0 0 0 0 0 0 0 0 0 
0 0 0 0 0 0 0 0 0 0 0 0 0 0 0 0 0 0 0 0 0 0 0 0 
0 0 0 0 0 0 0 0 0 0 0 0 0 0 0 0 0 0 0 0 0 0 0 0 0 0 0 0 0 0 3 3 3 0 0 0 64 64 64 67 67 67 91 91 91 201 201 201 
241 241 241 234 234 234 221 221 221 226 226 226 221 221 221 227 227 227 223 223 223 228 228 228 
231 231 231 222 222 222 200 200 200 193 193 193 239 239 239 232 232 232 228 228 228 227 227 227 
227 227 227 227 227 227 225 225 225 232 232 232 231 231 231 121 121 121 154 154 154 246 246 246 
244 244 244 231 231 231 235 235 235 240 240 240 238 238 238 239 239 239 250 250 250 234 234 234 
155 155 155 101 101 101 48 48 48 125 125 125 28 28 28 0 0 0 0 0 0 0 0 0 
0 0 0 0 0 0 0 0 0 0 0 0 0 0 0 0 0 0 0 0 0 0 0 0 
0 0 0 0 0 0 0 0 0 0 0 0 0 0 0 0 0 0 0 0 0 0 0 0 0 0 0 0 0 0 0 0 0 0 0 0 37 37 37 81 81 81 212 212 212 235 235 235 
229 229 229 227 227 227 225 225 225 226 226 226 223 223 223 233 233 233 156 156 156 178 178 178 
233 233 233 229 229 229 145 145 145 77 77 77 205 205 205 239 239 239 231 231 231 224 224 224 
228 228 228 228 228 228 226 226 226 228 228 228 238 238 238 159 159 159 114 114 114 223 223 223 
244 244 244 235 235 235 236 236 236 238 238 238 238 238 238 238 238 238 240 240 240 247 247 247 
254 254 254 211 211 211 96 96 96 48 48 48 78 78 78 0 0 0 0 0 0 0 0 0 
0 0 0 0 0 0 0 0 0 0 0 0 0 0 0 0 0 0 0 0 0 0 0 0 
0 0 0 0 0 0 0 0 0 0 0 0 0 0 0 0 0 0 0 0 0 0 0 0 0 0 0 0 0 0 17 17 17 103 103 103 94 94 94 195 195 195 234 234 234 224 224 224 
222 222 222 220 220 220 216 216 216 223 223 223 234 234 234 219 219 219 91 91 91 172 172 172 
243 243 243 240 240 240 142 142 142 9 9 9 87 87 87 188 188 188 240 240 240 228 228 228 
225 225 225 222 222 222 222 222 222 225 225 225 232 232 232 204 204 204 116 116 116 202 202 202 
247 247 247 240 240 240 239 239 239 239 239 239 238 238 238 238 238 238 240 240 240 241 241 241 
243 243 243 249 249 249 241 241 241 114 114 114 46 46 46 30 30 30 4 4 4 0 0 0 
0 0 0 0 0 0 0 0 0 0 0 0 0 0 0 0 0 0 0 0 0 0 0 0 
0 0 0 0 0 0 0 0 0 0 0 0 0 0 0 0 0 0 0 0 0 0 0 0 0 0 0 0 0 0 15 15 15 114 114 114 146 146 146 241 241 241 225 225 225 226 226 226 
225 225 225 229 229 229 222 222 222 234 234 234 239 239 239 137 137 137 18 18 18 172 172 172 
255 255 255 226 226 226 97 97 97 112 112 112 90 90 90 56 56 56 178 178 178 253 253 253 
232 232 232 228 228 228 221 221 221 229 229 229 234 234 234 238 238 238 119 119 119 153 153 153 
246 246 246 241 241 241 240 240 240 240 240 240 240 240 240 241 241 241 241 241 241 241 241 241 
237 237 237 233 233 233 254 254 254 205 205 205 32 32 32 82 82 82 25 25 25 0 0 0 
0 0 0 0 0 0 0 0 0 0 0 0 0 0 0 0 0 0 0 0 0 0 0 0 
0 0 0 0 0 0 0 0 0 0 0 0 0 0 0 0 0 0 0 0 0 0 0 0 0 0 0 28 28 28 142 142 142 160 160 160 246 246 246 237 237 237 220 220 220 220 220 220 
226 226 226 225 225 225 220 220 220 243 243 243 194 194 194 76 76 76 58 58 58 68 68 68 
159 159 159 118 118 118 82 82 82 145 145 145 154 154 154 100 100 100 44 44 44 132 132 132 
222 222 222 231 231 231 233 233 233 190 190 190 132 132 132 234 234 234 151 151 151 100 100 100 
239 239 239 247 247 247 240 240 240 240 240 240 239 239 239 241 241 241 239 239 239 239 239 239 
232 232 232 232 232 232 243 243 243 243 243 243 105 105 105 88 88 88 117 117 117 23 23 23 
0 0 0 0 0 0 0 0 0 0 0 0 0 0 0 0 0 0 0 0 0 0 0 0 
0 0 0 0 0 0 0 0 0 0 0 0 0 0 0 0 0 0 0 0 0 1 1 1 4 4 4 162 162 162 115 115 115 234 234 234 235 235 235 226 226 226 193 193 193 174 174 174 
224 224 224 233 233 233 211 211 211 132 132 132 51 51 51 38 38 38 63 63 63 26 26 26 
9 9 9 35 35 35 89 89 89 69 69 69 37 37 37 35 35 35 43 43 43 29 29 29 
57 57 57 130 130 130 200 200 200 163 163 163 46 46 46 178 178 178 213 213 213 108 108 108 
204 204 204 251 251 251 238 238 238 238 238 238 240 240 240 240 240 240 240 240 240 239 239 239 
234 234 234 227 227 227 238 238 238 243 243 243 149 149 149 154 154 154 145 145 145 107 107 107 
54 54 54 0 0 0 0 0 0 0 0 0 0 0 0 0 0 0 0 0 0 0 0 0 
0 0 0 0 0 0 0 0 0 0 0 0 0 0 0 0 0 0 0 0 0 6 6 6 90 90 90 131 131 131 166 166 166 237 237 237 227 227 227 220 220 220 179 179 179 166 166 166 
230 230 230 238 238 238 197 197 197 76 76 76 53 53 53 58 58 58 60 60 60 64 64 64 
72 72 72 81 81 81 90 90 90 89 89 89 79 79 79 73 73 73 85 85 85 73 73 73 
49 49 49 49 49 49 71 71 71 56 56 56 39 39 39 89 89 89 178 178 178 131 131 131 
163 163 163 255 255 255 240 240 240 239 239 239 239 239 239 238 238 238 240 240 240 238 238 238 
237 237 237 236 236 236 237 237 237 249 249 249 185 185 185 159 159 159 212 212 212 110 110 110 
158 158 158 59 59 59 0 0 0 0 0 0 0 0 0 0 0 0 0 0 0 0 0 0 
0 0 0 0 0 0 0 0 0 0 0 0 0 0 0 0 0 0 0 0 0 7 7 7 75 75 75 119 119 119 234 234 234 225 225 225 229 229 229 230 230 230 154 154 154 161 161 161 
255 255 255 228 228 228 123 123 123 63 63 63 84 84 84 93 93 93 94 94 94 97 97 97 
103 103 103 109 109 109 115 115 115 119 119 119 114 114 114 118 118 118 139 139 139 117 117 117 
79 79 79 80 80 80 133 133 133 151 151 151 176 176 176 120 120 120 85 85 85 80 80 80 
135 135 135 255 255 255 249 249 249 240 240 240 239 239 239 238 238 238 237 237 237 240 240 240 
232 232 232 238 238 238 238 238 238 249 249 249 197 197 197 135 135 135 238 238 238 171 171 171 
102 102 102 25 25 25 0 0 0 0 0 0 0 0 0 0 0 0 0 0 0 0 0 0 
0 0 0 0 0 0 0 0 0 0 0 0 0 0 0 0 0 0 0 0 0 42 42 42 107 107 107 157 157 157 243 243 243 225 225 225 227 227 227 227 227 227 169 169 169 66 66 66 
98 98 98 61 61 61 36 36 36 72 72 72 98 98 98 104 104 104 104 104 104 108 108 108 
117 117 117 120 120 120 122 122 122 125 125 125 130 130 130 141 141 141 158 158 158 145 145 145 
109 109 109 61 61 61 54 54 54 74 74 74 86 86 86 84 84 84 59 59 59 16 16 16 
43 43 43 175 175 175 228 228 228 243 243 243 250 250 250 241 241 241 235 235 235 240 240 240 
237 237 237 239 239 239 241 241 241 246 246 246 206 206 206 128 128 128 217 217 217 237 237 237 
131 131 131 67 67 67 10 10 10 0 0 0 0 0 0 0 0 0 0 0 0 0 0 0 
0 0 0 0 0 0 0 0 0 0 0 0 0 0 0 0 0 0 0 0 0 44 44 44 121 121 121 190 190 190 241 241 241 222 222 222 222 222 222 226 226 226 228 228 228 159 159 159 
44 44 44 21 21 21 58 58 58 82 82 82 97 97 97 102 102 102 102 102 102 106 106 106 
116 116 116 120 120 120 121 121 121 125 125 125 129 129 129 140 140 140 153 153 153 150 150 150 
139 139 139 109 109 109 66 66 66 59 59 59 74 74 74 86 86 86 90 90 90 84 84 84 
61 61 61 60 60 60 98 98 98 124 124 124 184 184 184 233 233 233 240 240 240 238 238 238 
239 239 239 238 238 238 240 240 240 246 246 246 217 217 217 118 118 118 155 155 155 132 132 132 
94 94 94 84 84 84 9 9 9 0 0 0 0 0 0 0 0 0 0 0 0 0 0 0 
0 0 0 0 0 0 0 0 0 0 0 0 0 0 0 0 0 0 0 0 0 28 28 28 98 98 98 219 219 219 237 237 237 228 228 228 227 227 227 230 230 230 238 238 238 216 216 216 
64 64 64 47 47 47 73 73 73 87 87 87 99 99 99 101 101 101 103 103 103 106 106 106 
114 114 114 117 117 117 120 120 120 124 124 124 129 129 129 136 136 136 145 145 145 146 146 146 
146 146 146 142 142 142 120 120 120 113 113 113 117 117 117 122 122 122 120 120 120 113 113 113 
92 92 92 64 64 64 106 106 106 149 149 149 173 173 173 222 222 222 236 236 236 237 237 237 
238 238 238 240 240 240 240 240 240 247 247 247 227 227 227 119 119 119 189 189 189 114 114 114 
11 11 11 113 113 113 25 25 25 0 0 0 0 0 0 0 0 0 0 0 0 0 0 0 
0 0 0 0 0 0 0 0 0 0 0 0 0 0 0 0 0 0 0 0 0 144 144 144 119 119 119 238 238 238 226 226 226 226 226 226 224 224 224 241 241 241 212 212 212 86 86 86 
37 37 37 63 63 63 79 79 79 90 90 90 98 98 98 104 104 104 105 105 105 111 111 111 
115 115 115 119 119 119 121 121 121 128 128 128 127 127 127 131 131 131 136 136 136 138 138 138 
141 141 141 139 139 139 129 129 129 130 130 130 128 128 128 123 123 123 117 117 117 114 114 114 
95 95 95 65 65 65 123 123 123 234 234 234 245 245 245 244 244 244 241 241 241 241 241 241 
240 240 240 240 240 240 241 241 241 248 248 248 225 225 225 94 94 94 204 204 204 224 224 224 
65 65 65 21 21 21 0 0 0 0 0 0 0 0 0 0 0 0 0 0 0 0 0 0 
0 0 0 0 0 0 0 0 0 0 0 0 0 0 0 0 0 0 0 0 0 145 145 145 110 110 110 245 245 245 229 229 229 232 232 232 221 221 221 220 220 220 110 110 110 30 30 30 
58 58 58 73 73 73 80 80 80 93 93 93 100 100 100 105 105 105 110 110 110 114 114 114 
115 115 115 121 121 121 123 123 123 126 126 126 126 126 126 129 129 129 131 131 131 132 132 132 
132 132 132 131 131 131 126 126 126 124 124 124 123 123 123 117 117 117 112 112 112 107 107 107 
95 95 95 68 68 68 120 120 120 240 240 240 245 245 245 234 234 234 232 232 232 241 241 241 
239 239 239 237 237 237 242 242 242 251 251 251 222 222 222 103 103 103 203 203 203 255 255 255 
131 131 131 110 110 110 35 35 35 0 0 0 0 0 0 0 0 0 0 0 0 0 0 0 
0 0 0 0 0 0 0 0 0 0 0 0 0 0 0 0 0 0 0 0 0 135 135 135 99 99 99 249 249 249 226 226 226 205 205 205 126 126 126 86 86 86 32 32 32 37 37 37 
75 75 75 72 72 72 72 72 72 79 79 79 88 88 88 98 98 98 105 105 105 109 109 109 
114 114 114 119 119 119 122 122 122 126 126 126 129 129 129 131 131 131 132 132 132 131 131 131 
130 130 130 128 128 128 123 123 123 120 120 120 117 117 117 113 113 113 107 107 107 102 102 102 
92 92 92 68 68 68 109 109 109 233 233 233 244 244 244 236 236 236 237 237 237 238 238 238 
237 237 237 235 235 235 237 237 237 249 249 249 212 212 212 107 107 107 195 195 195 244 244 244 
189 189 189 72 72 72 151 151 151 49 49 49 0 0 0 0 0 0 0 0 0 0 0 0 
0 0 0 0 0 0 0 0 0 0 0 0 0 0 0 0 0 0 0 0 0 144 144 144 81 81 81 242 242 242 232 232 232 225 225 225 204 204 204 201 201 201 103 103 103 47 47 47 
79 79 79 68 68 68 64 64 64 71 71 71 74 74 74 74 74 74 79 79 79 92 92 92 
104 104 104 109 109 109 117 117 117 122 122 122 126 126 126 130 130 130 131 131 131 130 130 130 
128 128 128 126 126 126 125 125 125 123 123 123 121 121 121 117 117 117 110 110 110 100 100 100 
91 91 91 76 76 76 96 96 96 200 200 200 247 247 247 239 239 239 237 237 237 234 234 234 
239 239 239 239 239 239 238 238 238 251 251 251 205 205 205 111 111 111 215 215 215 234 234 234 
242 242 242 69 69 69 143 143 143 77 77 77 0 0 0 0 0 0 0 0 0 0 0 0 
0 0 0 0 0 0 0 0 0 0 0 0 0 0 0 0 0 0 0 0 0 76 76 76 65 65 65 230 230 230 219 219 219 231 231 231 228 228 228 239 239 239 112 112 112 51 51 51 
85 85 85 79 79 79 73 73 73 77 77 77 85 85 85 85 85 85 78 78 78 69 69 69 
81 81 81 92 92 92 100 100 100 107 107 107 112 112 112 115 115 115 114 114 114 111 111 111 
108 108 108 110 110 110 109 109 109 111 111 111 110 110 110 106 106 106 102 102 102 96 96 96 
90 90 90 87 87 87 74 74 74 78 78 78 205 205 205 255 255 255 245 245 245 236 236 236 
241 241 241 239 239 239 237 237 237 245 245 245 175 175 175 111 111 111 227 227 227 240 240 240 
228 228 228 68 68 68 98 98 98 34 34 34 0 0 0 0 0 0 0 0 0 0 0 0 
0 0 0 0 0 0 0 0 0 0 0 0 0 0 0 0 0 0 0 0 0 35 35 35 75 75 75 161 161 161 139 139 139 213 213 213 235 235 235 229 229 229 102 102 102 52 52 52 
87 87 87 83 83 83 70 70 70 66 66 66 72 72 72 90 90 90 93 93 93 77 77 77 
73 73 73 81 81 81 94 94 94 109 109 109 113 113 113 109 109 109 100 100 100 88 88 88 
79 79 79 77 77 77 82 82 82 85 85 85 91 91 91 89 89 89 86 86 86 87 87 87 
89 89 89 90 90 90 84 84 84 59 59 59 104 104 104 208 208 208 250 250 250 236 236 236 
237 237 237 243 243 243 244 244 244 250 250 250 151 151 151 131 131 131 248 248 248 207 207 207 
140 140 140 101 101 101 108 108 108 0 0 0 0 0 0 0 0 0 0 0 0 0 0 0 
0 0 0 0 0 0 0 0 0 0 0 0 0 0 0 0 0 0 0 0 0 27 27 27 80 80 80 46 46 46 25 25 25 193 193 193 245 245 245 229 229 229 110 110 110 59 59 59 
86 86 86 86 86 86 80 80 80 74 74 74 75 75 75 83 83 83 91 91 91 87 87 87 
80 80 80 81 81 81 90 90 90 114 114 114 117 117 117 105 105 105 87 87 87 75 75 75 
69 69 69 74 74 74 93 93 93 93 93 93 93 93 93 86 86 86 81 81 81 84 84 84 
89 89 89 91 91 91 85 85 85 79 79 79 74 74 74 94 94 94 220 220 220 255 255 255 
241 241 241 244 244 244 203 203 203 232 232 232 130 130 130 154 154 154 241 241 241 135 135 135 
143 143 143 217 217 217 126 126 126 0 0 0 0 0 0 0 0 0 0 0 0 0 0 0 
0 0 0 0 0 0 0 0 0 0 0 0 0 0 0 0 0 0 0 0 0 2 2 2 11 11 11 138 138 138 87 87 87 157 157 157 242 242 242 239 239 239 124 124 124 58 58 58 
87 87 87 88 88 88 88 88 88 85 85 85 84 84 84 81 81 81 85 85 85 90 90 90 
85 85 85 81 81 81 90 90 90 117 117 117 112 112 112 95 95 95 86 86 86 87 87 87 
81 81 81 80 80 80 88 88 88 78 78 78 77 77 77 81 81 81 80 80 80 85 85 85 
94 94 94 97 97 97 86 86 86 96 96 96 194 194 194 84 84 84 78 78 78 228 228 228 
255 255 255 236 236 236 100 100 100 177 177 177 108 108 108 194 194 194 174 174 174 108 108 108 
212 212 212 236 236 236 95 95 95 0 0 0 0 0 0 0 0 0 0 0 0 0 0 0 
0 0 0 0 0 0 0 0 0 0 0 0 0 0 0 0 0 0 0 0 0 0 0 0 0 0 0 0 0 0 0 0 0 136 136 136 236 236 236 244 244 244 148 148 148 58 58 58 
88 88 88 91 91 91 95 95 95 96 96 96 93 93 93 90 90 90 88 88 88 83 83 83 
77 77 77 79 79 79 92 92 92 109 109 109 102 102 102 89 89 89 89 89 89 91 91 91 
91 91 91 85 85 85 90 90 90 90 90 90 88 88 88 86 86 86 91 91 91 98 98 98 
104 104 104 99 99 99 87 87 87 62 62 62 200 200 200 226 226 226 79 79 79 31 31 31 
151 151 151 162 162 162 58 58 58 158 158 158 131 131 131 190 190 190 126 126 126 212 212 212 
255 255 255 244 244 244 108 108 108 6 6 6 0 0 0 0 0 0 0 0 0 0 0 0 
0 0 0 0 0 0 0 0 0 0 0 0 0 0 0 0 0 0 0 0 0 0 0 0 0 0 0 0 0 0 17 17 17 142 142 142 204 204 204 243 243 243 159 159 159 58 58 58 
84 84 84 94 94 94 97 97 97 101 101 101 102 102 102 102 102 102 100 100 100 88 88 88 
79 79 79 84 84 84 98 98 98 106 106 106 98 98 98 92 92 92 92 92 92 102 102 102 
105 105 105 101 101 101 98 98 98 99 99 99 101 101 101 102 102 102 102 102 102 103 103 103 
104 104 104 95 95 95 87 87 87 53 53 53 148 148 148 246 246 246 220 220 220 101 101 101 
24 24 24 0 0 0 92 92 92 170 170 170 131 131 131 121 121 121 192 192 192 248 248 248 
255 255 255 202 202 202 99 99 99 8 8 8 0 0 0 0 0 0 0 0 0 0 0 0 
0 0 0 0 0 0 0 0 0 0 0 0 0 0 0 0 0 0 0 0 0 0 0 0 0 0 0 0 0 0 57 57 57 192 192 192 162 162 162 253 253 253 180 180 180 69 69 69 
79 79 79 94 94 94 100 100 100 105 105 105 108 108 108 105 105 105 98 98 98 84 84 84 
79 79 79 90 90 90 105 105 105 112 112 112 99 99 99 89 89 89 93 93 93 110 110 110 
121 121 121 118 118 118 111 111 111 110 110 110 112 112 112 107 107 107 102 102 102 104 104 104 
101 101 101 93 93 93 84 84 84 67 67 67 111 111 111 218 218 218 244 244 244 245 245 245 
176 176 176 23 23 23 175 175 175 142 142 142 69 69 69 131 131 131 245 245 245 243 243 243 
255 255 255 174 174 174 96 96 96 10 10 10 0 0 0 0 0 0 0 0 0 0 0 0 
0 0 0 0 0 0 0 0 0 0 0 0 0 0 0 0 0 0 0 0 0 0 0 0 0 0 0 0 0 0 16 16 16 131 131 131 120 120 120 236 236 236 213 213 213 102 102 102 
69 69 69 93 93 93 99 99 99 104 104 104 104 104 104 96 96 96 88 88 88 78 78 78 
79 79 79 102 102 102 120 120 120 116 116 116 100 100 100 87 87 87 87 87 87 104 104 104 
122 122 122 130 130 130 131 131 131 127 127 127 119 119 119 111 111 111 103 103 103 103 103 103 
99 99 99 89 89 89 79 79 79 91 91 91 84 84 84 192 192 192 235 235 235 242 242 242 
183 183 183 66 66 66 199 199 199 54 54 54 77 77 77 229 229 229 251 251 251 245 245 245 
255 255 255 135 135 135 142 142 142 30 30 30 0 0 0 0 0 0 0 0 0 0 0 0 
0 0 0 0 0 0 0 0 0 0 0 0 0 0 0 0 0 0 0 0 0 0 0 0 0 0 0 0 0 0 0 0 0 56 56 56 99 99 99 191 191 191 238 238 238 145 145 145 
63 63 63 84 84 84 94 94 94 99 99 99 94 94 94 86 86 86 81 81 81 78 78 78 
86 86 86 107 107 107 128 128 128 123 123 123 102 102 102 87 87 87 84 84 84 91 91 91 
101 101 101 120 120 120 130 130 130 126 126 126 119 119 119 109 109 109 100 100 100 98 98 98 
93 93 93 83 83 83 74 74 74 109 109 109 75 75 75 161 161 161 247 247 247 248 248 248 
123 123 123 96 96 96 152 152 152 50 50 50 196 196 196 255 255 255 162 162 162 232 232 232 
225 225 225 95 95 95 117 117 117 4 4 4 0 0 0 0 0 0 0 0 0 0 0 0 
0 0 0 0 0 0 0 0 0 0 0 0 0 0 0 0 0 0 0 0 0 0 0 0 0 0 0 0 0 0 0 0 0 6 6 6 112 112 112 138 138 138 252 252 252 194 194 194 
69 69 69 65 65 65 86 86 86 90 90 90 87 87 87 82 82 82 80 80 80 76 76 76 
86 86 86 105 105 105 124 124 124 117 117 117 94 94 94 86 86 86 90 90 90 91 91 91 
88 88 88 103 103 103 114 114 114 116 116 116 115 115 115 105 105 105 96 96 96 92 92 92 
84 84 84 69 69 69 80 80 80 132 132 132 80 80 80 103 103 103 241 241 241 235 235 235 
87 87 87 126 126 126 96 96 96 151 151 151 255 255 255 209 209 209 36 36 36 211 211 211 
155 155 155 117 117 117 45 45 45 3 3 3 0 0 0 0 0 0 0 0 0 0 0 0 
0 0 0 0 0 0 0 0 0 0 0 0 0 0 0 0 0 0 0 0 0 0 0 0 0 0 0 0 0 0 0 0 0 0 0 0 16 16 16 101 101 101 196 196 196 235 235 235 
144 144 144 48 48 48 78 78 78 81 81 81 73 73 73 78 78 78 78 78 78 75 75 75 
78 78 78 84 84 84 92 92 92 90 90 90 85 85 85 89 89 89 96 96 96 97 97 97 
86 86 86 92 92 92 104 104 104 105 105 105 107 107 107 97 97 97 87 87 87 82 82 82 
78 78 78 98 98 98 127 127 127 168 168 168 122 122 122 91 91 91 248 248 248 172 172 172 
67 67 67 122 122 122 91 91 91 244 244 244 240 240 240 94 94 94 0 0 0 69 69 69 
71 71 71 32 32 32 0 0 0 0 0 0 0 0 0 0 0 0 0 0 0 0 0 0 
0 0 0 0 0 0 0 0 0 0 0 0 0 0 0 0 0 0 0 0 0 0 0 0 0 0 0 0 0 0 0 0 0 0 0 0 2 2 2 131 131 131 117 117 117 218 218 218 
238 238 238 105 105 105 65 65 65 79 79 79 75 75 75 80 80 80 85 85 85 86 86 86 
85 85 85 85 85 85 87 87 87 86 86 86 91 91 91 93 93 93 91 91 91 87 87 87 
81 81 81 85 85 85 96 96 96 95 95 95 87 87 87 79 79 79 89 89 89 109 109 109 
128 128 128 146 146 146 155 155 155 167 167 167 132 132 132 65 65 65 147 147 147 77 77 77 
133 133 133 79 79 79 164 164 164 255 255 255 121 121 121 130 130 130 199 199 199 88 88 88 
41 41 41 14 14 14 180 180 180 109 109 109 21 21 21 0 0 0 0 0 0 0 0 0 
0 0 0 0 0 0 0 0 0 0 0 0 0 0 0 0 0 0 0 0 0 0 0 0 0 0 0 0 0 0 0 0 0 0 0 0 0 0 0 22 22 22 171 171 171 121 121 121 
236 236 236 210 210 210 77 77 77 69 69 69 103 103 103 103 103 103 87 87 87 78 78 78 
83 83 83 89 89 89 88 88 88 88 88 88 88 88 88 84 84 84 79 79 79 78 78 78 
76 76 76 76 76 76 88 88 88 91 91 91 84 84 84 96 96 96 130 130 130 149 149 149 
160 160 160 160 160 160 152 152 152 147 147 147 165 165 165 77 77 77 37 37 37 131 131 131 
131 131 131 97 97 97 239 239 239 143 143 143 92 92 92 236 236 236 255 255 255 235 235 235 
109 109 109 87 87 87 133 133 133 98 98 98 40 40 40 0 0 0 0 0 0 0 0 0 
0 0 0 0 0 0 0 0 0 0 0 0 0 0 0 0 0 0 0 0 0 0 0 0 0 0 0 0 0 0 0 0 0 0 0 0 0 0 0 0 0 0 82 82 82 97 97 97 
122 122 122 245 245 245 175 175 175 51 51 51 101 101 101 114 114 114 92 92 92 78 78 78 
73 73 73 74 74 74 79 79 79 80 80 80 77 77 77 73 73 73 77 77 77 84 84 84 
84 84 84 74 74 74 83 83 83 87 87 87 101 101 101 141 141 141 168 168 168 168 168 168 
177 177 177 171 171 171 166 166 166 175 175 175 148 148 148 42 42 42 65 65 65 212 212 212 
90 90 90 150 150 150 160 160 160 69 69 69 199 199 199 249 249 249 194 194 194 155 155 155 
128 128 128 51 51 51 9 9 9 0 0 0 0 0 0 55 55 55 0 0 0 23 23 23 
39 39 39 33 33 33 65 65 65 3 3 3 0 0 0 0 0 0 0 0 0 0 0 0 0 0 0 0 0 0 0 0 0 0 0 0 0 0 0 0 0 0 0 0 0 41 41 41 
75 75 75 118 118 118 217 217 217 165 165 165 56 56 56 88 88 88 98 98 98 88 88 88 
84 84 84 84 84 84 87 87 87 89 89 89 87 87 87 87 87 87 96 96 96 103 103 103 
106 106 106 91 91 91 93 93 93 123 123 123 158 158 158 169 169 169 166 166 166 130 130 130 
89 89 89 59 59 59 64 64 64 71 71 71 33 33 33 57 57 57 112 112 112 139 139 139 
66 66 66 101 101 101 85 85 85 162 162 162 169 169 169 149 149 149 60 60 60 43 43 43 
0 0 0 0 0 0 0 0 0 0 0 0 0 0 0 106 106 106 29 29 29 81 81 81 
94 94 94 109 109 109 152 152 152 134 134 134 19 19 19 0 0 0 1 1 1 0 0 0 0 0 0 0 0 0 0 0 0 0 0 0 0 0 0 0 0 0 0 0 0 0 0 0 
28 28 28 87 87 87 111 111 111 179 179 179 141 141 141 78 78 78 92 92 92 99 99 99 
97 97 97 94 94 94 94 94 94 95 95 95 94 94 94 100 100 100 108 108 108 109 109 109 
102 102 102 95 95 95 123 123 123 162 162 162 164 164 164 103 103 103 52 52 52 15 15 15 
0 0 0 0 0 0 15 15 15 40 40 40 55 55 55 60 60 60 34 34 34 21 21 21 
20 20 20 52 52 52 85 85 85 156 156 156 127 127 127 48 48 48 0 0 0 7 7 7 
118 118 118 126 126 126 143 143 143 102 102 102 16 16 16 119 119 119 77 77 77 106 106 106 
111 111 111 133 133 133 83 83 83 92 92 92 209 209 209 126 126 126 8 8 8 0 0 0 0 0 0 0 0 0 0 0 0 0 0 0 0 0 0 0 0 0 0 0 0 0 0 0 
0 0 0 38 38 38 46 46 46 68 68 68 76 76 76 55 55 55 70 70 70 101 101 101 
105 105 105 104 104 104 106 106 106 108 108 108 109 109 109 109 109 109 106 106 106 99 99 99 
94 94 94 117 117 117 157 157 157 139 139 139 73 73 73 13 13 13 0 0 0 0 0 0 
23 23 23 102 102 102 150 150 150 168 168 168 186 186 186 123 123 123 21 21 21 0 0 0 
3 3 3 7 7 7 18 18 18 54 54 54 36 36 36 0 0 0 0 0 0 40 40 40 
92 92 92 97 97 97 96 96 96 101 101 101 73 73 73 46 46 46 21 21 21 70 70 70 
115 115 115 195 195 195 149 149 149 21 21 21 102 102 102 136 136 136 35 35 35 0 0 0 0 0 0 0 0 0 0 0 0 0 0 0 0 0 0 0 0 0 0 0 0 0 0 0 
0 0 0 0 0 0 0 0 0 46 46 46 185 185 185 108 108 108 59 59 59 85 85 85 
100 100 100 107 107 107 115 115 115 120 120 120 119 119 119 113 113 113 106 106 106 110 110 110 
125 125 125 150 150 150 154 154 154 59 59 59 0 0 0 0 0 0 0 0 0 62 62 62 
146 146 146 162 162 162 155 155 155 171 171 171 139 139 139 61 61 61 5 5 5 1 1 1 
8 8 8 0 0 0 0 0 0 0 0 0 0 0 0 28 28 28 112 112 112 153 153 153 
141 141 141 147 147 147 157 157 157 161 161 161 143 143 143 117 117 117 80 80 80 12 12 12 
27 27 27 135 135 135 99 99 99 65 65 65 119 119 119 92 92 92 41 41 41 0 0 0 0 0 0 0 0 0 0 0 0 0 0 0 0 0 0 0 0 0 0 0 0 0 0 0 
0 0 0 0 0 0 0 0 0 0 0 0 0 0 0 80 80 80 70 70 70 122 122 122 
125 125 125 110 110 110 109 109 109 107 107 107 103 103 103 97 97 97 128 128 128 167 167 167 
172 172 172 180 180 180 92 92 92 5 5 5 0 0 0 3 3 3 92 92 92 178 178 178 
157 157 157 143 143 143 160 160 160 136 136 136 35 35 35 0 0 0 0 0 0 8 8 8 
4 4 4 0 0 0 0 0 0 23 23 23 100 100 100 169 169 169 180 180 180 175 175 175 
171 171 171 158 158 158 157 157 157 161 161 161 173 173 173 171 171 171 177 177 177 160 160 160 
71 71 71 6 6 6 23 23 23 152 152 152 157 157 157 56 56 56 65 65 65 0 0 0 0 0 0 0 0 0 0 0 0 0 0 0 0 0 0 0 0 0 0 0 0 0 0 0 
0 0 0 0 0 0 0 0 0 0 0 0 0 0 0 0 0 0 0 0 0 4 4 4 
85 85 85 141 141 141 152 152 152 128 128 128 125 125 125 96 96 96 59 59 59 50 50 50 
74 74 74 78 78 78 13 13 13 0 0 0 0 0 0 17 17 17 70 70 70 104 104 104 
133 133 133 165 165 165 148 148 148 57 57 57 0 0 0 0 0 0 4 4 4 4 4 4 
5 5 5 0 0 0 0 0 0 42 42 42 92 92 92 109 109 109 118 118 118 152 152 152 
170 170 170 158 158 158 153 153 153 155 155 155 157 157 157 159 159 159 155 155 155 161 161 161 
180 180 180 120 120 120 38 38 38 93 93 93 112 112 112 6 6 6 127 127 127 0 0 0 0 0 0 0 0 0 0 0 0 0 0 0 0 0 0 0 0 0 0 0 0 0 0 0 
0 0 0 0 0 0 0 0 0 0 0 0 0 0 0 0 0 0 0 0 0 0 0 0 
0 0 0 14 14 14 23 23 23 14 14 14 17 17 17 12 12 12 0 0 0 5 5 5 
112 112 112 150 150 150 60 60 60 0 0 0 1 1 1 79 79 79 129 129 129 78 78 78 
69 69 69 108 108 108 69 69 69 3 3 3 0 0 0 3 3 3 2 2 2 0 0 0 
0 0 0 6 6 6 60 60 60 115 115 115 104 104 104 84 84 84 48 48 48 65 65 65 
148 148 148 156 156 156 149 149 149 152 152 152 155 155 155 164 164 164 164 164 164 155 155 155 
167 167 167 178 178 178 136 136 136 36 36 36 36 36 36 61 61 61 132 132 132 0 0 0 0 0 0 0 0 0 0 0 0 0 0 0 0 0 0 0 0 0 0 0 0 0 0 0 
0 0 0 0 0 0 0 0 0 0 0 0 0 0 0 0 0 0 0 0 0 0 0 0 
0 0 0 0 0 0 0 0 0 0 0 0 0 0 0 0 0 0 0 0 0 0 0 0 
0 0 0 78 78 78 112 112 112 1 1 1 44 44 44 71 71 71 163 163 163 171 171 171 
134 134 134 71 71 71 20 20 20 0 0 0 0 0 0 0 0 0 3 3 3 1 1 1 
6 6 6 87 87 87 156 156 156 102 102 102 109 109 109 154 154 154 145 145 145 45 45 45 
95 95 95 165 165 165 168 168 168 172 172 172 177 177 177 172 172 172 166 166 166 157 157 157 
154 154 154 163 163 163 188 188 188 123 123 123 18 18 18 65 65 65 95 95 95 0 0 0 0 0 0 0 0 0 0 0 0 0 0 0 0 0 0 0 0 0 0 0 0 0 0 0 
0 0 0 0 0 0 0 0 0 0 0 0 0 0 0 0 0 0 0 0 0 0 0 0 
0 0 0 0 0 0 0 0 0 0 0 0 0 0 0 0 0 0 0 0 0 0 0 0 
0 0 0 13 13 13 34 34 34 28 28 28 127 127 127 73 73 73 88 88 88 154 154 154 
165 165 165 153 153 153 132 132 132 93 93 93 31 31 31 3 3 3 0 0 0 0 0 0 
37 37 37 150 150 150 107 107 107 54 54 54 136 136 136 158 158 158 157 157 157 47 47 47 
54 54 54 120 120 120 179 179 179 170 170 170 136 136 136 80 80 80 41 41 41 25 25 25 
22 22 22 36 36 36 88 88 88 157 157 157 62 62 62 116 116 116 62 62 62 0 0 0 0 0 0 0 0 0 0 0 0 0 0 0 0 0 0 0 0 0 0 0 0 0 0 0 
0 0 0 0 0 0 0 0 0 0 0 0 0 0 0 0 0 0 0 0 0 0 0 0 
0 0 0 0 0 0 0 0 0 0 0 0 0 0 0 0 0 0 0 0 0 0 0 0 
0 0 0 0 0 0 28 28 28 60 60 60 152 152 152 126 126 126 56 56 56 96 96 96 
163 163 163 170 170 170 162 162 162 160 160 160 143 143 143 112 112 112 78 78 78 62 62 62 
111 111 111 169 169 169 66 66 66 71 71 71 174 174 174 178 178 178 110 110 110 57 57 57 
123 123 123 75 75 75 95 95 95 77 77 77 26 26 26 0 0 0 0 0 0 0 0 0 
0 0 0 0 0 0 0 0 0 43 43 43 42 42 42 105 105 105 56 56 56 0 0 0 0 0 0 0 0 0 0 0 0 0 0 0 0 0 0 0 0 0 0 0 0 0 0 0 
0 0 0 0 0 0 0 0 0 0 0 0 0 0 0 0 0 0 0 0 0 0 0 0 
0 0 0 0 0 0 0 0 0 0 0 0 0 0 0 0 0 0 0 0 0 0 0 0 
0 0 0 0 0 0 81 81 81 85 85 85 149 149 149 170 170 170 131 131 131 66 66 66 
58 58 58 150 150 150 186 186 186 178 178 178 162 162 162 170 170 170 167 167 167 164 164 164 
160 160 160 161 161 161 81 81 81 20 20 20 65 65 65 65 65 65 16 16 16 36 36 36 
106 106 106 105 105 105 25 25 25 7 7 7 0 0 0 0 0 0 0 0 0 2 2 2 
0 0 0 0 0 0 6 6 6 1 1 1 1 1 1 50 50 50 30 30 30 0 0 0 0 0 0 0 0 0 0 0 0 0 0 0 0 0 0 0 0 0 0 0 0 0 0 0 
0 0 0 0 0 0 0 0 0 0 0 0 0 0 0 0 0 0 0 0 0 0 0 0 
0 0 0 0 0 0 0 0 0 0 0 0 0 0 0 0 0 0 0 0 0 0 0 0 
0 0 0 0 0 0 99 99 99 95 95 95 122 122 122 167 167 167 174 174 174 144 144 144 
13 13 13 0 0 0 63 63 63 144 144 144 172 172 172 164 164 164 155 155 155 148 148 148 
144 144 144 158 158 158 161 161 161 108 108 108 30 30 30 33 33 33 177 177 177 189 189 189 
107 107 107 25 25 25 0 0 0 0 0 0 0 0 0 1 1 1 3 3 3 0 0 0 
3 3 3 4 4 4 5 5 5 2 2 2 0 0 0 10 10 10 50 50 50 0 0 0 0 0 0 0 0 0 0 0 0 0 0 0 0 0 0 0 0 0 0 0 0 0 0 0 
0 0 0 0 0 0 0 0 0 0 0 0 0 0 0 0 0 0 0 0 0 0 0 0 
0 0 0 0 0 0 0 0 0 0 0 0 0 0 0 0 0 0 0 0 0 0 0 0 
0 0 0 0 0 0 0 0 0 48 48 48 77 77 77 171 171 171 156 156 156 109 109 109 
3 3 3 0 0 0 0 0 0 12 12 12 68 68 68 129 129 129 160 160 160 138 138 138 
149 149 149 165 165 165 160 160 160 90 90 90 57 57 57 64 64 64 82 82 82 119 119 119 
193 193 193 88 88 88 0 0 0 1 1 1 1 1 1 5 5 5 3 3 3 0 0 0 
1 1 1 5 5 5 2 2 2 3 3 3 0 0 0 15 15 15 72 72 72 0 0 0 0 0 0 0 0 0 0 0 0 0 0 0 0 0 0 0 0 0 0 0 0 0 0 0 
0 0 0 0 0 0 0 0 0 0 0 0 0 0 0 0 0 0 0 0 0 0 0 0 
0 0 0 0 0 0 0 0 0 0 0 0 0 0 0 0 0 0 0 0 0 0 0 0 
0 0 0 0 0 0 0 0 0 19 19 19 53 53 53 128 128 128 175 175 175 83 83 83 
0 0 0 0 0 0 0 0 0 0 0 0 0 0 0 6 6 6 26 26 26 34 34 34 
126 126 126 172 172 172 117 117 117 52 52 52 140 140 140 167 167 167 106 106 106 58 58 58 
103 103 103 72 72 72 0 0 0 0 0 0 0 0 0 1 1 1 3 3 3 3 3 3 
0 0 0 2 2 2 0 0 0 1 1 1 0 0 0 13 13 13 11 11 11 0 0 0 0 0 0 0 0 0 0 0 0 0 0 0 0 0 0 0 0 0 0 0 0 0 0 0 
0 0 0 0 0 0 0 0 0 0 0 0 0 0 0 0 0 0 0 0 0 0 0 0 
0 0 0 0 0 0 0 0 0 0 0 0 0 0 0 0 0 0 0 0 0 0 0 0 
0 0 0 0 0 0 0 0 0 34 34 34 116 116 116 76 76 76 159 159 159 66 66 66 
0 0 0 2 2 2 0 0 0 2 2 2 0 0 0 0 0 0 44 44 44 61 61 61 
86 86 86 170 170 170 103 103 103 43 43 43 120 120 120 153 153 153 177 177 177 96 96 96 
15 15 15 3 3 3 0 0 0 0 0 0 0 0 0 2 2 2 3 3 3 1 1 1 
0 0 0 0 0 0 0 0 0 3 3 3 0 0 0 17 17 17 10 10 10 0 0 0 0 0 0 0 0 0 0 0 0 0 0 0 0 0 0 0 0 0 0 0 0 0 0 0 
0 0 0 0 0 0 0 0 0 0 0 0 0 0 0 0 0 0 0 0 0 0 0 0 
0 0 0 0 0 0 0 0 0 0 0 0 0 0 0 0 0 0 0 0 0 0 0 0 
0 0 0 0 0 0 0 0 0 6 6 6 68 68 68 62 62 62 105 105 105 60 60 60 
0 0 0 0 0 0 0 0 0 4 4 4 4 4 4 0 0 0 83 83 83 143 143 143 
64 64 64 109 109 109 134 134 134 92 92 92 83 83 83 120 120 120 179 179 179 104 104 104 
6 6 6 0 0 0 1 1 1 0 0 0 0 0 0 0 0 0 0 0 0 2 2 2 
3 3 3 3 3 3 2 2 2 3 3 3 0 0 0 37 37 37 22 22 22 0 0 0 0 0 0 0 0 0 0 0 0 0 0 0 0 0 0 0 0 0 0 0 0 0 0 0 
0 0 0 0 0 0 0 0 0 0 0 0 0 0 0 0 0 0 0 0 0 0 0 0 
0 0 0 0 0 0 0 0 0 0 0 0 0 0 0 0 0 0 0 0 0 0 0 0 
0 0 0 0 0 0 0 0 0 0 0 0 0 0 0 66 66 66 71 71 71 11 11 11 
0 0 0 3 3 3 5 5 5 7 7 7 7 7 7 0 0 0 61 61 61 163 163 163 
101 101 101 52 52 52 96 96 96 153 153 153 185 185 185 184 184 184 151 151 151 57 57 57 
0 0 0 6 6 6 3 3 3 1 1 1 0 0 0 2 2 2 0 0 0 2 2 2 
3 3 3 2 2 2 2 2 2 0 0 0 0 0 0 82 82 82 45 45 45 0 0 0 0 0 0 0 0 0 0 0 0 0 0 0 0 0 0 0 0 0 0 0 0 0 0 0 
0 0 0 0 0 0 0 0 0 0 0 0 0 0 0 0 0 0 0 0 0 0 0 0 
0 0 0 0 0 0 0 0 0 0 0 0 0 0 0 0 0 0 0 0 0 0 0 0 
0 0 0 0 0 0 0 0 0 0 0 0 0 0 0 33 33 33 92 92 92 15 15 15 
0 0 0 1 1 1 5 5 5 3 3 3 2 2 2 0 0 0 52 52 52 172 172 172 
183 183 183 137 137 137 66 66 66 26 26 26 34 34 34 35 35 35 10 10 10 0 0 0 
0 0 0 9 9 9 5 5 5 4 4 4 0 0 0 0 0 0 0 0 0 0 0 0 
0 0 0 0 0 0 0 0 0 0 0 0 0 0 0 137 137 137 65 65 65 0 0 0 0 0 0 0 0 0 0 0 0 0 0 0 0 0 0 0 0 0 0 0 0 0 0 0 
0 0 0 0 0 0 0 0 0 0 0 0 0 0 0 0 0 0 0 0 0 0 0 0 
0 0 0 0 0 0 0 0 0 0 0 0 0 0 0 0 0 0 0 0 0 0 0 0 
0 0 0 0 0 0 0 0 0 0 0 0 0 0 0 0 0 0 17 17 17 98 98 98 
15 15 15 0 0 0 3 3 3 1 1 1 7 7 7 0 0 0 12 12 12 87 87 87 
49 49 49 17 17 17 115 115 115 163 163 163 128 128 128 143 143 143 163 163 163 33 33 33 
1 1 1 4 4 4 4 4 4 5 5 5 2 2 2 3 3 3 5 5 5 1 1 1 
6 6 6 0 0 0 8 8 8 0 0 0 44 44 44 80 80 80 9 9 9 0 0 0 0 0 0 0 0 0 0 0 0 0 0 0 0 0 0 0 0 0 0 0 0 0 0 0 
0 0 0 0 0 0 0 0 0 0 0 0 0 0 0 0 0 0 0 0 0 0 0 0 
0 0 0 0 0 0 0 0 0 0 0 0 0 0 0 0 0 0 0 0 0 0 0 0 
0 0 0 0 0 0 0 0 0 0 0 0 0 0 0 0 0 0 13 13 13 133 133 133 
129 129 129 18 18 18 0 0 0 0 0 0 0 0 0 0 0 0 0 0 0 42 42 42 
109 109 109 66 66 66 42 42 42 160 160 160 174 174 174 163 163 163 172 172 172 47 47 47 
0 0 0 0 0 0 1 1 1 13 13 13 5 5 5 0 0 0 3 3 3 0 0 0 
3 3 3 0 0 0 0 0 0 0 0 0 98 98 98 63 63 63 4 4 4 0 0 0 0 0 0 0 0 0 0 0 0 0 0 0 0 0 0 0 0 0 0 0 0 0 0 0 
0 0 0 0 0 0 0 0 0 0 0 0 0 0 0 0 0 0 0 0 0 0 0 0 
0 0 0 0 0 0 0 0 0 0 0 0 0 0 0 0 0 0 0 0 0 0 0 0 
0 0 0 0 0 0 0 0 0 0 0 0 0 0 0 0 0 0 0 0 0 3 3 3 
38 38 38 48 48 48 33 33 33 0 0 0 0 0 0 27 27 27 91 91 91 149 149 149 
191 191 191 101 101 101 44 44 44 149 149 149 155 155 155 157 157 157 183 183 183 88 88 88 
0 0 0 3 3 3 4 4 4 1 1 1 2 2 2 4 4 4 3 3 3 0 0 0 
1 1 1 0 0 0 0 0 0 63 63 63 136 136 136 0 0 0 0 0 0 0 0 0 0 0 0 0 0 0 0 0 0 0 0 0 0 0 0 0 0 0 0 0 0 0 0 0 
0 0 0 0 0 0 0 0 0 0 0 0 0 0 0 0 0 0 0 0 0 0 0 0 
0 0 0 0 0 0 0 0 0 0 0 0 0 0 0 0 0 0 0 0 0 0 0 0 
0 0 0 0 0 0 0 0 0 0 0 0 0 0 0 0 0 0 0 0 0 0 0 0 
0 0 0 0 0 0 51 51 51 32 32 32 19 19 19 126 126 126 172 172 172 163 163 163 
149 149 149 51 51 51 57 57 57 163 163 163 153 153 153 146 146 146 174 174 174 141 141 141 
32 32 32 0 0 0 0 0 0 0 0 0 2 2 2 4 4 4 1 1 1 0 0 0 
0 0 0 0 0 0 62 62 62 113 113 113 12 12 12 0 0 0 0 0 0 0 0 0 0 0 0 0 0 0 0 0 0 0 0 0 0 0 0 0 0 0 0 0 0 0 0 0 
0 0 0 0 0 0 0 0 0 0 0 0 0 0 0 0 0 0 0 0 0 0 0 0 
0 0 0 0 0 0 0 0 0 0 0 0 0 0 0 0 0 0 0 0 0 0 0 0 
0 0 0 0 0 0 0 0 0 0 0 0 0 0 0 0 0 0 0 0 0 0 0 0 
0 0 0 0 0 0 42 42 42 65 65 65 108 108 108 170 170 170 166 166 166 165 165 165 
108 108 108 27 27 27 114 114 114 171 171 171 153 153 153 150 150 150 155 155 155 158 158 158 
98 98 98 22 22 22 0 0 0 0 0 0 1 1 1 0 0 0 0 0 0 0 0 0 
7 7 7 76 76 76 88 88 88 6 6 6 0 0 0 0 0 0 0 0 0 0 0 0 0 0 0 0 0 0 0 0 0 0 0 0 0 0 0 0 0 0 0 0 0 0 0 0 
0 0 0 0 0 0 0 0 0 0 0 0 0 0 0 0 0 0 0 0 0 0 0 0 
0 0 0 0 0 0 0 0 0 0 0 0 0 0 0 0 0 0 0 0 0 0 0 0 
0 0 0 0 0 0 0 0 0 0 0 0 0 0 0 0 0 0 0 0 0 0 0 0 
0 0 0 0 0 0 71 71 71 102 102 102 162 162 162 158 158 158 159 159 159 154 154 154 
63 63 63 2 2 2 84 84 84 165 165 165 181 181 181 175 175 175 174 174 174 170 170 170 
172 172 172 125 125 125 74 74 74 39 39 39 2 2 2 0 0 0 0 0 0 21 21 21 
116 116 116 90 90 90 9 9 9 0 0 0 0 0 0 0 0 0 0 0 0 0 0 0 0 0 0 0 0 0 0 0 0 0 0 0 0 0 0 0 0 0 0 0 0 0 0 0 
0 0 0 0 0 0 0 0 0 0 0 0 0 0 0 0 0 0 0 0 0 0 0 0 
0 0 0 0 0 0 0 0 0 0 0 0 0 0 0 0 0 0 0 0 0 0 0 0 
0 0 0 0 0 0 0 0 0 0 0 0 0 0 0 0 0 0 0 0 0 0 0 0 
5 5 5 79 79 79 88 88 88 123 123 123 153 153 153 151 151 151 152 152 152 107 107 107 
56 56 56 25 25 25 21 21 21 53 53 53 81 81 81 94 94 94 113 113 113 119 119 119 
122 122 122 114 114 114 88 88 88 45 45 45 11 11 11 34 34 34 97 97 97 82 82 82 
43 43 43 14 14 14 1 1 1 0 0 0 0 0 0 0 0 0 0 0 0 