P3
# Created by IrfanView
64 64
255
0 0 0 0 0 0 0 0 0 0 0 0 0 0 0 0 0 0 0 0 0 0 0 0 0 0 0 
0 0 0 0 0 0 0 0 0 0 0 0 0 0 0 0 0 0 0 0 0 0 0 0 
0 0 0 0 0 0 0 0 0 0 0 0 0 0 0 12 12 12 84 84 84 151 151 151 
60 60 60 15 15 15 22 22 22 40 40 40 72 72 72 106 106 106 100 100 100 52 52 52 
57 57 57 103 103 103 50 50 50 6 6 6 2 2 2 0 0 0 0 0 0 0 0 0 
0 0 0 0 0 0 0 0 0 0 0 0 0 0 0 0 0 0 0 0 0 0 0 0 
0 0 0 0 0 0 0 0 0 0 0 0 0 0 0 0 0 0 0 0 0 0 0 0 
0 0 0 0 0 0 0 0 0 0 0 0 0 0 0 0 0 0 0 0 0 0 0 0 0 0 0 0 0 0 0 0 0 0 0 0 0 0 0 0 0 0 0 0 0 0 0 0 
0 0 0 0 0 0 0 0 0 0 0 0 0 0 0 0 0 0 0 0 0 0 0 0 
0 0 0 0 0 0 0 0 0 0 0 0 2 2 2 48 48 48 133 133 133 149 149 149 
118 118 118 99 99 99 93 93 93 87 87 87 107 107 107 18 18 18 5 5 5 27 27 27 
54 54 54 68 68 68 65 65 65 53 53 53 38 38 38 4 4 4 0 0 0 0 0 0 
0 0 0 0 0 0 0 0 0 0 0 0 0 0 0 0 0 0 0 0 0 0 0 0 
0 0 0 0 0 0 0 0 0 0 0 0 0 0 0 0 0 0 0 0 0 0 0 0 
0 0 0 0 0 0 0 0 0 0 0 0 0 0 0 0 0 0 0 0 0 0 0 0 0 0 0 0 0 0 0 0 0 0 0 0 0 0 0 0 0 0 0 0 0 0 0 0 
0 0 0 0 0 0 0 0 0 0 0 0 0 0 0 0 0 0 0 0 0 14 14 14 
26 26 26 7 7 7 24 24 24 24 24 24 44 44 44 66 66 66 92 92 92 137 137 137 
156 156 156 160 160 160 123 123 123 67 67 67 79 79 79 69 69 69 42 42 42 18 18 18 
30 30 30 98 98 98 54 54 54 66 66 66 80 80 80 34 34 34 4 4 4 0 0 0 
0 0 0 0 0 0 0 0 0 0 0 0 0 0 0 0 0 0 0 0 0 0 0 0 
0 0 0 0 0 0 0 0 0 0 0 0 0 0 0 0 0 0 0 0 0 0 0 0 
0 0 0 0 0 0 0 0 0 0 0 0 0 0 0 0 0 0 0 0 0 0 0 0 0 0 0 0 0 0 0 0 0 0 0 0 0 0 0 2 2 2 9 9 9 3 3 3 
15 15 15 63 63 63 54 54 54 46 46 46 47 47 47 54 54 54 61 61 61 106 106 106 
145 145 145 114 114 114 148 148 148 119 119 119 115 115 115 81 81 81 160 160 160 213 213 213 
216 216 216 218 218 218 199 199 199 130 130 130 138 138 138 122 122 122 76 76 76 66 66 66 
61 61 61 65 65 65 49 49 49 43 43 43 73 73 73 64 64 64 30 30 30 3 3 3 
0 0 0 0 0 0 0 0 0 0 0 0 0 0 0 0 0 0 0 0 0 0 0 0 
0 0 0 0 0 0 0 0 0 0 0 0 0 0 0 0 0 0 0 0 0 0 0 0 
0 0 0 0 0 0 0 0 0 0 0 0 0 0 0 0 0 0 0 0 0 0 0 0 0 0 0 0 0 0 0 0 0 0 0 0 0 0 0 56 56 56 103 103 103 54 54 54 
56 56 56 111 111 111 114 114 114 122 122 122 136 136 136 147 147 147 153 153 153 151 151 151 
149 149 149 150 150 150 154 154 154 161 161 161 139 139 139 148 148 148 211 211 211 225 225 225 
224 224 224 223 223 223 212 212 212 138 138 138 124 124 124 146 146 146 81 81 81 92 92 92 
80 80 80 49 49 49 35 35 35 8 8 8 34 34 34 75 75 75 70 70 70 38 38 38 
29 29 29 7 7 7 0 0 0 0 0 0 0 0 0 0 0 0 0 0 0 0 0 0 
0 0 0 0 0 0 0 0 0 0 0 0 0 0 0 0 0 0 0 0 0 0 0 0 
0 0 0 0 0 0 0 0 0 0 0 0 0 0 0 0 0 0 0 0 0 0 0 0 0 0 0 0 0 0 0 0 0 0 0 0 0 0 0 99 99 99 84 84 84 116 116 116 
157 157 157 188 188 188 197 197 197 204 204 204 209 209 209 210 210 210 209 209 209 204 204 204 
196 196 196 182 182 182 186 186 186 202 202 202 188 188 188 205 205 205 224 224 224 223 223 223 
224 224 224 224 224 224 218 218 218 155 155 155 93 93 93 109 109 109 107 107 107 145 145 145 
126 126 126 89 89 89 77 77 77 68 68 68 86 86 86 57 57 57 80 80 80 89 89 89 
102 102 102 27 27 27 0 0 0 0 0 0 0 0 0 0 0 0 0 0 0 0 0 0 
0 0 0 0 0 0 0 0 0 0 0 0 0 0 0 0 0 0 0 0 0 0 0 0 
0 0 0 0 0 0 0 0 0 0 0 0 0 0 0 0 0 0 0 0 0 0 0 0 0 0 0 0 0 0 0 0 0 0 0 0 0 0 0 54 54 54 120 120 120 202 202 202 
220 220 220 225 225 225 226 226 226 225 225 225 227 227 227 225 225 225 223 223 223 223 223 223 
225 225 225 223 223 223 220 220 220 225 225 225 220 220 220 223 223 223 226 226 226 225 225 225 
226 226 226 226 226 226 227 227 227 199 199 199 138 138 138 180 180 180 203 203 203 194 194 194 
166 166 166 141 141 141 139 139 139 168 168 168 199 199 199 60 60 60 27 27 27 89 89 89 
94 94 94 73 73 73 9 9 9 0 0 0 0 0 0 0 0 0 0 0 0 0 0 0 
0 0 0 0 0 0 0 0 0 0 0 0 0 0 0 0 0 0 0 0 0 0 0 0 
0 0 0 0 0 0 0 0 0 0 0 0 0 0 0 0 0 0 0 0 0 0 0 0 0 0 0 0 0 0 0 0 0 0 0 0 0 0 0 89 89 89 105 105 105 130 130 130 
110 110 110 152 152 152 211 211 211 226 226 226 226 226 226 226 226 226 226 226 226 226 226 226 
225 225 225 225 225 225 225 225 225 226 226 226 225 225 225 227 227 227 227 227 227 227 227 227 
227 227 227 227 227 227 227 227 227 215 215 215 158 158 158 172 172 172 236 236 236 239 239 239 
232 232 232 219 219 219 186 186 186 141 141 141 138 138 138 145 145 145 89 89 89 47 47 47 
65 65 65 47 47 47 15 15 15 0 0 0 0 0 0 0 0 0 0 0 0 0 0 0 
0 0 0 0 0 0 0 0 0 0 0 0 0 0 0 0 0 0 0 0 0 0 0 0 
0 0 0 0 0 0 0 0 0 0 0 0 0 0 0 0 0 0 0 0 0 0 0 0 5 5 5 45 45 45 57 57 57 37 37 37 15 15 15 50 50 50 151 151 151 110 110 110 
85 85 85 176 176 176 221 221 221 225 225 225 224 224 224 224 224 224 225 225 225 225 225 225 
225 225 225 225 225 225 223 223 223 225 225 225 225 225 225 227 227 227 227 227 227 227 227 227 
227 227 227 227 227 227 226 226 226 227 227 227 181 181 181 146 146 146 221 221 221 235 235 235 
238 238 238 239 239 239 235 235 235 233 233 233 193 193 193 141 141 141 145 145 145 144 144 144 
109 109 109 98 98 98 49 49 49 2 2 2 0 0 0 0 0 0 0 0 0 0 0 0 
0 0 0 0 0 0 0 0 0 0 0 0 0 0 0 0 0 0 0 0 0 0 0 0 
0 0 0 0 0 0 0 0 0 0 0 0 0 0 0 0 0 0 0 0 0 0 0 0 5 5 5 56 56 56 134 134 134 96 96 96 100 100 100 128 128 128 124 124 124 127 127 127 
176 176 176 223 223 223 223 223 223 223 223 223 224 224 224 222 222 222 222 222 222 223 223 223 
225 225 225 226 226 226 224 224 224 224 224 224 225 225 225 226 226 226 226 226 226 227 227 227 
227 227 227 227 227 227 227 227 227 225 225 225 197 197 197 136 136 136 198 198 198 236 236 236 
238 238 238 237 237 237 236 236 236 237 237 237 237 237 237 220 220 220 188 188 188 149 149 149 
153 153 153 141 141 141 71 71 71 39 39 39 8 8 8 0 0 0 0 0 0 0 0 0 
0 0 0 0 0 0 0 0 0 0 0 0 0 0 0 0 0 0 0 0 0 0 0 0 
0 0 0 0 0 0 0 0 0 0 0 0 0 0 0 0 0 0 0 0 0 0 0 0 0 0 0 3 3 3 20 20 20 22 22 22 70 70 70 87 87 87 116 116 116 190 190 190 
224 224 224 227 227 227 223 223 223 225 225 225 222 222 222 222 222 222 218 218 218 221 221 221 
225 225 225 218 218 218 199 199 199 194 194 194 223 223 223 227 227 227 227 227 227 227 227 227 
227 227 227 227 227 227 226 226 226 227 227 227 215 215 215 148 148 148 168 168 168 230 230 230 
239 239 239 234 234 234 236 236 236 239 239 239 237 237 237 235 235 235 235 235 235 219 219 219 
167 167 167 120 120 120 74 74 74 96 96 96 32 32 32 1 1 1 0 0 0 0 0 0 
0 0 0 0 0 0 0 0 0 0 0 0 0 0 0 0 0 0 0 0 0 0 0 0 
0 0 0 0 0 0 0 0 0 0 0 0 0 0 0 0 0 0 0 0 0 0 0 0 0 0 0 0 0 0 1 1 1 18 18 18 58 58 58 102 102 102 192 192 192 220 220 220 
225 225 225 226 226 226 225 225 225 225 225 225 222 222 222 219 219 219 174 174 174 187 187 187 
223 223 223 217 217 217 157 157 157 114 114 114 188 188 188 222 222 222 226 226 226 225 225 225 
227 227 227 227 227 227 226 226 226 226 226 226 223 223 223 170 170 170 145 145 145 213 213 213 
237 237 237 236 236 236 237 237 237 238 238 238 238 238 238 238 238 238 238 238 238 238 238 238 
233 233 233 195 195 195 116 116 116 70 70 70 67 67 67 11 11 11 0 0 0 0 0 0 
0 0 0 0 0 0 0 0 0 0 0 0 0 0 0 0 0 0 0 0 0 0 0 0 
0 0 0 0 0 0 0 0 0 0 0 0 0 0 0 0 0 0 0 0 0 0 0 0 0 0 0 0 0 0 24 24 24 86 86 86 104 104 104 179 179 179 218 218 218 222 222 222 
223 223 223 222 222 222 220 220 220 223 223 223 223 223 223 199 199 199 124 124 124 173 173 173 
224 224 224 217 217 217 145 145 145 63 63 63 108 108 108 178 178 178 220 220 220 223 223 223 
225 225 225 223 223 223 223 223 223 224 224 224 223 223 223 196 196 196 145 145 145 197 197 197 
235 235 235 239 239 239 239 239 239 239 239 239 239 239 239 239 239 239 240 240 240 240 240 240 
238 238 238 233 233 233 211 211 211 120 120 120 61 61 61 35 35 35 11 11 11 0 0 0 
0 0 0 0 0 0 0 0 0 0 0 0 0 0 0 0 0 0 0 0 0 0 0 0 
0 0 0 0 0 0 0 0 0 0 0 0 0 0 0 0 0 0 0 0 0 0 0 0 0 0 0 0 0 0 39 39 39 114 114 114 154 154 154 220 220 220 221 221 221 224 224 224 
224 224 224 226 226 226 222 222 222 225 225 225 216 216 216 141 141 141 68 68 68 158 158 158 
229 229 229 197 197 197 114 114 114 111 111 111 100 100 100 91 91 91 168 168 168 222 222 222 
221 221 221 223 223 223 219 219 219 220 220 220 220 220 220 213 213 213 145 145 145 167 167 167 
230 230 230 239 239 239 240 240 240 240 240 240 240 240 240 241 241 241 241 241 241 240 240 240 
237 237 237 233 233 233 234 234 234 185 185 185 69 69 69 75 75 75 34 34 34 0 0 0 
0 0 0 0 0 0 0 0 0 0 0 0 0 0 0 0 0 0 0 0 0 0 0 0 
0 0 0 0 0 0 0 0 0 0 0 0 0 0 0 0 0 0 0 0 0 0 0 0 3 3 3 41 41 41 125 125 125 157 157 157 222 222 222 225 225 225 218 218 218 218 218 218 
223 223 223 223 223 223 216 216 216 217 217 217 173 173 173 91 91 91 72 72 72 84 84 84 
141 141 141 120 120 120 96 96 96 124 124 124 126 126 126 97 97 97 74 74 74 134 134 134 
195 195 195 210 210 210 214 214 214 186 186 186 154 154 154 204 204 204 159 159 159 136 136 136 
221 221 221 240 240 240 240 240 240 240 240 240 240 240 240 241 241 241 240 240 240 239 239 239 
234 234 234 233 233 233 235 235 235 217 217 217 124 124 124 96 96 96 100 100 100 37 37 37 
4 4 4 0 0 0 0 0 0 0 0 0 0 0 0 0 0 0 0 0 0 0 0 0 
0 0 0 0 0 0 0 0 0 0 0 0 0 0 0 0 0 0 0 0 0 1 1 1 24 24 24 129 129 129 130 130 130 212 212 212 225 225 225 221 221 221 199 199 199 189 189 189 
219 219 219 224 224 224 202 202 202 142 142 142 79 79 79 59 59 59 66 66 66 49 49 49 
43 43 43 61 61 61 91 91 91 81 81 81 62 62 62 57 57 57 61 61 61 60 60 60 
85 85 85 134 134 134 175 175 175 150 150 150 88 88 88 162 162 162 185 185 185 136 136 136 
198 198 198 239 239 239 239 239 239 239 239 239 240 240 240 240 240 240 240 240 240 239 239 239 
235 235 235 231 231 231 235 235 235 226 226 226 161 161 161 150 150 150 134 134 134 102 102 102 
55 55 55 10 10 10 0 0 0 0 0 0 0 0 0 0 0 0 0 0 0 0 0 0 
0 0 0 0 0 0 0 0 0 0 0 0 0 0 0 0 0 0 0 0 0 6 6 6 78 78 78 126 126 126 169 169 169 222 222 222 224 224 224 215 215 215 186 186 186 179 179 179 
217 217 217 220 220 220 181 181 181 96 96 96 68 68 68 66 66 66 66 66 66 68 68 68 
74 74 74 83 83 83 91 91 91 91 91 91 84 84 84 80 80 80 86 86 86 79 79 79 
67 67 67 74 74 74 92 92 92 85 85 85 76 76 76 106 106 106 156 156 156 138 138 138 
169 169 169 238 238 238 239 239 239 239 239 239 239 239 239 239 239 239 240 240 240 238 238 238 
237 237 237 236 236 236 236 236 236 234 234 234 188 188 188 165 165 165 185 185 185 121 121 121 
124 124 124 52 52 52 0 0 0 0 0 0 0 0 0 0 0 0 0 0 0 0 0 0 
0 0 0 0 0 0 0 0 0 0 0 0 0 0 0 0 0 0 0 0 0 7 7 7 78 78 78 130 130 130 212 212 212 221 221 221 226 226 226 219 219 219 167 167 167 165 165 165 
213 213 213 194 194 194 124 124 124 79 79 79 84 84 84 89 89 89 91 91 91 94 94 94 
100 100 100 106 106 106 111 111 111 114 114 114 112 112 112 116 116 116 127 127 127 112 112 112 
85 85 85 83 83 83 113 113 113 126 126 126 141 141 141 113 113 113 93 93 93 94 94 94 
139 139 139 225 225 225 237 237 237 237 237 237 238 238 238 238 238 238 238 238 238 239 239 239 
235 235 235 238 238 238 238 238 238 237 237 237 197 197 197 158 158 158 207 207 207 165 165 165 
106 106 106 41 41 41 1 1 1 0 0 0 0 0 0 0 0 0 0 0 0 0 0 0 
0 0 0 0 0 0 0 0 0 0 0 0 0 0 0 0 0 0 0 0 0 42 42 42 102 102 102 158 158 158 223 223 223 224 224 224 225 225 225 219 219 219 175 175 175 107 107 107 
112 112 112 83 83 83 62 62 62 78 78 78 94 94 94 100 100 100 102 102 102 106 106 106 
113 113 113 117 117 117 120 120 120 123 123 123 128 128 128 137 137 137 147 147 147 137 137 137 
110 110 110 78 78 78 72 72 72 85 85 85 93 93 93 90 90 90 72 72 72 49 49 49 
75 75 75 162 162 162 207 207 207 225 225 225 236 236 236 237 237 237 236 236 236 239 239 239 
238 238 238 239 239 239 240 240 240 237 237 237 202 202 202 153 153 153 194 194 194 198 198 198 
122 122 122 64 64 64 17 17 17 0 0 0 0 0 0 0 0 0 0 0 0 0 0 0 
0 0 0 0 0 0 0 0 0 0 0 0 0 0 0 0 0 0 0 0 0 44 44 44 116 116 116 182 182 182 227 227 227 224 224 224 223 223 223 221 221 221 210 210 210 152 152 152 
70 70 70 45 45 45 64 64 64 82 82 82 95 95 95 101 101 101 103 103 103 107 107 107 
115 115 115 119 119 119 121 121 121 125 125 125 130 130 130 139 139 139 148 148 148 145 145 145 
133 133 133 109 109 109 80 80 80 75 75 75 84 84 84 91 91 91 90 90 90 84 84 84 
75 75 75 85 85 85 120 120 120 149 149 149 194 194 194 229 229 229 238 238 238 238 238 238 
239 239 239 239 239 239 240 240 240 238 238 238 208 208 208 146 146 146 157 157 157 136 136 136 
100 100 100 74 74 74 20 20 20 0 0 0 0 0 0 0 0 0 0 0 0 0 0 0 
0 0 0 0 0 0 0 0 0 0 0 0 0 0 0 0 0 0 0 0 0 28 28 28 114 114 114 202 202 202 228 228 228 227 227 227 226 226 226 224 224 224 216 216 216 180 180 180 
76 76 76 56 56 56 72 72 72 86 86 86 97 97 97 101 101 101 104 104 104 108 108 108 
114 114 114 118 118 118 121 121 121 125 125 125 130 130 130 136 136 136 143 143 143 144 144 144 
141 141 141 134 134 134 117 117 117 110 110 110 112 112 112 115 115 115 113 113 113 106 106 106 
91 91 91 80 80 80 115 115 115 157 157 157 187 187 187 223 223 223 236 236 236 238 238 238 
239 239 239 240 240 240 240 240 240 239 239 239 213 213 213 146 146 146 173 173 173 124 124 124 
53 53 53 86 86 86 27 27 27 0 0 0 0 0 0 0 0 0 0 0 0 0 0 0 
0 0 0 0 0 0 0 0 0 0 0 0 0 0 0 0 0 0 0 0 0 144 144 144 133 133 133 215 215 215 224 224 224 225 225 225 222 222 222 223 223 223 191 191 191 101 101 101 
58 58 58 66 66 66 78 78 78 89 89 89 97 97 97 103 103 103 106 106 106 111 111 111 
115 115 115 119 119 119 122 122 122 127 127 127 128 128 128 132 132 132 136 136 136 138 138 138 
139 139 139 136 136 136 128 128 128 126 126 126 124 124 124 120 120 120 115 115 115 110 110 110 
95 95 95 82 82 82 128 128 128 208 208 208 231 231 231 237 237 237 239 239 239 240 240 240 
240 240 240 240 240 240 241 241 241 240 240 240 212 212 212 134 134 134 187 187 187 190 190 190 
89 89 89 42 42 42 10 10 10 0 0 0 0 0 0 0 0 0 0 0 0 0 0 0 
0 0 0 0 0 0 0 0 0 0 0 0 0 0 0 0 0 0 0 0 0 145 145 145 136 136 136 220 220 220 225 225 225 223 223 223 210 210 210 195 195 195 117 117 117 57 57 57 
63 63 63 72 72 72 79 79 79 90 90 90 97 97 97 103 103 103 108 108 108 112 112 112 
115 115 115 120 120 120 123 123 123 126 126 126 127 127 127 130 130 130 132 132 132 133 133 133 
133 133 133 131 131 131 127 127 127 124 124 124 122 122 122 117 117 117 112 112 112 106 106 106 
95 95 95 84 84 84 130 130 130 217 217 217 237 237 237 235 235 235 235 235 235 240 240 240 
239 239 239 238 238 238 241 241 241 241 241 241 210 210 210 139 139 139 192 192 192 220 220 220 
136 136 136 101 101 101 43 43 43 6 6 6 0 0 0 0 0 0 0 0 0 0 0 0 
0 0 0 0 0 0 0 0 0 0 0 0 0 0 0 0 0 0 0 0 0 135 135 135 129 129 129 221 221 221 223 223 223 207 207 207 156 156 156 116 116 116 67 67 67 55 55 55 
71 71 71 72 72 72 74 74 74 80 80 80 88 88 88 96 96 96 102 102 102 107 107 107 
112 112 112 117 117 117 121 121 121 125 125 125 128 128 128 130 130 130 131 131 131 131 131 131 
130 130 130 128 128 128 124 124 124 121 121 121 118 118 118 114 114 114 108 108 108 102 102 102 
93 93 93 83 83 83 122 122 122 211 211 211 235 235 235 236 236 236 237 237 237 238 238 238 
238 238 238 237 237 237 238 238 238 239 239 239 204 204 204 142 142 142 191 191 191 222 222 222 
178 178 178 96 96 96 116 116 116 47 47 47 0 0 0 0 0 0 0 0 0 0 0 0 
0 0 0 0 0 0 0 0 0 0 0 0 0 0 0 0 0 0 0 0 0 144 144 144 112 112 112 213 213 213 224 224 224 217 217 217 198 198 198 178 178 178 106 106 106 62 62 62 
75 75 75 71 71 71 69 69 69 74 74 74 78 78 78 80 80 80 84 84 84 93 93 93 
102 102 102 108 108 108 115 115 115 120 120 120 124 124 124 127 127 127 128 128 128 127 127 127 
125 125 125 123 123 123 122 122 122 120 120 120 118 118 118 114 114 114 108 108 108 100 100 100 
92 92 92 85 85 85 107 107 107 183 183 183 228 228 228 235 235 235 237 237 237 236 236 236 
239 239 239 239 239 239 238 238 238 238 238 238 199 199 199 144 144 144 203 203 203 221 221 221 
209 209 209 100 100 100 116 116 116 66 66 66 0 0 0 0 0 0 0 0 0 0 0 0 
0 0 0 0 0 0 0 0 0 0 0 0 0 0 0 0 0 0 0 0 0 76 76 76 92 92 92 196 196 196 209 209 209 220 220 220 219 219 219 209 209 209 119 119 119 68 68 68 
80 80 80 78 78 78 74 74 74 76 76 76 82 82 82 84 84 84 81 81 81 77 77 77 
85 85 85 94 94 94 102 102 102 109 109 109 114 114 114 116 116 116 114 114 114 111 111 111 
108 108 108 108 108 108 108 108 108 109 109 109 108 108 108 105 105 105 101 101 101 96 96 96 
91 91 91 89 89 89 87 87 87 104 104 104 191 191 191 235 235 235 239 239 239 237 237 237 
240 240 240 239 239 239 237 237 237 232 232 232 181 181 181 144 144 144 210 210 210 223 223 223 
200 200 200 98 98 98 91 91 91 41 41 41 0 0 0 0 0 0 0 0 0 0 0 0 
0 0 0 0 0 0 0 0 0 0 0 0 0 0 0 0 0 0 0 0 0 35 35 35 81 81 81 142 142 142 149 149 149 202 202 202 224 224 224 208 208 208 117 117 117 71 71 71 
83 83 83 82 82 82 74 74 74 71 71 71 76 76 76 87 87 87 89 89 89 80 80 80 
78 78 78 85 85 85 96 96 96 108 108 108 112 112 112 109 109 109 101 101 101 92 92 92 
85 85 85 84 84 84 88 88 88 91 91 91 94 94 94 92 92 92 89 89 89 89 89 89 
90 90 90 90 90 90 87 87 87 81 81 81 120 120 120 196 196 196 234 234 234 235 235 235 
237 237 237 239 239 239 237 237 237 229 229 229 165 165 165 153 153 153 219 219 219 200 200 200 
152 152 152 117 117 117 98 98 98 18 18 18 0 0 0 0 0 0 0 0 0 0 0 0 
0 0 0 0 0 0 0 0 0 0 0 0 0 0 0 0 0 0 0 0 0 27 27 27 71 71 71 66 66 66 74 74 74 182 182 182 226 226 226 209 209 209 123 123 123 76 76 76 
84 84 84 85 85 85 81 81 81 77 77 77 78 78 78 84 84 84 89 89 89 86 86 86 
82 82 82 84 84 84 93 93 93 110 110 110 113 113 113 104 104 104 91 91 91 81 81 81 
76 76 76 79 79 79 90 90 90 91 91 91 91 91 91 87 87 87 84 84 84 86 86 86 
90 90 90 91 91 91 88 88 88 90 90 90 96 96 96 121 121 121 203 203 203 238 238 238 
236 236 236 232 232 232 205 205 205 208 208 208 150 150 150 163 163 163 211 211 211 156 156 156 
155 155 155 184 184 184 112 112 112 17 17 17 0 0 0 0 0 0 0 0 0 0 0 0 
0 0 0 0 0 0 0 0 0 0 0 0 0 0 0 0 0 0 0 0 0 2 2 2 21 21 21 96 96 96 89 89 89 152 152 152 221 221 221 216 216 216 133 133 133 78 78 78 
86 86 86 88 88 88 88 88 88 86 86 86 85 85 85 84 84 84 86 86 86 88 88 88 
85 85 85 84 84 84 93 93 93 111 111 111 109 109 109 97 97 97 89 89 89 87 87 87 
83 83 83 83 83 83 88 88 88 83 83 83 82 82 82 84 84 84 84 84 84 88 88 88 
94 94 94 95 95 95 89 89 89 102 102 102 162 162 162 112 112 112 114 114 114 203 203 203 
235 235 235 211 211 211 134 134 134 166 166 166 134 134 134 180 180 180 174 174 174 143 143 143 
201 201 201 204 204 204 102 102 102 15 15 15 0 0 0 0 0 0 0 0 0 0 0 0 
0 0 0 0 0 0 0 0 0 0 0 0 0 0 0 0 0 0 0 0 0 0 0 0 0 0 0 1 1 1 24 24 24 135 135 135 214 214 214 219 219 219 148 148 148 80 80 80 
87 87 87 91 91 91 94 94 94 95 95 95 93 93 93 91 91 91 89 89 89 85 85 85 
81 81 81 83 83 83 94 94 94 106 106 106 102 102 102 93 93 93 91 91 91 92 92 92 
92 92 92 89 89 89 91 91 91 91 91 91 90 90 90 89 89 89 92 92 92 97 97 97 
101 101 101 97 97 97 89 89 89 86 86 86 172 172 172 194 194 194 113 113 113 84 84 84 
146 146 146 148 148 148 94 94 94 147 147 147 141 141 141 175 175 175 150 150 150 205 205 205 
235 235 235 213 213 213 109 109 109 23 23 23 0 0 0 0 0 0 0 0 0 0 0 0 
0 0 0 0 0 0 0 0 0 0 0 0 0 0 0 0 0 0 0 0 0 0 0 0 0 0 0 0 0 0 38 38 38 134 134 134 195 195 195 218 218 218 157 157 157 83 83 83 
86 86 86 93 93 93 97 97 97 100 100 100 101 101 101 100 100 100 97 97 97 88 88 88 
82 82 82 87 87 87 98 98 98 104 104 104 99 99 99 94 94 94 94 94 94 101 101 101 
104 104 104 102 102 102 100 100 100 100 100 100 101 101 101 101 101 101 101 101 101 102 102 102 
102 102 102 95 95 95 88 88 88 78 78 78 146 146 146 213 213 213 198 198 198 123 123 123 
68 68 68 45 45 45 103 103 103 150 150 150 136 136 136 138 138 138 191 191 191 234 234 234 
241 241 241 191 191 191 103 103 103 25 25 25 0 0 0 0 0 0 0 0 0 0 0 0 
0 0 0 0 0 0 0 0 0 0 0 0 0 0 0 0 0 0 0 0 0 0 0 0 0 0 0 0 0 0 58 58 58 155 155 155 167 167 167 221 221 221 172 172 172 93 93 93 
85 85 85 93 93 93 99 99 99 103 103 103 105 105 105 102 102 102 96 96 96 86 86 86 
83 83 83 92 92 92 104 104 104 109 109 109 100 100 100 92 92 92 95 95 95 107 107 107 
116 116 116 116 116 116 112 112 112 111 111 111 111 111 111 107 107 107 103 103 103 103 103 103 
100 100 100 93 93 93 86 86 86 82 82 82 123 123 123 200 200 200 223 223 223 213 213 213 
154 154 154 65 65 65 144 144 144 134 134 134 100 100 100 147 147 147 226 226 226 237 237 237 
239 239 239 173 173 173 99 99 99 27 27 27 0 0 0 0 0 0 0 0 0 0 0 0 
0 0 0 0 0 0 0 0 0 0 0 0 0 0 0 0 0 0 0 0 0 0 0 0 0 0 0 0 0 0 31 31 31 113 113 113 134 134 134 208 208 208 193 193 193 116 116 116 
83 83 83 92 92 92 98 98 98 102 102 102 102 102 102 96 96 96 89 89 89 82 82 82 
84 84 84 101 101 101 115 115 115 113 113 113 101 101 101 91 91 91 91 91 91 103 103 103 
117 117 117 124 124 124 126 126 126 123 123 123 117 117 117 110 110 110 104 104 104 102 102 102 
98 98 98 90 90 90 84 84 84 93 93 93 105 105 105 182 182 182 222 222 222 222 222 222 
170 170 170 97 97 97 159 159 159 89 89 89 108 108 108 205 205 205 232 232 232 234 234 234 
234 234 234 146 146 146 119 119 119 37 37 37 0 0 0 0 0 0 0 0 0 0 0 0 
0 0 0 0 0 0 0 0 0 0 0 0 0 0 0 0 0 0 0 0 0 0 0 0 0 0 0 0 0 0 4 4 4 60 60 60 108 108 108 179 179 179 209 209 209 146 146 146 
84 84 84 86 86 86 93 93 93 97 97 97 94 94 94 88 88 88 83 83 83 81 81 81 
88 88 88 105 105 105 120 120 120 117 117 117 102 102 102 90 90 90 88 88 88 94 94 94 
103 103 103 117 117 117 125 125 125 123 123 123 117 117 117 109 109 109 101 101 101 98 98 98 
93 93 93 86 86 86 83 83 83 104 104 104 97 97 97 160 160 160 224 224 224 222 222 222 
139 139 139 112 112 112 137 137 137 93 93 93 181 181 181 223 223 223 177 177 177 212 212 212 
201 201 201 114 114 114 99 99 99 20 20 20 0 0 0 0 0 0 0 0 0 0 0 0 
0 0 0 0 0 0 0 0 0 0 0 0 0 0 0 0 0 0 0 0 0 0 0 0 0 0 0 0 0 0 1 1 1 21 21 21 99 99 99 140 140 140 215 215 215 179 179 179 
94 94 94 78 78 78 86 86 86 89 89 89 87 87 87 83 83 83 81 81 81 79 79 79 
87 87 87 102 102 102 115 115 115 111 111 111 96 96 96 89 89 89 91 91 91 92 92 92 
93 93 93 104 104 104 113 113 113 115 115 115 113 113 113 105 105 105 97 97 97 93 93 93 
88 88 88 81 81 81 92 92 92 122 122 122 100 100 100 126 126 126 213 213 213 207 207 207 
114 114 114 123 123 123 113 113 113 156 156 156 227 227 227 188 188 188 89 89 89 176 176 176 
144 144 144 108 108 108 50 50 50 13 13 13 0 0 0 0 0 0 0 0 0 0 0 0 
0 0 0 0 0 0 0 0 0 0 0 0 0 0 0 0 0 0 0 0 0 0 0 0 0 0 0 0 0 0 0 0 0 3 3 3 37 37 37 108 108 108 180 180 180 205 205 205 
144 144 144 76 76 76 82 82 82 82 82 82 78 78 78 80 80 80 80 80 80 79 79 79 
82 82 82 88 88 88 94 94 94 93 93 93 89 89 89 90 90 90 94 94 94 94 94 94 
89 89 89 94 94 94 103 103 103 105 105 105 105 105 105 98 98 98 92 92 92 90 90 90 
90 90 90 104 104 104 126 126 126 149 149 149 123 123 123 113 113 113 202 202 202 162 162 162 
96 96 96 121 121 121 118 118 118 211 211 211 212 212 212 121 121 121 57 57 57 88 88 88 
83 83 83 54 54 54 24 24 24 9 9 9 0 0 0 0 0 0 0 0 0 0 0 0 
0 0 0 0 0 0 0 0 0 0 0 0 0 0 0 0 0 0 0 0 0 0 0 0 0 0 0 0 0 0 0 0 0 0 0 0 18 18 18 109 109 109 127 127 127 195 195 195 
202 202 202 118 118 118 81 81 81 82 82 82 80 80 80 83 83 83 85 85 85 85 85 85 
85 85 85 86 86 86 88 88 88 88 88 88 90 90 90 91 91 91 90 90 90 87 87 87 
84 84 84 87 87 87 95 95 95 96 96 96 92 92 92 89 89 89 97 97 97 112 112 112 
126 126 126 140 140 140 149 149 149 155 155 155 130 130 130 92 92 92 135 135 135 101 101 101 
127 127 127 103 103 103 160 160 160 219 219 219 145 145 145 144 144 144 175 175 175 105 105 105 
65 65 65 44 44 44 127 127 127 83 83 83 23 23 23 0 0 0 0 0 0 0 0 0 
0 0 0 0 0 0 0 0 0 0 0 0 0 0 0 0 0 0 0 0 0 0 0 0 0 0 0 0 0 0 0 0 0 0 0 0 0 0 0 39 39 39 139 139 139 132 132 132 
201 201 201 183 183 183 98 98 98 82 82 82 97 97 97 98 98 98 88 88 88 81 81 81 
83 83 83 87 87 87 87 87 87 87 87 87 87 87 87 85 85 85 82 82 82 81 81 81 
80 80 80 81 81 81 89 89 89 93 93 93 92 92 92 103 103 103 127 127 127 143 143 143 
152 152 152 154 154 154 151 151 151 146 146 146 145 145 145 90 90 90 68 68 68 123 123 123 
127 127 127 115 115 115 196 196 196 151 151 151 127 127 127 209 209 209 240 240 240 193 193 193 
105 105 105 84 84 84 102 102 102 77 77 77 35 35 35 0 0 0 0 0 0 0 0 0 
0 0 0 0 0 0 0 0 0 0 0 0 0 0 0 0 0 0 0 0 0 0 0 0 0 0 0 0 0 0 0 0 0 0 0 0 0 0 0 11 11 11 72 72 72 99 99 99 
127 127 127 200 200 200 158 158 158 81 81 81 100 100 100 105 105 105 92 92 92 82 82 82 
78 78 78 79 79 79 82 82 82 83 83 83 81 81 81 79 79 79 82 82 82 86 86 86 
86 86 86 81 81 81 88 88 88 95 95 95 108 108 108 135 135 135 153 153 153 154 154 154 
156 156 156 151 151 151 147 147 147 149 149 149 127 127 127 64 64 64 80 80 80 162 162 162 
103 103 103 137 137 137 147 147 147 105 105 105 180 180 180 211 211 211 179 179 179 142 142 142 
110 110 110 57 57 57 27 27 27 6 6 6 1 1 1 40 40 40 10 10 10 27 27 27 
40 40 40 41 41 41 58 58 58 20 20 20 0 0 0 0 0 0 0 0 0 0 0 0 0 0 0 0 0 0 0 0 0 0 0 0 0 0 0 0 0 0 6 6 6 47 47 47 
82 82 82 120 120 120 179 179 179 146 146 146 80 80 80 92 92 92 95 95 95 89 89 89 
86 86 86 86 86 86 88 88 88 89 89 89 88 88 88 89 89 89 95 95 95 100 100 100 
101 101 101 94 94 94 99 99 99 121 121 121 143 143 143 149 149 149 143 143 143 118 118 118 
91 91 91 73 73 73 77 77 77 81 81 81 57 57 57 66 66 66 98 98 98 113 113 113 
78 78 78 97 97 97 97 97 97 146 146 146 154 154 154 138 138 138 80 80 80 62 62 62 
33 33 33 23 23 23 23 23 23 15 15 15 4 4 4 76 76 76 43 43 43 72 72 72 
86 86 86 98 98 98 120 120 120 107 107 107 38 38 38 15 15 15 1 1 1 0 0 0 0 0 0 0 0 0 0 0 0 0 0 0 0 0 0 0 0 0 0 0 0 5 5 5 
37 37 37 83 83 83 109 109 109 147 147 147 122 122 122 83 83 83 90 90 90 96 96 96 
96 96 96 95 95 95 95 95 95 96 96 96 96 96 96 100 100 100 105 105 105 106 106 106 
103 103 103 102 102 102 121 121 121 144 144 144 141 141 141 100 100 100 63 63 63 37 37 37 
23 23 23 30 30 30 47 47 47 64 64 64 71 71 71 68 68 68 48 48 48 35 35 35 
34 34 34 54 54 54 82 82 82 127 127 127 112 112 112 60 60 60 18 18 18 30 30 30 
94 94 94 103 103 103 111 111 111 84 84 84 38 38 38 90 90 90 74 74 74 93 93 93 
107 107 107 124 124 124 96 96 96 96 96 96 151 151 151 96 96 96 8 8 8 0 0 0 0 0 0 0 0 0 0 0 0 0 0 0 0 0 0 0 0 0 0 0 0 0 0 0 
4 4 4 38 38 38 54 54 54 77 77 77 85 85 85 72 72 72 77 77 77 96 96 96 
102 102 102 103 103 103 105 105 105 107 107 107 108 108 108 108 108 108 107 107 107 104 104 104 
103 103 103 119 119 119 140 140 140 124 124 124 76 76 76 32 32 32 14 14 14 16 16 16 
43 43 43 95 95 95 129 129 129 142 142 142 147 147 147 100 100 100 31 31 31 6 6 6 
11 11 11 17 17 17 30 30 30 54 54 54 45 45 45 18 18 18 26 26 26 58 58 58 
96 96 96 106 106 106 106 106 106 104 104 104 84 84 84 63 63 63 48 48 48 74 74 74 
107 107 107 155 155 155 129 129 129 60 60 60 101 101 101 111 111 111 35 35 35 0 0 0 0 0 0 0 0 0 0 0 0 0 0 0 0 0 0 0 0 0 0 0 0 0 0 0 
0 0 0 3 3 3 7 7 7 46 46 46 128 128 128 92 92 92 69 69 69 87 87 87 
101 101 101 107 107 107 112 112 112 115 115 115 114 114 114 111 111 111 109 109 109 114 114 114 
126 126 126 139 139 139 133 133 133 67 67 67 18 18 18 7 7 7 19 19 19 67 67 67 
125 125 125 144 144 144 146 146 146 151 151 151 121 121 121 61 61 61 16 16 16 6 6 6 
8 8 8 5 5 5 8 8 8 10 10 10 17 17 17 48 48 48 103 103 103 135 135 135 
135 135 135 141 141 141 147 147 147 148 148 148 135 135 135 115 115 115 89 89 89 49 49 49 
58 58 58 116 116 116 98 98 98 81 81 81 109 109 109 88 88 88 41 41 41 0 0 0 0 0 0 0 0 0 0 0 0 0 0 0 0 0 0 0 0 0 0 0 0 0 0 0 
0 0 0 0 0 0 0 0 0 1 1 1 9 9 9 65 65 65 63 63 63 97 97 97 
109 109 109 108 108 108 110 110 110 109 109 109 104 104 104 99 99 99 115 115 115 139 139 139 
146 146 146 147 147 147 87 87 87 23 23 23 6 6 6 15 15 15 77 77 77 140 140 140 
143 143 143 141 141 141 147 147 147 121 121 121 50 50 50 13 13 13 5 5 5 8 8 8 
5 5 5 3 3 3 3 3 3 28 28 28 83 83 83 134 134 134 153 153 153 159 159 159 
161 161 161 155 155 155 155 155 155 157 157 157 162 162 162 158 158 158 155 155 155 139 139 139 
86 86 86 45 45 45 54 54 54 125 125 125 127 127 127 70 70 70 65 65 65 0 0 0 0 0 0 0 0 0 0 0 0 0 0 0 0 0 0 0 0 0 0 0 0 0 0 0 
0 0 0 0 0 0 0 0 0 0 0 0 0 0 0 0 0 0 0 0 0 22 22 22 
74 74 74 111 111 111 120 120 120 107 107 107 102 102 102 84 84 84 64 64 64 65 65 65 
86 86 86 86 86 86 37 37 37 7 7 7 7 7 7 31 31 31 75 75 75 106 106 106 
128 128 128 145 145 145 128 128 128 63 63 63 12 12 12 6 6 6 5 5 5 5 5 5 
6 6 6 6 6 6 11 11 11 50 50 50 90 90 90 108 108 108 119 119 119 143 143 143 
159 159 159 156 156 156 154 154 154 156 156 156 158 158 158 159 159 159 155 155 155 154 154 154 
156 156 156 114 114 114 64 64 64 91 91 91 98 98 98 45 45 45 127 127 127 0 0 0 0 0 0 0 0 0 0 0 0 0 0 0 0 0 0 0 0 0 0 0 0 0 0 0 
0 0 0 0 0 0 0 0 0 0 0 0 0 0 0 0 0 0 0 0 0 0 0 0 
4 4 4 27 27 27 35 35 35 30 30 30 29 29 29 23 23 23 12 12 12 21 21 21 
87 87 87 112 112 112 57 57 57 11 11 11 16 16 16 72 72 72 113 113 113 95 95 95 
91 91 91 106 106 106 73 73 73 22 22 22 7 7 7 5 5 5 4 4 4 3 3 3 
5 5 5 21 21 21 61 61 61 100 100 100 102 102 102 95 95 95 76 76 76 88 88 88 
139 139 139 152 152 152 152 152 152 155 155 155 157 157 157 161 161 161 159 159 159 153 153 153 
157 157 157 157 157 157 125 125 125 61 61 61 53 53 53 71 71 71 132 132 132 0 0 0 0 0 0 0 0 0 0 0 0 0 0 0 0 0 0 0 0 0 0 0 0 0 0 0 
0 0 0 0 0 0 0 0 0 0 0 0 0 0 0 0 0 0 0 0 0 0 0 0 
0 0 0 0 0 0 0 0 0 0 0 0 0 0 0 0 0 0 0 0 0 1 1 1 
5 5 5 66 66 66 83 83 83 23 23 23 49 49 49 77 77 77 137 137 137 148 148 148 
128 128 128 87 87 87 48 48 48 20 20 20 11 11 11 6 6 6 6 6 6 7 7 7 
20 20 20 77 77 77 124 124 124 102 102 102 110 110 110 137 137 137 126 126 126 70 70 70 
101 101 101 150 150 150 160 160 160 163 163 163 162 162 162 154 154 154 145 145 145 137 137 137 
135 135 135 141 141 141 152 152 152 108 108 108 46 46 46 71 71 71 95 95 95 0 0 0 0 0 0 0 0 0 0 0 0 0 0 0 0 0 0 0 0 0 0 0 0 0 0 0 
0 0 0 0 0 0 0 0 0 0 0 0 0 0 0 0 0 0 0 0 0 0 0 0 
0 0 0 0 0 0 0 0 0 0 0 0 0 0 0 0 0 0 0 0 0 0 0 0 
0 0 0 20 20 20 38 38 38 45 45 45 104 104 104 85 85 85 99 99 99 141 141 141 
150 150 150 140 140 140 120 120 120 89 89 89 47 47 47 24 24 24 12 12 12 12 12 12 
52 52 52 123 123 123 105 105 105 79 79 79 128 128 128 145 145 145 136 136 136 70 70 70 
73 73 73 118 118 118 155 155 155 149 149 149 123 123 123 84 84 84 56 56 56 44 44 44 
42 42 42 53 53 53 85 85 85 119 119 119 69 69 69 94 94 94 62 62 62 0 0 0 0 0 0 0 0 0 0 0 0 0 0 0 0 0 0 0 0 0 0 0 0 0 0 0 
0 0 0 0 0 0 0 0 0 0 0 0 0 0 0 0 0 0 0 0 0 0 0 0 
0 0 0 0 0 0 0 0 0 0 0 0 0 0 0 0 0 0 0 0 0 0 0 0 
0 0 0 0 0 0 34 34 34 69 69 69 129 129 129 121 121 121 82 82 82 104 104 104 
145 145 145 154 154 154 151 151 151 145 145 145 128 128 128 104 104 104 81 81 81 74 74 74 
109 109 109 142 142 142 83 83 83 82 82 82 141 141 141 147 147 147 104 104 104 71 71 71 
106 106 106 85 85 85 94 94 94 78 78 78 41 41 41 17 17 17 9 9 9 6 6 6 
6 6 6 10 10 10 17 17 17 45 45 45 50 50 50 82 82 82 56 56 56 0 0 0 0 0 0 0 0 0 0 0 0 0 0 0 0 0 0 0 0 0 0 0 0 0 0 0 
0 0 0 0 0 0 0 0 0 0 0 0 0 0 0 0 0 0 0 0 0 0 0 0 
0 0 0 0 0 0 0 0 0 0 0 0 0 0 0 0 0 0 0 0 0 0 0 0 
0 0 0 1 1 1 65 65 65 87 87 87 134 134 134 151 151 151 127 127 127 84 84 84 
77 77 77 129 129 129 157 157 157 159 159 159 152 152 152 154 154 154 149 149 149 147 147 147 
148 148 148 146 146 146 95 95 95 54 54 54 76 76 76 79 79 79 54 54 54 66 66 66 
99 99 99 91 91 91 38 38 38 19 19 19 6 6 6 2 2 2 2 2 2 3 3 3 
2 2 2 2 2 2 9 9 9 9 9 9 15 15 15 45 45 45 30 30 30 0 0 0 0 0 0 0 0 0 0 0 0 0 0 0 0 0 0 0 0 0 0 0 0 0 0 0 
0 0 0 0 0 0 0 0 0 0 0 0 0 0 0 0 0 0 0 0 0 0 0 0 
0 0 0 0 0 0 0 0 0 0 0 0 0 0 0 0 0 0 0 0 0 0 0 0 
0 0 0 1 1 1 72 72 72 88 88 88 118 118 118 152 152 152 154 154 154 122 122 122 
39 39 39 26 26 26 71 71 71 125 125 125 149 149 149 151 151 151 149 149 149 146 146 146 
145 145 145 150 150 150 142 142 142 101 101 101 51 51 51 54 54 54 137 137 137 151 151 151 
104 104 104 46 46 46 9 9 9 3 3 3 2 2 2 2 2 2 3 3 3 1 1 1 
3 3 3 4 4 4 5 5 5 4 4 4 3 3 3 19 19 19 50 50 50 0 0 0 0 0 0 0 0 0 0 0 0 0 0 0 0 0 0 0 0 0 0 0 0 0 0 0 
0 0 0 0 0 0 0 0 0 0 0 0 0 0 0 0 0 0 0 0 0 0 0 0 
0 0 0 0 0 0 0 0 0 0 0 0 0 0 0 0 0 0 0 0 0 0 0 0 
0 0 0 0 0 0 10 10 10 53 53 53 86 86 86 150 150 150 144 144 144 101 101 101 
24 24 24 7 7 7 12 12 12 32 32 32 72 72 72 113 113 113 135 135 135 130 130 130 
142 142 142 154 154 154 144 144 144 96 96 96 72 72 72 79 79 79 94 94 94 117 117 117 
148 148 148 76 76 76 10 10 10 3 3 3 2 2 2 4 4 4 3 3 3 1 1 1 
2 2 2 4 4 4 3 3 3 3 3 3 3 3 3 18 18 18 72 72 72 0 0 0 0 0 0 0 0 0 0 0 0 0 0 0 0 0 0 0 0 0 0 0 0 0 0 0 
0 0 0 0 0 0 0 0 0 0 0 0 0 0 0 0 0 0 0 0 0 0 0 0 
0 0 0 0 0 0 0 0 0 0 0 0 0 0 0 0 0 0 0 0 0 0 0 0 
0 0 0 0 0 0 4 4 4 30 30 30 66 66 66 121 121 121 146 146 146 82 82 82 
16 16 16 3 3 3 3 3 3 5 5 5 11 11 11 28 28 28 48 48 48 63 63 63 
123 123 123 153 153 153 118 118 118 76 76 76 122 122 122 142 142 142 109 109 109 79 79 79 
92 92 92 62 62 62 10 10 10 2 2 2 1 1 1 2 2 2 3 3 3 3 3 3 
1 1 1 2 2 2 1 1 1 2 2 2 1 1 1 15 15 15 11 11 11 0 0 0 0 0 0 0 0 0 0 0 0 0 0 0 0 0 0 0 0 0 0 0 0 0 0 0 
0 0 0 0 0 0 0 0 0 0 0 0 0 0 0 0 0 0 0 0 0 0 0 0 
0 0 0 0 0 0 0 0 0 0 0 0 0 0 0 0 0 0 0 0 0 0 0 0 
0 0 0 0 0 0 0 0 0 34 34 34 91 91 91 85 85 85 128 128 128 67 67 67 
12 12 12 4 4 4 2 2 2 3 3 3 2 2 2 8 8 8 48 48 48 70 70 70 
96 96 96 145 145 145 107 107 107 72 72 72 116 116 116 142 142 142 151 151 151 94 94 94 
34 34 34 15 15 15 4 4 4 1 1 1 1 1 1 2 2 2 3 3 3 2 2 2 
1 1 1 1 1 1 1 1 1 3 3 3 3 3 3 15 15 15 10 10 10 0 0 0 0 0 0 0 0 0 0 0 0 0 0 0 0 0 0 0 0 0 0 0 0 0 0 0 
0 0 0 0 0 0 0 0 0 0 0 0 0 0 0 0 0 0 0 0 0 0 0 0 
0 0 0 0 0 0 0 0 0 0 0 0 0 0 0 0 0 0 0 0 0 0 0 0 
0 0 0 0 0 0 0 0 0 14 14 14 58 58 58 67 67 67 89 89 89 56 56 56 
10 10 10 3 3 3 2 2 2 4 4 4 5 5 5 10 10 10 72 72 72 117 117 117 
83 83 83 107 107 107 121 121 121 101 101 101 101 101 101 127 127 127 152 152 152 94 94 94 
21 21 21 5 5 5 3 3 3 1 1 1 1 1 1 1 1 1 1 1 1 2 2 2 
3 3 3 3 3 3 2 2 2 3 3 3 2 2 2 30 30 30 22 22 22 0 0 0 0 0 0 0 0 0 0 0 0 0 0 0 0 0 0 0 0 0 0 0 0 0 0 0 
0 0 0 0 0 0 0 0 0 0 0 0 0 0 0 0 0 0 0 0 0 0 0 0 
0 0 0 0 0 0 0 0 0 0 0 0 0 0 0 0 0 0 0 0 0 0 0 0 
0 0 0 0 0 0 0 0 0 0 0 0 7 7 7 58 58 58 63 63 63 24 24 24 
6 6 6 4 4 4 5 5 5 6 6 6 7 7 7 10 10 10 64 64 64 134 134 134 
107 107 107 77 77 77 98 98 98 129 129 129 148 148 148 149 149 149 124 124 124 58 58 58 
11 11 11 7 7 7 4 4 4 2 2 2 1 1 1 2 2 2 1 1 1 2 2 2 
3 3 3 2 2 2 2 2 2 1 1 1 3 3 3 61 61 61 45 45 45 0 0 0 0 0 0 0 0 0 0 0 0 0 0 0 0 0 0 0 0 0 0 0 0 0 0 0 
0 0 0 0 0 0 0 0 0 0 0 0 0 0 0 0 0 0 0 0 0 0 0 0 
0 0 0 0 0 0 0 0 0 0 0 0 0 0 0 0 0 0 0 0 0 0 0 0 
0 0 0 0 0 0 0 0 0 0 0 0 0 0 0 31 31 31 68 68 68 25 25 25 
4 4 4 4 4 4 5 5 5 4 4 4 4 4 4 7 7 7 55 55 55 134 134 134 
145 145 145 117 117 117 80 80 80 64 64 64 72 72 72 71 71 71 46 46 46 17 17 17 
6 6 6 8 8 8 5 5 5 4 4 4 1 1 1 1 1 1 1 1 1 1 1 1 
1 1 1 1 1 1 1 1 1 1 1 1 10 10 10 93 93 93 65 65 65 0 0 0 0 0 0 0 0 0 0 0 0 0 0 0 0 0 0 0 0 0 0 0 0 0 0 0 
0 0 0 0 0 0 0 0 0 0 0 0 0 0 0 0 0 0 0 0 0 0 0 0 
0 0 0 0 0 0 0 0 0 0 0 0 0 0 0 0 0 0 0 0 0 0 0 0 
0 0 0 0 0 0 0 0 0 0 0 0 0 0 0 0 0 0 27 27 27 74 74 74 
26 26 26 4 4 4 5 5 5 3 3 3 6 6 6 6 6 6 28 28 28 83 83 83 
70 70 70 52 52 52 105 105 105 136 136 136 123 123 123 130 130 130 128 128 128 42 42 42 
9 9 9 5 5 5 5 5 5 5 5 5 3 3 3 3 3 3 4 4 4 2 2 2 
4 4 4 1 1 1 6 6 6 5 5 5 42 42 42 64 64 64 9 9 9 0 0 0 0 0 0 0 0 0 0 0 0 0 0 0 0 0 0 0 0 0 0 0 0 0 0 0 
0 0 0 0 0 0 0 0 0 0 0 0 0 0 0 0 0 0 0 0 0 0 0 0 
0 0 0 0 0 0 0 0 0 0 0 0 0 0 0 0 0 0 0 0 0 0 0 0 
0 0 0 0 0 0 0 0 0 0 0 0 0 0 0 0 0 0 19 19 19 90 90 90 
89 89 89 23 23 23 5 5 5 3 3 3 3 3 3 8 8 8 24 24 24 61 61 61 
101 101 101 77 77 77 69 69 69 142 142 142 160 160 160 155 155 155 147 147 147 60 60 60 
9 9 9 4 4 4 3 3 3 9 9 9 5 5 5 2 2 2 3 3 3 1 1 1 
3 3 3 2 2 2 3 3 3 11 11 11 73 73 73 52 52 52 4 4 4 0 0 0 0 0 0 0 0 0 0 0 0 0 0 0 0 0 0 0 0 0 0 0 0 0 0 0 
0 0 0 0 0 0 0 0 0 0 0 0 0 0 0 0 0 0 0 0 0 0 0 0 
0 0 0 0 0 0 0 0 0 0 0 0 0 0 0 0 0 0 0 0 0 0 0 0 
0 0 0 0 0 0 0 0 0 0 0 0 0 0 0 0 0 0 0 0 0 15 15 15 
36 36 36 40 40 40 28 28 28 7 7 7 7 7 7 39 39 39 88 88 88 131 131 131 
152 152 152 98 98 98 70 70 70 137 137 137 153 153 153 156 156 156 160 160 160 90 90 90 
20 20 20 8 8 8 5 5 5 3 3 3 3 3 3 4 4 4 3 3 3 1 1 1 
2 2 2 2 2 2 6 6 6 54 54 54 93 93 93 13 13 13 0 0 0 0 0 0 0 0 0 0 0 0 0 0 0 0 0 0 0 0 0 0 0 0 0 0 0 0 0 0 
0 0 0 0 0 0 0 0 0 0 0 0 0 0 0 0 0 0 0 0 0 0 0 0 
0 0 0 0 0 0 0 0 0 0 0 0 0 0 0 0 0 0 0 0 0 0 0 0 
0 0 0 0 0 0 0 0 0 0 0 0 0 0 0 0 0 0 0 0 0 0 0 0 
0 0 0 11 11 11 42 42 42 37 37 37 40 40 40 111 111 111 150 150 150 150 150 150 
134 134 134 73 73 73 78 78 78 146 146 146 152 152 152 150 150 150 160 160 160 127 127 127 
48 48 48 11 11 11 5 5 5 2 2 2 3 3 3 4 4 4 2 2 2 2 2 2 
2 2 2 10 10 10 51 51 51 80 80 80 21 21 21 1 1 1 0 0 0 0 0 0 0 0 0 0 0 0 0 0 0 0 0 0 0 0 0 0 0 0 0 0 0 0 0 0 
0 0 0 0 0 0 0 0 0 0 0 0 0 0 0 0 0 0 0 0 0 0 0 0 
0 0 0 0 0 0 0 0 0 0 0 0 0 0 0 0 0 0 0 0 0 0 0 0 
0 0 0 0 0 0 0 0 0 0 0 0 0 0 0 0 0 0 0 0 0 0 0 0 
0 0 0 5 5 5 43 43 43 69 69 69 105 105 105 151 151 151 157 157 157 151 151 151 
105 105 105 53 53 53 105 105 105 151 151 151 152 152 152 152 152 152 153 153 153 146 146 146 
98 98 98 40 40 40 12 12 12 5 5 5 4 4 4 2 2 2 2 2 2 1 1 1 
18 18 18 60 60 60 66 66 66 17 17 17 0 0 0 0 0 0 0 0 0 0 0 0 0 0 0 0 0 0 0 0 0 0 0 0 0 0 0 0 0 0 0 0 0 0 0 0 
0 0 0 0 0 0 0 0 0 0 0 0 0 0 0 0 0 0 0 0 0 0 0 0 
0 0 0 0 0 0 0 0 0 0 0 0 0 0 0 0 0 0 0 0 0 0 0 0 
0 0 0 0 0 0 0 0 0 0 0 0 0 0 0 0 0 0 0 0 0 0 0 0 
0 0 0 15 15 15 69 69 69 101 101 101 146 146 146 153 153 153 153 153 153 139 139 139 
72 72 72 30 30 30 79 79 79 136 136 136 155 155 155 156 156 156 157 157 157 153 153 153 
146 146 146 108 108 108 66 66 66 35 35 35 9 9 9 0 0 0 3 3 3 30 30 30 
82 82 82 67 67 67 18 18 18 1 1 1 0 0 0 0 0 0 0 0 0 0 0 0 0 0 0 0 0 0 0 0 0 0 0 0 0 0 0 0 0 0 0 0 0 0 0 0 
0 0 0 0 0 0 0 0 0 0 0 0 0 0 0 0 0 0 0 0 0 0 0 0 
0 0 0 0 0 0 0 0 0 0 0 0 0 0 0 0 0 0 0 0 0 0 0 0 
0 0 0 0 0 0 0 0 0 0 0 0 0 0 0 0 0 0 0 0 0 0 0 0 
5 5 5 79 79 79 88 88 88 123 123 123 153 153 153 151 151 151 152 152 152 107 107 107 
56 56 56 25 25 25 21 21 21 53 53 53 81 81 81 94 94 94 113 113 113 119 119 119 
122 122 122 114 114 114 88 88 88 45 45 45 11 11 11 34 34 34 97 97 97 82 82 82 
43 43 43 14 14 14 1 1 1 0 0 0 0 0 0 0 0 0 0 0 0 