P3
# Created by IrfanView
64 64
255
0 0 0 0 0 0 0 0 0 0 0 0 0 0 0 0 0 0 0 0 0 0 0 0 0 0 0 
0 0 0 0 0 0 0 0 0 0 0 0 0 0 0 0 0 0 0 0 0 0 0 0 
0 0 0 0 0 0 0 0 0 0 0 0 0 0 0 3 3 3 8 8 8 8 8 8 
2 2 2 0 0 0 0 0 0 0 0 0 0 0 0 0 0 0 0 0 0 0 0 0 
0 0 0 0 0 0 0 0 0 0 0 0 0 0 0 0 0 0 0 0 0 0 0 0 
0 0 0 0 0 0 0 0 0 0 0 0 0 0 0 0 0 0 0 0 0 0 0 0 
0 0 0 0 0 0 0 0 0 0 0 0 0 0 0 0 0 0 0 0 0 0 0 0 
0 0 0 0 0 0 0 0 0 0 0 0 0 0 0 0 0 0 0 0 0 0 0 0 0 0 0 0 0 0 0 0 0 0 0 0 0 0 0 0 0 0 0 0 0 0 0 0 
0 0 0 0 0 0 0 0 0 0 0 0 0 0 0 0 0 0 0 0 0 0 0 0 
0 0 0 0 0 0 0 0 0 0 0 0 5 5 5 17 17 17 25 25 25 21 21 21 
6 6 6 0 0 0 0 0 0 0 0 0 0 0 0 0 0 0 0 0 0 0 0 0 
0 0 0 0 0 0 0 0 0 0 0 0 0 0 0 0 0 0 0 0 0 0 0 0 
0 0 0 0 0 0 0 0 0 0 0 0 0 0 0 0 0 0 0 0 0 0 0 0 
0 0 0 0 0 0 0 0 0 0 0 0 0 0 0 0 0 0 0 0 0 0 0 0 
0 0 0 0 0 0 0 0 0 0 0 0 0 0 0 0 0 0 0 0 0 0 0 0 0 0 0 0 0 0 0 0 0 0 0 0 0 0 0 0 0 0 0 0 0 0 0 0 
0 0 0 0 0 0 0 0 0 0 0 0 0 0 0 0 0 0 0 0 0 0 0 0 
0 0 0 0 0 0 0 0 0 1 1 1 13 13 13 31 31 31 38 38 38 30 30 30 
10 10 10 1 1 1 0 0 0 0 0 0 0 0 0 0 0 0 0 0 0 0 0 0 
0 0 0 0 0 0 0 0 0 0 0 0 0 0 0 0 0 0 0 0 0 0 0 0 
0 0 0 0 0 0 0 0 0 0 0 0 0 0 0 0 0 0 0 0 0 0 0 0 
0 0 0 0 0 0 0 0 0 0 0 0 0 0 0 0 0 0 0 0 0 0 0 0 
0 0 0 0 0 0 0 0 0 0 0 0 0 0 0 0 0 0 0 0 0 0 0 0 0 0 0 0 0 0 0 0 0 0 0 0 0 0 0 0 0 0 0 0 0 0 0 0 
0 0 0 0 0 0 0 0 0 0 0 0 0 0 0 0 0 0 0 0 0 0 0 0 
0 0 0 0 0 0 0 0 0 2 2 2 18 18 18 38 38 38 45 45 45 35 35 35 
13 13 13 1 1 1 0 0 0 0 0 0 0 0 0 0 0 0 0 0 0 0 0 0 
0 0 0 0 0 0 0 0 0 0 0 0 0 0 0 0 0 0 0 0 0 0 0 0 
0 0 0 0 0 0 0 0 0 0 0 0 0 0 0 0 0 0 0 0 0 0 0 0 
0 0 0 0 0 0 0 0 0 0 0 0 0 0 0 0 0 0 0 0 0 0 0 0 
0 0 0 0 0 0 0 0 0 0 0 0 0 0 0 0 0 0 0 0 0 0 0 0 0 0 0 0 0 0 0 0 0 0 0 0 0 0 0 0 0 0 0 0 0 0 0 0 
0 0 0 0 0 0 0 0 0 0 0 0 0 0 0 0 0 0 0 0 0 0 0 0 
0 0 0 0 0 0 0 0 0 2 2 2 18 18 18 40 40 40 47 47 47 35 35 35 
12 12 12 1 1 1 0 0 0 0 0 0 0 0 0 0 0 0 0 0 0 0 0 0 
0 0 0 0 0 0 0 0 0 0 0 0 0 0 0 0 0 0 0 0 0 0 0 0 
0 0 0 0 0 0 0 0 0 0 0 0 0 0 0 0 0 0 0 0 0 0 0 0 
0 0 0 0 0 0 0 0 0 0 0 0 0 0 0 0 0 0 0 0 0 0 0 0 
0 0 0 0 0 0 0 0 0 0 0 0 0 0 0 0 0 0 0 0 0 0 0 0 0 0 0 0 0 0 0 0 0 0 0 0 0 0 0 0 0 0 0 0 0 0 0 0 
0 0 0 0 0 0 0 0 0 0 0 0 0 0 0 0 0 0 0 0 0 0 0 0 
0 0 0 0 0 0 0 0 0 2 2 2 18 18 18 40 40 40 46 46 46 31 31 31 
9 9 9 1 1 1 0 0 0 0 0 0 0 0 0 0 0 0 0 0 0 0 0 0 
0 0 0 0 0 0 0 0 0 0 0 0 0 0 0 0 0 0 0 0 0 0 0 0 
0 0 0 0 0 0 0 0 0 0 0 0 0 0 0 0 0 0 0 0 0 0 0 0 
0 0 0 0 0 0 0 0 0 0 0 0 0 0 0 0 0 0 0 0 0 0 0 0 
0 0 0 0 0 0 0 0 0 0 0 0 0 0 0 0 0 0 0 0 0 0 0 0 0 0 0 0 0 0 0 0 0 0 0 0 0 0 0 0 0 0 0 0 0 0 0 0 
0 0 0 0 0 0 0 0 0 0 0 0 0 0 0 0 0 0 0 0 0 0 0 0 
0 0 0 0 0 0 0 0 0 3 3 3 19 19 19 41 41 41 45 45 45 26 26 26 
7 7 7 0 0 0 0 0 0 0 0 0 0 0 0 0 0 0 0 0 0 0 0 0 
0 0 0 0 0 0 0 0 0 0 0 0 0 0 0 0 0 0 0 0 0 0 0 0 
0 0 0 0 0 0 0 0 0 0 0 0 0 0 0 0 0 0 0 0 0 0 0 0 
0 0 0 0 0 0 0 0 0 0 0 0 0 0 0 0 0 0 0 0 0 0 0 0 
0 0 0 0 0 0 0 0 0 0 0 0 0 0 0 0 0 0 0 0 0 0 0 0 0 0 0 0 0 0 0 0 0 0 0 0 0 0 0 0 0 0 0 0 0 0 0 0 
0 0 0 0 0 0 0 0 0 0 0 0 0 0 0 0 0 0 0 0 0 0 0 0 
0 0 0 0 0 0 0 0 0 4 4 4 22 22 22 42 42 42 44 44 44 23 23 23 
6 6 6 0 0 0 0 0 0 0 0 0 0 0 0 0 0 0 0 0 0 0 0 0 
0 0 0 0 0 0 0 0 0 0 0 0 0 0 0 0 0 0 0 0 0 0 0 0 
0 0 0 0 0 0 0 0 0 0 0 0 0 0 0 0 0 0 0 0 0 0 0 0 
0 0 0 0 0 0 0 0 0 0 0 0 0 0 0 0 0 0 0 0 0 0 0 0 
0 0 0 0 0 0 0 0 0 0 0 0 0 0 0 0 0 0 0 0 0 0 0 0 0 0 0 0 0 0 0 0 0 0 0 0 0 0 0 0 0 0 0 0 0 0 0 0 
0 0 0 0 0 0 0 0 0 0 0 0 0 0 0 0 0 0 0 0 0 0 0 0 
0 0 0 0 0 0 1 1 1 8 8 8 29 29 29 50 50 50 52 52 52 30 30 30 
12 12 12 2 2 2 0 0 0 0 0 0 0 0 0 0 0 0 0 0 0 0 0 0 
0 0 0 0 0 0 0 0 0 0 0 0 0 0 0 0 0 0 0 0 0 0 0 0 
0 0 0 0 0 0 0 0 0 0 0 0 0 0 0 0 0 0 0 0 0 0 0 0 
0 0 0 0 0 0 0 0 0 0 0 0 0 0 0 0 0 0 0 0 0 0 0 0 
0 0 0 0 0 0 0 0 0 0 0 0 0 0 0 0 0 0 0 0 0 0 0 0 0 0 0 0 0 0 0 0 0 0 0 0 0 0 0 0 0 0 0 0 0 0 0 0 
0 0 0 0 0 0 0 0 0 0 0 0 0 0 0 0 0 0 0 0 0 0 0 0 
1 1 1 2 2 2 5 5 5 18 18 18 42 42 42 65 65 65 67 67 67 46 46 46 
27 27 27 11 11 11 2 2 2 0 0 0 0 0 0 0 0 0 0 0 0 0 0 0 
0 0 0 0 0 0 0 0 0 0 0 0 0 0 0 0 0 0 0 0 0 0 0 0 
0 0 0 0 0 0 0 0 0 0 0 0 0 0 0 0 0 0 0 0 0 0 0 0 
0 0 0 0 0 0 0 0 0 0 0 0 0 0 0 0 0 0 0 0 0 0 0 0 
0 0 0 0 0 0 0 0 0 0 0 0 0 0 0 0 0 0 0 0 0 0 0 0 1 1 1 3 3 3 1 1 1 0 0 0 0 0 0 0 0 0 0 0 0 0 0 0 
0 0 0 0 0 0 1 1 1 2 2 2 3 3 3 5 5 5 7 7 7 8 8 8 
10 10 10 13 13 13 19 19 19 33 33 33 60 60 60 87 87 87 94 94 94 76 76 76 
54 54 54 32 32 32 14 14 14 4 4 4 0 0 0 0 0 0 0 0 0 0 0 0 
0 0 0 0 0 0 0 0 0 0 0 0 0 0 0 0 0 0 0 0 0 0 0 0 
0 0 0 0 0 0 0 0 0 0 0 0 0 0 0 0 0 0 0 0 0 0 0 0 
0 0 0 0 0 0 0 0 0 0 0 0 0 0 0 0 0 0 0 0 0 0 0 0 
0 0 0 0 0 0 0 0 0 0 0 0 0 0 0 0 0 0 0 0 0 1 1 1 8 8 8 15 15 15 8 8 8 1 1 1 0 0 0 0 0 0 0 0 0 0 0 0 
2 2 2 7 7 7 12 12 12 19 19 19 24 24 24 28 28 28 30 30 30 35 35 35 
40 40 40 45 45 45 51 51 51 60 60 60 86 86 86 118 118 118 134 134 134 125 125 125 
99 99 99 67 67 67 42 42 42 23 23 23 10 10 10 4 4 4 0 0 0 0 0 0 
0 0 0 0 0 0 0 0 0 0 0 0 0 0 0 0 0 0 0 0 0 0 0 0 
0 0 0 0 0 0 0 0 0 0 0 0 0 0 0 0 0 0 0 0 0 0 0 0 
0 0 0 0 0 0 0 0 0 0 0 0 0 0 0 0 0 0 0 0 0 0 0 0 
0 0 0 0 0 0 0 0 0 0 0 0 0 0 0 0 0 0 0 0 0 5 5 5 20 20 20 27 27 27 22 22 22 9 9 9 2 2 2 0 0 0 1 1 1 5 5 5 
15 15 15 28 28 28 41 41 41 54 54 54 62 62 62 69 69 69 76 76 76 84 84 84 
91 91 91 96 96 96 100 100 100 103 103 103 123 123 123 159 159 159 177 177 177 169 169 169 
140 140 140 108 108 108 80 80 80 56 56 56 38 38 38 24 24 24 12 12 12 5 5 5 
1 1 1 0 0 0 0 0 0 0 0 0 0 0 0 0 0 0 0 0 0 0 0 0 
0 0 0 0 0 0 0 0 0 0 0 0 0 0 0 0 0 0 0 0 0 0 0 0 
0 0 0 0 0 0 0 0 0 0 0 0 0 0 0 0 0 0 0 0 0 0 0 0 
0 0 0 0 0 0 0 0 0 0 0 0 0 0 0 0 0 0 0 0 0 10 10 10 27 27 27 36 36 36 36 36 36 25 25 25 13 13 13 7 7 7 8 8 8 18 18 18 
41 41 41 62 62 62 83 83 83 102 102 102 116 116 116 127 127 127 135 135 135 143 143 143 
149 149 149 152 152 152 155 155 155 153 153 153 170 170 170 200 200 200 209 209 209 199 199 199 
169 169 169 135 135 135 113 113 113 97 97 97 83 83 83 63 63 63 45 45 45 26 26 26 
13 13 13 4 4 4 0 0 0 0 0 0 0 0 0 0 0 0 0 0 0 0 0 0 
0 0 0 0 0 0 0 0 0 0 0 0 0 0 0 0 0 0 0 0 0 0 0 0 
0 0 0 0 0 0 0 0 0 0 0 0 0 0 0 0 0 0 0 0 0 0 0 0 
0 0 0 0 0 0 0 0 0 0 0 0 0 0 0 0 0 0 0 0 0 9 9 9 24 24 24 36 36 36 42 42 42 42 42 42 33 33 33 23 23 23 21 21 21 36 36 36 
65 65 65 94 94 94 120 120 120 145 145 145 164 164 164 180 180 180 189 189 189 194 194 194 
195 195 195 196 196 196 199 199 199 200 200 200 211 211 211 220 220 220 223 223 223 216 216 216 
190 190 190 157 157 157 143 143 143 142 142 142 135 135 135 116 116 116 98 98 98 75 75 75 
52 52 52 27 27 27 7 7 7 1 1 1 0 0 0 0 0 0 0 0 0 0 0 0 
0 0 0 0 0 0 0 0 0 0 0 0 0 0 0 0 0 0 0 0 0 0 0 0 
0 0 0 0 0 0 0 0 0 0 0 0 0 0 0 0 0 0 0 0 0 0 0 0 
0 0 0 0 0 0 0 0 0 0 0 0 0 0 0 0 0 0 0 0 0 1 1 1 9 9 9 23 23 23 37 37 37 47 47 47 48 48 48 44 44 44 40 40 40 51 51 51 
80 80 80 112 112 112 142 142 142 171 171 171 195 195 195 210 210 210 218 218 218 221 221 221 
221 221 221 220 220 220 222 222 222 223 223 223 226 226 226 226 226 226 227 227 227 224 224 224 
208 208 208 182 182 182 176 176 176 185 185 185 183 183 183 171 171 171 155 155 155 134 134 134 
110 110 110 83 83 83 52 52 52 20 20 20 4 4 4 0 0 0 0 0 0 0 0 0 
0 0 0 0 0 0 0 0 0 0 0 0 0 0 0 0 0 0 0 0 0 0 0 0 
0 0 0 0 0 0 0 0 0 0 0 0 0 0 0 0 0 0 0 0 0 0 0 0 
0 0 0 0 0 0 0 0 0 0 0 0 0 0 0 0 0 0 0 0 0 0 0 0 1 1 1 8 8 8 20 20 20 35 35 35 47 47 47 53 53 53 56 56 56 63 63 63 
88 88 88 119 119 119 149 149 149 183 183 183 208 208 208 221 221 221 224 224 224 225 225 225 
224 224 224 224 224 224 224 224 224 225 225 225 227 227 227 227 227 227 227 227 227 226 226 226 
215 215 215 194 194 194 188 188 188 203 203 203 211 211 211 205 205 205 194 194 194 177 177 177 
153 153 153 127 127 127 102 102 102 68 68 68 35 35 35 13 13 13 2 2 2 0 0 0 
0 0 0 0 0 0 0 0 0 0 0 0 0 0 0 0 0 0 0 0 0 0 0 0 
0 0 0 0 0 0 0 0 0 0 0 0 0 0 0 0 0 0 0 0 0 0 0 0 
0 0 0 0 0 0 0 0 0 0 0 0 0 0 0 0 0 0 0 0 0 0 0 0 0 0 0 2 2 2 10 10 10 21 21 21 32 32 32 46 46 46 59 59 59 74 74 74 
99 99 99 130 130 130 164 164 164 197 197 197 216 216 216 224 224 224 222 222 222 221 221 221 
223 223 223 222 222 222 219 219 219 220 220 220 224 224 224 227 227 227 227 227 227 227 227 227 
219 219 219 200 200 200 192 192 192 205 205 205 221 221 221 224 224 224 220 220 220 209 209 209 
191 191 191 169 169 169 143 143 143 103 103 103 62 62 62 31 31 31 11 11 11 1 1 1 
0 0 0 0 0 0 0 0 0 0 0 0 0 0 0 0 0 0 0 0 0 0 0 0 
0 0 0 0 0 0 0 0 0 0 0 0 0 0 0 0 0 0 0 0 0 0 0 0 
0 0 0 0 0 0 0 0 0 0 0 0 0 0 0 0 0 0 0 0 0 0 0 0 0 0 0 3 3 3 12 12 12 15 15 15 19 19 19 33 33 33 53 53 53 82 82 82 
116 116 116 154 154 154 186 186 186 210 210 210 221 221 221 222 222 222 216 216 216 211 211 211 
213 213 213 208 208 208 198 198 198 201 201 201 212 212 212 221 221 221 226 226 226 226 226 226 
220 220 220 205 205 205 190 190 190 201 201 201 222 222 222 233 233 233 234 234 234 229 229 229 
219 219 219 204 204 204 180 180 180 140 140 140 94 94 94 54 54 54 24 24 24 6 6 6 
0 0 0 0 0 0 0 0 0 0 0 0 0 0 0 0 0 0 0 0 0 0 0 0 
0 0 0 0 0 0 0 0 0 0 0 0 0 0 0 0 0 0 0 0 0 1 1 1 
4 4 4 6 6 6 5 5 5 5 5 5 6 6 6 7 7 7 4 4 4 0 0 0 0 0 0 1 1 1 6 6 6 8 8 8 14 14 14 31 31 31 60 60 60 99 99 99 
141 141 141 177 177 177 202 202 202 217 217 217 219 219 219 210 210 210 194 194 194 185 185 185 
189 189 189 184 184 184 170 170 170 168 168 168 185 185 185 202 202 202 212 212 212 218 218 218 
216 216 216 205 205 205 192 192 192 194 194 194 216 216 216 233 233 233 238 238 238 238 238 238 
236 236 236 226 226 226 210 210 210 178 178 178 134 134 134 85 85 85 47 47 47 19 19 19 
5 5 5 0 0 0 0 0 0 0 0 0 0 0 0 0 0 0 0 0 0 0 0 0 
0 0 0 0 0 0 0 0 0 0 0 0 2 2 2 6 6 6 14 14 14 25 25 25 
38 38 38 35 35 35 27 27 27 25 25 25 27 27 27 27 27 27 22 22 22 0 0 0 0 0 0 0 0 0 0 0 0 4 4 4 18 18 18 43 43 43 79 79 79 125 125 125 
164 164 164 192 192 192 209 209 209 215 215 215 207 207 207 189 189 189 163 163 163 153 153 153 
159 159 159 156 156 156 142 142 142 139 139 139 152 152 152 172 172 172 190 190 190 200 200 200 
201 201 201 196 196 196 188 188 188 187 187 187 206 206 206 229 229 229 239 239 239 240 240 240 
240 240 240 237 237 237 227 227 227 204 204 204 167 167 167 118 118 118 73 73 73 38 38 38 
17 17 17 4 4 4 0 0 0 0 0 0 0 0 0 0 0 0 0 0 0 0 0 0 
0 0 0 0 0 0 2 2 2 8 8 8 16 16 16 31 31 31 51 51 51 58 58 58 
57 57 57 50 50 50 41 41 41 36 36 36 37 37 37 40 40 40 37 37 37 0 0 0 0 0 0 0 0 0 0 0 0 7 7 7 29 29 29 64 64 64 108 108 108 151 151 151 
180 180 180 199 199 199 209 209 209 206 206 206 189 189 189 160 160 160 127 127 127 115 115 115 
121 121 121 123 123 123 116 116 116 113 113 113 120 120 120 136 136 136 156 156 156 172 172 172 
177 177 177 176 176 176 174 174 174 176 176 176 195 195 195 221 221 221 237 237 237 240 240 240 
241 241 241 240 240 240 235 235 235 220 220 220 193 193 193 150 150 150 105 105 105 67 67 67 
37 37 37 14 14 14 2 2 2 0 0 0 0 0 0 0 0 0 0 0 0 0 0 0 
1 1 1 6 6 6 14 14 14 29 29 29 43 43 43 53 53 53 54 54 54 47 47 47 
36 36 36 30 30 30 26 26 26 25 25 25 31 31 31 41 41 41 44 44 44 0 0 0 0 0 0 0 0 0 1 1 1 15 15 15 45 45 45 91 91 91 135 135 135 169 169 169 
189 189 189 199 199 199 200 200 200 191 191 191 163 163 163 124 124 124 96 96 96 89 89 89 
96 96 96 102 102 102 105 105 105 100 100 100 98 98 98 106 106 106 121 121 121 136 136 136 
143 143 143 143 143 143 149 149 149 159 159 159 179 179 179 209 209 209 229 229 229 238 238 238 
240 240 240 240 240 240 236 236 236 230 230 230 212 212 212 178 178 178 141 141 141 107 107 107 
67 67 67 31 31 31 9 9 9 0 0 0 0 0 0 0 0 0 1 1 1 5 5 5 
12 12 12 22 22 22 36 36 36 47 47 47 47 47 47 39 39 39 27 27 27 18 18 18 
11 11 11 7 7 7 6 6 6 9 9 9 18 18 18 34 34 34 46 46 46 0 0 0 0 0 0 0 0 0 3 3 3 24 24 24 64 64 64 113 113 113 154 154 154 181 181 181 
191 191 191 188 188 188 180 180 180 164 164 164 131 131 131 102 102 102 93 93 93 102 102 102 
111 111 111 118 118 118 123 123 123 120 120 120 112 112 112 111 111 111 113 113 113 118 118 118 
122 122 122 123 123 123 125 125 125 134 134 134 156 156 156 190 190 190 217 217 217 234 234 234 
239 239 239 240 240 240 237 237 237 236 236 236 223 223 223 196 196 196 166 166 166 139 139 139 
96 96 96 49 49 49 16 16 16 2 2 2 0 0 0 1 1 1 9 9 9 21 21 21 
31 31 31 38 38 38 42 42 42 39 39 39 28 28 28 15 15 15 7 7 7 3 3 3 
1 1 1 0 0 0 0 0 0 3 3 3 14 14 14 33 33 33 46 46 46 0 0 0 0 0 0 0 0 0 8 8 8 35 35 35 78 78 78 130 130 130 168 168 168 189 189 189 
187 187 187 169 169 169 145 145 145 123 123 123 107 107 107 103 103 103 109 109 109 117 117 117 
125 125 125 130 130 130 134 134 134 142 142 142 133 133 133 134 134 134 130 130 130 126 126 126 
122 122 122 119 119 119 114 114 114 112 112 112 128 128 128 162 162 162 197 197 197 222 222 222 
235 235 235 239 239 239 238 238 238 238 238 238 227 227 227 203 203 203 176 176 176 156 156 156 
111 111 111 59 59 59 23 23 23 6 6 6 5 5 5 12 12 12 25 25 25 37 37 37 
42 42 42 40 40 40 32 32 32 20 20 20 9 9 9 3 3 3 0 0 0 0 0 0 
0 0 0 1 1 1 2 2 2 7 7 7 20 20 20 37 37 37 45 45 45 0 0 0 0 0 0 1 1 1 12 12 12 43 43 43 92 92 92 144 144 144 180 180 180 194 194 194 
180 180 180 144 144 144 105 105 105 90 90 90 98 98 98 109 109 109 116 116 116 120 120 120 
126 126 126 132 132 132 138 138 138 144 144 144 142 142 142 147 147 147 144 144 144 134 134 134 
124 124 124 118 118 118 111 111 111 100 100 100 105 105 105 133 133 133 170 170 170 203 203 203 
227 227 227 237 237 237 239 239 239 239 239 239 230 230 230 205 205 205 174 174 174 152 152 152 
110 110 110 63 63 63 30 30 30 16 16 16 18 18 18 30 30 30 40 40 40 44 44 44 
41 41 41 32 32 32 17 17 17 6 6 6 1 1 1 0 0 0 0 0 0 0 0 0 
2 2 2 9 9 9 12 12 12 18 18 18 32 32 32 43 43 43 42 42 42 0 0 0 0 0 0 2 2 2 17 17 17 54 54 54 107 107 107 159 159 159 192 192 192 197 197 197 
163 163 163 113 113 113 80 80 80 83 83 83 102 102 102 117 117 117 121 121 121 125 125 125 
131 131 131 136 136 136 144 144 144 143 143 143 145 145 145 152 152 152 154 154 154 152 152 152 
133 133 133 125 125 125 120 120 120 110 110 110 108 108 108 120 120 120 150 150 150 191 191 191 
222 222 222 236 236 236 240 240 240 239 239 239 230 230 230 205 205 205 174 174 174 154 154 154 
109 109 109 66 66 66 38 38 38 31 31 31 38 38 38 45 45 45 45 45 45 40 40 40 
29 29 29 17 17 17 7 7 7 4 4 4 2 2 2 0 0 0 0 0 0 0 0 0 
11 11 11 27 27 27 34 34 34 37 37 37 43 43 43 42 42 42 31 31 31 0 0 0 0 0 0 3 3 3 21 21 21 63 63 63 119 119 119 169 169 169 197 197 197 188 188 188 
140 140 140 91 91 91 74 74 74 72 72 72 82 82 82 102 102 102 114 114 114 126 126 126 
130 130 130 136 136 136 144 144 144 148 148 148 149 149 149 153 153 153 156 156 156 160 160 160 
150 150 150 142 142 142 136 136 136 128 128 128 121 121 121 119 119 119 137 137 137 181 181 181 
216 216 216 234 234 234 240 240 240 239 239 239 231 231 231 206 206 206 177 177 177 175 175 175 
133 133 133 82 82 82 55 55 55 53 53 53 55 55 55 48 48 48 37 37 37 22 22 22 
11 11 11 6 6 6 1 1 1 6 6 6 4 4 4 0 0 0 0 0 0 2 2 2 
17 17 17 38 38 38 49 49 49 51 51 51 45 45 45 32 32 32 16 16 16 0 0 0 0 0 0 4 4 4 23 23 23 69 69 69 125 125 125 174 174 174 197 197 197 178 178 178 
123 123 123 82 82 82 79 79 79 75 75 75 90 90 90 97 97 97 90 90 90 96 96 96 
115 115 115 127 127 127 134 134 134 141 141 141 145 145 145 144 144 144 144 144 144 145 145 145 
143 143 143 140 140 140 139 139 139 131 131 131 122 122 122 114 114 114 118 118 118 159 159 159 
202 202 202 227 227 227 237 237 237 237 237 237 229 229 229 206 206 206 180 180 180 190 190 190 
161 161 161 110 110 110 81 81 81 72 72 72 58 58 58 40 40 40 21 21 21 7 7 7 
1 1 1 1 1 1 0 0 0 1 1 1 1 1 1 0 0 0 0 0 0 6 6 6 
23 23 23 43 43 43 54 54 54 51 51 51 36 36 36 17 17 17 4 4 4 0 0 0 0 0 0 3 3 3 21 21 21 65 65 65 120 120 120 170 170 170 196 196 196 174 174 174 
118 118 118 83 83 83 90 90 90 81 81 81 81 81 81 90 90 90 87 87 87 83 83 83 
96 96 96 111 111 111 123 123 123 135 135 135 135 135 135 129 129 129 120 120 120 109 109 109 
103 103 103 106 106 106 115 115 115 110 110 110 106 106 106 105 105 105 107 107 107 131 131 131 
176 176 176 212 212 212 232 232 232 237 237 237 227 227 227 205 205 205 180 180 180 196 196 196 
178 178 178 130 130 130 97 97 97 73 73 73 45 45 45 22 22 22 6 6 6 1 1 1 
0 0 0 0 0 0 0 0 0 0 0 0 0 0 0 0 0 0 4 4 4 16 16 16 
34 34 34 46 46 46 48 48 48 37 37 37 18 18 18 5 5 5 0 0 0 0 0 0 0 0 0 2 2 2 14 14 14 49 49 49 98 98 98 151 151 151 183 183 183 173 173 173 
122 122 122 87 87 87 98 98 98 92 92 92 82 82 82 99 99 99 81 81 81 107 107 107 
108 108 108 99 99 99 116 116 116 142 142 142 134 134 134 114 114 114 102 102 102 99 99 99 
99 99 99 99 99 99 110 110 110 109 109 109 101 101 101 98 98 98 105 105 105 116 116 116 
146 146 146 190 190 190 221 221 221 231 231 231 222 222 222 198 198 198 178 178 178 197 197 197 
180 180 180 130 130 130 88 88 88 51 51 51 25 25 25 8 8 8 0 0 0 0 0 0 
0 0 0 0 0 0 0 0 0 0 0 0 1 1 1 7 7 7 19 19 19 34 34 34 
42 42 42 40 40 40 30 30 30 14 14 14 4 4 4 0 0 0 0 0 0 0 0 0 0 0 0 0 0 0 7 7 7 32 32 32 71 71 71 117 117 117 156 156 156 165 165 165 
126 126 126 91 91 91 97 97 97 100 100 100 97 97 97 100 100 100 108 108 108 113 113 113 
112 112 112 99 99 99 115 115 115 138 138 138 120 120 120 105 105 105 112 112 112 117 117 117 
119 119 119 82 82 82 94 94 94 96 96 96 95 95 95 101 101 101 110 110 110 112 112 112 
128 128 128 171 171 171 209 209 209 218 218 218 210 210 210 189 189 189 176 176 176 190 190 190 
168 168 168 128 128 128 80 80 80 37 37 37 13 13 13 2 2 2 0 0 0 0 0 0 
0 0 0 0 0 0 1 1 1 4 4 4 12 12 12 25 25 25 36 36 36 39 39 39 
36 36 36 24 24 24 10 10 10 2 2 2 0 0 0 0 0 0 0 0 0 0 0 0 0 0 0 0 0 0 2 2 2 18 18 18 46 46 46 85 85 85 129 129 129 154 154 154 
126 126 126 95 95 95 101 101 101 105 105 105 110 110 110 106 106 106 104 104 104 106 106 106 
94 94 94 92 92 92 116 116 116 128 128 128 113 113 113 104 104 104 112 112 112 109 109 109 
113 113 113 113 113 113 113 113 113 104 104 104 106 106 106 113 113 113 116 116 116 111 111 111 
120 120 120 154 154 154 190 190 190 197 197 197 189 189 189 176 176 176 173 173 173 180 180 180 
169 169 169 137 137 137 83 83 83 33 33 33 9 9 9 1 1 1 1 1 1 1 1 1 
0 0 0 1 1 1 8 8 8 20 20 20 32 32 32 41 41 41 42 42 42 32 32 32 
19 19 19 8 8 8 1 1 1 0 0 0 0 0 0 0 0 0 0 0 0 0 0 0 0 0 0 0 0 0 0 0 0 8 8 8 29 29 29 63 63 63 108 108 108 143 143 143 
126 126 126 98 98 98 102 102 102 109 109 109 115 115 115 116 116 116 118 118 118 117 117 117 
87 87 87 98 98 98 119 119 119 119 119 119 109 109 109 108 108 108 118 118 118 123 123 123 
118 118 118 118 118 118 117 117 117 118 118 118 121 121 121 122 122 122 120 120 120 111 111 111 
118 118 118 139 139 139 161 161 161 163 163 163 158 158 158 158 158 158 167 167 167 179 179 179 
180 180 180 147 147 147 89 89 89 35 35 35 11 11 11 4 4 4 8 8 8 7 7 7 
6 6 6 11 11 11 25 25 25 39 39 39 44 44 44 41 41 41 31 31 31 15 15 15 
5 5 5 0 0 0 0 0 0 0 0 0 0 0 0 0 0 0 0 0 0 0 0 0 0 0 0 0 0 0 0 0 0 2 2 2 18 18 18 47 47 47 91 91 91 132 132 132 
126 126 126 99 99 99 100 100 100 110 110 110 120 120 120 124 124 124 130 130 130 119 119 119 
90 90 90 113 113 113 133 133 133 123 123 123 106 106 106 106 106 106 130 130 130 140 140 140 
137 137 137 137 137 137 133 133 133 125 125 125 124 124 124 123 123 123 116 116 116 111 111 111 
127 127 127 144 144 144 143 143 143 133 133 133 135 135 135 146 146 146 166 166 166 187 187 187 
188 188 188 150 150 150 91 91 91 39 39 39 16 16 16 12 12 12 19 19 19 25 25 25 
24 24 24 29 29 29 36 36 36 40 40 40 35 35 35 24 24 24 11 11 11 3 3 3 
0 0 0 0 0 0 0 0 0 0 0 0 0 0 0 0 0 0 0 0 0 0 0 0 0 0 0 0 0 0 0 0 0 0 0 0 10 10 10 36 36 36 78 78 78 118 118 118 
122 122 122 100 100 100 98 98 98 112 112 112 125 125 125 132 132 132 132 132 132 105 105 105 
96 96 96 125 125 125 142 142 142 129 129 129 108 108 108 101 101 101 118 118 118 139 139 139 
149 149 149 145 145 145 138 138 138 127 127 127 123 123 123 122 122 122 113 113 113 115 115 115 
143 143 143 163 163 163 151 151 151 131 131 131 132 132 132 145 145 145 169 169 169 192 192 192 
186 186 186 145 145 145 88 88 88 41 41 41 24 24 24 25 25 25 37 37 37 46 46 46 
42 42 42 37 37 37 32 32 32 24 24 24 15 15 15 7 7 7 2 2 2 0 0 0 
0 0 0 0 0 0 0 0 0 0 0 0 0 0 0 0 0 0 0 0 0 0 0 0 0 0 0 0 0 0 0 0 0 0 0 0 5 5 5 26 26 26 63 63 63 104 104 104 
115 115 115 98 98 98 92 92 92 111 111 111 125 125 125 133 133 133 133 133 133 98 98 98 
98 98 98 130 130 130 159 159 159 128 128 128 107 107 107 104 104 104 114 114 114 129 129 129 
146 146 146 146 146 146 138 138 138 128 128 128 120 120 120 116 116 116 108 108 108 119 119 119 
155 155 155 175 175 175 162 162 162 138 138 138 136 136 136 149 149 149 170 170 170 184 184 184 
172 172 172 132 132 132 81 81 81 41 41 41 34 34 34 43 43 43 56 56 56 56 56 56 
45 45 45 31 31 31 16 16 16 7 7 7 3 3 3 0 0 0 0 0 0 0 0 0 
0 0 0 0 0 0 0 0 0 0 0 0 0 0 0 0 0 0 0 0 0 0 0 0 0 0 0 0 0 0 0 0 0 0 0 0 2 2 2 16 16 16 45 45 45 85 85 85 
105 105 105 95 95 95 86 86 86 105 105 105 120 120 120 128 128 128 133 133 133 115 115 115 
94 94 94 106 106 106 119 119 119 108 108 108 102 102 102 110 110 110 133 133 133 126 126 126 
137 137 137 138 138 138 132 132 132 122 122 122 111 111 111 105 105 105 107 107 107 122 122 122 
151 151 151 170 170 170 159 159 159 141 141 141 143 143 143 156 156 156 165 165 165 162 162 162 
145 145 145 109 109 109 72 72 72 50 50 50 54 54 54 63 63 63 63 63 63 49 49 49 
31 31 31 14 14 14 4 4 4 0 0 0 0 0 0 0 0 0 0 0 0 0 0 0 
0 0 0 0 0 0 0 0 0 0 0 0 0 0 0 0 0 0 0 0 0 0 0 0 0 0 0 0 0 0 0 0 0 0 0 0 0 0 0 8 8 8 28 28 28 66 66 66 
90 90 90 91 91 91 81 81 81 100 100 100 111 111 111 106 106 106 110 110 110 94 94 94 
81 81 81 94 94 94 113 113 113 106 106 106 97 97 97 105 105 105 121 121 121 128 128 128 
136 136 136 132 132 132 122 122 122 113 113 113 106 106 106 106 106 106 118 118 118 126 126 126 
138 138 138 150 150 150 146 146 146 139 139 139 150 150 150 159 159 159 153 153 153 137 137 137 
116 116 116 88 88 88 68 68 68 65 65 65 67 67 67 60 60 60 46 46 46 26 26 26 
11 11 11 3 3 3 0 0 0 0 0 0 0 0 0 0 0 0 0 0 0 0 0 0 
0 0 0 0 0 0 0 0 0 0 0 0 0 0 0 0 0 0 0 0 0 0 0 0 0 0 0 0 0 0 0 0 0 0 0 0 0 0 0 2 2 2 16 16 16 47 47 47 
73 73 73 82 82 82 76 76 76 92 92 92 99 99 99 87 87 87 97 97 97 87 87 87 
90 90 90 102 102 102 113 113 113 99 99 99 97 97 97 97 97 97 100 100 100 102 102 102 
129 129 129 125 125 125 109 109 109 106 106 106 115 115 115 125 125 125 132 132 132 130 130 130 
126 126 126 130 130 130 132 132 132 137 137 137 152 152 152 158 158 158 150 150 150 130 130 130 
103 103 103 81 81 81 72 72 72 67 67 67 53 53 53 36 36 36 20 20 20 8 8 8 
2 2 2 0 0 0 0 0 0 0 0 0 0 0 0 0 0 0 0 0 0 0 0 0 
0 0 0 0 0 0 0 0 0 0 0 0 0 0 0 0 0 0 0 0 0 0 0 0 0 0 0 0 0 0 0 0 0 0 0 0 0 0 0 0 0 0 7 7 7 29 29 29 
56 56 56 72 72 72 77 77 77 87 87 87 94 94 94 107 107 107 118 118 118 90 90 90 
83 83 83 89 89 89 94 94 94 93 93 93 91 91 91 94 94 94 101 101 101 94 94 94 
103 103 103 118 118 118 108 108 108 108 108 108 129 129 129 137 137 137 134 134 134 125 125 125 
113 113 113 113 113 113 124 124 124 134 134 134 147 147 147 153 153 153 152 152 152 135 135 135 
104 104 104 78 78 78 66 66 66 50 50 50 31 31 31 15 15 15 5 5 5 1 1 1 
0 0 0 0 0 0 0 0 0 0 0 0 0 0 0 0 0 0 0 0 0 0 0 0 
0 0 0 0 0 0 0 0 0 0 0 0 0 0 0 0 0 0 0 0 0 0 0 0 0 0 0 0 0 0 0 0 0 0 0 0 0 0 0 0 0 0 2 2 2 12 12 12 
34 34 34 58 58 58 79 79 79 97 97 97 107 107 107 113 113 113 122 122 122 107 107 107 
95 95 95 102 102 102 107 107 107 106 106 106 103 103 103 113 113 113 128 128 128 119 119 119 
105 105 105 111 111 111 103 103 103 104 104 104 118 118 118 120 120 120 115 115 115 106 106 106 
95 95 95 99 99 99 107 107 107 118 118 118 130 130 130 137 137 137 139 139 139 123 123 123 
95 95 95 73 73 73 56 56 56 39 39 39 21 21 21 6 6 6 0 0 0 0 0 0 
0 0 0 0 0 0 0 0 0 0 0 0 0 0 0 0 0 0 0 0 0 0 0 0 
0 0 0 0 0 0 0 0 0 0 0 0 0 0 0 0 0 0 0 0 0 0 0 0 0 0 0 0 0 0 0 0 0 0 0 0 0 0 0 0 0 0 0 0 0 3 3 3 
14 14 14 35 35 35 60 60 60 87 87 87 104 104 104 105 105 105 106 106 106 119 119 119 
116 116 116 106 106 106 105 105 105 110 110 110 120 120 120 133 133 133 137 137 137 127 127 127 
111 111 111 96 96 96 79 79 79 81 81 81 88 88 88 92 92 92 93 93 93 87 87 87 
78 78 78 75 75 75 76 76 76 85 85 85 100 100 100 108 108 108 105 105 105 91 91 91 
84 84 84 77 77 77 67 67 67 49 49 49 26 26 26 9 9 9 0 0 0 0 0 0 
0 0 0 0 0 0 0 0 0 0 0 0 0 0 0 0 0 0 0 0 0 0 0 0 
0 0 0 0 0 0 0 0 0 0 0 0 0 0 0 0 0 0 0 0 0 0 0 0 0 0 0 0 0 0 0 0 0 0 0 0 0 0 0 0 0 0 0 0 0 0 0 0 
3 3 3 14 14 14 32 32 32 56 56 56 76 76 76 87 87 87 90 90 90 106 106 106 
120 120 120 124 124 124 123 123 123 133 133 133 138 138 138 137 137 137 129 129 129 119 119 119 
101 101 101 77 77 77 61 61 61 65 65 65 75 75 75 85 85 85 91 91 91 84 84 84 
68 68 68 52 52 52 47 47 47 54 54 54 66 66 66 75 75 75 76 76 76 80 80 80 
91 91 91 98 98 98 93 93 93 73 73 73 44 44 44 21 21 21 7 7 7 1 1 1 
0 0 0 0 0 0 0 0 0 0 0 0 0 0 0 0 0 0 0 0 0 0 0 0 
0 0 0 0 0 0 0 0 0 0 0 0 0 0 0 0 0 0 0 0 0 0 0 0 0 0 0 0 0 0 0 0 0 0 0 0 0 0 0 0 0 0 0 0 0 0 0 0 
0 0 0 3 3 3 10 10 10 25 25 25 41 41 41 58 58 58 68 68 68 77 77 77 
97 97 97 115 115 115 126 126 126 133 133 133 130 130 130 118 118 118 113 113 113 100 100 100 
79 79 79 62 62 62 56 56 56 64 64 64 82 82 82 95 95 95 97 97 97 83 83 83 
59 59 59 37 37 37 28 28 28 33 33 33 44 44 44 59 59 59 74 74 74 95 95 95 
112 112 112 120 120 120 118 118 118 101 101 101 74 74 74 45 45 45 24 24 24 8 8 8 
1 1 1 0 0 0 0 0 0 0 0 0 0 0 0 0 0 0 0 0 0 0 0 0 
0 0 0 0 0 0 0 0 0 0 0 0 0 0 0 0 0 0 0 0 0 0 0 0 0 0 0 0 0 0 0 0 0 0 0 0 0 0 0 0 0 0 0 0 0 0 0 0 
0 0 0 0 0 0 1 1 1 5 5 5 14 14 14 24 24 24 35 35 35 47 47 47 
67 67 67 87 87 87 100 100 100 103 103 103 95 95 95 91 91 91 93 93 93 82 82 82 
64 64 64 55 55 55 58 58 58 76 76 76 95 95 95 101 101 101 94 94 94 70 70 70 
44 44 44 27 27 27 21 21 21 28 28 28 42 42 42 65 65 65 91 91 91 113 113 113 
128 128 128 136 136 136 137 137 137 126 126 126 108 108 108 83 83 83 56 56 56 29 29 29 
11 11 11 1 1 1 0 0 0 0 0 0 0 0 0 0 0 0 0 0 0 0 0 0 
0 0 0 0 0 0 0 0 0 0 0 0 0 0 0 0 0 0 0 0 0 0 0 0 0 0 0 0 0 0 0 0 0 0 0 0 0 0 0 0 0 0 0 0 0 0 0 0 
0 0 0 0 0 0 0 0 0 0 0 0 1 1 1 5 5 5 10 10 10 19 19 19 
33 33 33 50 50 50 62 62 62 68 68 68 64 64 64 65 65 65 70 70 70 69 69 69 
56 56 56 55 55 55 65 65 65 89 89 89 102 102 102 100 100 100 83 83 83 56 56 56 
36 36 36 26 26 26 25 25 25 37 37 37 58 58 58 82 82 82 100 100 100 115 115 115 
130 130 130 140 140 140 143 143 143 138 138 138 128 128 128 113 113 113 90 90 90 59 59 59 
27 27 27 7 7 7 0 0 0 0 0 0 0 0 0 0 0 0 0 0 0 0 0 0 
0 0 0 0 0 0 0 0 0 0 0 0 0 0 0 0 0 0 0 0 0 0 0 0 0 0 0 0 0 0 0 0 0 0 0 0 0 0 0 0 0 0 0 0 0 0 0 0 
0 0 0 0 0 0 0 0 0 0 0 0 0 0 0 0 0 0 1 1 1 3 3 3 
9 9 9 17 17 17 25 25 25 30 30 30 30 30 30 34 34 34 43 43 43 52 52 52 
52 52 52 59 59 59 78 78 78 100 100 100 108 108 108 99 99 99 78 78 78 54 54 54 
39 39 39 34 34 34 39 39 39 58 58 58 80 80 80 97 97 97 106 106 106 108 108 108 
119 119 119 133 133 133 138 138 138 133 133 133 125 125 125 116 116 116 103 103 103 81 81 81 
49 49 49 17 17 17 2 2 2 0 0 0 0 0 0 0 0 0 0 0 0 0 0 0 
0 0 0 0 0 0 0 0 0 0 0 0 0 0 0 0 0 0 0 0 0 0 0 0 0 0 0 0 0 0 0 0 0 0 0 0 0 0 0 0 0 0 0 0 0 0 0 0 
0 0 0 0 0 0 0 0 0 0 0 0 0 0 0 0 0 0 0 0 0 0 0 0 
0 0 0 2 2 2 6 6 6 6 6 6 8 8 8 12 12 12 20 20 20 35 35 35 
50 50 50 70 70 70 92 92 92 109 109 109 113 113 113 106 106 106 89 89 89 68 68 68 
56 56 56 54 54 54 62 62 62 81 81 81 95 95 95 105 105 105 109 109 109 104 104 104 
105 105 105 115 115 115 118 118 118 107 107 107 92 92 92 81 81 81 76 76 76 73 73 73 
61 61 61 34 34 34 9 9 9 1 1 1 0 0 0 0 0 0 0 0 0 0 0 0 
0 0 0 0 0 0 0 0 0 0 0 0 0 0 0 0 0 0 0 0 0 0 0 0 0 0 0 0 0 0 0 0 0 0 0 0 0 0 0 0 0 0 0 0 0 0 0 0 
0 0 0 0 0 0 0 0 0 0 0 0 0 0 0 0 0 0 0 0 0 0 0 0 
0 0 0 2 2 2 3 3 3 0 0 0 0 0 0 1 1 1 8 8 8 27 27 27 
55 55 55 83 83 83 102 102 102 110 110 110 112 112 112 109 109 109 104 104 104 96 96 96 
89 89 89 88 88 88 95 95 95 102 102 102 100 100 100 102 102 102 103 103 103 96 96 96 
93 93 93 90 90 90 80 80 80 61 61 61 44 44 44 34 34 34 30 30 30 35 35 35 
41 41 41 39 39 39 23 23 23 4 4 4 0 0 0 0 0 0 0 0 0 0 0 0 
0 0 0 0 0 0 0 0 0 0 0 0 0 0 0 0 0 0 0 0 0 0 0 0 0 0 0 0 0 0 0 0 0 0 0 0 0 0 0 0 0 0 0 0 0 0 0 0 
0 0 0 0 0 0 0 0 0 0 0 0 0 0 0 0 0 0 0 0 0 0 0 0 
0 0 0 2 2 2 2 2 2 0 0 0 0 0 0 0 0 0 4 4 4 23 23 23 
56 56 56 85 85 85 105 105 105 106 106 106 97 97 97 96 96 96 99 99 99 102 102 102 
107 107 107 111 111 111 116 116 116 116 116 116 104 104 104 96 96 96 94 94 94 95 95 95 
90 90 90 70 70 70 46 46 46 26 26 26 15 15 15 9 9 9 9 9 9 12 12 12 
17 17 17 24 24 24 27 27 27 13 13 13 1 1 1 0 0 0 0 0 0 0 0 0 
0 0 0 0 0 0 0 0 0 0 0 0 0 0 0 0 0 0 0 0 0 0 0 0 0 0 0 0 0 0 0 0 0 0 0 0 0 0 0 0 0 0 0 0 0 0 0 0 
0 0 0 0 0 0 0 0 0 0 0 0 0 0 0 0 0 0 0 0 0 0 0 0 
0 0 0 0 0 0 0 0 0 0 0 0 0 0 0 0 0 0 2 2 2 18 18 18 
49 49 49 82 82 82 103 103 103 98 98 98 80 80 80 71 71 71 74 74 74 87 87 87 
100 100 100 112 112 112 121 121 121 123 123 123 111 111 111 96 96 96 94 94 94 97 97 97 
86 86 86 58 58 58 28 28 28 10 10 10 5 5 5 2 2 2 2 2 2 5 5 5 
5 5 5 11 11 11 20 20 20 16 16 16 3 3 3 0 0 0 0 0 0 0 0 0 
0 0 0 0 0 0 0 0 0 0 0 0 0 0 0 0 0 0 0 0 0 0 0 0 0 0 0 0 0 0 0 0 0 0 0 0 0 0 0 0 0 0 0 0 0 0 0 0 
0 0 0 0 0 0 0 0 0 0 0 0 0 0 0 0 0 0 0 0 0 0 0 0 
0 0 0 0 0 0 0 0 0 0 0 0 0 0 0 0 0 0 0 0 0 10 10 10 
36 36 36 70 70 70 93 93 93 86 86 86 62 62 62 46 46 46 44 44 44 54 54 54 
73 73 73 92 92 92 111 111 111 121 121 121 111 111 111 101 101 101 102 102 102 97 97 97 
79 79 79 49 49 49 18 18 18 3 3 3 2 2 2 4 4 4 1 1 1 2 2 2 
2 2 2 5 5 5 14 14 14 11 11 11 2 2 2 0 0 0 0 0 0 0 0 0 
0 0 0 0 0 0 0 0 0 0 0 0 0 0 0 0 0 0 0 0 0 0 0 0 0 0 0 0 0 0 0 0 0 0 0 0 0 0 0 0 0 0 0 0 0 0 0 0 
0 0 0 0 0 0 0 0 0 0 0 0 0 0 0 0 0 0 0 0 0 0 0 0 
0 0 0 0 0 0 0 0 0 0 0 0 0 0 0 0 0 0 0 0 0 5 5 5 
23 23 23 54 54 54 75 75 75 70 70 70 45 45 45 28 28 28 23 23 23 30 30 30 
49 49 49 73 73 73 98 98 98 112 112 112 108 108 108 108 108 108 109 109 109 93 93 93 
62 62 62 32 32 32 10 10 10 1 1 1 2 2 2 3 3 3 1 1 1 1 1 1 
2 2 2 6 6 6 12 12 12 6 6 6 0 0 0 0 0 0 0 0 0 0 0 0 
0 0 0 0 0 0 0 0 0 0 0 0 0 0 0 0 0 0 0 0 0 0 0 0 0 0 0 0 0 0 0 0 0 0 0 0 0 0 0 0 0 0 0 0 0 0 0 0 
0 0 0 0 0 0 0 0 0 0 0 0 0 0 0 0 0 0 0 0 0 0 0 0 
0 0 0 0 0 0 0 0 0 0 0 0 0 0 0 0 0 0 0 0 0 1 1 1 
13 13 13 36 36 36 55 55 55 53 53 53 32 32 32 16 16 16 11 11 11 19 19 19 
39 39 39 71 71 71 95 95 95 105 105 105 108 108 108 111 111 111 107 107 107 85 85 85 
49 49 49 21 21 21 5 5 5 1 1 1 1 1 1 2 2 2 4 4 4 3 3 3 
2 2 2 10 10 10 21 21 21 12 12 12 1 1 1 0 0 0 0 0 0 0 0 0 
0 0 0 0 0 0 0 0 0 0 0 0 0 0 0 0 0 0 0 0 0 0 0 0 0 0 0 0 0 0 0 0 0 0 0 0 0 0 0 0 0 0 0 0 0 0 0 0 
0 0 0 0 0 0 0 0 0 0 0 0 0 0 0 0 0 0 0 0 0 0 0 0 
0 0 0 0 0 0 0 0 0 0 0 0 0 0 0 0 0 0 0 0 0 0 0 0 
5 5 5 19 19 19 38 38 38 39 39 39 24 24 24 10 10 10 6 6 6 14 14 14 
37 37 37 71 71 71 95 95 95 99 99 99 104 104 104 110 110 110 103 103 103 74 74 74 
40 40 40 15 15 15 4 4 4 1 1 1 2 2 2 2 2 2 2 2 2 2 2 2 
5 5 5 18 18 18 32 32 32 18 18 18 2 2 2 0 0 0 0 0 0 0 0 0 
0 0 0 0 0 0 0 0 0 0 0 0 0 0 0 0 0 0 0 0 0 0 0 0 0 0 0 0 0 0 0 0 0 0 0 0 0 0 0 0 0 0 0 0 0 0 0 0 
0 0 0 0 0 0 0 0 0 0 0 0 0 0 0 0 0 0 0 0 0 0 0 0 
0 0 0 0 0 0 0 0 0 0 0 0 0 0 0 0 0 0 0 0 0 0 0 0 
1 1 1 7 7 7 21 21 21 32 32 32 26 26 26 14 14 14 8 8 8 16 16 16 
36 36 36 65 65 65 88 88 88 95 95 95 102 102 102 110 110 110 102 102 102 72 72 72 
39 39 39 15 15 15 5 5 5 1 1 1 1 1 1 1 1 1 2 2 2 1 1 1 
9 9 9 27 27 27 37 37 37 17 17 17 2 2 2 0 0 0 0 0 0 0 0 0 
0 0 0 0 0 0 0 0 0 0 0 0 0 0 0 0 0 0 0 0 0 0 0 0 0 0 0 0 0 0 0 0 0 0 0 0 0 0 0 0 0 0 0 0 0 0 0 0 
0 0 0 0 0 0 0 0 0 0 0 0 0 0 0 0 0 0 0 0 0 0 0 0 
0 0 0 0 0 0 0 0 0 0 0 0 0 0 0 0 0 0 0 0 0 0 0 0 
0 0 0 1 1 1 10 10 10 25 25 25 28 28 28 22 22 22 16 16 16 24 24 24 
43 43 43 68 68 68 87 87 87 96 96 96 108 108 108 118 118 118 112 112 112 83 83 83 
46 46 46 19 19 19 7 7 7 3 3 3 2 2 2 2 2 2 2 2 2 5 5 5 
18 18 18 34 34 34 30 30 30 9 9 9 1 1 1 0 0 0 0 0 0 0 0 0 
0 0 0 0 0 0 0 0 0 0 0 0 0 0 0 0 0 0 0 0 0 0 0 0 0 0 0 0 0 0 0 0 0 0 0 0 0 0 0 0 0 0 0 0 0 0 0 0 
0 0 0 0 0 0 0 0 0 0 0 0 0 0 0 0 0 0 0 0 0 0 0 0 
0 0 0 0 0 0 0 0 0 0 0 0 0 0 0 0 0 0 0 0 0 0 0 0 
0 0 0 0 0 0 2 2 2 15 15 15 22 22 22 25 25 25 26 26 26 40 40 40 
61 61 61 83 83 83 96 96 96 101 101 101 112 112 112 123 123 123 121 121 121 97 97 97 
59 59 59 28 28 28 10 10 10 4 4 4 3 3 3 1 1 1 2 2 2 12 12 12 
28 28 28 35 35 35 20 20 20 3 3 3 0 0 0 0 0 0 0 0 0 0 0 0 
0 0 0 0 0 0 0 0 0 0 0 0 0 0 0 0 0 0 0 0 0 0 0 0 0 0 0 0 0 0 0 0 0 0 0 0 0 0 0 0 0 0 0 0 0 0 0 0 
0 0 0 0 0 0 0 0 0 0 0 0 0 0 0 0 0 0 0 0 0 0 0 0 
0 0 0 0 0 0 0 0 0 0 0 0 0 0 0 0 0 0 0 0 0 0 0 0 
0 0 0 0 0 0 0 0 0 3 3 3 9 9 9 20 20 20 33 33 33 53 53 53 
77 77 77 93 93 93 98 98 98 99 99 99 111 111 111 123 123 123 125 125 125 112 112 112 
76 76 76 41 41 41 18 18 18 6 6 6 4 4 4 4 4 4 11 11 11 24 24 24 
33 33 33 25 25 25 9 9 9 1 1 1 0 0 0 0 0 0 0 0 0 0 0 0 
0 0 0 0 0 0 0 0 0 0 0 0 0 0 0 0 0 0 0 0 0 0 0 0 0 0 0 0 0 0 0 0 0 0 0 0 0 0 0 0 0 0 0 0 0 0 0 0 
0 0 0 0 0 0 0 0 0 0 0 0 0 0 0 0 0 0 0 0 0 0 0 0 
0 0 0 0 0 0 0 0 0 0 0 0 0 0 0 0 0 0 0 0 0 0 0 0 
0 0 0 0 0 0 0 0 0 0 0 0 1 1 1 6 6 6 18 18 18 43 43 43 
69 69 69 83 83 83 83 83 83 81 81 81 95 95 95 110 110 110 119 119 119 116 116 116 
92 92 92 60 60 60 32 32 32 13 13 13 10 10 10 16 16 16 26 26 26 32 32 32 
24 24 24 10 10 10 1 1 1 0 0 0 0 0 0 0 0 0 0 0 0 0 0 0 
0 0 0 0 0 0 0 0 0 0 0 0 0 0 0 0 0 0 0 0 0 0 0 0 0 0 0 0 0 0 0 0 0 0 0 0 0 0 0 0 0 0 0 0 0 0 0 0 
0 0 0 0 0 0 0 0 0 0 0 0 0 0 0 0 0 0 0 0 0 0 0 0 
0 0 0 0 0 0 0 0 0 0 0 0 0 0 0 0 0 0 0 0 0 0 0 0 
0 0 0 0 0 0 0 0 0 0 0 0 0 0 0 0 0 0 5 5 5 18 18 18 
35 35 35 47 47 47 49 49 49 48 48 48 62 62 62 77 77 77 90 90 90 96 96 96 
87 87 87 69 69 69 46 46 46 25 25 25 22 22 22 27 27 27 31 31 31 24 24 24 
10 10 10 2 2 2 0 0 0 0 0 0 0 0 0 0 0 0 0 0 0 0 0 0 
0 0 0 0 0 0 0 0 0 0 0 0 0 0 0 0 0 0 0 0 0 0 0 0 0 0 0 0 0 0 0 0 0 0 0 0 0 0 0 0 0 0 0 0 0 0 0 0 
0 0 0 0 0 0 0 0 0 0 0 0 0 0 0 0 0 0 0 0 0 0 0 0 
0 0 0 0 0 0 0 0 0 0 0 0 0 0 0 0 0 0 0 0 0 0 0 0 
0 0 0 0 0 0 0 0 0 0 0 0 0 0 0 0 0 0 1 1 1 2 2 2 
7 7 7 11 11 11 13 13 13 18 18 18 26 26 26 36 36 36 45 45 45 54 54 54 
58 58 58 55 55 55 44 44 44 30 30 30 26 26 26 25 25 25 19 19 19 9 9 9 
2 2 2 0 0 0 0 0 0 0 0 0 0 0 0 0 0 0 0 0 0 0 0 0 
0 0 0 0 0 0 0 0 0 0 0 0 0 0 0 0 0 0 0 0 0 0 0 0 0 0 0 0 0 0 0 0 0 0 0 0 0 0 0 0 0 0 0 0 0 0 0 0 
0 0 0 0 0 0 0 0 0 0 0 0 0 0 0 0 0 0 0 0 0 0 0 0 
0 0 0 0 0 0 0 0 0 0 0 0 0 0 0 0 0 0 0 0 0 0 0 0 
0 0 0 0 0 0 0 0 0 0 0 0 0 0 0 0 0 0 0 0 0 0 0 0 
0 0 0 0 0 0 1 1 1 1 1 1 4 4 4 8 8 8 10 10 10 15 15 15 
19 19 19 23 23 23 23 23 23 17 17 17 13 13 13 8 8 8 4 4 4 1 1 1 
0 0 0 0 0 0 0 0 0 0 0 0 0 0 0 0 0 0 0 0 0 0 0 0 
0 0 0 0 0 0 0 0 0 0 0 0 0 0 0 0 0 0 0 0 0 