P3
# Created by IrfanView
64 64
255
3 3 3 2 2 2 0 0 0 0 0 0 0 0 0 0 0 0 0 0 0 0 0 0 0 0 0 
0 0 0 0 0 0 0 0 0 0 0 0 0 0 0 0 0 0 0 0 0 0 0 0 
0 0 0 0 0 0 0 0 0 0 0 0 1 1 1 12 12 12 46 46 46 71 71 71 
41 41 41 9 9 9 0 0 0 0 0 0 0 0 0 0 0 0 0 0 0 0 0 0 
0 0 0 0 0 0 0 0 0 0 0 0 0 0 0 0 0 0 0 0 0 0 0 0 
0 0 0 0 0 0 0 0 0 0 0 0 0 0 0 0 0 0 0 0 0 0 0 0 
0 0 0 0 0 0 0 0 0 0 0 0 0 0 0 0 0 0 0 0 0 0 0 0 
0 0 0 0 0 0 0 0 0 0 0 0 0 0 0 0 0 0 0 0 0 26 26 26 19 19 19 3 3 3 0 0 0 0 0 0 0 0 0 0 0 0 0 0 0 0 0 0 
0 0 0 0 0 0 0 0 0 0 0 0 0 0 0 0 0 0 0 0 0 0 0 0 
0 0 0 0 0 0 0 0 0 0 0 0 0 0 0 12 12 12 45 45 45 68 68 68 
41 41 41 10 10 10 0 0 0 0 0 0 0 0 0 0 0 0 0 0 0 0 0 0 
0 0 0 0 0 0 0 0 0 0 0 0 0 0 0 0 0 0 0 0 0 0 0 0 
0 0 0 0 0 0 0 0 0 0 0 0 0 0 0 0 0 0 0 0 0 0 0 0 
0 0 0 0 0 0 0 0 0 0 0 0 0 0 0 0 0 0 0 0 0 0 0 0 
0 0 0 0 0 0 0 0 0 0 0 0 0 0 0 0 0 0 0 0 0 69 69 69 56 56 56 14 14 14 1 1 1 0 0 0 0 0 0 0 0 0 0 0 0 0 0 0 
0 0 0 0 0 0 0 0 0 0 0 0 0 0 0 0 0 0 0 0 0 0 0 0 
0 0 0 0 0 0 0 0 0 0 0 0 1 1 1 13 13 13 45 45 45 68 68 68 
41 41 41 11 11 11 0 0 0 0 0 0 0 0 0 0 0 0 0 0 0 0 0 0 
0 0 0 0 0 0 0 0 0 0 0 0 0 0 0 0 0 0 0 0 0 0 0 0 
0 0 0 0 0 0 0 0 0 0 0 0 0 0 0 0 0 0 0 0 0 0 0 0 
0 0 0 0 0 0 0 0 0 0 0 0 0 0 0 0 0 0 0 0 0 0 0 0 
0 0 0 0 0 0 0 0 0 0 0 0 0 0 0 0 0 0 0 0 0 85 85 85 71 71 71 31 31 31 4 4 4 0 0 0 0 0 0 0 0 0 0 0 0 0 0 0 
0 0 0 0 0 0 0 0 0 0 0 0 0 0 0 0 0 0 0 0 0 0 0 0 
0 0 0 0 0 0 0 0 0 0 0 0 1 1 1 14 14 14 45 45 45 66 66 66 
40 40 40 11 11 11 1 1 1 0 0 0 0 0 0 0 0 0 0 0 0 0 0 0 
0 0 0 0 0 0 0 0 0 0 0 0 0 0 0 0 0 0 0 0 0 0 0 0 
0 0 0 0 0 0 0 0 0 0 0 0 0 0 0 0 0 0 0 0 0 0 0 0 
0 0 0 0 0 0 0 0 0 0 0 0 0 0 0 0 0 0 0 0 0 0 0 0 
0 0 0 0 0 0 0 0 0 0 0 0 0 0 0 0 0 0 0 0 0 85 85 85 82 82 82 41 41 41 8 8 8 0 0 0 0 0 0 0 0 0 0 0 0 0 0 0 
0 0 0 0 0 0 0 0 0 0 0 0 0 0 0 0 0 0 0 0 0 0 0 0 
0 0 0 0 0 0 0 0 0 0 0 0 2 2 2 16 16 16 47 47 47 62 62 62 
38 38 38 15 15 15 6 6 6 4 4 4 3 3 3 1 1 1 0 0 0 0 0 0 
0 0 0 0 0 0 0 0 0 0 0 0 0 0 0 0 0 0 0 0 0 0 0 0 
0 0 0 0 0 0 0 0 0 0 0 0 0 0 0 0 0 0 0 0 0 0 0 0 
0 0 0 0 0 0 0 0 0 0 0 0 0 0 0 0 0 0 0 0 0 0 0 0 
0 0 0 0 0 0 0 0 0 0 0 0 0 0 0 0 0 0 0 0 0 68 68 68 83 83 83 56 56 56 17 17 17 2 2 2 0 0 0 0 0 0 0 0 0 0 0 0 
0 0 0 0 0 0 0 0 0 0 0 0 0 0 0 0 0 0 0 0 0 0 0 0 
0 0 0 0 0 0 0 0 0 0 0 0 3 3 3 21 21 21 52 52 52 61 61 61 
37 37 37 25 25 25 25 25 25 23 23 23 19 19 19 12 12 12 5 5 5 1 1 1 
0 0 0 0 0 0 0 0 0 0 0 0 0 0 0 0 0 0 0 0 0 0 0 0 
0 0 0 0 0 0 0 0 0 0 0 0 0 0 0 0 0 0 0 0 0 0 0 0 
0 0 0 0 0 0 0 0 0 0 0 0 0 0 0 0 0 0 0 0 0 0 0 0 
0 0 0 0 0 0 0 0 0 0 0 0 0 0 0 0 0 0 0 0 0 38 38 38 69 69 69 68 68 68 35 35 35 10 10 10 1 1 1 0 0 0 0 0 0 0 0 0 
0 0 0 0 0 0 0 0 0 0 0 0 0 0 0 0 0 0 0 0 0 0 0 0 
0 0 0 0 0 0 0 0 0 0 0 0 5 5 5 30 30 30 69 69 69 70 70 70 
45 45 45 43 43 43 47 47 47 45 45 45 40 40 40 33 33 33 19 19 19 7 7 7 
1 1 1 0 0 0 0 0 0 0 0 0 0 0 0 0 0 0 0 0 0 0 0 0 
0 0 0 0 0 0 0 0 0 0 0 0 0 0 0 0 0 0 0 0 0 0 0 0 
0 0 0 0 0 0 0 0 0 0 0 0 0 0 0 0 0 0 0 0 0 0 0 0 
0 0 0 0 0 0 0 0 0 0 0 0 0 0 0 0 0 0 0 0 0 18 18 18 48 48 48 70 70 70 56 56 56 26 26 26 6 6 6 0 0 0 0 0 0 0 0 0 
0 0 0 0 0 0 0 0 0 0 0 0 0 0 0 1 1 1 1 1 1 1 1 1 
0 0 0 1 1 1 2 2 2 5 5 5 12 12 12 41 41 41 91 91 91 96 96 96 
72 72 72 63 63 63 62 62 62 55 55 55 49 49 49 47 47 47 38 38 38 22 22 22 
8 8 8 1 1 1 0 0 0 0 0 0 0 0 0 0 0 0 0 0 0 0 0 0 
0 0 0 0 0 0 0 0 0 0 0 0 0 0 0 0 0 0 0 0 0 0 0 0 
0 0 0 0 0 0 0 0 0 0 0 0 0 0 0 0 0 0 0 0 0 0 0 0 
0 0 0 0 0 0 0 0 0 0 0 0 0 0 0 0 0 0 0 0 0 7 7 7 26 26 26 53 53 53 64 64 64 44 44 44 18 18 18 5 5 5 0 0 0 0 0 0 
0 0 0 0 0 0 1 1 1 3 3 3 8 8 8 12 12 12 12 12 12 10 10 10 
10 10 10 17 17 17 23 23 23 27 27 27 36 36 36 63 63 63 112 112 112 136 136 136 
121 121 121 89 89 89 76 76 76 64 64 64 52 52 52 53 53 53 51 51 51 41 41 41 
24 24 24 8 8 8 1 1 1 0 0 0 0 0 0 0 0 0 0 0 0 0 0 0 
0 0 0 0 0 0 0 0 0 0 0 0 0 0 0 0 0 0 0 0 0 0 0 0 
0 0 0 0 0 0 0 0 0 0 0 0 0 0 0 0 0 0 0 0 0 0 0 0 
0 0 0 0 0 0 0 0 0 0 0 0 0 0 0 0 0 0 0 0 0 1 1 1 10 10 10 30 30 30 52 52 52 52 52 52 35 35 35 15 15 15 3 3 3 0 0 0 
0 0 0 1 1 1 7 7 7 18 18 18 29 29 29 39 39 39 42 42 42 41 41 41 
45 45 45 63 63 63 75 75 75 80 80 80 84 84 84 93 93 93 143 143 143 181 181 181 
178 178 178 129 129 129 104 104 104 84 84 84 64 64 64 58 58 58 54 54 54 50 50 50 
40 40 40 21 21 21 7 7 7 1 1 1 0 0 0 0 0 0 0 0 0 0 0 0 
0 0 0 0 0 0 0 0 0 0 0 0 0 0 0 0 0 0 0 0 0 0 0 0 
0 0 0 0 0 0 0 0 0 0 0 0 0 0 0 0 0 0 0 0 0 0 0 0 
0 0 0 0 0 0 0 0 0 0 0 0 0 0 0 0 0 0 0 0 0 0 0 0 2 2 2 12 12 12 30 30 30 47 47 47 52 52 52 36 36 36 16 16 16 6 6 6 
3 3 3 8 8 8 27 27 27 50 50 50 70 70 70 91 91 91 105 105 105 114 114 114 
124 124 124 134 134 134 139 139 139 143 143 143 141 141 141 141 141 141 198 198 198 219 219 219 
214 214 214 164 164 164 128 128 128 107 107 107 89 89 89 75 75 75 61 61 61 58 58 58 
56 56 56 44 44 44 26 26 26 9 9 9 0 0 0 0 0 0 0 0 0 0 0 0 
0 0 0 0 0 0 0 0 0 0 0 0 0 0 0 0 0 0 0 0 0 0 0 0 
0 0 0 0 0 0 0 0 0 0 0 0 0 0 0 0 0 0 0 0 0 0 0 0 
0 0 0 0 0 0 0 0 0 0 0 0 0 0 0 0 0 0 0 0 0 0 0 0 0 0 0 3 3 3 13 13 13 34 34 34 52 52 52 52 52 52 37 37 37 21 21 21 
14 14 14 21 21 21 49 49 49 83 83 83 115 115 115 147 147 147 168 168 168 182 182 182 
188 188 188 190 190 190 186 186 186 186 186 186 186 186 186 195 195 195 220 220 220 223 223 223 
220 220 220 179 179 179 121 121 121 121 121 121 129 129 129 110 110 110 90 90 90 84 84 84 
75 75 75 64 64 64 48 48 48 22 22 22 3 3 3 0 0 0 0 0 0 0 0 0 
0 0 0 0 0 0 0 0 0 0 0 0 0 0 0 0 0 0 0 0 0 0 0 0 
0 0 0 0 0 0 0 0 0 0 0 0 0 0 0 0 0 0 0 0 0 0 0 0 
0 0 0 0 0 0 0 0 0 0 0 0 0 0 0 0 0 0 0 0 0 0 0 0 0 0 0 0 0 0 4 4 4 16 16 16 37 37 37 50 50 50 51 51 51 41 41 41 
31 31 31 36 36 36 64 64 64 104 104 104 144 144 144 178 178 178 202 202 202 215 215 215 
219 219 219 218 218 218 216 216 216 216 216 216 219 219 219 222 222 222 226 226 226 226 226 226 
225 225 225 205 205 205 152 152 152 175 175 175 181 181 181 160 160 160 139 139 139 124 124 124 
101 101 101 81 81 81 64 64 64 37 37 37 10 10 10 0 0 0 0 0 0 0 0 0 
0 0 0 0 0 0 0 0 0 0 0 0 0 0 0 0 0 0 0 0 0 0 0 0 
0 0 0 0 0 0 0 0 0 0 0 0 0 0 0 0 0 0 0 0 0 0 0 0 
0 0 0 0 0 0 0 0 0 0 0 0 0 0 0 0 0 0 0 0 0 0 0 0 0 0 0 0 0 0 0 0 0 4 4 4 16 16 16 33 33 33 47 47 47 52 52 52 
50 50 50 52 52 52 74 74 74 111 111 111 144 144 144 180 180 180 211 211 211 223 223 223 
227 227 227 225 225 225 223 223 223 224 224 224 225 225 225 227 227 227 227 227 227 227 227 227 
226 226 226 212 212 212 180 180 180 194 194 194 214 214 214 208 208 208 189 189 189 166 166 166 
137 137 137 109 109 109 84 84 84 53 53 53 23 23 23 5 5 5 0 0 0 0 0 0 
0 0 0 0 0 0 0 0 0 0 0 0 0 0 0 0 0 0 0 0 0 0 0 0 
0 0 0 0 0 0 0 0 0 0 0 0 0 0 0 0 0 0 0 0 0 0 0 0 
0 0 0 0 0 0 0 0 0 0 0 0 0 0 0 0 0 0 0 0 0 0 0 0 0 0 0 0 0 0 0 0 0 0 0 0 5 5 5 18 18 18 33 33 33 48 48 48 
57 57 57 63 63 63 82 82 82 115 115 115 151 151 151 187 187 187 215 215 215 224 224 224 
224 224 224 224 224 224 225 225 225 224 224 224 224 224 224 226 226 226 227 227 227 227 227 227 
226 226 226 214 214 214 189 189 189 194 194 194 220 220 220 226 226 226 216 216 216 199 199 199 
174 174 174 145 145 145 117 117 117 79 79 79 40 40 40 14 14 14 1 1 1 0 0 0 
0 0 0 0 0 0 0 0 0 0 0 0 0 0 0 0 0 0 0 0 0 0 0 0 
0 0 0 0 0 0 0 0 0 0 0 0 0 0 0 0 0 0 0 0 0 0 0 0 
0 0 0 0 0 0 0 0 0 0 0 0 0 0 0 0 0 0 0 0 0 0 0 0 0 0 0 0 0 0 0 0 0 0 0 0 3 3 3 13 13 13 19 19 19 31 31 31 
49 49 49 68 68 68 94 94 94 131 131 131 171 171 171 202 202 202 220 220 220 223 223 223 
220 220 220 220 220 220 220 220 220 215 215 215 214 214 214 220 220 220 225 225 225 227 227 227 
227 227 227 218 218 218 195 195 195 192 192 192 215 215 215 231 231 231 231 231 231 224 224 224 
208 208 208 187 187 187 157 157 157 111 111 111 64 64 64 28 28 28 7 7 7 0 0 0 
0 0 0 0 0 0 0 0 0 0 0 0 0 0 0 0 0 0 0 0 0 0 0 0 
0 0 0 0 0 0 0 0 0 0 0 0 0 0 0 0 0 0 0 0 0 0 0 0 
0 0 0 1 1 1 1 1 1 0 0 0 0 0 0 0 0 0 0 0 0 0 0 0 0 0 0 0 0 0 0 0 0 0 0 0 4 4 4 12 12 12 13 13 13 20 20 20 
41 41 41 71 71 71 110 110 110 154 154 154 191 191 191 213 213 213 222 222 222 218 218 218 
207 207 207 205 205 205 205 205 205 194 194 194 189 189 189 202 202 202 216 216 216 223 223 223 
224 224 224 218 218 218 200 200 200 191 191 191 209 209 209 230 230 230 236 236 236 235 235 235 
228 228 228 215 215 215 190 190 190 147 147 147 94 94 94 48 48 48 18 18 18 4 4 4 
0 0 0 0 0 0 0 0 0 0 0 0 0 0 0 0 0 0 0 0 0 0 0 0 
0 0 0 0 0 0 0 0 0 0 0 0 1 1 1 5 5 5 11 11 11 12 12 12 
10 10 10 11 11 11 13 13 13 11 11 11 4 4 4 0 0 0 0 0 0 0 0 0 0 0 0 0 0 0 0 0 0 0 0 0 1 1 1 5 5 5 8 8 8 20 20 20 
45 45 45 84 84 84 131 131 131 174 174 174 203 203 203 217 217 217 217 217 217 205 205 205 
185 185 185 182 182 182 185 185 185 171 171 171 162 162 162 175 175 175 196 196 196 210 210 210 
217 217 217 213 213 213 201 201 201 189 189 189 202 202 202 226 226 226 238 238 238 239 239 239 
238 238 238 232 232 232 216 216 216 182 182 182 129 129 129 73 73 73 34 34 34 11 11 11 
1 1 1 0 0 0 0 0 0 0 0 0 0 0 0 0 0 0 0 0 0 0 0 0 
0 0 0 0 0 0 1 1 1 6 6 6 18 18 18 29 29 29 44 44 44 39 39 39 
30 30 30 29 29 29 33 33 33 32 32 32 19 19 19 4 4 4 0 0 0 0 0 0 0 0 0 0 0 0 0 0 0 0 0 0 0 0 0 0 0 0 7 7 7 29 29 29 
64 64 64 110 110 110 157 157 157 190 190 190 210 210 210 215 215 215 205 205 205 179 179 179 
152 152 152 149 149 149 154 154 154 143 143 143 133 133 133 141 141 141 164 164 164 185 185 185 
197 197 197 198 198 198 192 192 192 184 184 184 192 192 192 219 219 219 236 236 236 240 240 240 
241 241 241 240 240 240 231 231 231 209 209 209 166 166 166 105 105 105 59 59 59 28 28 28 
8 8 8 0 0 0 0 0 0 0 0 0 0 0 0 0 0 0 0 0 0 0 0 0 
1 1 1 6 6 6 15 15 15 32 32 32 53 53 53 62 62 62 56 56 56 48 48 48 
40 40 40 37 37 37 42 42 42 48 48 48 38 38 38 16 16 16 1 1 1 0 0 0 0 0 0 0 0 0 0 0 0 0 0 0 0 0 0 1 1 1 13 13 13 43 43 43 
88 88 88 136 136 136 173 173 173 198 198 198 210 210 210 208 208 208 187 187 187 150 150 150 
118 118 118 114 114 114 122 122 122 118 118 118 113 113 113 116 116 116 131 131 131 154 154 154 
170 170 170 175 175 175 174 174 174 173 173 173 181 181 181 210 210 210 232 232 232 240 240 240 
241 241 241 240 240 240 235 235 235 221 221 221 190 190 190 135 135 135 88 88 88 52 52 52 
22 22 22 4 4 4 0 0 0 0 0 0 0 0 0 0 0 0 0 0 0 3 3 3 
9 9 9 23 23 23 39 39 39 52 52 52 53 53 53 46 46 46 34 34 34 27 27 27 
24 24 24 25 25 25 35 35 35 48 48 48 46 46 46 25 25 25 5 5 5 0 0 0 0 0 0 0 0 0 0 0 0 0 0 0 0 0 0 3 3 3 22 22 22 62 62 62 
115 115 115 157 157 157 185 185 185 199 199 199 203 203 203 196 196 196 161 161 161 115 115 115 
92 92 92 91 91 91 99 99 99 104 104 104 102 102 102 98 98 98 105 105 105 121 121 121 
137 137 137 143 143 143 144 144 144 154 154 154 166 166 166 197 197 197 225 225 225 237 237 237 
240 240 240 240 240 240 236 236 236 229 229 229 209 209 209 164 164 164 126 126 126 87 87 87 
41 41 41 11 11 11 1 1 1 0 0 0 0 0 0 1 1 1 5 5 5 14 14 14 
27 27 27 43 43 43 49 49 49 41 41 41 29 29 29 19 19 19 12 12 12 7 7 7 
7 7 7 11 11 11 24 24 24 44 44 44 48 48 48 31 31 31 8 8 8 0 0 0 0 0 0 0 0 0 0 0 0 0 0 0 0 0 0 6 6 6 33 33 33 82 82 82 
135 135 135 173 173 173 191 191 191 191 191 191 185 185 185 172 172 172 130 130 130 97 97 97 
93 93 93 103 103 103 112 112 112 120 120 120 119 119 119 110 110 110 109 109 109 112 112 112 
118 118 118 123 123 123 125 125 125 130 130 130 144 144 144 178 178 178 211 211 211 231 231 231 
239 239 239 240 240 240 237 237 237 236 236 236 220 220 220 183 183 183 156 156 156 119 119 119 
63 63 63 20 20 20 2 2 2 0 0 0 1 1 1 9 9 9 21 21 21 32 32 32 
39 39 39 43 43 43 35 35 35 20 20 20 10 10 10 4 4 4 1 1 1 0 0 0 
0 0 0 6 6 6 21 21 21 42 42 42 49 49 49 32 32 32 8 8 8 0 0 0 0 0 0 0 0 0 0 0 0 0 0 0 1 1 1 11 11 11 43 43 43 96 96 96 
150 150 150 183 183 183 192 192 192 178 178 178 155 155 155 133 133 133 107 107 107 102 102 102 
109 109 109 119 119 119 127 127 127 133 133 133 139 139 139 134 134 134 133 133 133 128 128 128 
124 124 124 121 121 121 118 118 118 114 114 114 121 121 121 153 153 153 191 191 191 220 220 220 
234 234 234 238 238 238 238 238 238 238 238 238 224 224 224 190 190 190 170 170 170 142 142 142 
75 75 75 27 27 27 5 5 5 2 2 2 9 9 9 24 24 24 37 37 37 42 42 42 
39 39 39 30 30 30 16 16 16 5 5 5 1 1 1 0 0 0 0 0 0 0 0 0 
1 1 1 8 8 8 26 26 26 46 46 46 48 48 48 28 28 28 6 6 6 0 0 0 0 0 0 0 0 0 0 0 0 0 0 0 1 1 1 17 17 17 54 54 54 112 112 112 
166 166 166 194 194 194 193 193 193 159 159 159 109 109 109 87 87 87 98 98 98 111 111 111 
117 117 117 122 122 122 129 129 129 134 134 134 143 143 143 140 140 140 143 143 143 141 141 141 
132 132 132 124 124 124 117 117 117 106 106 106 101 101 101 122 122 122 163 163 163 199 199 199 
226 226 226 237 237 237 238 238 238 238 238 238 225 225 225 191 191 191 168 168 168 139 139 139 
79 79 79 31 31 31 12 12 12 13 13 13 27 27 27 41 41 41 45 45 45 41 41 41 
28 28 28 12 12 12 3 3 3 0 0 0 0 0 0 0 0 0 2 2 2 7 7 7 
10 10 10 19 19 19 40 40 40 52 52 52 41 41 41 17 17 17 2 2 2 0 0 0 0 0 0 0 0 0 0 0 0 0 0 0 3 3 3 22 22 22 64 64 64 125 125 125 
179 179 179 201 201 201 187 187 187 131 131 131 83 83 83 81 81 81 102 102 102 116 116 116 
121 121 121 126 126 126 131 131 131 139 139 139 143 143 143 142 142 142 152 152 152 152 152 152 
146 146 146 121 121 121 120 120 120 110 110 110 103 103 103 112 112 112 143 143 143 184 184 184 
219 219 219 236 236 236 240 240 240 239 239 239 226 226 226 192 192 192 163 163 163 127 127 127 
74 74 74 33 33 33 20 20 20 30 30 30 43 43 43 46 46 46 42 42 42 31 31 31 
16 16 16 5 5 5 2 2 2 0 0 0 0 0 0 0 0 0 9 9 9 24 24 24 
27 27 27 34 34 34 50 50 50 48 48 48 26 26 26 7 7 7 0 0 0 0 0 0 0 0 0 0 0 0 0 0 0 0 0 0 5 5 5 27 27 27 74 74 74 138 138 138 
189 189 189 204 204 204 170 170 170 100 100 100 73 73 73 78 78 78 94 94 94 115 115 115 
124 124 124 129 129 129 134 134 134 143 143 143 147 147 147 147 147 147 152 152 152 157 157 157 
159 159 159 146 146 146 138 138 138 129 129 129 120 120 120 117 117 117 134 134 134 176 176 176 
214 214 214 235 235 235 240 240 240 239 239 239 227 227 227 194 194 194 173 173 173 149 149 149 
82 82 82 40 40 40 38 38 38 52 52 52 52 52 52 42 42 42 28 28 28 14 14 14 
6 6 6 5 5 5 7 7 7 0 0 0 0 0 0 1 1 1 16 16 16 42 42 42 
49 49 49 53 53 53 53 53 53 32 32 32 10 10 10 1 1 1 0 0 0 0 0 0 0 0 0 0 0 0 0 0 0 0 0 0 5 5 5 31 31 31 83 83 83 148 148 148 
194 194 194 199 199 199 149 149 149 81 81 81 74 74 74 71 71 71 84 84 84 93 93 93 
100 100 100 116 116 116 128 128 128 136 136 136 143 143 143 148 148 148 150 150 150 152 152 152 
153 153 153 146 146 146 141 141 141 137 137 137 128 128 128 118 118 118 120 120 120 158 158 158 
204 204 204 231 231 231 238 238 238 237 237 237 227 227 227 195 195 195 181 181 181 178 178 178 
111 111 111 66 66 66 69 69 69 70 70 70 48 48 48 25 25 25 10 10 10 3 3 3 
1 1 1 2 2 2 4 4 4 0 0 0 0 0 0 3 3 3 18 18 18 48 48 48 
66 66 66 64 64 64 39 39 39 14 14 14 2 2 2 0 0 0 0 0 0 0 0 0 0 0 0 0 0 0 0 0 0 0 0 0 5 5 5 31 31 31 84 84 84 148 148 148 
196 196 196 194 194 194 137 137 137 77 77 77 83 83 83 80 80 80 97 97 97 105 105 105 
92 92 92 92 92 92 113 113 113 125 125 125 133 133 133 139 139 139 137 137 137 134 134 134 
132 132 132 132 132 132 132 132 132 129 129 129 119 119 119 113 113 113 110 110 110 133 133 133 
184 184 184 221 221 221 236 236 236 237 237 237 225 225 225 194 194 194 183 183 183 191 191 191 
137 137 137 98 98 98 89 89 89 64 64 64 32 32 32 11 11 11 2 2 2 0 0 0 
0 0 0 0 0 0 0 0 0 0 0 0 0 0 0 7 7 7 25 25 25 53 53 53 
67 67 67 50 50 50 19 19 19 3 3 3 0 0 0 0 0 0 0 0 0 0 0 0 0 0 0 0 0 0 0 0 0 0 0 0 4 4 4 25 25 25 73 73 73 136 136 136 
188 188 188 194 194 194 140 140 140 79 79 79 94 94 94 84 84 84 73 73 73 82 82 82 
71 71 71 97 97 97 96 96 96 113 113 113 131 131 131 138 138 138 126 126 126 110 110 110 
96 96 96 89 89 89 102 102 102 110 110 110 104 104 104 98 98 98 103 103 103 117 117 117 
154 154 154 201 201 201 229 229 229 234 234 234 222 222 222 191 191 191 185 185 185 197 197 197 
150 150 150 105 105 105 72 72 72 35 35 35 13 13 13 2 2 2 0 0 0 0 0 0 
0 0 0 0 0 0 0 0 0 1 1 1 6 6 6 21 21 21 48 48 48 58 58 58 
45 45 45 21 21 21 4 4 4 0 0 0 0 0 0 0 0 0 0 0 0 0 0 0 0 0 0 0 0 0 0 0 0 0 0 0 1 1 1 15 15 15 54 54 54 113 113 113 
168 168 168 187 187 187 145 145 145 85 85 85 97 97 97 96 96 96 87 87 87 99 99 99 
101 101 101 116 116 116 107 107 107 106 106 106 135 135 135 135 135 135 111 111 111 102 102 102 
106 106 106 102 102 102 92 92 92 107 107 107 104 104 104 98 98 98 104 104 104 111 111 111 
134 134 134 181 181 181 219 219 219 227 227 227 215 215 215 185 185 185 185 185 185 191 191 191 
145 145 145 93 93 93 46 46 46 16 16 16 3 3 3 0 0 0 0 0 0 0 0 0 
0 0 0 0 0 0 2 2 2 9 9 9 23 23 23 43 43 43 55 55 55 39 39 39 
17 17 17 5 5 5 0 0 0 0 0 0 0 0 0 0 0 0 0 0 0 0 0 0 0 0 0 0 0 0 0 0 0 0 0 0 0 0 0 7 7 7 34 34 34 81 81 81 
133 133 133 171 171 171 146 146 146 90 90 90 97 97 97 102 102 102 100 100 100 102 102 102 
108 108 108 109 109 109 102 102 102 103 103 103 132 132 132 122 122 122 104 104 104 114 114 114 
117 117 117 115 115 115 87 87 87 102 102 102 94 94 94 97 97 97 110 110 110 111 111 111 
122 122 122 165 165 165 206 206 206 213 213 213 202 202 202 178 178 178 182 182 182 178 178 178 
144 144 144 90 90 90 33 33 33 7 7 7 0 0 0 0 0 0 0 0 0 0 0 0 
0 0 0 3 3 3 11 11 11 27 27 27 47 47 47 50 50 50 38 38 38 17 17 17 
3 3 3 0 0 0 0 0 0 0 0 0 0 0 0 0 0 0 0 0 0 0 0 0 0 0 0 0 0 0 0 0 0 0 0 0 0 0 0 2 2 2 19 19 19 53 53 53 
100 100 100 151 151 151 144 144 144 94 94 94 101 101 101 106 106 106 112 112 112 107 107 107 
107 107 107 104 104 104 88 88 88 107 107 107 125 125 125 115 115 115 104 104 104 112 112 112 
110 110 110 113 113 113 115 115 115 111 111 111 107 107 107 115 115 115 118 118 118 112 112 112 
116 116 116 148 148 148 184 184 184 189 189 189 179 179 179 169 169 169 176 176 176 176 176 176 
156 156 156 97 97 97 33 33 33 5 5 5 0 0 0 2 2 2 1 1 1 1 1 1 
5 5 5 19 19 19 34 34 34 49 49 49 52 52 52 33 33 33 12 12 12 3 3 3 
0 0 0 0 0 0 0 0 0 0 0 0 0 0 0 0 0 0 0 0 0 0 0 0 0 0 0 0 0 0 0 0 0 0 0 0 0 0 0 0 0 0 8 8 8 34 34 34 
81 81 81 138 138 138 144 144 144 98 98 98 101 101 101 109 109 109 116 116 116 116 116 116 
122 122 122 105 105 105 88 88 88 114 114 114 121 121 121 110 110 110 107 107 107 120 120 120 
125 125 125 121 121 121 121 121 121 120 120 120 120 120 120 121 121 121 121 121 121 113 113 113 
116 116 116 138 138 138 158 158 158 158 158 158 154 154 154 159 159 159 174 174 174 183 183 183 
166 166 166 102 102 102 37 37 37 7 7 7 3 3 3 9 9 9 7 7 7 7 7 7 
18 18 18 39 39 39 53 53 53 50 50 50 34 34 34 14 14 14 2 2 2 0 0 0 
0 0 0 0 0 0 0 0 0 0 0 0 0 0 0 0 0 0 0 0 0 0 0 0 0 0 0 0 0 0 0 0 0 0 0 0 0 0 0 0 0 0 3 3 3 22 22 22 
65 65 65 124 124 124 141 141 141 101 101 101 99 99 99 110 110 110 121 121 121 126 126 126 
131 131 131 103 103 103 100 100 100 127 127 127 129 129 129 110 110 110 103 103 103 129 129 129 
140 140 140 138 138 138 137 137 137 130 130 130 124 124 124 123 123 123 119 119 119 111 111 111 
124 124 124 144 144 144 142 142 142 132 132 132 136 136 136 153 153 153 177 177 177 192 192 192 
169 169 169 104 104 104 40 40 40 11 11 11 9 9 9 21 21 21 26 26 26 25 25 25 
34 34 34 46 46 46 46 46 46 28 28 28 12 12 12 2 2 2 0 0 0 0 0 0 
0 0 0 0 0 0 0 0 0 0 0 0 0 0 0 0 0 0 0 0 0 0 0 0 0 0 0 0 0 0 0 0 0 0 0 0 0 0 0 0 0 0 1 1 1 17 17 17 
56 56 56 110 110 110 134 134 134 102 102 102 97 97 97 112 112 112 125 125 125 133 133 133 
127 127 127 94 94 94 109 109 109 137 137 137 135 135 135 113 113 113 100 100 100 119 119 119 
141 141 141 150 150 150 142 142 142 134 134 134 123 123 123 123 123 123 116 116 116 113 113 113 
138 138 138 162 162 162 148 148 148 131 131 131 134 134 134 152 152 152 182 182 182 193 193 193 
163 163 163 101 101 101 43 43 43 17 17 17 21 21 21 41 41 41 51 51 51 47 47 47 
39 39 39 30 30 30 20 20 20 9 9 9 2 2 2 0 0 0 0 0 0 0 0 0 
0 0 0 0 0 0 0 0 0 0 0 0 0 0 0 0 0 0 0 0 0 0 0 0 0 0 0 0 0 0 0 0 0 0 0 0 0 0 0 0 0 0 1 1 1 12 12 12 
44 44 44 94 94 94 124 124 124 102 102 102 91 91 91 111 111 111 126 126 126 134 134 134 
123 123 123 93 93 93 113 113 113 151 151 151 144 144 144 111 111 111 105 105 105 112 112 112 
131 131 131 149 149 149 145 145 145 135 135 135 124 124 124 120 120 120 111 111 111 115 115 115 
148 148 148 175 175 175 160 160 160 137 137 137 137 137 137 157 157 157 179 179 179 183 183 183 
150 150 150 94 94 94 43 43 43 25 25 25 40 40 40 64 64 64 68 68 68 50 50 50 
27 27 27 11 11 11 4 4 4 1 1 1 0 0 0 0 0 0 0 0 0 0 0 0 
0 0 0 0 0 0 0 0 0 0 0 0 0 0 0 0 0 0 0 0 0 0 0 0 0 0 0 0 0 0 0 0 0 0 0 0 0 0 0 0 0 0 0 0 0 7 7 7 
31 31 31 73 73 73 110 110 110 103 103 103 84 84 84 106 106 106 123 123 123 130 130 130 
129 129 129 102 102 102 99 99 99 120 120 120 117 117 117 102 102 102 105 105 105 130 130 130 
126 126 126 139 139 139 137 137 137 129 129 129 118 118 118 109 109 109 105 105 105 117 117 117 
147 147 147 171 171 171 158 158 158 140 140 140 145 145 145 161 161 161 167 167 167 159 159 159 
127 127 127 79 79 79 47 47 47 48 48 48 70 70 70 74 74 74 56 56 56 29 29 29 
10 10 10 1 1 1 0 0 0 0 0 0 0 0 0 0 0 0 0 0 0 0 0 0 
0 0 0 0 0 0 0 0 0 0 0 0 0 0 0 0 0 0 0 0 0 0 0 0 0 0 0 0 0 0 0 0 0 0 0 0 0 0 0 0 0 0 0 0 0 3 3 3 
20 20 20 55 55 55 96 96 96 100 100 100 80 80 80 100 100 100 115 115 115 115 115 115 
115 115 115 94 94 94 86 86 86 106 106 106 109 109 109 101 101 101 111 111 111 130 130 130 
130 130 130 137 137 137 132 132 132 122 122 122 112 112 112 103 103 103 110 110 110 123 123 123 
139 139 139 156 156 156 149 149 149 140 140 140 151 151 151 160 160 160 150 150 150 134 134 134 
103 103 103 69 69 69 60 60 60 71 71 71 75 75 75 57 57 57 30 30 30 12 12 12 
2 2 2 0 0 0 0 0 0 0 0 0 0 0 0 0 0 0 0 0 0 0 0 0 
0 0 0 0 0 0 0 0 0 0 0 0 0 0 0 0 0 0 0 0 0 0 0 0 0 0 0 0 0 0 0 0 0 0 0 0 0 0 0 0 0 0 0 0 0 1 1 1 
11 11 11 38 38 38 77 77 77 91 91 91 74 74 74 95 95 95 102 102 102 88 88 88 
96 96 96 85 85 85 91 91 91 112 112 112 105 105 105 95 95 95 93 93 93 100 100 100 
111 111 111 137 137 137 123 123 123 109 109 109 107 107 107 115 115 115 126 126 126 130 130 130 
129 129 129 136 136 136 135 135 135 139 139 139 155 155 155 157 157 157 141 141 141 116 116 116 
88 88 88 72 72 72 74 74 74 66 66 66 47 47 47 26 26 26 12 12 12 3 3 3 
0 0 0 0 0 0 0 0 0 0 0 0 0 0 0 0 0 0 0 0 0 0 0 0 
0 0 0 0 0 0 0 0 0 0 0 0 0 0 0 0 0 0 0 0 0 0 0 0 0 0 0 0 0 0 0 0 0 0 0 0 0 0 0 0 0 0 0 0 0 0 0 0 
4 4 4 23 23 23 57 57 57 80 80 80 72 72 72 85 85 85 94 94 94 99 99 99 
102 102 102 83 83 83 87 87 87 98 98 98 99 99 99 93 93 93 97 97 97 100 100 100 
93 93 93 118 118 118 117 117 117 105 105 105 115 115 115 133 133 133 135 135 135 131 131 131 
119 119 119 118 118 118 126 126 126 138 138 138 152 152 152 156 156 156 146 146 146 119 119 119 
86 86 86 72 72 72 62 62 62 41 41 41 24 24 24 17 17 17 14 14 14 7 7 7 
1 1 1 0 0 0 0 0 0 0 0 0 0 0 0 0 0 0 0 0 0 0 0 0 
0 0 0 0 0 0 0 0 0 0 0 0 0 0 0 0 0 0 0 0 0 0 0 0 0 0 0 0 0 0 0 0 0 0 0 0 0 0 0 0 0 0 0 0 0 0 0 0 
1 1 1 12 12 12 38 38 38 67 67 67 83 83 83 90 90 90 100 100 100 120 120 120 
118 118 118 92 92 92 94 94 94 101 101 101 101 101 101 98 98 98 97 97 97 113 113 113 
103 103 103 101 101 101 117 117 117 106 106 106 119 119 119 133 133 133 129 129 129 120 120 120 
106 106 106 106 106 106 119 119 119 130 130 130 143 143 143 152 152 152 149 149 149 120 120 120 
82 82 82 59 59 59 43 43 43 33 33 33 29 29 29 33 33 33 38 38 38 25 25 25 
9 9 9 1 1 1 0 0 0 0 0 0 0 0 0 0 0 0 0 0 0 0 0 0 
0 0 0 0 0 0 0 0 0 0 0 0 0 0 0 0 0 0 0 0 0 0 0 0 0 0 0 0 0 0 0 0 0 0 0 0 0 0 0 0 0 0 0 0 0 0 0 0 
0 0 0 3 3 3 17 17 17 43 43 43 77 77 77 108 108 108 119 119 119 106 106 106 
116 116 116 112 112 112 100 100 100 102 102 102 102 102 102 108 108 108 123 123 123 135 135 135 
127 127 127 110 110 110 101 101 101 89 89 89 99 99 99 104 104 104 102 102 102 95 95 95 
86 86 86 88 88 88 94 94 94 104 104 104 121 121 121 131 131 131 121 121 121 94 94 94 
73 73 73 55 55 55 45 45 45 47 47 47 55 55 55 70 70 70 79 79 79 68 68 68 
38 38 38 11 11 11 1 1 1 0 0 0 0 0 0 0 0 0 0 0 0 0 0 0 
0 0 0 0 0 0 0 0 0 0 0 0 0 0 0 0 0 0 0 0 0 0 0 0 0 0 0 0 0 0 0 0 0 0 0 0 0 0 0 0 0 0 0 0 0 0 0 0 
0 0 0 0 0 0 5 5 5 22 22 22 48 48 48 81 81 81 104 104 104 101 101 101 
104 104 104 121 121 121 118 118 118 110 110 110 116 116 116 124 124 124 136 136 136 135 135 135 
124 124 124 108 108 108 80 80 80 66 66 66 72 72 72 78 78 78 85 85 85 85 85 85 
75 75 75 63 63 63 60 60 60 71 71 71 92 92 92 97 97 97 81 81 81 76 76 76 
82 82 82 78 78 78 67 67 67 67 67 67 76 76 76 93 93 93 100 100 100 94 94 94 
78 78 78 28 28 28 3 3 3 0 0 0 0 0 0 0 0 0 0 0 0 0 0 0 
0 0 0 0 0 0 0 0 0 0 0 0 0 0 0 0 0 0 0 0 0 0 0 0 0 0 0 0 0 0 0 0 0 0 0 0 0 0 0 0 0 0 0 0 0 0 0 0 
0 0 0 0 0 0 0 0 0 6 6 6 21 21 21 43 43 43 66 66 66 83 83 83 
84 84 84 105 105 105 123 123 123 128 128 128 135 135 135 141 141 141 135 135 135 123 123 123 
116 116 116 91 91 91 61 61 61 50 50 50 62 62 62 80 80 80 94 94 94 94 94 94 
71 71 71 40 40 40 29 29 29 37 37 37 54 54 54 61 61 61 66 66 66 87 87 87 
107 107 107 109 109 109 99 99 99 88 88 88 84 84 84 98 98 98 106 106 106 97 97 97 
88 88 88 44 44 44 6 6 6 0 0 0 0 0 0 0 0 0 0 0 0 0 0 0 
0 0 0 0 0 0 0 0 0 0 0 0 0 0 0 0 0 0 0 0 0 0 0 0 0 0 0 0 0 0 0 0 0 0 0 0 0 0 0 0 0 0 0 0 0 0 0 0 
0 0 0 0 0 0 0 0 0 1 1 1 5 5 5 16 16 16 32 32 32 52 52 52 
63 63 63 74 74 74 101 101 101 118 118 118 125 125 125 123 123 123 107 107 107 111 111 111 
91 91 91 67 67 67 50 50 50 52 52 52 74 74 74 98 98 98 108 108 108 94 94 94 
59 59 59 26 26 26 15 15 15 20 20 20 35 35 35 61 61 61 91 91 91 117 117 117 
131 131 131 135 135 135 131 131 131 120 120 120 103 103 103 94 94 94 96 96 96 96 96 96 
86 86 86 50 50 50 11 11 11 0 0 0 0 0 0 0 0 0 0 0 0 0 0 0 
0 0 0 0 0 0 0 0 0 0 0 0 0 0 0 0 0 0 0 0 0 0 0 0 0 0 0 0 0 0 0 0 0 0 0 0 0 0 0 0 0 0 0 0 0 0 0 0 
0 0 0 0 0 0 0 0 0 0 0 0 0 0 0 3 3 3 9 9 9 19 19 19 
32 32 32 48 48 48 76 76 76 95 95 95 100 100 100 93 93 93 86 86 86 94 94 94 
80 80 80 58 58 58 49 49 49 62 62 62 89 89 89 108 108 108 105 105 105 77 77 77 
39 39 39 17 17 17 12 12 12 20 20 20 42 42 42 77 77 77 108 108 108 133 133 133 
146 146 146 150 150 150 150 150 150 144 144 144 133 133 133 115 115 115 96 96 96 93 93 93 
83 83 83 58 58 58 20 20 20 1 1 1 0 0 0 0 0 0 0 0 0 0 0 0 
0 0 0 0 0 0 0 0 0 0 0 0 0 0 0 0 0 0 0 0 0 0 0 0 0 0 0 0 0 0 0 0 0 0 0 0 0 0 0 0 0 0 0 0 0 0 0 0 
0 0 0 0 0 0 0 0 0 0 0 0 0 0 0 0 0 0 0 0 0 2 2 2 
5 5 5 15 15 15 32 32 32 53 53 53 62 62 62 60 60 60 60 60 60 68 68 68 
67 67 67 54 54 54 56 56 56 75 75 75 99 99 99 107 107 107 90 90 90 54 54 54 
24 24 24 14 14 14 19 19 19 37 37 37 64 64 64 92 92 92 106 106 106 125 125 125 
146 146 146 154 154 154 156 156 156 157 157 157 152 152 152 145 145 145 118 118 118 90 90 90 
77 77 77 66 66 66 29 29 29 3 3 3 0 0 0 0 0 0 0 0 0 0 0 0 
0 0 0 0 0 0 0 0 0 0 0 0 0 0 0 0 0 0 0 0 0 0 0 0 0 0 0 0 0 0 0 0 0 0 0 0 0 0 0 0 0 0 0 0 0 0 0 0 
0 0 0 0 0 0 0 0 0 0 0 0 0 0 0 0 0 0 0 0 0 0 0 0 
0 0 0 3 3 3 9 9 9 19 19 19 27 27 27 29 29 29 32 32 32 42 42 42 
53 53 53 51 51 51 64 64 64 89 89 89 107 107 107 106 106 106 83 83 83 49 49 49 
26 26 26 23 23 23 35 35 35 60 60 60 87 87 87 105 105 105 108 108 108 106 106 106 
135 135 135 153 153 153 156 156 156 150 150 150 143 143 143 140 140 140 122 122 122 91 91 91 
73 73 73 60 60 60 27 27 27 3 3 3 0 0 0 0 0 0 0 0 0 0 0 0 
0 0 0 0 0 0 0 0 0 0 0 0 0 0 0 0 0 0 0 0 0 0 0 0 0 0 0 0 0 0 0 0 0 0 0 0 0 0 0 0 0 0 0 0 0 0 0 0 
0 0 0 0 0 0 0 0 0 0 0 0 0 0 0 0 0 0 0 0 0 0 0 0 
0 0 0 0 0 0 0 0 0 3 3 3 6 6 6 8 8 8 12 12 12 21 21 21 
37 37 37 53 53 53 76 76 76 100 100 100 113 113 113 113 113 113 96 96 96 68 68 68 
48 48 48 43 43 43 59 59 59 83 83 83 99 99 99 115 115 115 113 113 113 90 90 90 
114 114 114 144 144 144 135 135 135 103 103 103 81 81 81 84 84 84 87 87 87 80 80 80 
67 67 67 51 51 51 20 20 20 2 2 2 0 0 0 0 0 0 0 0 0 0 0 0 
0 0 0 0 0 0 0 0 0 0 0 0 0 0 0 0 0 0 0 0 0 0 0 0 0 0 0 0 0 0 0 0 0 0 0 0 0 0 0 0 0 0 0 0 0 0 0 0 
0 0 0 0 0 0 0 0 0 0 0 0 0 0 0 0 0 0 0 0 0 0 0 0 
0 0 0 0 0 0 0 0 0 3 3 3 1 1 1 0 0 0 1 1 1 9 9 9 
28 28 28 60 60 60 90 90 90 106 106 106 113 113 113 116 116 116 115 115 115 104 104 104 
89 89 89 84 84 84 94 94 94 102 102 102 98 98 98 109 109 109 103 103 103 89 89 89 
93 93 93 96 96 96 66 66 66 33 33 33 19 19 19 23 23 23 38 38 38 48 48 48 
51 51 51 39 39 39 14 14 14 1 1 1 0 0 0 0 0 0 0 0 0 0 0 0 
0 0 0 0 0 0 0 0 0 0 0 0 0 0 0 0 0 0 0 0 0 0 0 0 0 0 0 0 0 0 0 0 0 0 0 0 0 0 0 0 0 0 0 0 0 0 0 0 
0 0 0 0 0 0 0 0 0 0 0 0 0 0 0 0 0 0 0 0 0 0 0 0 
0 0 0 0 0 0 1 1 1 4 4 4 1 1 1 0 0 0 0 0 0 5 5 5 
25 25 25 65 65 65 97 97 97 111 111 111 105 105 105 103 103 103 113 113 113 121 121 121 
122 122 122 121 121 121 123 123 123 118 118 118 97 97 97 90 90 90 92 92 92 94 94 94 
84 84 84 47 47 47 21 21 21 8 8 8 4 4 4 6 6 6 14 14 14 22 22 22 
31 31 31 30 30 30 10 10 10 0 0 0 0 0 0 0 0 0 0 0 0 0 0 0 
0 0 0 0 0 0 0 0 0 0 0 0 0 0 0 0 0 0 0 0 0 0 0 0 0 0 0 0 0 0 0 0 0 0 0 0 0 0 0 0 0 0 0 0 0 0 0 0 
0 0 0 0 0 0 0 0 0 0 0 0 0 0 0 0 0 0 0 0 0 0 0 0 
0 0 0 0 0 0 0 0 0 0 0 0 0 0 0 0 0 0 0 0 0 2 2 2 
20 20 20 59 59 59 99 99 99 115 115 115 96 96 96 71 71 71 77 77 77 99 99 99 
119 119 119 130 130 130 135 135 135 131 131 131 103 103 103 81 81 81 97 97 97 107 107 107 
74 74 74 27 27 27 7 7 7 3 3 3 2 2 2 3 3 3 5 5 5 7 7 7 
16 16 16 23 23 23 11 11 11 0 0 0 0 0 0 0 0 0 0 0 0 0 0 0 
0 0 0 0 0 0 0 0 0 0 0 0 0 0 0 0 0 0 0 0 0 0 0 0 0 0 0 0 0 0 0 0 0 0 0 0 0 0 0 0 0 0 0 0 0 0 0 0 
0 0 0 0 0 0 0 0 0 0 0 0 0 0 0 0 0 0 0 0 0 0 0 0 
0 0 0 0 0 0 0 0 0 0 0 0 0 0 0 0 0 0 0 0 0 1 1 1 
13 13 13 46 46 46 89 89 89 111 111 111 85 85 85 46 46 46 39 39 39 56 56 56 
80 80 80 101 101 101 124 124 124 130 130 130 105 105 105 93 93 93 103 103 103 103 103 103 
72 72 72 24 24 24 4 4 4 2 2 2 3 3 3 2 2 2 2 2 2 3 3 3 
10 10 10 17 17 17 8 8 8 0 0 0 0 0 0 0 0 0 0 0 0 0 0 0 
0 0 0 0 0 0 0 0 0 0 0 0 0 0 0 0 0 0 0 0 0 0 0 0 0 0 0 0 0 0 0 0 0 0 0 0 0 0 0 0 0 0 0 0 0 0 0 0 
0 0 0 0 0 0 0 0 0 0 0 0 0 0 0 0 0 0 0 0 0 0 0 0 
0 0 0 0 0 0 0 0 0 0 0 0 0 0 0 0 0 0 0 0 0 0 0 0 
6 6 6 31 31 31 75 75 75 100 100 100 71 71 71 30 30 30 17 17 17 22 22 22 
40 40 40 69 69 69 104 104 104 121 121 121 105 105 105 109 109 109 111 111 111 87 87 87 
52 52 52 17 17 17 2 2 2 2 2 2 4 4 4 1 1 1 0 0 0 2 2 2 
7 7 7 12 12 12 2 2 2 0 0 0 0 0 0 0 0 0 0 0 0 0 0 0 
0 0 0 0 0 0 0 0 0 0 0 0 0 0 0 0 0 0 0 0 0 0 0 0 0 0 0 0 0 0 0 0 0 0 0 0 0 0 0 0 0 0 0 0 0 0 0 0 
0 0 0 0 0 0 0 0 0 0 0 0 0 0 0 0 0 0 0 0 0 0 0 0 
0 0 0 0 0 0 0 0 0 0 0 0 0 0 0 0 0 0 0 0 0 0 0 0 
2 2 2 21 21 21 58 58 58 79 79 79 54 54 54 20 20 20 7 7 7 10 10 10 
28 28 28 69 69 69 97 97 97 110 110 110 107 107 107 114 114 114 114 114 114 74 74 74 
28 28 28 7 7 7 1 1 1 2 2 2 2 2 2 3 3 3 2 2 2 3 3 3 
11 11 11 15 15 15 2 2 2 0 0 0 0 0 0 0 0 0 0 0 0 0 0 0 
0 0 0 0 0 0 0 0 0 0 0 0 0 0 0 0 0 0 0 0 0 0 0 0 0 0 0 0 0 0 0 0 0 0 0 0 0 0 0 0 0 0 0 0 0 0 0 0 
0 0 0 0 0 0 0 0 0 0 0 0 0 0 0 0 0 0 0 0 0 0 0 0 
0 0 0 0 0 0 0 0 0 0 0 0 0 0 0 0 0 0 0 0 0 0 0 0 
1 1 1 11 11 11 37 37 37 56 56 56 39 39 39 15 15 15 4 4 4 7 7 7 
29 29 29 75 75 75 100 100 100 102 102 102 109 109 109 115 115 115 106 106 106 60 60 60 
17 17 17 4 4 4 1 1 1 2 2 2 3 3 3 4 4 4 3 3 3 5 5 5 
21 21 21 27 27 27 5 5 5 0 0 0 0 0 0 0 0 0 0 0 0 0 0 0 
0 0 0 0 0 0 0 0 0 0 0 0 0 0 0 0 0 0 0 0 0 0 0 0 0 0 0 0 0 0 0 0 0 0 0 0 0 0 0 0 0 0 0 0 0 0 0 0 
0 0 0 0 0 0 0 0 0 0 0 0 0 0 0 0 0 0 0 0 0 0 0 0 
0 0 0 0 0 0 0 0 0 0 0 0 0 0 0 0 0 0 0 0 0 0 0 0 
0 0 0 3 3 3 17 17 17 39 39 39 31 31 31 14 14 14 5 5 5 8 8 8 
27 27 27 71 71 71 100 100 100 98 98 98 104 104 104 109 109 109 90 90 90 44 44 44 
14 14 14 4 4 4 1 1 1 2 2 2 2 2 2 1 1 1 2 2 2 9 9 9 
33 33 33 37 37 37 6 6 6 0 0 0 0 0 0 0 0 0 0 0 0 0 0 0 
0 0 0 0 0 0 0 0 0 0 0 0 0 0 0 0 0 0 0 0 0 0 0 0 0 0 0 0 0 0 0 0 0 0 0 0 0 0 0 0 0 0 0 0 0 0 0 0 
0 0 0 0 0 0 0 0 0 0 0 0 0 0 0 0 0 0 0 0 0 0 0 0 
0 0 0 0 0 0 0 0 0 0 0 0 0 0 0 0 0 0 0 0 0 0 0 0 
0 0 0 0 0 0 7 7 7 26 26 26 37 37 37 23 23 23 9 9 9 9 9 9 
25 25 25 61 61 61 88 88 88 93 93 93 108 108 108 117 117 117 99 99 99 45 45 45 
11 11 11 5 5 5 3 3 3 2 2 2 2 2 2 2 2 2 2 2 2 16 16 16 
42 42 42 28 28 28 3 3 3 0 0 0 0 0 0 0 0 0 0 0 0 0 0 0 
0 0 0 0 0 0 0 0 0 0 0 0 0 0 0 0 0 0 0 0 0 0 0 0 0 0 0 0 0 0 0 0 0 0 0 0 0 0 0 0 0 0 0 0 0 0 0 0 
0 0 0 0 0 0 0 0 0 0 0 0 0 0 0 0 0 0 0 0 0 0 0 0 
0 0 0 0 0 0 0 0 0 0 0 0 0 0 0 0 0 0 0 0 0 0 0 0 
0 0 0 0 0 0 2 2 2 16 16 16 36 36 36 31 31 31 17 17 17 16 16 16 
33 33 33 66 66 66 92 92 92 94 94 94 115 115 115 139 139 139 123 123 123 57 57 57 
11 11 11 4 4 4 5 5 5 2 2 2 2 2 2 2 2 2 6 6 6 27 27 27 
44 44 44 16 16 16 1 1 1 0 0 0 0 0 0 0 0 0 0 0 0 0 0 0 
0 0 0 0 0 0 0 0 0 0 0 0 0 0 0 0 0 0 0 0 0 0 0 0 0 0 0 0 0 0 0 0 0 0 0 0 0 0 0 0 0 0 0 0 0 0 0 0 
0 0 0 0 0 0 0 0 0 0 0 0 0 0 0 0 0 0 0 0 0 0 0 0 
0 0 0 0 0 0 0 0 0 0 0 0 0 0 0 0 0 0 0 0 0 0 0 0 
0 0 0 0 0 0 0 0 0 5 5 5 18 18 18 26 26 26 27 27 27 35 35 35 
63 63 63 97 97 97 110 110 110 99 99 99 120 120 120 146 146 146 147 147 147 82 82 82 
16 16 16 4 4 4 2 2 2 4 4 4 1 1 1 4 4 4 16 16 16 42 42 42 
35 35 35 6 6 6 0 0 0 0 0 0 0 0 0 0 0 0 0 0 0 0 0 0 
0 0 0 0 0 0 0 0 0 0 0 0 0 0 0 0 0 0 0 0 0 0 0 0 0 0 0 0 0 0 0 0 0 0 0 0 0 0 0 0 0 0 0 0 0 0 0 0 
0 0 0 0 0 0 0 0 0 0 0 0 0 0 0 0 0 0 0 0 0 0 0 0 
0 0 0 0 0 0 0 0 0 0 0 0 0 0 0 0 0 0 0 0 0 0 0 0 
0 0 0 0 0 0 0 0 0 0 0 0 6 6 6 19 19 19 38 38 38 62 62 62 
98 98 98 123 123 123 113 113 113 96 96 96 126 126 126 147 147 147 151 151 151 113 113 113 
34 34 34 9 9 9 3 3 3 3 3 3 4 4 4 13 13 13 32 32 32 40 40 40 
16 16 16 2 2 2 0 0 0 0 0 0 0 0 0 0 0 0 0 0 0 0 0 0 
0 0 0 0 0 0 0 0 0 0 0 0 0 0 0 0 0 0 0 0 0 0 0 0 0 0 0 0 0 0 0 0 0 0 0 0 0 0 0 0 0 0 0 0 0 0 0 0 
0 0 0 0 0 0 0 0 0 0 0 0 0 0 0 0 0 0 0 0 0 0 0 0 
0 0 0 0 0 0 0 0 0 0 0 0 0 0 0 0 0 0 0 0 0 0 0 0 
0 0 0 0 0 0 0 0 0 0 0 0 3 3 3 22 22 22 56 56 56 96 96 96 
128 128 128 134 134 134 98 98 98 78 78 78 121 121 121 143 143 143 145 145 145 130 130 130 
80 80 80 32 32 32 12 12 12 8 8 8 15 15 15 33 33 33 41 41 41 20 20 20 
4 4 4 0 0 0 0 0 0 0 0 0 0 0 0 0 0 0 0 0 0 0 0 0 
0 0 0 0 0 0 0 0 0 0 0 0 0 0 0 0 0 0 0 0 0 0 0 0 0 0 0 0 0 0 0 0 0 0 0 0 0 0 0 0 0 0 0 0 0 0 0 0 
0 0 0 0 0 0 0 0 0 0 0 0 0 0 0 0 0 0 0 0 0 0 0 0 
0 0 0 0 0 0 0 0 0 0 0 0 0 0 0 0 0 0 0 0 0 0 0 0 
0 0 0 0 0 0 0 0 0 0 0 0 6 6 6 34 34 34 78 78 78 121 121 121 
139 139 139 125 125 125 73 73 73 45 45 45 77 77 77 106 106 106 116 116 116 116 116 116 
98 98 98 61 61 61 27 27 27 23 23 23 34 34 34 39 39 39 25 25 25 7 7 7 
0 0 0 0 0 0 0 0 0 0 0 0 0 0 0 0 0 0 0 0 0 0 0 0 
0 0 0 0 0 0 0 0 0 0 0 0 0 0 0 0 0 0 0 0 0 0 0 0 0 0 0 0 0 0 0 0 0 0 0 0 0 0 0 0 0 0 0 0 0 0 0 0 
0 0 0 0 0 0 0 0 0 0 0 0 0 0 0 0 0 0 0 0 0 0 0 0 
0 0 0 0 0 0 0 0 0 0 0 0 0 0 0 0 0 0 0 0 0 0 0 0 
0 0 0 0 0 0 0 0 0 0 0 0 8 8 8 51 51 51 96 96 96 131 131 131 
139 139 139 104 104 104 45 45 45 21 21 21 29 29 29 49 49 49 68 68 68 84 84 84 
83 83 83 61 61 61 35 35 35 30 30 30 32 32 32 22 22 22 8 8 8 1 1 1 
0 0 0 0 0 0 0 0 0 0 0 0 0 0 0 0 0 0 0 0 0 0 0 0 
0 0 0 0 0 0 0 0 0 0 0 0 0 0 0 0 0 0 0 0 0 