P3
# Created by IrfanView
64 64
255
0 0 0 0 0 0 0 0 0 0 0 0 0 0 0 0 0 0 0 0 0 0 0 0 0 0 0 
0 0 0 0 0 0 0 0 0 0 0 0 0 0 0 0 0 0 0 0 0 0 0 0 
0 0 0 0 0 0 0 0 0 0 0 0 0 0 0 0 0 0 0 0 0 0 0 0 
0 0 0 0 0 0 0 0 0 0 0 0 0 0 0 0 0 0 0 0 0 63 63 63 
100 100 100 114 114 114 116 116 116 116 116 116 112 112 112 129 129 129 146 146 146 148 148 148 
129 129 129 92 92 92 36 36 36 0 0 0 0 0 0 0 0 0 0 0 0 0 0 0 
0 0 0 0 0 0 0 0 0 0 0 0 0 0 0 0 0 0 0 0 0 0 0 0 
0 0 0 0 0 0 0 0 0 0 0 0 0 0 0 0 0 0 0 0 0 0 0 0 0 0 0 0 0 0 0 0 0 0 0 0 0 0 0 0 0 0 0 0 0 0 0 0 
0 0 0 0 0 0 0 0 0 0 0 0 0 0 0 0 0 0 0 0 0 0 0 0 
0 0 0 0 0 0 0 0 0 0 0 0 0 0 0 0 0 0 0 0 0 0 0 0 
0 0 0 0 0 0 0 0 0 0 0 0 0 0 0 0 0 0 63 63 63 105 105 105 
105 105 105 84 84 84 75 75 75 75 75 75 82 82 82 100 100 100 116 116 116 133 133 133 
153 153 153 160 160 160 130 130 130 72 72 72 0 0 0 0 0 0 0 0 0 0 0 0 
0 0 0 0 0 0 0 0 0 0 0 0 0 0 0 0 0 0 0 0 0 0 0 0 
0 0 0 0 0 0 0 0 0 0 0 0 0 0 0 0 0 0 0 0 0 0 0 0 0 0 0 0 0 0 0 0 0 0 0 0 0 0 0 0 0 0 0 0 0 0 0 0 
0 0 0 0 0 0 0 0 0 0 0 0 0 0 0 0 0 0 0 0 0 0 0 0 
0 0 0 0 0 0 0 0 0 0 0 0 0 0 0 0 0 0 0 0 0 0 0 0 
0 0 0 0 0 0 0 0 0 0 0 0 0 0 0 60 60 60 79 79 79 84 84 84 
77 77 77 69 69 69 63 63 63 60 60 60 60 60 60 77 77 77 86 86 86 92 92 92 
111 111 111 130 130 130 143 143 143 139 139 139 105 105 105 60 60 60 0 0 0 0 0 0 
0 0 0 0 0 0 0 0 0 0 0 0 0 0 0 0 0 0 0 0 0 0 0 0 
0 0 0 0 0 0 0 0 0 0 0 0 0 0 0 0 0 0 0 0 0 0 0 0 0 0 0 0 0 0 0 0 0 0 0 0 0 0 0 0 0 0 0 0 0 0 0 0 
0 0 0 0 0 0 0 0 0 0 0 0 0 0 0 0 0 0 0 0 0 0 0 0 
0 0 0 0 0 0 0 0 0 0 0 0 0 0 0 0 0 0 0 0 0 0 0 0 
0 0 0 0 0 0 0 0 0 0 0 0 43 43 43 57 57 57 53 53 53 48 48 48 
48 48 48 57 57 57 57 57 57 67 67 67 72 72 72 77 77 77 72 72 72 72 72 72 
75 75 75 79 79 79 103 103 103 151 151 151 162 162 162 140 140 140 69 69 69 0 0 0 
0 0 0 0 0 0 0 0 0 0 0 0 0 0 0 0 0 0 0 0 0 0 0 0 
0 0 0 0 0 0 0 0 0 0 0 0 0 0 0 0 0 0 0 0 0 0 0 0 0 0 0 0 0 0 0 0 0 0 0 0 0 0 0 0 0 0 0 0 0 0 0 0 
0 0 0 0 0 0 0 0 0 0 0 0 0 0 0 0 0 0 0 0 0 0 0 0 
0 0 0 0 0 0 0 0 0 0 0 0 0 0 0 0 0 0 0 0 0 0 0 0 
0 0 0 0 0 0 0 0 0 28 28 28 43 43 43 43 43 43 43 43 43 36 36 36 
36 36 36 43 43 43 48 48 48 60 60 60 69 69 69 72 72 72 67 67 67 69 69 69 
63 63 63 82 82 82 112 112 112 130 130 130 145 145 145 149 149 149 136 136 136 75 75 75 
0 0 0 0 0 0 0 0 0 0 0 0 0 0 0 0 0 0 0 0 0 0 0 0 
0 0 0 0 0 0 0 0 0 0 0 0 0 0 0 0 0 0 0 0 0 0 0 0 0 0 0 0 0 0 0 0 0 0 0 0 0 0 0 0 0 0 0 0 0 0 0 0 
0 0 0 0 0 0 0 0 0 0 0 0 0 0 0 0 0 0 0 0 0 0 0 0 
0 0 0 0 0 0 0 0 0 0 0 0 0 0 0 0 0 0 0 0 0 0 0 0 
0 0 0 0 0 0 0 0 0 28 28 28 28 28 28 36 36 36 36 36 36 28 28 28 
28 28 28 36 36 36 43 43 43 48 48 48 48 48 48 53 53 53 57 57 57 63 63 63 
60 60 60 77 77 77 105 105 105 117 117 117 125 125 125 130 130 130 145 145 145 128 128 128 
36 36 36 0 0 0 0 0 0 0 0 0 0 0 0 0 0 0 0 0 0 0 0 0 
0 0 0 0 0 0 0 0 0 0 0 0 0 0 0 0 0 0 0 0 0 0 0 0 0 0 0 0 0 0 0 0 0 0 0 0 0 0 0 0 0 0 0 0 0 0 0 0 
0 0 0 0 0 0 0 0 0 0 0 0 0 0 0 0 0 0 0 0 0 0 0 0 
0 0 0 0 0 0 0 0 0 0 0 0 0 0 0 0 0 0 0 0 0 0 0 0 
0 0 0 0 0 0 28 28 28 28 28 28 28 28 28 28 28 28 36 36 36 36 36 36 
36 36 36 36 36 36 36 36 36 36 36 36 36 36 36 43 43 43 43 43 43 53 53 53 
48 48 48 57 57 57 79 79 79 114 114 114 122 122 122 116 116 116 130 130 130 136 136 136 
57 57 57 0 0 0 0 0 0 0 0 0 0 0 0 0 0 0 0 0 0 0 0 0 
0 0 0 0 0 0 0 0 0 0 0 0 0 0 0 0 0 0 0 0 0 0 0 0 0 0 0 0 0 0 0 0 0 0 0 0 0 0 0 0 0 0 0 0 0 0 0 0 
0 0 0 0 0 0 0 0 0 0 0 0 0 0 0 0 0 0 0 0 0 0 0 0 
0 0 0 0 0 0 0 0 0 0 0 0 0 0 0 0 0 0 0 0 0 0 0 0 
0 0 0 0 0 0 28 28 28 28 28 28 28 28 28 28 28 28 43 43 43 53 53 53 
60 60 60 57 57 57 36 36 36 28 28 28 28 28 28 36 36 36 36 36 36 43 43 43 
36 36 36 43 43 43 57 57 57 84 84 84 99 99 99 99 99 99 112 112 112 103 103 103 
48 48 48 0 0 0 0 0 0 0 0 0 0 0 0 0 0 0 0 0 0 0 0 0 
0 0 0 0 0 0 0 0 0 0 0 0 0 0 0 0 0 0 0 0 0 0 0 0 0 0 0 0 0 0 0 0 0 0 0 0 0 0 0 0 0 0 0 0 0 0 0 0 
0 0 0 0 0 0 0 0 0 0 0 0 0 0 0 0 0 0 0 0 0 0 0 0 
0 0 0 0 0 0 0 0 0 0 0 0 0 0 0 0 0 0 0 0 0 0 0 0 
0 0 0 0 0 0 28 28 28 28 28 28 28 28 28 36 36 36 57 57 57 77 77 77 
86 86 86 77 77 77 48 48 48 28 28 28 36 36 36 43 43 43 36 36 36 28 28 28 
36 36 36 36 36 36 43 43 43 57 57 57 75 75 75 79 79 79 99 99 99 92 92 92 
36 36 36 0 0 0 0 0 0 0 0 0 0 0 0 0 0 0 0 0 0 0 0 0 
0 0 0 0 0 0 0 0 0 0 0 0 0 0 0 0 0 0 0 0 0 0 0 0 0 0 0 0 0 0 0 0 0 0 0 0 0 0 0 0 0 0 0 0 0 0 0 0 
0 0 0 0 0 0 0 0 0 0 0 0 0 0 0 0 0 0 0 0 0 0 0 0 
0 0 0 0 0 0 0 0 0 0 0 0 0 0 0 0 0 0 0 0 0 0 0 0 
0 0 0 28 28 28 28 28 28 28 28 28 36 36 36 57 57 57 84 84 84 103 103 103 
105 105 105 100 100 100 84 84 84 77 77 77 72 72 72 57 57 57 43 43 43 28 28 28 
28 28 28 36 36 36 43 43 43 48 48 48 57 57 57 67 67 67 88 88 88 92 92 92 
0 0 0 0 0 0 0 0 0 0 0 0 0 0 0 0 0 0 0 0 0 0 0 0 
0 0 0 0 0 0 0 0 0 0 0 0 0 0 0 0 0 0 0 0 0 0 0 0 0 0 0 0 0 0 0 0 0 0 0 0 0 0 0 0 0 0 0 0 0 0 0 0 
0 0 0 0 0 0 0 0 0 0 0 0 0 0 0 0 0 0 0 0 0 0 0 0 
0 0 0 0 0 0 0 0 0 0 0 0 0 0 0 0 0 0 0 0 0 0 0 0 
0 0 0 28 28 28 28 28 28 36 36 36 48 48 48 77 77 77 102 102 102 116 116 116 
116 116 116 112 112 112 111 111 111 108 108 108 94 94 94 57 57 57 36 36 36 28 28 28 
36 36 36 36 36 36 43 43 43 43 43 43 43 43 43 53 53 53 72 72 72 63 63 63 
0 0 0 0 0 0 0 0 0 0 0 0 0 0 0 0 0 0 0 0 0 0 0 0 
0 0 0 0 0 0 0 0 0 0 0 0 0 0 0 0 0 0 0 0 0 0 0 0 0 0 0 0 0 0 0 0 0 0 0 0 0 0 0 0 0 0 0 0 0 0 0 0 
0 0 0 0 0 0 0 0 0 0 0 0 0 0 0 0 0 0 0 0 0 0 0 0 
0 0 0 0 0 0 0 0 0 0 0 0 0 0 0 0 0 0 0 0 0 0 0 0 
36 36 36 36 36 36 36 36 36 53 53 53 75 75 75 97 97 97 109 109 109 117 117 117 
117 117 117 117 117 117 116 116 116 108 108 108 92 92 92 67 67 67 57 57 57 53 53 53 
48 48 48 53 53 53 57 57 57 53 53 53 43 43 43 43 43 43 57 57 57 28 28 28 
0 0 0 0 0 0 0 0 0 0 0 0 0 0 0 0 0 0 0 0 0 0 0 0 
0 0 0 0 0 0 0 0 0 0 0 0 0 0 0 0 0 0 0 0 0 0 0 0 0 0 0 0 0 0 0 0 0 0 0 0 0 0 0 0 0 0 0 0 0 0 0 0 
0 0 0 0 0 0 0 0 0 0 0 0 0 0 0 0 0 0 0 0 0 0 0 0 
0 0 0 0 0 0 0 0 0 0 0 0 0 0 0 0 0 0 0 0 0 69 69 69 
67 67 67 48 48 48 60 60 60 84 84 84 103 103 103 111 111 111 112 112 112 116 116 116 
119 119 119 120 120 120 120 120 120 116 116 116 108 108 108 97 97 97 90 90 90 82 82 82 
77 77 77 75 75 75 72 72 72 63 63 63 48 48 48 43 43 43 48 48 48 0 0 0 
0 0 0 0 0 0 0 0 0 0 0 0 0 0 0 0 0 0 0 0 0 0 0 0 
0 0 0 0 0 0 0 0 0 0 0 0 0 0 0 0 0 0 0 0 0 0 0 0 0 0 0 0 0 0 0 0 0 0 0 0 0 0 0 0 0 0 0 0 0 0 0 0 
0 0 0 0 0 0 0 0 0 0 0 0 0 0 0 0 0 0 0 0 0 0 0 0 
0 0 0 0 0 0 0 0 0 0 0 0 0 0 0 0 0 0 43 43 43 92 92 92 
75 75 75 57 57 57 82 82 82 105 105 105 109 109 109 105 105 105 103 103 103 103 103 103 
107 107 107 114 114 114 119 119 119 121 121 121 120 120 120 114 114 114 108 108 108 102 102 102 
94 94 94 90 90 90 82 82 82 69 69 69 57 57 57 53 53 53 43 43 43 0 0 0 
0 0 0 0 0 0 0 0 0 0 0 0 0 0 0 0 0 0 0 0 0 0 0 0 
0 0 0 0 0 0 0 0 0 0 0 0 0 0 0 0 0 0 0 0 0 0 0 0 0 0 0 0 0 0 0 0 0 0 0 0 0 0 0 0 0 0 0 0 0 0 0 0 
0 0 0 0 0 0 0 0 0 0 0 0 0 0 0 0 0 0 0 0 0 0 0 0 
0 0 0 0 0 0 0 0 0 0 0 0 0 0 0 0 0 0 60 60 60 92 92 92 
67 67 67 69 69 69 97 97 97 107 107 107 103 103 103 95 95 95 92 92 92 90 90 90 
88 88 88 95 95 95 105 105 105 114 114 114 117 117 117 117 117 117 117 117 117 114 114 114 
112 112 112 109 109 109 105 105 105 92 92 92 84 84 84 72 72 72 43 43 43 0 0 0 
0 0 0 0 0 0 0 0 0 0 0 0 0 0 0 0 0 0 0 0 0 0 0 0 
0 0 0 0 0 0 0 0 0 0 0 0 0 0 0 0 0 0 0 0 0 0 0 0 0 0 0 0 0 0 0 0 0 0 0 0 0 0 0 0 0 0 0 0 0 0 0 0 
0 0 0 0 0 0 0 0 0 0 0 0 0 0 0 0 0 0 0 0 0 0 0 0 
0 0 0 0 0 0 0 0 0 0 0 0 0 0 0 0 0 0 60 60 60 94 94 94 
77 77 77 90 90 90 107 107 107 107 107 107 99 99 99 88 88 88 86 86 86 79 79 79 
77 77 77 75 75 75 86 86 86 100 100 100 111 111 111 119 119 119 124 124 124 124 124 124 
127 127 127 130 130 130 135 135 135 129 129 129 116 116 116 84 84 84 28 28 28 0 0 0 
0 0 0 0 0 0 0 0 0 0 0 0 0 0 0 0 0 0 0 0 0 0 0 0 
0 0 0 0 0 0 0 0 0 0 0 0 0 0 0 0 0 0 0 0 0 0 0 0 0 0 0 0 0 0 0 0 0 0 0 0 0 0 0 0 0 0 0 0 0 0 0 0 
0 0 0 0 0 0 0 0 0 0 0 0 0 0 0 0 0 0 0 0 0 0 0 0 
0 0 0 0 0 0 0 0 0 0 0 0 0 0 0 0 0 0 75 75 75 105 105 105 
102 102 102 108 108 108 116 116 116 114 114 114 107 107 107 92 92 92 79 79 79 69 69 69 
60 60 60 60 60 60 72 72 72 88 88 88 107 107 107 116 116 116 120 120 120 112 112 112 
119 119 119 124 124 124 140 140 140 154 154 154 135 135 135 69 69 69 0 0 0 0 0 0 
0 0 0 0 0 0 0 0 0 0 0 0 0 0 0 0 0 0 0 0 0 0 0 0 
0 0 0 0 0 0 0 0 0 0 0 0 0 0 0 0 0 0 0 0 0 0 0 0 0 0 0 0 0 0 0 0 0 0 0 0 0 0 0 0 0 0 0 0 0 0 0 0 
0 0 0 0 0 0 0 0 0 0 0 0 0 0 0 0 0 0 0 0 0 0 0 0 
0 0 0 0 0 0 0 0 0 0 0 0 0 0 0 0 0 0 77 77 77 107 107 107 
103 103 103 108 108 108 114 114 114 114 114 114 109 109 109 105 105 105 95 95 95 79 79 79 
72 72 72 57 57 57 69 69 69 92 92 92 112 112 112 124 124 124 112 112 112 94 94 94 
90 90 90 94 94 94 114 114 114 149 149 149 136 136 136 60 60 60 0 0 0 0 0 0 
0 0 0 0 0 0 0 0 0 0 0 0 0 0 0 0 0 0 0 0 0 0 0 0 
0 0 0 0 0 0 0 0 0 0 0 0 0 0 0 0 0 0 0 0 0 0 0 0 0 0 0 0 0 0 0 0 0 0 0 0 0 0 0 0 0 0 0 0 0 0 0 0 
0 0 0 0 0 0 0 0 0 0 0 0 0 0 0 0 0 0 0 0 0 0 0 0 
0 0 0 0 0 0 0 0 0 0 0 0 0 0 0 0 0 0 63 63 63 100 100 100 
105 105 105 108 108 108 112 112 112 112 112 112 114 114 114 116 116 116 108 108 108 95 95 95 
84 84 84 77 77 77 86 86 86 103 103 103 121 121 121 125 125 125 97 97 97 72 72 72 
63 63 63 79 79 79 102 102 102 134 134 134 121 121 121 36 36 36 0 0 0 0 0 0 
0 0 0 0 0 0 0 0 0 0 0 0 0 0 0 0 0 0 0 0 0 0 0 0 
0 0 0 0 0 0 0 0 0 0 0 0 0 0 0 0 0 0 0 0 0 0 0 0 0 0 0 0 0 0 0 0 0 0 0 0 0 0 0 0 0 0 0 0 0 0 0 0 
0 0 0 0 0 0 0 0 0 0 0 0 0 0 0 0 0 0 0 0 0 0 0 0 
0 0 0 0 0 0 0 0 0 0 0 0 0 0 0 0 0 0 36 36 36 88 88 88 
103 103 103 105 105 105 107 107 107 111 111 111 116 116 116 120 120 120 117 117 117 111 111 111 
105 105 105 97 97 97 103 103 103 114 114 114 128 128 128 130 130 130 95 95 95 67 67 67 
63 63 63 79 79 79 99 99 99 135 135 135 111 111 111 0 0 0 0 0 0 0 0 0 
0 0 0 0 0 0 0 0 0 0 0 0 0 0 0 0 0 0 0 0 0 0 0 0 
0 0 0 0 0 0 0 0 0 0 0 0 0 0 0 0 0 0 0 0 0 0 0 0 0 0 0 0 0 0 0 0 0 0 0 0 0 0 0 0 0 0 0 0 0 0 0 0 
0 0 0 0 0 0 0 0 0 0 0 0 0 0 0 0 0 0 0 0 0 0 0 0 
0 0 0 0 0 0 0 0 0 0 0 0 0 0 0 0 0 0 0 0 0 77 77 77 
100 100 100 102 102 102 102 102 102 107 107 107 114 114 114 117 117 117 116 116 116 108 108 108 
99 99 99 102 102 102 112 112 112 121 121 121 138 138 138 145 145 145 112 112 112 94 94 94 
92 92 92 103 103 103 117 117 117 145 145 145 86 86 86 0 0 0 0 0 0 0 0 0 
0 0 0 0 0 0 0 0 0 0 0 0 0 0 0 0 0 0 0 0 0 0 0 0 
0 0 0 0 0 0 0 0 0 0 0 0 0 0 0 0 0 0 0 0 0 0 0 0 0 0 0 0 0 0 0 0 0 0 0 0 0 0 0 0 0 0 0 0 0 0 0 0 
0 0 0 0 0 0 0 0 0 0 0 0 0 0 0 0 0 0 0 0 0 0 0 0 
0 0 0 0 0 0 0 0 0 0 0 0 0 0 0 0 0 0 0 0 0 75 75 75 
102 102 102 102 102 102 102 102 102 107 107 107 112 112 112 112 112 112 109 109 109 97 97 97 
94 94 94 107 107 107 119 119 119 128 128 128 143 143 143 145 145 145 128 128 128 125 125 125 
124 124 124 134 134 134 160 160 160 153 153 153 60 60 60 0 0 0 0 0 0 0 0 0 
0 0 0 0 0 0 0 0 0 0 0 0 0 0 0 0 0 0 0 0 0 0 0 0 
0 0 0 0 0 0 0 0 0 0 0 0 0 0 0 0 0 0 0 0 0 0 0 0 0 0 0 0 0 0 0 0 0 0 0 0 0 0 0 0 0 0 0 0 0 0 0 0 
0 0 0 0 0 0 0 0 0 0 0 0 0 0 0 0 0 0 0 0 0 0 0 0 
0 0 0 0 0 0 0 0 0 0 0 0 0 0 0 0 0 0 0 0 0 75 75 75 
102 102 102 102 102 102 102 102 102 107 107 107 112 112 112 108 108 108 102 102 102 95 95 95 
97 97 97 107 107 107 117 117 117 124 124 124 136 136 136 140 140 140 120 120 120 130 130 130 
145 145 145 152 152 152 170 170 170 138 138 138 28 28 28 0 0 0 0 0 0 0 0 0 
0 0 0 0 0 0 0 0 0 0 0 0 0 0 0 0 0 0 0 0 0 0 0 0 
0 0 0 0 0 0 0 0 0 0 0 0 0 0 0 0 0 0 0 0 0 0 0 0 0 0 0 0 0 0 0 0 0 0 0 0 0 0 0 0 0 0 0 0 0 0 0 0 
0 0 0 0 0 0 0 0 0 0 0 0 0 0 0 0 0 0 0 0 0 0 0 0 
0 0 0 0 0 0 0 0 0 0 0 0 0 0 0 0 0 0 0 0 0 82 82 82 
99 99 99 100 100 100 102 102 102 107 107 107 109 109 109 105 105 105 102 102 102 103 103 103 
100 100 100 97 97 97 103 103 103 111 111 111 125 125 125 133 133 133 109 109 109 119 119 119 
139 139 139 145 145 145 162 162 162 109 109 109 0 0 0 0 0 0 0 0 0 0 0 0 
0 0 0 0 0 0 0 0 0 0 0 0 0 0 0 0 0 0 0 0 0 0 0 0 
0 0 0 0 0 0 0 0 0 0 0 0 0 0 0 0 0 0 0 0 0 0 0 0 0 0 0 0 0 0 0 0 0 0 0 0 0 0 0 0 0 0 0 0 0 0 0 0 
0 0 0 0 0 0 0 0 0 0 0 0 0 0 0 0 0 0 0 0 0 0 0 0 
0 0 0 0 0 0 0 0 0 0 0 0 0 0 0 0 0 0 36 36 36 103 103 103 
99 99 99 100 100 100 103 103 103 105 105 105 105 105 105 92 92 92 92 92 92 97 97 97 
100 100 100 92 92 92 94 94 94 100 100 100 105 105 105 105 105 105 102 102 102 112 112 112 
128 128 128 130 130 130 145 145 145 72 72 72 0 0 0 0 0 0 0 0 0 0 0 0 
0 0 0 0 0 0 0 0 0 0 0 0 0 0 0 0 0 0 0 0 0 0 0 0 
0 0 0 0 0 0 0 0 0 0 0 0 0 0 0 0 0 0 0 0 0 0 0 0 0 0 0 0 0 0 0 0 0 0 0 0 0 0 0 0 0 0 0 0 0 0 0 0 
0 0 0 0 0 0 0 0 0 0 0 0 0 0 0 0 0 0 0 0 0 0 0 0 
0 0 0 0 0 0 0 0 0 0 0 0 0 0 0 0 0 0 69 69 69 114 114 114 
97 97 97 100 100 100 103 103 103 105 105 105 105 105 105 95 95 95 92 92 92 88 88 88 
86 86 86 86 86 86 92 92 92 105 105 105 114 114 114 108 108 108 102 102 102 111 111 111 
121 121 121 127 127 127 108 108 108 28 28 28 0 0 0 0 0 0 0 0 0 0 0 0 
0 0 0 0 0 0 0 0 0 0 0 0 0 0 0 0 0 0 0 0 0 0 0 0 
0 0 0 0 0 0 0 0 0 0 0 0 0 0 0 0 0 0 0 0 0 0 0 0 0 0 0 0 0 0 0 0 0 0 0 0 0 0 0 0 0 0 0 0 0 0 0 0 
0 0 0 0 0 0 0 0 0 0 0 0 0 0 0 0 0 0 0 0 0 0 0 0 
0 0 0 0 0 0 0 0 0 0 0 0 0 0 0 72 72 72 114 114 114 120 120 120 
100 100 100 100 100 100 103 103 103 105 105 105 108 108 108 105 105 105 103 103 103 97 97 97 
92 92 92 86 86 86 90 90 90 100 100 100 109 109 109 109 109 109 107 107 107 112 112 112 
120 120 120 116 116 116 60 60 60 0 0 0 0 0 0 0 0 0 0 0 0 0 0 0 
0 0 0 0 0 0 0 0 0 0 0 0 0 0 0 0 0 0 0 0 0 0 0 0 
0 0 0 0 0 0 0 0 0 0 0 0 0 0 0 0 0 0 0 0 0 0 0 0 0 0 0 0 0 0 0 0 0 0 0 0 0 0 0 0 0 0 0 0 0 0 0 0 
0 0 0 0 0 0 0 0 0 0 0 0 0 0 0 0 0 0 0 0 0 0 0 0 
0 0 0 0 0 0 0 0 0 0 0 0 77 77 77 133 133 133 133 133 133 114 114 114 
105 105 105 99 99 99 100 100 100 105 105 105 107 107 107 109 109 109 105 105 105 100 100 100 
99 99 99 99 99 99 103 103 103 108 108 108 109 109 109 108 108 108 114 114 114 122 122 122 
117 117 117 88 88 88 0 0 0 0 0 0 0 0 0 0 0 0 0 0 0 0 0 0 
0 0 0 0 0 0 0 0 0 0 0 0 0 0 0 0 0 0 0 0 0 0 0 0 
0 0 0 0 0 0 0 0 0 0 0 0 0 0 0 0 0 0 0 0 0 0 0 0 0 0 0 0 0 0 0 0 0 0 0 0 0 0 0 0 0 0 0 0 0 0 0 0 
0 0 0 0 0 0 0 0 0 0 0 0 0 0 0 0 0 0 0 0 0 0 0 0 
0 0 0 28 28 28 63 63 63 119 119 119 156 156 156 145 145 145 129 129 129 121 121 121 
107 107 107 97 97 97 94 94 94 97 97 97 103 103 103 112 112 112 109 109 109 105 105 105 
103 103 103 111 111 111 119 119 119 125 125 125 121 121 121 119 119 119 124 124 124 121 121 121 
82 82 82 0 0 0 0 0 0 0 0 0 0 0 0 0 0 0 0 0 0 0 0 0 
0 0 0 0 0 0 0 0 0 0 0 0 0 0 0 0 0 0 0 0 0 0 0 0 
0 0 0 0 0 0 0 0 0 0 0 0 0 0 0 0 0 0 0 0 0 0 0 0 0 0 0 0 0 0 0 0 0 0 0 0 0 0 0 0 0 0 0 0 0 0 0 0 
0 0 0 0 0 0 0 0 0 0 0 0 0 0 0 0 0 0 0 0 0 0 0 0 
72 72 72 95 95 95 128 128 128 174 174 174 166 166 166 143 143 143 129 129 129 124 124 124 
111 111 111 100 100 100 95 95 95 94 94 94 99 99 99 105 105 105 108 108 108 114 114 114 
119 119 119 127 127 127 127 127 127 124 124 124 119 119 119 114 114 114 108 108 108 77 77 77 
28 28 28 0 0 0 0 0 0 0 0 0 0 0 0 0 0 0 0 0 0 0 0 0 
0 0 0 0 0 0 0 0 0 0 0 0 0 0 0 0 0 0 0 0 0 0 0 0 
0 0 0 0 0 0 0 0 0 0 0 0 0 0 0 0 0 0 0 0 0 0 0 0 0 0 0 0 0 0 0 0 0 0 0 0 0 0 0 0 0 0 0 0 0 0 0 0 
0 0 0 0 0 0 0 0 0 0 0 0 0 0 0 36 36 36 77 77 77 108 108 108 
124 124 124 107 107 107 107 107 107 148 148 148 161 161 161 143 143 143 129 129 129 124 124 124 
114 114 114 105 105 105 95 95 95 92 92 92 92 92 92 94 94 94 102 102 102 109 109 109 
119 119 119 130 130 130 128 128 128 121 121 121 120 120 120 128 128 128 105 105 105 43 43 43 
0 0 0 0 0 0 0 0 0 0 0 0 0 0 0 0 0 0 0 0 0 0 0 0 
0 0 0 0 0 0 0 0 0 0 0 0 0 0 0 0 0 0 0 0 0 0 0 0 
0 0 0 0 0 0 0 0 0 0 0 0 0 0 0 0 0 0 0 0 0 0 0 0 0 0 0 0 0 0 0 0 0 0 0 0 0 0 0 0 0 0 0 0 0 0 0 0 
0 0 0 0 0 0 0 0 0 36 36 36 82 82 82 122 122 122 133 133 133 116 116 116 
103 103 103 90 90 90 79 79 79 103 103 103 149 149 149 145 145 145 130 130 130 122 122 122 
117 117 117 109 109 109 99 99 99 92 92 92 86 86 86 88 88 88 94 94 94 102 102 102 
107 107 107 117 117 117 119 119 119 121 121 121 133 133 133 161 161 161 172 172 172 154 154 154 
109 109 109 57 57 57 0 0 0 0 0 0 0 0 0 0 0 0 0 0 0 0 0 0 
0 0 0 0 0 0 0 0 0 0 0 0 0 0 0 0 0 0 0 0 0 0 0 0 
0 0 0 0 0 0 0 0 0 0 0 0 0 0 0 0 0 0 0 0 0 0 0 0 0 0 0 0 0 0 0 0 0 0 0 0 0 0 0 0 0 0 0 0 0 0 0 0 
0 0 0 53 53 53 97 97 97 133 133 133 142 142 142 133 133 133 120 120 120 109 109 109 
97 97 97 90 90 90 79 79 79 72 72 72 99 99 99 125 125 125 130 130 130 125 125 125 
121 121 121 119 119 119 112 112 112 102 102 102 92 92 92 94 94 94 97 97 97 99 99 99 
100 100 100 105 105 105 117 117 117 138 138 138 145 145 145 154 154 154 174 174 174 180 180 180 
185 185 185 174 174 174 156 156 156 112 112 112 72 72 72 36 36 36 0 0 0 0 0 0 
0 0 0 0 0 0 0 0 0 0 0 0 0 0 0 0 0 0 0 0 0 0 0 0 
0 0 0 0 0 0 0 0 0 0 0 0 0 0 0 0 0 0 0 0 0 0 0 0 0 0 0 0 0 0 0 0 0 0 0 0 0 0 0 0 0 0 0 0 0 57 57 57 
97 97 97 138 138 138 146 146 146 139 139 139 130 130 130 122 122 122 111 111 111 103 103 103 
95 95 95 90 90 90 79 79 79 77 77 77 69 69 69 75 75 75 97 97 97 114 114 114 
122 122 122 124 124 124 122 122 122 116 116 116 107 107 107 100 100 100 102 102 102 105 105 105 
107 107 107 121 121 121 138 138 138 160 160 160 143 143 143 151 151 151 167 167 167 172 172 172 
180 180 180 179 179 179 185 185 185 188 188 188 175 175 175 148 148 148 84 84 84 28 28 28 
0 0 0 0 0 0 0 0 0 0 0 0 0 0 0 0 0 0 0 0 0 0 0 0 
0 0 0 0 0 0 0 0 0 0 0 0 0 0 0 0 0 0 0 0 0 0 0 0 0 0 0 0 0 0 0 0 0 0 0 0 0 0 0 48 48 48 103 103 103 140 140 140 
142 142 142 130 130 130 121 121 121 117 117 117 116 116 116 108 108 108 100 100 100 94 94 94 
92 92 92 86 86 86 82 82 82 79 79 79 77 77 77 60 60 60 60 60 60 77 77 77 
94 94 94 111 111 111 120 120 120 125 125 125 124 124 124 120 120 120 121 121 121 122 122 122 
125 125 125 142 142 142 158 158 158 169 169 169 149 149 149 156 156 156 167 167 167 165 165 165 
163 163 163 172 172 172 162 162 162 162 162 162 166 166 166 179 179 179 177 177 177 121 121 121 
48 48 48 0 0 0 0 0 0 0 0 0 0 0 0 0 0 0 0 0 0 0 0 0 
0 0 0 0 0 0 0 0 0 0 0 0 0 0 0 0 0 0 0 0 0 0 0 0 0 0 0 0 0 0 0 0 0 0 0 0 77 77 77 120 120 120 125 125 125 124 124 124 
120 120 120 111 111 111 105 105 105 105 105 105 105 105 105 99 99 99 92 92 92 90 90 90 
88 88 88 86 86 86 84 84 84 82 82 82 77 77 77 69 69 69 63 63 63 60 60 60 
63 63 63 77 77 77 94 94 94 109 109 109 120 120 120 134 134 134 135 135 135 138 138 138 
140 140 140 152 152 152 163 163 163 160 160 160 157 157 157 163 163 163 175 175 175 165 165 165 
145 145 145 167 167 167 166 166 166 157 157 157 136 136 136 129 129 129 165 165 165 180 180 180 
136 136 136 53 53 53 0 0 0 0 0 0 0 0 0 0 0 0 0 0 0 0 0 0 
0 0 0 0 0 0 0 0 0 0 0 0 0 0 0 0 0 0 0 0 0 0 0 0 0 0 0 0 0 0 28 28 28 88 88 88 119 119 119 114 114 114 97 97 97 92 92 92 
94 94 94 97 97 97 97 97 97 92 92 92 92 92 92 95 95 95 95 95 95 92 92 92 
88 88 88 86 86 86 84 84 84 82 82 82 77 77 77 75 75 75 72 72 72 69 69 69 
69 69 69 69 69 69 69 69 69 72 72 72 77 77 77 94 94 94 100 100 100 107 107 107 
112 112 112 122 122 122 128 128 128 138 138 138 148 148 148 156 156 156 172 172 172 175 175 175 
130 130 130 149 149 149 176 176 176 167 167 167 148 148 148 112 112 112 129 129 129 160 160 160 
153 153 153 136 136 136 57 57 57 0 0 0 0 0 0 0 0 0 0 0 0 0 0 0 
0 0 0 0 0 0 0 0 0 0 0 0 0 0 0 0 0 0 0 0 0 0 0 0 0 0 0 0 0 0 67 67 67 97 97 97 102 102 102 108 108 108 103 103 103 88 88 88 
88 88 88 92 92 92 95 95 95 94 94 94 90 90 90 92 92 92 92 92 92 92 92 92 
88 88 88 86 86 86 84 84 84 82 82 82 77 77 77 75 75 75 75 75 75 72 72 72 
77 77 77 77 77 77 77 77 77 75 75 75 72 72 72 72 72 72 75 75 75 79 79 79 
84 84 84 100 100 100 117 117 117 136 136 136 148 148 148 158 158 158 170 170 170 179 179 179 
139 139 139 127 127 127 166 166 166 179 179 179 162 162 162 125 125 125 103 103 103 136 136 136 
134 134 134 143 143 143 124 124 124 36 36 36 0 0 0 0 0 0 0 0 0 0 0 0 
0 0 0 0 0 0 0 0 0 0 0 0 0 0 0 0 0 0 0 0 0 0 0 0 0 0 0 48 48 48 84 84 84 86 86 86 82 82 82 97 97 97 105 105 105 92 92 92 
88 88 88 92 92 92 95 95 95 95 95 95 92 92 92 88 88 88 88 88 88 90 90 90 
86 86 86 86 86 86 84 84 84 82 82 82 77 77 77 77 77 77 77 77 77 77 77 77 
82 82 82 84 84 84 82 82 82 82 82 82 79 79 79 82 82 82 86 86 86 92 92 92 
95 95 95 108 108 108 122 122 122 138 138 138 149 149 149 158 158 158 163 163 163 174 174 174 
152 152 152 114 114 114 145 145 145 176 176 176 176 176 176 151 151 151 99 99 99 111 111 111 
130 130 130 121 121 121 148 148 148 99 99 99 0 0 0 0 0 0 0 0 0 0 0 0 
0 0 0 0 0 0 0 0 0 0 0 0 0 0 0 0 0 0 0 0 0 0 0 0 0 0 0 75 75 75 79 79 79 75 75 75 69 69 69 72 72 72 94 94 94 100 100 100 
95 95 95 92 92 92 94 94 94 95 95 95 92 92 92 86 86 86 84 84 84 86 86 86 
86 86 86 86 86 86 84 84 84 82 82 82 77 77 77 77 77 77 79 79 79 79 79 79 
82 82 82 86 86 86 86 86 86 88 88 88 88 88 88 94 94 94 100 100 100 108 108 108 
114 114 114 122 122 122 127 127 127 136 136 136 146 146 146 154 154 154 154 154 154 165 165 165 
161 161 161 116 116 116 122 122 122 161 161 161 181 181 181 172 172 172 127 127 127 77 77 77 
119 119 119 114 114 114 119 119 119 143 143 143 69 69 69 0 0 0 0 0 0 0 0 0 
0 0 0 0 0 0 0 0 0 0 0 0 0 0 0 0 0 0 0 0 0 0 0 0 43 43 43 79 79 79 77 77 77 60 60 60 57 57 57 57 57 57 69 69 69 92 92 92 
95 95 95 86 86 86 86 86 86 92 92 92 92 92 92 86 86 86 84 84 84 79 79 79 
77 77 77 82 82 82 86 86 86 86 86 86 79 79 79 77 77 77 77 77 77 77 77 77 
79 79 79 86 86 86 92 92 92 92 92 92 86 86 86 86 86 86 94 94 94 105 105 105 
112 112 112 121 121 121 124 124 124 129 129 129 139 139 139 145 145 145 143 143 143 156 156 156 
165 165 165 127 127 127 100 100 100 133 133 133 165 165 165 175 175 175 157 157 157 92 92 92 
86 86 86 117 117 117 105 105 105 129 129 129 107 107 107 0 0 0 0 0 0 0 0 0 
0 0 0 0 0 0 0 0 0 0 0 0 0 0 0 0 0 0 0 0 0 28 28 28 63 63 63 72 72 72 72 72 72 63 63 63 60 60 60 57 57 57 60 60 60 82 82 82 
92 92 92 86 86 86 86 86 86 92 92 92 92 92 92 88 88 88 86 86 86 82 82 82 
77 77 77 79 79 79 86 86 86 86 86 86 82 82 82 79 79 79 77 77 77 77 77 77 
77 77 77 79 79 79 86 86 86 92 92 92 97 97 97 95 95 95 92 92 92 97 97 97 
105 105 105 117 117 117 121 121 121 128 128 128 135 135 135 140 140 140 138 138 138 151 151 151 
166 166 166 139 139 139 103 103 103 112 112 112 145 145 145 154 154 154 169 169 169 128 128 128 
82 82 82 97 97 97 105 105 105 108 108 108 124 124 124 72 72 72 0 0 0 0 0 0 
0 0 0 0 0 0 0 0 0 0 0 0 0 0 0 0 0 0 0 0 0 53 53 53 69 69 69 63 63 63 69 69 69 69 69 69 63 63 63 60 60 60 53 53 53 72 72 72 
88 88 88 90 90 90 86 86 86 92 92 92 95 95 95 92 92 92 86 86 86 84 84 84 
77 77 77 79 79 79 84 84 84 88 88 88 86 86 86 84 84 84 79 79 79 77 77 77 
77 77 77 77 77 77 79 79 79 88 88 88 100 100 100 108 108 108 95 95 95 92 92 92 
100 100 100 111 111 111 119 119 119 127 127 127 133 133 133 135 135 135 134 134 134 143 143 143 
163 163 163 153 153 153 116 116 116 102 102 102 130 130 130 130 130 130 152 152 152 152 152 152 
107 107 107 79 79 79 99 99 99 102 102 102 122 122 122 108 108 108 36 36 36 0 0 0 
0 0 0 0 0 0 0 0 0 0 0 0 0 0 0 0 0 0 0 0 0 67 67 67 69 69 69 67 67 67 63 63 63 67 67 67 63 63 63 63 63 63 53 53 53 63 63 63 
84 84 84 92 92 92 86 86 86 92 92 92 95 95 95 92 92 92 88 88 88 86 86 86 
79 79 79 79 79 79 82 82 82 88 88 88 90 90 90 86 86 86 82 82 82 79 79 79 
79 79 79 79 79 79 82 82 82 84 84 84 92 92 92 116 116 116 111 111 111 100 100 100 
92 92 92 105 105 105 114 114 114 124 124 124 127 127 127 133 133 133 133 133 133 138 138 138 
161 161 161 161 161 161 133 133 133 105 105 105 127 127 127 116 116 116 117 117 117 146 146 146 
135 135 135 92 92 92 86 86 86 103 103 103 105 105 105 128 128 128 88 88 88 0 0 0 
0 0 0 0 0 0 0 0 0 0 0 0 0 0 0 0 0 0 0 0 0 60 60 60 69 69 69 67 67 67 63 63 63 69 69 69 63 63 63 57 57 57 57 57 57 53 53 53 
72 72 72 88 88 88 86 86 86 88 88 88 95 95 95 95 95 95 90 90 90 84 84 84 
86 86 86 86 86 86 86 86 86 86 86 86 90 90 90 88 88 88 84 84 84 82 82 82 
79 79 79 79 79 79 79 79 79 79 79 79 84 84 84 105 105 105 127 127 127 121 121 121 
103 103 103 94 94 94 99 99 99 111 111 111 117 117 117 122 122 122 121 121 121 130 130 130 
153 153 153 160 160 160 145 145 145 112 112 112 129 129 129 121 121 121 92 92 92 121 121 121 
149 149 149 119 119 119 84 84 84 94 94 94 99 99 99 114 114 114 135 135 135 60 60 60 
0 0 0 0 0 0 0 0 0 0 0 0 0 0 0 0 0 0 0 0 0 60 60 60 67 67 67 67 67 67 67 67 67 63 63 63 63 63 63 60 60 60 57 57 57 53 53 53 
69 69 69 86 86 86 88 88 88 90 90 90 94 94 94 94 94 94 90 90 90 86 86 86 
86 86 86 86 86 86 86 86 86 86 86 86 90 90 90 88 88 88 86 86 86 82 82 82 
79 79 79 79 79 79 79 79 79 79 79 79 79 79 79 86 86 86 111 111 111 134 134 134 
117 117 117 97 97 97 95 95 95 105 105 105 116 116 116 120 120 120 119 119 119 124 124 124 
145 145 145 154 154 154 146 146 146 124 124 124 125 125 125 127 127 127 86 86 86 97 97 97 
142 142 142 134 134 134 95 95 95 92 92 92 100 100 100 105 105 105 146 146 146 97 97 97 
0 0 0 0 0 0 0 0 0 0 0 0 0 0 0 0 0 0 0 0 0 60 60 60 67 67 67 67 67 67 67 67 67 60 60 60 63 63 63 63 63 63 57 57 57 57 57 57 
63 63 63 79 79 79 92 92 92 90 90 90 92 92 92 94 94 94 92 92 92 86 86 86 
86 86 86 86 86 86 86 86 86 86 86 86 86 86 86 86 86 86 86 86 86 84 84 84 
79 79 79 79 79 79 79 79 79 79 79 79 79 79 79 77 77 77 88 88 88 125 125 125 
135 135 135 108 108 108 94 94 94 97 97 97 108 108 108 112 112 112 111 111 111 116 116 116 
134 134 134 151 151 151 151 151 151 134 134 134 125 125 125 133 133 133 94 94 94 77 77 77 
120 120 120 138 138 138 107 107 107 94 94 94 105 105 105 95 95 95 143 143 143 129 129 129 
57 57 57 0 0 0 0 0 0 0 0 0 0 0 0 0 0 0 0 0 0 57 57 57 67 67 67 69 69 69 69 69 69 63 63 63 60 60 60 60 60 60 60 60 60 57 57 57 
60 60 60 77 77 77 92 92 92 92 92 92 92 92 92 95 95 95 92 92 92 90 90 90 
86 86 86 86 86 86 86 86 86 86 86 86 86 86 86 86 86 86 86 86 86 86 86 86 
84 84 84 79 79 79 79 79 79 79 79 79 82 82 82 82 82 82 84 84 84 107 107 107 
140 140 140 121 121 121 95 95 95 90 90 90 102 102 102 107 107 107 108 108 108 111 111 111 
127 127 127 148 148 148 152 152 152 140 140 140 127 127 127 139 139 139 112 112 112 69 69 69 
95 95 95 129 129 129 114 114 114 95 95 95 107 107 107 86 86 86 130 130 130 143 143 143 
94 94 94 0 0 0 0 0 0 0 0 0 0 0 0 0 0 0 0 0 0 53 53 53 63 63 63 63 63 63 63 63 63 69 69 69 63 63 63 60 60 60 63 63 63 60 60 60 
57 57 57 72 72 72 92 92 92 95 95 95 92 92 92 88 88 88 90 90 90 92 92 92 
82 82 82 82 82 82 82 82 82 82 82 82 84 84 84 84 84 84 84 84 84 84 84 84 
84 84 84 82 82 82 79 79 79 79 79 79 79 79 79 79 79 79 79 79 79 86 86 86 
121 121 121 138 138 138 108 108 108 95 95 95 94 94 94 100 100 100 109 109 109 108 108 108 
112 112 112 135 135 135 153 153 153 154 154 154 122 122 122 130 130 130 129 129 129 77 77 77 
75 75 75 121 121 121 114 114 114 94 94 94 102 102 102 90 90 90 129 129 129 125 125 125 
122 122 122 60 60 60 0 0 0 0 0 0 0 0 0 0 0 0 0 0 0 57 57 57 60 60 60 60 60 60 63 63 63 63 63 63 67 67 67 63 63 63 60 60 60 60 60 60 
60 60 60 69 69 69 86 86 86 92 92 92 88 88 88 86 86 86 86 86 86 90 90 90 
79 79 79 79 79 79 79 79 79 79 79 79 82 82 82 82 82 82 82 82 82 82 82 82 
82 82 82 82 82 82 79 79 79 79 79 79 82 82 82 79 79 79 77 77 77 79 79 79 
107 107 107 142 142 142 121 121 121 97 97 97 88 88 88 94 94 94 105 105 105 105 105 105 
107 107 107 122 122 122 146 146 146 154 154 154 121 121 121 130 130 130 145 145 145 103 103 103 
69 69 69 99 99 99 112 112 112 92 92 92 99 99 99 94 94 94 116 116 116 103 103 103 
121 121 121 84 84 84 0 0 0 0 0 0 0 0 0 0 0 0 0 0 0 57 57 57 63 63 63 63 63 63 57 57 57 57 57 57 60 60 60 63 63 63 63 63 63 63 63 63 
60 60 60 67 67 67 79 79 79 88 88 88 84 84 84 79 79 79 82 82 82 86 86 86 
77 77 77 77 77 77 77 77 77 77 77 77 79 79 79 82 82 82 82 82 82 82 82 82 
79 79 79 79 79 79 79 79 79 82 82 82 84 84 84 79 79 79 75 75 75 72 72 72 
86 86 86 133 133 133 135 135 135 103 103 103 86 86 86 90 90 90 100 100 100 102 102 102 
100 100 100 105 105 105 121 121 121 128 128 128 84 84 84 79 79 79 92 92 92 90 90 90 
60 60 60 69 69 69 108 108 108 100 100 100 95 95 95 94 94 94 97 97 97 88 88 88 
114 114 114 90 90 90 48 48 48 0 0 0 0 0 0 0 0 0 0 0 0 57 57 57 60 60 60 63 63 63 63 63 63 60 60 60 57 57 57 57 57 57 60 60 60 63 63 63 
63 63 63 63 63 63 75 75 75 86 86 86 79 79 79 77 77 77 79 79 79 79 79 79 
77 77 77 77 77 77 77 77 77 77 77 77 79 79 79 82 82 82 82 82 82 82 82 82 
79 79 79 79 79 79 79 79 79 82 82 82 86 86 86 79 79 79 72 72 72 69 69 69 
72 72 72 117 117 117 143 143 143 112 112 112 90 90 90 86 86 86 95 95 95 97 97 97 
95 95 95 95 95 95 103 103 103 112 112 112 77 77 77 60 60 60 63 63 63 77 77 77 
63 63 63 53 53 53 94 94 94 116 116 116 103 103 103 90 90 90 79 79 79 90 90 90 
109 109 109 79 79 79 72 72 72 0 0 0 0 0 0 0 0 0 0 0 0 53 53 53 60 60 60 60 60 60 60 60 60 69 69 69 69 69 69 67 67 67 60 60 60 60 60 60 
69 69 69 69 69 69 69 69 69 79 79 79 79 79 79 75 75 75 69 69 69 67 67 67 
67 67 67 63 63 63 69 69 69 75 75 75 79 79 79 79 79 79 79 79 79 79 79 79 
77 77 77 75 75 75 79 79 79 82 82 82 84 84 84 79 79 79 72 72 72 69 69 69 
69 69 69 99 99 99 135 135 135 124 124 124 94 94 94 84 84 84 88 88 88 94 94 94 
92 92 92 92 92 92 97 97 97 105 105 105 103 103 103 103 103 103 128 128 128 117 117 117 
79 79 79 53 53 53 69 69 69 117 117 117 112 112 112 72 72 72 69 69 69 86 86 86 
107 107 107 60 60 60 77 77 77 43 43 43 0 0 0 0 0 0 0 0 0 57 57 57 63 63 63 63 63 63 63 63 63 67 67 67 69 69 69 69 69 69 67 67 67 63 63 63 
69 69 69 69 69 69 69 69 69 77 77 77 79 79 79 75 75 75 67 67 67 63 63 63 
63 63 63 63 63 63 67 67 67 72 72 72 77 77 77 75 75 75 75 75 75 75 75 75 
72 72 72 72 72 72 77 77 77 79 79 79 82 82 82 77 77 77 72 72 72 69 69 69 
69 69 69 86 86 86 127 127 127 130 130 130 100 100 100 82 82 82 84 84 84 92 92 92 
94 94 94 95 95 95 95 95 95 100 100 100 109 109 109 121 121 121 133 133 133 122 122 122 
86 86 86 57 57 57 57 57 57 105 105 105 120 120 120 72 72 72 57 57 57 88 88 88 
107 107 107 63 63 63 63 63 63 48 48 48 0 0 0 0 0 0 0 0 0 60 60 60 69 69 69 69 69 69 69 69 69 60 60 60 60 60 60 63 63 63 67 67 67 63 63 63 
69 69 69 69 69 69 69 69 69 77 77 77 79 79 79 75 75 75 67 67 67 63 63 63 
60 60 60 60 60 60 63 63 63 72 72 72 72 72 72 69 69 69 69 69 69 69 69 69 
69 69 69 72 72 72 75 75 75 77 77 77 79 79 79 77 77 77 77 77 77 69 69 69 
67 67 67 75 75 75 109 109 109 134 134 134 112 112 112 86 86 86 79 79 79 86 86 86 
92 92 92 95 95 95 99 99 99 102 102 102 108 108 108 114 114 114 127 127 127 125 125 125 
97 97 97 60 60 60 48 48 48 84 84 84 122 122 122 79 79 79 53 53 53 92 92 92 
105 105 105 69 69 69 53 53 53 48 48 48 0 0 0 0 0 0 0 0 0 60 60 60 67 67 67 67 67 67 67 67 67 57 57 57 53 53 53 53 53 53 57 57 57 63 63 63 
69 69 69 69 69 69 69 69 69 77 77 77 79 79 79 75 75 75 67 67 67 63 63 63 
57 57 57 57 57 57 60 60 60 69 69 69 69 69 69 67 67 67 67 67 67 67 67 67 
67 67 67 69 69 69 72 72 72 77 77 77 77 77 77 77 77 77 77 77 77 72 72 72 
63 63 63 72 72 72 92 92 92 127 127 127 124 124 124 94 94 94 82 82 82 82 82 82 
88 88 88 92 92 92 92 92 92 97 97 97 103 103 103 107 107 107 122 122 122 127 127 127 
105 105 105 63 63 63 48 48 48 63 63 63 116 116 116 86 86 86 53 53 53 97 97 97 
97 97 97 69 69 69 43 43 43 53 53 53 36 36 36 0 0 0 0 0 0 53 53 53 57 57 57 53 53 53 48 48 48 43 43 43 43 43 43 43 43 43 43 43 43 53 53 53 
57 57 57 63 63 63 63 63 63 67 67 67 67 67 67 63 63 63 60 60 60 57 57 57 
53 53 53 53 53 53 57 57 57 57 57 57 63 63 63 60 60 60 57 57 57 60 60 60 
69 69 69 67 67 67 69 69 69 77 77 77 77 77 77 72 72 72 72 72 72 69 69 69 
63 63 63 60 60 60 77 77 77 108 108 108 120 120 120 103 103 103 82 82 82 77 77 77 
82 82 82 84 84 84 84 84 84 84 84 84 82 82 82 92 92 92 108 108 108 117 117 117 
105 105 105 75 75 75 48 48 48 53 53 53 97 97 97 107 107 107 69 69 69 86 86 86 
82 82 82 60 60 60 36 36 36 57 57 57 48 48 48 0 0 0 0 0 0 43 43 43 48 48 48 43 43 43 36 36 36 43 43 43 48 48 48 48 48 48 48 48 48 53 53 53 
57 57 57 60 60 60 60 60 60 60 60 60 63 63 63 60 60 60 60 60 60 57 57 57 
53 53 53 53 53 53 57 57 57 57 57 57 60 60 60 57 57 57 57 57 57 57 57 57 
67 67 67 67 67 67 72 72 72 79 79 79 77 77 77 72 72 72 72 72 72 69 69 69 
63 63 63 57 57 57 72 72 72 100 100 100 116 116 116 107 107 107 88 88 88 77 77 77 
79 79 79 82 82 82 82 82 82 79 79 79 77 77 77 86 86 86 103 103 103 112 112 112 
105 105 105 79 79 79 53 53 53 43 43 43 77 77 77 114 114 114 92 92 92 79 79 79 
72 72 72 57 57 57 43 43 43 60 60 60 57 57 57 0 0 0 0 0 0 36 36 36 43 43 43 43 43 43 43 43 43 53 53 53 57 57 57 57 57 57 60 60 60 60 60 60 
60 60 60 57 57 57 57 57 57 60 60 60 63 63 63 60 60 60 60 60 60 57 57 57 
53 53 53 53 53 53 57 57 57 57 57 57 57 57 57 57 57 57 53 53 53 57 57 57 
63 63 63 67 67 67 72 72 72 79 79 79 77 77 77 72 72 72 72 72 72 69 69 69 
63 63 63 53 53 53 67 67 67 88 88 88 107 107 107 109 109 109 94 94 94 77 77 77 
77 77 77 79 79 79 82 82 82 82 82 82 75 75 75 77 77 77 95 95 95 108 108 108 
105 105 105 82 82 82 57 57 57 43 43 43 53 53 53 100 100 100 102 102 102 69 69 69 
57 57 57 48 48 48 48 48 48 72 72 72 77 77 77 0 0 0 0 0 0 36 36 36 48 48 48 53 53 53 57 57 57 60 60 60 63 63 63 63 63 63 69 69 69 72 72 72 
69 69 69 63 63 63 60 60 60 63 63 63 63 63 63 60 60 60 60 60 60 57 57 57 
53 53 53 53 53 53 57 57 57 57 57 57 57 57 57 53 53 53 53 53 53 57 57 57 
63 63 63 67 67 67 75 75 75 79 79 79 75 75 75 72 72 72 72 72 72 69 69 69 
63 63 63 53 53 53 63 63 63 79 79 79 103 103 103 112 112 112 102 102 102 79 79 79 
72 72 72 79 79 79 84 84 84 82 82 82 72 72 72 72 72 72 88 88 88 105 105 105 
105 105 105 86 86 86 57 57 57 48 48 48 48 48 48 72 72 72 84 84 84 57 57 57 
48 48 48 48 48 48 60 60 60 86 86 86 109 109 109 48 48 48 0 0 0 53 53 53 63 63 63 63 63 63 63 63 63 63 63 63 63 63 63 67 67 67 72 72 72 72 72 72 
72 72 72 72 72 72 63 63 63 57 57 57 57 57 57 57 57 57 57 57 57 57 57 57 
48 48 48 48 48 48 48 48 48 48 48 48 57 57 57 53 53 53 53 53 53 57 57 57 
63 63 63 72 72 72 79 79 79 77 77 77 69 69 69 67 67 67 69 69 69 69 69 69 
63 63 63 57 57 57 57 57 57 69 69 69 92 92 92 109 109 109 105 105 105 92 92 92 
79 79 79 77 77 77 82 82 82 86 86 86 72 72 72 63 63 63 79 79 79 102 102 102 
105 105 105 86 86 86 63 63 63 48 48 48 43 43 43 53 53 53 60 60 60 43 43 43 
43 43 43 48 48 48 60 60 60 95 95 95 138 138 138 77 77 77 0 0 0 57 57 57 63 63 63 60 60 60 60 60 60 60 60 60 60 60 60 67 67 67 75 75 75 69 69 69 
69 69 69 72 72 72 63 63 63 53 53 53 53 53 53 53 53 53 53 53 53 53 53 53 
48 48 48 48 48 48 48 48 48 48 48 48 53 53 53 48 48 48 53 53 53 57 57 57 
63 63 63 72 72 72 79 79 79 75 75 75 67 67 67 63 63 63 63 63 63 63 63 63 
60 60 60 57 57 57 57 57 57 67 67 67 84 84 84 103 103 103 107 107 107 95 95 95 
84 84 84 75 75 75 79 79 79 86 86 86 77 77 77 63 63 63 72 72 72 95 95 95 
103 103 103 88 88 88 67 67 67 43 43 43 43 43 43 48 48 48 57 57 57 43 43 43 
43 43 43 48 48 48 57 57 57 111 111 111 158 158 158 117 117 117 28 28 28 72 72 72 75 75 75 72 72 72 72 72 72 72 72 72 67 67 67 63 63 63 67 67 67 60 60 60 
60 60 60 63 63 63 57 57 57 48 48 48 48 48 48 48 48 48 53 53 53 53 53 53 
48 48 48 48 48 48 48 48 48 48 48 48 48 48 48 48 48 48 48 48 48 53 53 53 
60 60 60 72 72 72 79 79 79 75 75 75 67 67 67 63 63 63 63 63 63 63 63 63 
60 60 60 53 53 53 53 53 53 60 60 60 77 77 77 97 97 97 105 105 105 97 97 97 
86 86 86 77 77 77 79 79 79 86 86 86 79 79 79 63 63 63 67 67 67 86 86 86 
97 97 97 90 90 90 69 69 69 43 43 43 36 36 36 48 48 48 57 57 57 48 48 48 
43 43 43 43 43 43 48 48 48 100 100 100 149 149 149 145 145 145 60 60 60 67 67 67 77 77 77 79 79 79 79 79 79 77 77 77 69 69 69 63 63 63 60 60 60 53 53 53 
57 57 57 60 60 60 53 53 53 43 43 43 43 43 43 48 48 48 53 53 53 53 53 53 
48 48 48 48 48 48 48 48 48 48 48 48 48 48 48 43 43 43 48 48 48 48 48 48 
60 60 60 72 72 72 79 79 79 75 75 75 67 67 67 63 63 63 63 63 63 63 63 63 
60 60 60 53 53 53 48 48 48 57 57 57 69 69 69 92 92 92 102 102 102 100 100 100 
88 88 88 77 77 77 77 77 77 84 84 84 79 79 79 63 63 63 63 63 63 79 79 79 
90 90 90 88 88 88 72 72 72 48 48 48 43 43 43 48 48 48 53 53 53 36 36 36 
36 36 36 28 28 28 28 28 28 63 63 63 94 94 94 117 117 117 79 79 79 