P3
# Created by IrfanView
64 64
255
0 0 0 0 0 0 0 0 0 0 0 0 0 0 0 0 0 0 0 0 0 0 0 0 0 0 0 
0 0 0 0 0 0 0 0 0 0 0 0 0 0 0 0 0 0 0 0 0 0 0 0 
0 0 0 0 0 0 0 0 0 0 0 0 0 0 0 0 0 0 0 0 0 0 0 0 
1 1 1 1 1 1 1 1 1 0 0 0 1 1 1 3 3 3 10 10 10 34 34 34 
57 57 57 67 67 67 68 68 68 68 68 68 66 66 66 78 78 78 91 91 91 92 92 92 
78 78 78 52 52 52 18 18 18 3 3 3 1 1 1 4 4 4 1 1 1 0 0 0 
0 0 0 0 0 0 0 0 0 0 0 0 0 0 0 0 0 0 0 0 0 0 0 0 
0 0 0 0 0 0 0 0 0 0 0 0 0 0 0 0 0 0 0 0 0 0 0 0 0 0 0 0 0 0 0 0 0 0 0 0 0 0 0 0 0 0 0 0 0 0 0 0 
0 0 0 0 0 0 0 0 0 0 0 0 0 0 0 0 0 0 0 0 0 0 0 0 
0 0 0 0 0 0 0 0 0 0 0 0 0 0 0 0 0 0 0 0 0 0 0 0 
1 1 1 1 1 1 0 0 0 0 0 0 1 1 1 9 9 9 34 34 34 61 61 61 
61 61 61 46 46 46 40 40 40 40 40 40 45 45 45 57 57 57 68 68 68 80 80 80 
96 96 96 101 101 101 79 79 79 39 39 39 8 8 8 1 1 1 0 0 0 0 0 0 
0 0 0 0 0 0 0 0 0 0 0 0 0 0 0 0 0 0 0 0 0 0 0 0 
0 0 0 0 0 0 0 0 0 0 0 0 0 0 0 0 0 0 0 0 0 0 0 0 0 0 0 0 0 0 0 0 0 0 0 0 0 0 0 0 0 0 0 0 0 0 0 0 
0 0 0 0 0 0 0 0 0 0 0 0 0 0 0 0 0 0 0 0 0 0 0 0 
0 0 0 0 0 0 0 0 0 0 0 0 0 0 0 0 0 0 0 0 0 0 0 0 
0 0 0 0 0 0 0 0 0 1 1 1 9 9 9 32 32 32 44 44 44 46 46 46 
41 41 41 36 36 36 34 34 34 32 32 32 32 32 32 42 42 42 47 47 47 51 51 51 
65 65 65 79 79 79 88 88 88 85 85 85 60 60 60 32 32 32 2 2 2 0 0 0 
0 0 0 0 0 0 0 0 0 0 0 0 0 0 0 0 0 0 0 0 0 0 0 0 
0 0 0 0 0 0 0 0 0 0 0 0 0 0 0 0 0 0 0 0 0 0 0 0 0 0 0 0 0 0 0 0 0 0 0 0 0 0 0 0 0 0 0 0 0 0 0 0 
0 0 0 0 0 0 0 0 0 0 0 0 0 0 0 0 0 0 0 0 0 0 0 0 
0 0 0 0 0 0 0 0 0 0 0 0 0 0 0 0 0 0 0 0 0 0 0 0 
0 0 0 2 2 2 1 1 1 9 9 9 20 20 20 29 29 29 27 27 27 23 23 23 
25 25 25 28 28 28 30 30 30 35 35 35 38 38 38 42 42 42 39 39 39 39 39 39 
40 40 40 43 43 43 59 59 59 94 94 94 103 103 103 86 86 86 37 37 37 6 6 6 
3 3 3 2 2 2 0 0 0 0 0 0 0 0 0 0 0 0 0 0 0 0 0 0 
0 0 0 0 0 0 0 0 0 0 0 0 0 0 0 0 0 0 0 0 0 0 0 0 0 0 0 0 0 0 0 0 0 0 0 0 0 0 0 0 0 0 0 0 0 0 0 0 
0 0 0 0 0 0 0 0 0 0 0 0 0 0 0 0 0 0 0 0 0 0 0 0 
0 0 0 0 0 0 0 0 0 0 0 0 0 0 0 0 0 0 0 0 0 0 0 0 
0 0 0 1 1 1 3 3 3 15 15 15 21 21 21 20 20 20 20 20 20 18 18 18 
18 18 18 20 20 20 25 25 25 31 31 31 36 36 36 39 39 39 35 35 35 36 36 36 
34 34 34 45 45 45 66 66 66 79 79 79 90 90 90 93 93 93 83 83 83 40 40 40 
6 6 6 1 1 1 1 1 1 0 0 0 0 0 0 0 0 0 0 0 0 0 0 0 
0 0 0 0 0 0 0 0 0 0 0 0 0 0 0 0 0 0 0 0 0 0 0 0 0 0 0 0 0 0 0 0 0 0 0 0 0 0 0 0 0 0 0 0 0 0 0 0 
0 0 0 0 0 0 0 0 0 0 0 0 0 0 0 0 0 0 0 0 0 0 0 0 
0 0 0 0 0 0 0 0 0 0 0 0 0 0 0 0 0 0 0 0 0 0 0 0 
0 0 0 1 1 1 8 8 8 15 15 15 16 16 16 18 18 18 17 17 17 15 15 15 
15 15 15 18 18 18 21 21 21 24 24 24 23 23 23 27 27 27 29 29 29 34 34 34 
31 31 31 42 42 42 60 60 60 69 69 69 75 75 75 79 79 79 89 89 89 77 77 77 
18 18 18 1 1 1 1 1 1 0 0 0 0 0 0 0 0 0 0 0 0 0 0 0 
0 0 0 0 0 0 0 0 0 0 0 0 0 0 0 0 0 0 0 0 0 0 0 0 0 0 0 0 0 0 0 0 0 0 0 0 0 0 0 0 0 0 0 0 0 0 0 0 
0 0 0 0 0 0 0 0 0 0 0 0 0 0 0 0 0 0 0 0 0 0 0 0 
0 0 0 0 0 0 0 0 0 0 0 0 0 0 0 0 0 0 0 0 0 0 0 0 
0 0 0 2 2 2 12 12 12 13 13 13 14 14 14 15 15 15 17 17 17 18 18 18 
19 19 19 18 18 18 18 18 18 18 18 18 19 19 19 22 22 22 22 22 22 27 27 27 
23 23 23 28 28 28 43 43 43 67 67 67 73 73 73 68 68 68 79 79 79 83 83 83 
30 30 30 1 1 1 0 0 0 0 0 0 0 0 0 0 0 0 0 0 0 0 0 0 
0 0 0 0 0 0 0 0 0 0 0 0 0 0 0 0 0 0 0 0 0 0 0 0 0 0 0 0 0 0 0 0 0 0 0 0 0 0 0 0 0 0 0 0 0 0 0 0 
0 0 0 0 0 0 0 0 0 0 0 0 0 0 0 0 0 0 0 0 0 0 0 0 
0 0 0 0 0 0 0 0 0 0 0 0 0 0 0 0 0 0 0 0 0 0 0 0 
0 0 0 4 4 4 13 13 13 13 13 13 13 13 13 16 16 16 20 20 20 26 26 26 
32 32 32 29 29 29 19 19 19 14 14 14 15 15 15 18 18 18 18 18 18 20 20 20 
18 18 18 20 20 20 28 28 28 46 46 46 56 56 56 56 56 56 66 66 66 59 59 59 
25 25 25 1 1 1 0 0 0 0 0 0 0 0 0 0 0 0 0 0 0 0 0 0 
0 0 0 0 0 0 0 0 0 0 0 0 0 0 0 0 0 0 0 0 0 0 0 0 0 0 0 0 0 0 0 0 0 0 0 0 0 0 0 0 0 0 0 0 0 0 0 0 
0 0 0 0 0 0 0 0 0 0 0 0 0 0 0 0 0 0 0 0 0 0 0 0 
0 0 0 0 0 0 0 0 0 0 0 0 0 0 0 0 0 0 0 0 0 0 0 0 
2 2 2 7 7 7 13 13 13 15 15 15 15 15 15 19 19 19 30 30 30 42 42 42 
48 48 48 42 42 42 23 23 23 15 15 15 18 18 18 21 21 21 19 19 19 16 16 16 
17 17 17 18 18 18 21 21 21 29 29 29 40 40 40 44 44 44 56 56 56 52 52 52 
18 18 18 1 1 1 1 1 1 0 0 0 0 0 0 0 0 0 0 0 0 0 0 0 
0 0 0 0 0 0 0 0 0 0 0 0 0 0 0 0 0 0 0 0 0 0 0 0 0 0 0 0 0 0 0 0 0 0 0 0 0 0 0 0 0 0 0 0 0 0 0 0 
0 0 0 0 0 0 0 0 0 0 0 0 0 0 0 0 0 0 0 0 0 0 0 0 
0 0 0 0 0 0 0 0 0 0 0 0 0 0 0 0 0 0 0 0 0 0 0 0 
5 5 5 12 12 12 13 13 13 16 16 16 19 19 19 28 28 28 46 46 46 59 59 59 
61 61 61 57 57 57 46 46 46 41 41 41 38 38 38 29 29 29 20 20 20 14 14 14 
15 15 15 18 18 18 20 20 20 23 23 23 28 28 28 35 35 35 49 49 49 51 51 51 
11 11 11 1 1 1 1 1 1 0 0 0 0 0 0 0 0 0 0 0 0 0 0 0 
0 0 0 0 0 0 0 0 0 0 0 0 0 0 0 0 0 0 0 0 0 0 0 0 0 0 0 0 0 0 0 0 0 0 0 0 0 0 0 0 0 0 0 0 0 0 0 0 
0 0 0 0 0 0 0 0 0 0 0 0 0 0 0 0 0 0 0 0 0 0 0 0 
0 0 0 0 0 0 0 0 0 0 0 0 0 0 0 0 0 0 0 0 0 0 0 0 
9 9 9 15 15 15 13 13 13 17 17 17 24 24 24 41 41 41 58 58 58 68 68 68 
68 68 68 66 66 66 65 65 65 63 63 63 53 53 53 30 30 30 19 19 19 16 16 16 
17 17 17 18 18 18 21 21 21 21 21 21 22 22 22 27 27 27 39 39 39 33 33 33 
5 5 5 1 1 1 1 1 1 0 0 0 0 0 0 0 0 0 0 0 0 0 0 0 
0 0 0 0 0 0 0 0 0 0 0 0 0 0 0 0 0 0 0 0 0 0 0 0 0 0 0 0 0 0 0 0 0 0 0 0 0 0 0 0 0 0 0 0 0 0 0 0 
0 0 0 0 0 0 0 0 0 0 0 0 0 0 0 0 0 0 0 0 0 0 0 0 
0 0 0 0 0 0 0 0 0 0 0 0 1 1 1 2 2 2 1 1 1 11 11 11 
19 19 19 18 18 18 19 19 19 27 27 27 40 40 40 55 55 55 64 64 64 69 69 69 
69 69 69 69 69 69 68 68 68 63 63 63 52 52 52 35 35 35 29 29 29 27 27 27 
25 25 25 26 26 26 28 28 28 27 27 27 21 21 21 22 22 22 28 28 28 15 15 15 
1 1 1 1 1 1 0 0 0 0 0 0 0 0 0 0 0 0 0 0 0 0 0 0 
0 0 0 0 0 0 0 0 0 0 0 0 0 0 0 0 0 0 0 0 0 0 0 0 0 0 0 0 0 0 0 0 0 0 0 0 0 0 0 0 0 0 0 0 0 0 0 0 
0 0 0 0 0 0 0 0 0 0 0 0 0 0 0 0 0 0 0 0 0 0 0 0 
0 0 0 0 0 0 0 0 0 0 0 0 1 1 1 1 1 1 8 8 8 36 36 36 
35 35 35 23 23 23 31 31 31 46 46 46 59 59 59 65 65 65 66 66 66 68 68 68 
70 70 70 71 71 71 71 71 71 68 68 68 63 63 63 55 55 55 50 50 50 45 45 45 
41 41 41 40 40 40 39 39 39 34 34 34 23 23 23 21 21 21 23 23 23 7 7 7 
0 0 0 0 0 0 0 0 0 0 0 0 0 0 0 0 0 0 0 0 0 0 0 0 
0 0 0 0 0 0 0 0 0 0 0 0 0 0 0 0 0 0 0 0 0 0 0 0 0 0 0 0 0 0 0 0 0 0 0 0 0 0 0 0 0 0 0 0 0 0 0 0 
0 0 0 0 0 0 0 0 0 0 0 0 0 0 0 0 0 0 0 0 0 0 0 0 
0 0 0 0 0 0 0 0 0 0 0 0 0 0 0 2 2 2 22 22 22 52 52 52 
40 40 40 30 30 30 45 45 45 60 60 60 64 64 64 60 60 60 59 59 59 59 59 59 
62 62 62 67 67 67 70 70 70 72 72 72 71 71 71 67 67 67 63 63 63 58 58 58 
53 53 53 50 50 50 45 45 45 36 36 36 28 28 28 26 26 26 22 22 22 6 6 6 
0 0 0 0 0 0 0 0 0 0 0 0 0 0 0 0 0 0 0 0 0 0 0 0 
0 0 0 0 0 0 0 0 0 0 0 0 0 0 0 0 0 0 0 0 0 0 0 0 0 0 0 0 0 0 0 0 0 0 0 0 0 0 0 0 0 0 0 0 0 0 0 0 
0 0 0 0 0 0 0 0 0 0 0 0 0 0 0 0 0 0 0 0 0 0 0 0 
0 0 0 0 0 0 0 0 0 0 0 0 0 0 0 3 3 3 31 31 31 51 51 51 
35 35 35 37 37 37 55 55 55 62 62 62 59 59 59 54 54 54 52 52 52 50 50 50 
49 49 49 54 54 54 60 60 60 67 67 67 69 69 69 69 69 69 69 69 69 67 67 67 
66 66 66 64 64 64 60 60 60 51 51 51 46 46 46 38 38 38 22 22 22 4 4 4 
0 0 0 0 0 0 0 0 0 0 0 0 0 0 0 0 0 0 0 0 0 0 0 0 
0 0 0 0 0 0 0 0 0 0 0 0 0 0 0 0 0 0 0 0 0 0 0 0 0 0 0 0 0 0 0 0 0 0 0 0 0 0 0 0 0 0 0 0 0 0 0 0 
0 0 0 0 0 0 0 0 0 0 0 0 0 0 0 0 0 0 0 0 0 0 0 0 
0 0 0 0 0 0 0 0 0 0 0 0 1 1 1 2 2 2 31 31 31 53 53 53 
42 42 42 50 50 50 62 62 62 62 62 62 56 56 56 49 49 49 47 47 47 44 44 44 
42 42 42 40 40 40 47 47 47 57 57 57 65 65 65 70 70 70 74 74 74 74 74 74 
76 76 76 79 79 79 82 82 82 78 78 78 68 68 68 46 46 46 15 15 15 2 2 2 
0 0 0 1 1 1 1 1 1 0 0 0 0 0 0 0 0 0 0 0 0 0 0 0 
0 0 0 0 0 0 0 0 0 0 0 0 0 0 0 0 0 0 0 0 0 0 0 0 0 0 0 0 0 0 0 0 0 0 0 0 0 0 0 0 0 0 0 0 0 0 0 0 
0 0 0 0 0 0 0 0 0 0 0 0 0 0 0 0 0 0 0 0 0 0 0 0 
0 0 0 0 0 0 0 0 0 0 0 0 0 0 0 3 3 3 40 40 40 61 61 61 
58 58 58 63 63 63 68 68 68 67 67 67 62 62 62 51 51 51 43 43 43 36 36 36 
32 32 32 32 32 32 38 38 38 49 49 49 62 62 62 68 68 68 71 71 71 66 66 66 
70 70 70 74 74 74 86 86 86 97 97 97 82 82 82 36 36 36 2 2 2 0 0 0 
0 0 0 0 0 0 0 0 0 0 0 0 0 0 0 0 0 0 0 0 0 0 0 0 
0 0 0 0 0 0 0 0 0 0 0 0 0 0 0 0 0 0 0 0 0 0 0 0 0 0 0 0 0 0 0 0 0 0 0 0 0 0 0 0 0 0 0 0 0 0 0 0 
0 0 0 0 0 0 0 0 0 0 0 0 0 0 0 0 0 0 0 0 0 0 0 0 
0 0 0 0 0 0 0 0 0 0 0 0 0 0 0 4 4 4 42 42 42 62 62 62 
59 59 59 63 63 63 67 67 67 67 67 67 64 64 64 60 60 60 54 54 54 44 44 44 
38 38 38 30 30 30 36 36 36 51 51 51 66 66 66 74 74 74 66 66 66 53 53 53 
50 50 50 53 53 53 67 67 67 93 93 93 83 83 83 31 31 31 1 1 1 0 0 0 
0 0 0 0 0 0 0 0 0 0 0 0 0 0 0 0 0 0 0 0 0 0 0 0 
0 0 0 0 0 0 0 0 0 0 0 0 0 0 0 0 0 0 0 0 0 0 0 0 0 0 0 0 0 0 0 0 0 0 0 0 0 0 0 0 0 0 0 0 0 0 0 0 
0 0 0 0 0 0 0 0 0 0 0 0 0 0 0 0 0 0 0 0 0 0 0 0 
0 0 0 0 0 0 0 0 0 0 0 0 1 1 1 2 2 2 33 33 33 57 57 57 
60 60 60 63 63 63 66 66 66 66 66 66 67 67 67 68 68 68 63 63 63 54 54 54 
46 46 46 42 42 42 47 47 47 59 59 59 72 72 72 75 75 75 55 55 55 39 39 39 
34 34 34 43 43 43 58 58 58 81 81 81 72 72 72 19 19 19 1 1 1 0 0 0 
0 0 0 0 0 0 0 0 0 0 0 0 0 0 0 0 0 0 0 0 0 0 0 0 
0 0 0 0 0 0 0 0 0 0 0 0 0 0 0 0 0 0 0 0 0 0 0 0 0 0 0 0 0 0 0 0 0 0 0 0 0 0 0 0 0 0 0 0 0 0 0 0 
0 0 0 0 0 0 0 0 0 0 0 0 0 0 0 0 0 0 0 0 0 0 0 0 
0 0 0 0 0 0 0 0 0 0 0 0 3 3 3 1 1 1 17 17 17 49 49 49 
59 59 59 61 61 61 62 62 62 65 65 65 68 68 68 71 71 71 69 69 69 65 65 65 
60 60 60 55 55 55 59 59 59 67 67 67 77 77 77 79 79 79 54 54 54 35 35 35 
33 33 33 43 43 43 56 56 56 82 82 82 65 65 65 11 11 11 0 0 0 0 0 0 
0 0 0 0 0 0 0 0 0 0 0 0 0 0 0 0 0 0 0 0 0 0 0 0 
0 0 0 0 0 0 0 0 0 0 0 0 0 0 0 0 0 0 0 0 0 0 0 0 0 0 0 0 0 0 0 0 0 0 0 0 0 0 0 0 0 0 0 0 0 0 0 0 
0 0 0 0 0 0 0 0 0 0 0 0 0 0 0 0 0 0 0 0 0 0 0 0 
0 0 0 0 0 0 0 0 0 0 0 0 0 0 0 0 0 0 5 5 5 41 41 41 
57 57 57 58 58 58 58 58 58 62 62 62 67 67 67 69 69 69 68 68 68 63 63 63 
56 56 56 58 58 58 66 66 66 72 72 72 84 84 84 89 89 89 66 66 66 53 53 53 
51 51 51 59 59 59 69 69 69 90 90 90 47 47 47 3 3 3 0 0 0 0 0 0 
0 0 0 0 0 0 0 0 0 0 0 0 0 0 0 0 0 0 0 0 0 0 0 0 
0 0 0 0 0 0 0 0 0 0 0 0 0 0 0 0 0 0 0 0 0 0 0 0 0 0 0 0 0 0 0 0 0 0 0 0 0 0 0 0 0 0 0 0 0 0 0 0 
0 0 0 0 0 0 0 0 0 0 0 0 0 0 0 0 0 0 0 0 0 0 0 0 
0 0 0 0 0 0 0 0 0 0 0 0 0 0 0 1 1 1 3 3 3 40 40 40 
58 58 58 58 58 58 58 58 58 62 62 62 66 66 66 66 66 66 64 64 64 55 55 55 
53 53 53 62 62 62 70 70 70 77 77 77 88 88 88 90 90 90 77 77 77 75 75 75 
74 74 74 81 81 81 101 101 101 96 96 96 31 31 31 2 2 2 0 0 0 0 0 0 
0 0 0 0 0 0 0 0 0 0 0 0 0 0 0 0 0 0 0 0 0 0 0 0 
0 0 0 0 0 0 0 0 0 0 0 0 0 0 0 0 0 0 0 0 0 0 0 0 0 0 0 0 0 0 0 0 0 0 0 0 0 0 0 0 0 0 0 0 0 0 0 0 
0 0 0 0 0 0 0 0 0 0 0 0 0 0 0 0 0 0 0 0 0 0 0 0 
0 0 0 0 0 0 0 0 0 0 0 0 0 0 0 0 0 0 4 4 4 40 40 40 
58 58 58 58 58 58 58 58 58 62 62 62 66 66 66 63 63 63 58 58 58 54 54 54 
55 55 55 62 62 62 69 69 69 74 74 74 83 83 83 86 86 86 71 71 71 79 79 79 
90 90 90 95 95 95 109 109 109 84 84 84 16 16 16 2 2 2 0 0 0 0 0 0 
0 0 0 0 0 0 0 0 0 0 0 0 0 0 0 0 0 0 0 0 0 0 0 0 
0 0 0 0 0 0 0 0 0 0 0 0 0 0 0 0 0 0 0 0 0 0 0 0 0 0 0 0 0 0 0 0 0 0 0 0 0 0 0 0 0 0 0 0 0 0 0 0 
0 0 0 0 0 0 0 0 0 0 0 0 0 0 0 0 0 0 0 0 0 0 0 0 
0 0 0 0 0 0 0 0 0 0 0 0 1 1 1 1 1 1 9 9 9 45 45 45 
56 56 56 57 57 57 58 58 58 62 62 62 64 64 64 60 60 60 58 58 58 59 59 59 
57 57 57 55 55 55 59 59 59 65 65 65 75 75 75 80 80 80 64 64 64 70 70 70 
85 85 85 89 89 89 103 103 103 64 64 64 6 6 6 0 0 0 0 0 0 0 0 0 
0 0 0 0 0 0 0 0 0 0 0 0 0 0 0 0 0 0 0 0 0 0 0 0 
0 0 0 0 0 0 0 0 0 0 0 0 0 0 0 0 0 0 0 0 0 0 0 0 0 0 0 0 0 0 0 0 0 0 0 0 0 0 0 0 0 0 0 0 0 0 0 0 
0 0 0 0 0 0 0 0 0 0 0 0 0 0 0 0 0 0 0 0 0 0 0 0 
0 0 0 0 0 0 0 0 0 0 0 0 2 2 2 2 2 2 19 19 19 59 59 59 
56 56 56 57 57 57 59 59 59 61 61 61 61 61 61 51 51 51 52 52 52 55 55 55 
57 57 57 52 52 52 53 53 53 57 57 57 60 60 60 60 60 60 58 58 58 66 66 66 
77 77 77 79 79 79 89 89 89 39 39 39 1 1 1 1 1 1 0 0 0 0 0 0 
0 0 0 0 0 0 0 0 0 0 0 0 0 0 0 0 0 0 0 0 0 0 0 0 
0 0 0 0 0 0 0 0 0 0 0 0 0 0 0 0 0 0 0 0 0 0 0 0 0 0 0 0 0 0 0 0 0 0 0 0 0 0 0 0 0 0 0 0 0 0 0 0 
0 0 0 0 0 0 0 0 0 0 0 0 0 0 0 0 0 0 0 0 0 0 0 0 
0 0 0 0 0 0 0 0 0 0 0 0 1 1 1 6 6 6 37 37 37 67 67 67 
55 55 55 57 57 57 59 59 59 61 61 61 61 61 61 54 54 54 51 51 51 49 49 49 
48 48 48 47 47 47 52 52 52 61 61 61 67 67 67 63 63 63 58 58 58 65 65 65 
72 72 72 76 76 76 63 63 63 14 14 14 1 1 1 1 1 1 0 0 0 0 0 0 
0 0 0 0 0 0 0 0 0 0 0 0 0 0 0 0 0 0 0 0 0 0 0 0 
0 0 0 0 0 0 0 0 0 0 0 0 0 0 0 0 0 0 0 0 0 0 0 0 0 0 0 0 0 0 0 0 0 0 0 0 0 0 0 0 0 0 0 0 0 0 0 0 
0 0 0 0 0 0 0 0 0 0 0 0 0 0 0 0 0 0 0 0 0 0 0 0 
0 0 0 0 0 0 0 0 0 0 0 0 6 6 6 38 38 38 67 67 67 71 71 71 
57 57 57 57 57 57 59 59 59 61 61 61 63 63 63 60 60 60 59 59 59 55 55 55 
51 51 51 48 48 48 50 50 50 57 57 57 64 64 64 64 64 64 62 62 62 66 66 66 
71 71 71 68 68 68 32 32 32 3 3 3 1 1 1 1 1 1 0 0 0 0 0 0 
0 0 0 0 0 0 0 0 0 0 0 0 0 0 0 0 0 0 0 0 0 0 0 0 
0 0 0 0 0 0 0 0 0 0 0 0 0 0 0 0 0 0 0 0 0 0 0 0 0 0 0 0 0 0 0 0 0 0 0 0 0 0 0 0 0 0 0 0 0 0 0 0 
0 0 0 0 0 0 0 0 0 1 1 1 0 0 0 0 0 0 0 0 0 1 1 1 
3 3 3 1 1 1 1 1 1 8 8 8 42 42 42 80 80 80 80 80 80 67 67 67 
60 60 60 56 56 56 57 57 57 60 60 60 62 62 62 64 64 64 60 60 60 57 57 57 
56 56 56 56 56 56 59 59 59 63 63 63 64 64 64 63 63 63 67 67 67 73 73 73 
69 69 69 49 49 49 8 8 8 1 1 1 1 1 1 2 2 2 0 0 0 0 0 0 
0 0 0 0 0 0 0 0 0 0 0 0 0 0 0 0 0 0 0 0 0 0 0 0 
0 0 0 0 0 0 0 0 0 0 0 0 0 0 0 0 0 0 0 0 0 0 0 0 0 0 0 0 0 0 0 0 0 0 0 0 0 0 0 0 0 0 0 0 0 0 0 0 
0 0 0 0 0 0 0 0 0 1 1 1 1 1 1 1 1 1 1 1 1 1 1 1 
4 4 4 13 13 13 34 34 34 70 70 70 98 98 98 89 89 89 78 78 78 72 72 72 
62 62 62 55 55 55 53 53 53 55 55 55 59 59 59 66 66 66 64 64 64 61 61 61 
59 59 59 65 65 65 70 70 70 75 75 75 72 72 72 70 70 70 74 74 74 72 72 72 
45 45 45 11 11 11 0 0 0 0 0 0 0 0 0 0 0 0 0 0 0 0 0 0 
0 0 0 0 0 0 0 0 0 0 0 0 0 0 0 0 0 0 0 0 0 0 0 0 
0 0 0 0 0 0 0 0 0 0 0 0 0 0 0 0 0 0 0 0 0 0 0 0 0 0 0 0 0 0 0 0 0 0 0 0 0 0 0 0 0 0 0 0 0 0 0 0 
0 0 0 0 0 0 0 0 0 3 3 3 3 3 3 0 0 0 3 3 3 11 11 11 
39 39 39 54 54 54 77 77 77 112 112 112 106 106 106 88 88 88 78 78 78 74 74 74 
65 65 65 57 57 57 54 54 54 53 53 53 56 56 56 61 61 61 63 63 63 67 67 67 
70 70 70 76 76 76 76 76 76 74 74 74 70 70 70 67 67 67 63 63 63 42 42 42 
15 15 15 3 3 3 0 0 0 0 0 0 0 0 0 0 0 0 0 0 0 0 0 0 
0 0 0 0 0 0 0 0 0 0 0 0 0 0 0 0 0 0 0 0 0 0 0 0 
0 0 0 0 0 0 0 0 0 0 0 0 0 0 0 0 0 0 0 0 0 0 0 0 0 0 0 0 0 0 0 0 0 0 0 0 0 0 0 0 0 0 0 0 0 0 0 0 
0 0 0 0 0 0 0 0 0 1 1 1 4 4 4 17 17 17 41 41 41 63 63 63 
74 74 74 62 62 62 62 62 62 92 92 92 102 102 102 88 88 88 78 78 78 74 74 74 
67 67 67 60 60 60 54 54 54 51 51 51 51 51 51 53 53 53 58 58 58 64 64 64 
70 70 70 79 79 79 77 77 77 72 72 72 71 71 71 77 77 77 60 60 60 21 21 21 
5 5 5 2 2 2 0 0 0 0 0 0 0 0 0 0 0 0 0 0 0 0 0 0 
0 0 0 0 0 0 0 0 0 0 0 0 0 0 0 0 0 0 0 0 0 0 0 0 
0 0 0 0 0 0 0 0 0 0 0 0 0 0 0 0 0 0 0 0 0 0 0 0 0 0 0 0 0 0 0 0 0 1 1 1 0 0 0 1 1 1 0 0 0 2 2 2 
1 1 1 1 1 1 4 4 4 17 17 17 45 45 45 73 73 73 80 80 80 68 68 68 
59 59 59 50 50 50 44 44 44 59 59 59 93 93 93 90 90 90 79 79 79 73 73 73 
69 69 69 64 64 64 56 56 56 51 51 51 48 48 48 49 49 49 53 53 53 58 58 58 
62 62 62 69 69 69 70 70 70 72 72 72 80 80 80 102 102 102 111 111 111 97 97 97 
64 64 64 29 29 29 11 11 11 5 5 5 1 1 1 0 0 0 0 0 0 0 0 0 
0 0 0 0 0 0 0 0 0 0 0 0 0 0 0 0 0 0 0 0 0 0 0 0 
0 0 0 0 0 0 0 0 0 0 0 0 0 0 0 0 0 0 0 0 0 0 0 0 0 0 0 0 0 0 0 0 0 2 2 2 2 2 2 3 3 3 1 1 1 5 5 5 
8 8 8 26 26 26 55 55 55 80 80 80 87 87 87 80 80 80 71 71 71 64 64 64 
55 55 55 50 50 50 44 44 44 39 39 39 56 56 56 75 75 75 79 79 79 75 75 75 
72 72 72 70 70 70 66 66 66 58 58 58 52 52 52 53 53 53 55 55 55 56 56 56 
57 57 57 61 61 61 69 69 69 84 84 84 90 90 90 97 97 97 112 112 112 117 117 117 
121 121 121 112 112 112 98 98 98 66 66 66 39 39 39 18 18 18 2 2 2 0 0 0 
1 1 1 1 1 1 1 1 1 0 0 0 0 0 0 0 0 0 0 0 0 0 0 0 
0 0 0 0 0 0 0 0 0 0 0 0 0 0 0 0 0 0 0 0 0 0 0 0 0 0 0 0 0 0 0 0 0 2 2 2 2 2 2 2 2 2 8 8 8 28 28 28 
55 55 55 84 84 84 91 91 91 85 85 85 79 79 79 73 73 73 65 65 65 59 59 59 
54 54 54 50 50 50 44 44 44 41 41 41 36 36 36 40 40 40 55 55 55 67 67 67 
73 73 73 74 74 74 73 73 73 68 68 68 62 62 62 57 57 57 58 58 58 60 60 60 
62 62 62 72 72 72 84 84 84 101 101 101 88 88 88 94 94 94 107 107 107 110 110 110 
117 117 117 116 116 116 121 121 121 123 123 123 113 113 113 92 92 92 46 46 46 16 16 16 
1 1 1 2 2 2 1 1 1 0 0 0 0 0 0 0 0 0 0 0 0 0 0 0 
0 0 0 0 0 0 0 0 0 0 0 0 0 0 0 0 0 0 0 0 0 0 0 0 0 0 0 0 0 0 0 0 0 1 1 1 5 5 5 25 25 25 59 59 59 86 86 86 
87 87 87 79 79 79 72 72 72 69 69 69 68 68 68 63 63 63 57 57 57 53 53 53 
51 51 51 48 48 48 45 45 45 44 44 44 41 41 41 32 32 32 32 32 32 41 41 41 
53 53 53 65 65 65 71 71 71 75 75 75 74 74 74 71 71 71 72 72 72 73 73 73 
75 75 75 87 87 87 100 100 100 108 108 108 93 93 93 98 98 98 107 107 107 105 105 105 
104 104 104 110 110 110 103 103 103 103 103 103 106 106 106 116 116 116 115 115 115 72 72 72 
23 23 23 3 3 3 1 1 1 0 0 0 0 0 0 0 0 0 0 0 0 0 0 0 
0 0 0 0 0 0 0 0 0 0 0 0 0 0 0 0 0 0 0 0 0 0 0 0 1 1 1 1 1 1 1 1 1 11 11 11 42 42 42 71 71 71 75 75 75 74 74 74 
71 71 71 65 65 65 61 61 61 60 60 60 60 60 60 56 56 56 52 52 52 50 50 50 
49 49 49 47 47 47 46 46 46 45 45 45 41 41 41 36 36 36 33 33 33 32 32 32 
34 34 34 41 41 41 53 53 53 64 64 64 71 71 71 81 81 81 82 82 82 84 84 84 
86 86 86 95 95 95 104 104 104 101 101 101 99 99 99 104 104 104 113 113 113 105 105 105 
90 90 90 107 107 107 106 106 106 99 99 99 83 83 83 78 78 78 105 105 105 117 117 117 
83 83 83 26 26 26 2 2 2 0 0 0 0 0 0 0 0 0 0 0 0 0 0 0 
0 0 0 0 0 0 0 0 0 0 0 0 0 0 0 0 0 0 0 0 0 0 0 0 2 2 2 1 1 1 14 14 14 49 49 49 70 70 70 67 67 67 55 55 55 52 52 52 
53 53 53 55 55 55 55 55 55 52 52 52 51 51 51 54 54 54 54 54 54 52 52 52 
49 49 49 47 47 47 46 46 46 45 45 45 41 41 41 40 40 40 38 38 38 37 37 37 
37 37 37 36 36 36 37 37 37 38 38 38 42 42 42 53 53 53 57 57 57 62 62 62 
66 66 66 73 73 73 77 77 77 84 84 84 92 92 92 98 98 98 111 111 111 113 113 113 
79 79 79 93 93 93 114 114 114 107 107 107 92 92 92 66 66 66 78 78 78 101 101 101 
96 96 96 83 83 83 28 28 28 2 2 2 1 1 1 0 0 0 0 0 0 0 0 0 
0 0 0 0 0 0 0 0 0 0 0 0 0 0 0 0 0 0 0 0 0 0 0 0 1 1 1 8 8 8 35 35 35 55 55 55 58 58 58 63 63 63 59 59 59 49 49 49 
49 49 49 52 52 52 54 54 54 53 53 53 50 50 50 52 52 52 52 52 52 52 52 52 
49 49 49 47 47 47 46 46 46 45 45 45 41 41 41 40 40 40 40 40 40 39 39 39 
41 41 41 42 42 42 41 41 41 40 40 40 39 39 39 38 38 38 40 40 40 43 43 43 
46 46 46 57 57 57 69 69 69 83 83 83 92 92 92 100 100 100 109 109 109 116 116 116 
85 85 85 76 76 76 106 106 106 116 116 116 103 103 103 75 75 75 59 59 59 83 83 83 
81 81 81 88 88 88 74 74 74 18 18 18 1 1 1 1 1 1 0 0 0 0 0 0 
0 0 0 0 0 0 0 0 0 0 0 0 0 0 0 0 0 0 0 0 0 0 0 0 3 3 3 24 24 24 46 46 46 47 47 47 45 45 45 55 55 55 60 60 60 52 52 52 
49 49 49 51 51 51 54 54 54 54 54 54 51 51 51 49 49 49 49 49 49 50 50 50 
48 48 48 47 47 47 46 46 46 45 45 45 42 42 42 41 41 41 42 42 42 42 42 42 
45 45 45 46 46 46 45 45 45 45 45 45 44 44 44 45 45 45 47 47 47 51 51 51 
54 54 54 63 63 63 73 73 73 84 84 84 93 93 93 100 100 100 104 104 104 112 112 112 
95 95 95 67 67 67 89 89 89 114 114 114 114 114 114 94 94 94 56 56 56 65 65 65 
79 79 79 72 72 72 92 92 92 56 56 56 8 8 8 0 0 0 0 0 0 0 0 0 
0 0 0 0 0 0 0 0 0 0 0 0 0 0 0 0 0 0 0 0 0 1 1 1 10 10 10 40 40 40 44 44 44 40 40 40 37 37 37 39 39 39 53 53 53 57 57 57 
54 54 54 52 52 52 53 53 53 54 54 54 51 51 51 47 47 47 46 46 46 47 47 47 
47 47 47 47 47 47 46 46 46 45 45 45 42 42 42 41 41 41 43 43 43 43 43 43 
45 45 45 47 47 47 48 48 48 49 49 49 49 49 49 53 53 53 57 57 57 63 63 63 
67 67 67 73 73 73 76 76 76 83 83 83 91 91 91 97 97 97 97 97 97 105 105 105 
102 102 102 68 68 68 73 73 73 102 102 102 118 118 118 111 111 111 76 76 76 41 41 41 
70 70 70 67 67 67 70 70 70 88 88 88 36 36 36 2 2 2 2 2 2 0 0 0 
0 0 0 0 0 0 0 0 0 0 0 0 0 0 0 0 0 0 0 0 0 4 4 4 22 22 22 43 43 43 42 42 42 31 31 31 29 29 29 29 29 29 36 36 36 51 51 51 
54 54 54 47 47 47 47 47 47 52 52 52 51 51 51 48 48 48 46 46 46 43 43 43 
41 41 41 45 45 45 48 48 48 48 48 48 43 43 43 42 42 42 41 41 41 41 41 41 
43 43 43 47 47 47 51 51 51 51 51 51 48 48 48 48 48 48 53 53 53 60 60 60 
66 66 66 72 72 72 74 74 74 78 78 78 85 85 85 90 90 90 88 88 88 98 98 98 
105 105 105 76 76 76 57 57 57 80 80 80 105 105 105 113 113 113 99 99 99 52 52 52 
48 48 48 69 69 69 60 60 60 78 78 78 62 62 62 11 11 11 3 3 3 0 0 0 
0 0 0 0 0 0 0 0 0 0 0 0 0 0 0 0 0 0 0 0 0 14 14 14 33 33 33 39 39 39 38 38 38 34 34 34 32 32 32 30 30 30 31 31 31 45 45 45 
52 52 52 48 48 48 47 47 47 52 52 52 52 52 52 49 49 49 47 47 47 45 45 45 
41 41 41 44 44 44 47 47 47 48 48 48 45 45 45 43 43 43 42 42 42 42 42 42 
42 42 42 43 43 43 47 47 47 51 51 51 55 55 55 54 54 54 51 51 51 55 55 55 
61 61 61 69 69 69 72 72 72 77 77 77 82 82 82 86 86 86 84 84 84 94 94 94 
106 106 106 85 85 85 59 59 59 66 66 66 90 90 90 97 97 97 108 108 108 77 77 77 
45 45 45 55 55 55 60 60 60 63 63 63 74 74 74 38 38 38 3 3 3 0 0 0 
0 0 0 0 0 0 0 0 0 0 0 0 0 0 0 0 0 0 0 0 0 27 27 27 37 37 37 34 34 34 36 36 36 36 36 36 34 34 34 32 32 32 27 27 27 38 38 38 
49 49 49 50 50 50 48 48 48 52 52 52 54 54 54 51 51 51 48 48 48 46 46 46 
42 42 42 43 43 43 46 46 46 49 49 49 47 47 47 46 46 46 44 44 44 42 42 42 
42 42 42 42 42 42 44 44 44 49 49 49 57 57 57 63 63 63 54 54 54 51 51 51 
57 57 57 65 65 65 70 70 70 76 76 76 80 80 80 82 82 82 81 81 81 88 88 88 
104 104 104 96 96 96 68 68 68 58 58 58 79 79 79 79 79 79 95 95 95 95 95 95 
62 62 62 44 44 44 56 56 56 58 58 58 73 73 73 63 63 63 18 18 18 0 0 0 
0 0 0 0 0 0 0 0 0 0 0 0 0 0 0 0 0 0 0 0 0 35 35 35 37 37 37 35 35 35 33 33 33 35 35 35 34 34 34 34 34 34 26 26 26 33 33 33 
46 46 46 51 51 51 48 48 48 51 51 51 54 54 54 52 52 52 49 49 49 47 47 47 
44 44 44 43 43 43 45 45 45 49 49 49 50 50 50 47 47 47 45 45 45 43 43 43 
43 43 43 44 44 44 45 45 45 46 46 46 52 52 52 68 68 68 65 65 65 57 57 57 
51 51 51 60 60 60 67 67 67 74 74 74 76 76 76 80 80 80 80 80 80 84 84 84 
102 102 102 102 102 102 80 80 80 60 60 60 76 76 76 68 68 68 69 69 69 91 91 91 
82 82 82 52 52 52 47 47 47 59 59 59 60 60 60 77 77 77 49 49 49 3 3 3 
0 0 0 1 1 1 0 0 0 0 0 0 0 0 0 0 0 0 0 0 0 32 32 32 36 36 36 35 35 35 34 34 34 36 36 36 33 33 33 30 30 30 28 28 28 26 26 26 
38 38 38 49 49 49 47 47 47 49 49 49 54 54 54 54 54 54 50 50 50 46 46 46 
47 47 47 47 47 47 47 47 47 48 48 48 50 50 50 49 49 49 46 46 46 45 45 45 
43 43 43 44 44 44 44 44 44 44 44 44 46 46 46 60 60 60 76 76 76 72 72 72 
59 59 59 53 53 53 56 56 56 65 65 65 69 69 69 73 73 73 72 72 72 79 79 79 
96 96 96 101 101 101 90 90 90 66 66 66 78 78 78 72 72 72 52 52 52 72 72 72 
93 93 93 70 70 70 46 46 46 53 53 53 56 56 56 67 67 67 82 82 82 31 31 31 
2 2 2 4 4 4 0 0 0 0 0 0 0 0 0 0 0 0 0 0 0 31 31 31 35 35 35 35 35 35 35 35 35 33 33 33 33 33 33 32 32 32 29 29 29 26 26 26 
36 36 36 47 47 47 49 49 49 50 50 50 53 53 53 53 53 53 50 50 50 47 47 47 
47 47 47 47 47 47 47 47 47 47 47 47 50 50 50 49 49 49 47 47 47 45 45 45 
44 44 44 43 43 43 43 43 43 43 43 43 44 44 44 48 48 48 65 65 65 81 81 81 
69 69 69 55 55 55 54 54 54 61 61 61 68 68 68 71 71 71 70 70 70 74 74 74 
89 89 89 97 97 97 91 91 91 74 74 74 75 75 75 76 76 76 48 48 48 55 55 55 
87 87 87 81 81 81 54 54 54 52 52 52 57 57 57 60 60 60 91 91 91 55 55 55 
7 7 7 0 0 0 1 1 1 0 0 0 0 0 0 0 0 0 0 0 0 31 31 31 35 35 35 35 35 35 35 35 35 32 32 32 33 33 33 33 33 33 30 30 30 28 28 28 
33 33 33 44 44 44 51 51 51 50 50 50 52 52 52 53 53 53 51 51 51 48 48 48 
47 47 47 47 47 47 47 47 47 47 47 47 48 48 48 48 48 48 47 47 47 46 46 46 
44 44 44 43 43 43 43 43 43 43 43 43 44 44 44 42 42 42 49 49 49 75 75 75 
82 82 82 63 63 63 53 53 53 55 55 55 63 63 63 66 66 66 65 65 65 68 68 68 
81 81 81 94 94 94 94 94 94 81 81 81 75 75 75 80 80 80 53 53 53 41 41 41 
71 71 71 84 84 84 62 62 62 53 53 53 60 60 60 54 54 54 88 88 88 78 78 78 
28 28 28 1 1 1 1 1 1 0 0 0 0 0 0 0 0 0 0 0 0 30 30 30 35 35 35 36 36 36 37 37 37 33 33 33 31 31 31 31 31 31 32 32 32 30 30 30 
32 32 32 42 42 42 52 52 52 51 51 51 51 51 51 54 54 54 52 52 52 50 50 50 
48 48 48 48 48 48 48 48 48 48 48 48 48 48 48 48 48 48 48 48 48 48 48 48 
46 46 46 44 44 44 44 44 44 44 44 44 45 45 45 45 45 45 46 46 46 62 62 62 
86 86 86 72 72 72 54 54 54 50 50 50 58 58 58 62 62 62 63 63 63 65 65 65 
76 76 76 92 92 92 95 95 95 86 86 86 76 76 76 85 85 85 66 66 66 37 37 37 
54 54 54 78 78 78 67 67 67 54 54 54 62 62 62 48 48 48 79 79 79 88 88 88 
53 53 53 6 6 6 0 0 0 0 0 0 0 0 0 0 0 0 0 0 0 27 27 27 34 34 34 34 34 34 34 34 34 37 37 37 34 34 34 32 32 32 33 33 33 32 32 32 
30 30 30 38 38 38 51 51 51 54 54 54 51 51 51 49 49 49 50 50 50 51 51 51 
45 45 45 45 45 45 45 45 45 45 45 45 46 46 46 46 46 46 46 46 46 46 46 46 
46 46 46 45 45 45 44 44 44 44 44 44 44 44 44 43 43 43 43 43 43 48 48 48 
72 72 72 84 84 84 63 63 63 54 54 54 53 53 53 57 57 57 64 64 64 63 63 63 
66 66 66 82 82 82 96 96 96 97 97 97 73 73 73 79 79 79 78 78 78 42 42 42 
40 40 40 72 72 72 67 67 67 53 53 53 58 58 58 50 50 50 78 78 78 75 75 75 
73 73 73 31 31 31 3 3 3 0 0 0 0 0 0 0 0 0 0 0 0 29 29 29 31 31 31 31 31 31 33 33 33 34 34 34 35 35 35 34 34 34 32 32 32 31 31 31 
31 31 31 36 36 36 48 48 48 52 52 52 49 49 49 47 47 47 48 48 48 50 50 50 
44 44 44 43 43 43 43 43 43 43 43 43 45 45 45 45 45 45 45 45 45 45 45 45 
45 45 45 45 45 45 44 44 44 44 44 44 45 45 45 43 43 43 41 41 41 44 44 44 
62 62 62 87 87 87 72 72 72 55 55 55 49 49 49 53 53 53 61 61 61 61 61 61 
62 62 62 73 73 73 91 91 91 97 97 97 72 72 72 79 79 79 89 89 89 59 59 59 
36 36 36 56 56 56 66 66 66 52 52 52 56 56 56 53 53 53 68 68 68 59 59 59 
72 72 72 46 46 46 9 9 9 0 0 0 0 0 0 0 0 0 0 0 0 29 29 29 34 34 34 33 33 33 30 30 30 28 28 28 31 31 31 34 34 34 34 34 34 33 33 33 
32 32 32 35 35 35 43 43 43 49 49 49 46 46 46 44 44 44 45 45 45 47 47 47 
42 42 42 42 42 42 42 42 42 42 42 42 44 44 44 45 45 45 45 45 45 45 45 45 
44 44 44 44 44 44 44 44 44 45 45 45 46 46 46 43 43 43 40 40 40 39 39 39 
48 48 48 80 80 80 82 82 82 59 59 59 47 47 47 50 50 50 57 57 57 58 58 58 
57 57 57 61 61 61 72 72 72 77 77 77 46 46 46 44 44 44 51 51 51 50 50 50 
32 32 32 37 37 37 63 63 63 57 57 57 54 54 54 53 53 53 55 55 55 49 49 49 
67 67 67 50 50 50 25 25 25 1 1 1 0 0 0 0 0 0 0 0 0 28 28 28 32 32 32 33 33 33 33 33 33 31 31 31 30 30 30 30 30 30 32 32 32 33 33 33 
33 33 33 34 34 34 40 40 40 47 47 47 44 44 44 42 42 42 43 43 43 44 44 44 
41 41 41 41 41 41 41 41 41 41 41 41 44 44 44 45 45 45 45 45 45 45 45 45 
44 44 44 43 43 43 44 44 44 45 45 45 47 47 47 44 44 44 39 39 39 36 36 36 
38 38 38 69 69 69 88 88 88 66 66 66 50 50 50 48 48 48 54 54 54 55 55 55 
54 54 54 54 54 54 59 59 59 66 66 66 42 42 42 32 32 32 34 34 34 42 42 42 
34 34 34 26 26 26 53 53 53 68 68 68 59 59 59 50 50 50 43 43 43 50 50 50 
64 64 64 43 43 43 39 39 39 1 1 1 0 0 0 0 0 0 0 0 0 27 27 27 31 31 31 31 31 31 32 32 32 36 36 36 36 36 36 35 35 35 31 31 31 32 32 32 
36 36 36 36 36 36 37 37 37 43 43 43 44 44 44 40 40 40 36 36 36 35 35 35 
35 35 35 34 34 34 37 37 37 40 40 40 43 43 43 43 43 43 43 43 43 43 43 43 
41 41 41 40 40 40 43 43 43 45 45 45 46 46 46 43 43 43 39 39 39 36 36 36 
36 36 36 56 56 56 82 82 82 74 74 74 53 53 53 46 46 46 49 49 49 53 53 53 
52 52 52 52 52 52 55 55 55 61 61 61 59 59 59 59 59 59 77 77 77 69 69 69 
43 43 43 27 27 27 36 36 36 69 69 69 66 66 66 38 38 38 37 37 37 48 48 48 
62 62 62 32 32 32 41 41 41 20 20 20 1 1 1 1 1 1 2 2 2 30 30 30 34 34 34 34 34 34 34 34 34 35 35 35 36 36 36 36 36 36 35 35 35 34 34 34 
36 36 36 37 37 37 36 36 36 42 42 42 44 44 44 40 40 40 35 35 35 33 33 33 
33 33 33 33 33 33 35 35 35 39 39 39 41 41 41 40 40 40 40 40 40 40 40 40 
39 39 39 39 39 39 41 41 41 44 44 44 45 45 45 42 42 42 39 39 39 37 37 37 
36 36 36 47 47 47 76 76 76 79 79 79 57 57 57 45 45 45 46 46 46 51 51 51 
53 53 53 54 54 54 54 54 54 57 57 57 64 64 64 72 72 72 80 80 80 73 73 73 
48 48 48 29 29 29 29 29 29 61 61 61 71 71 71 39 39 39 30 30 30 49 49 49 
62 62 62 33 33 33 34 34 34 24 24 24 3 3 3 0 0 0 1 1 1 31 31 31 36 36 36 36 36 36 36 36 36 32 32 32 32 32 32 33 33 33 35 35 35 34 34 34 
36 36 36 37 37 37 36 36 36 42 42 42 44 44 44 40 40 40 35 35 35 33 33 33 
32 32 32 31 31 31 34 34 34 38 38 38 38 38 38 37 37 37 37 37 37 37 37 37 
37 37 37 38 38 38 40 40 40 42 42 42 44 44 44 42 42 42 41 41 41 37 37 37 
35 35 35 40 40 40 64 64 64 81 81 81 66 66 66 47 47 47 44 44 44 47 47 47 
52 52 52 54 54 54 56 56 56 58 58 58 63 63 63 67 67 67 76 76 76 75 75 75 
55 55 55 31 31 31 24 24 24 46 46 46 73 73 73 43 43 43 26 26 26 52 52 52 
60 60 60 37 37 37 26 26 26 25 25 25 10 10 10 0 0 0 1 1 1 31 31 31 35 35 35 35 35 35 35 35 35 29 29 29 26 26 26 27 27 27 29 29 29 33 33 33 
36 36 36 37 37 37 36 36 36 42 42 42 44 44 44 40 40 40 35 35 35 33 33 33 
30 30 30 30 30 30 32 32 32 37 37 37 36 36 36 35 35 35 35 35 35 35 35 35 
35 35 35 36 36 36 39 39 39 41 41 41 42 42 42 41 41 41 41 41 41 38 38 38 
34 34 34 38 38 38 52 52 52 76 76 76 74 74 74 53 53 53 45 45 45 45 45 45 
49 49 49 51 51 51 51 51 51 55 55 55 59 59 59 62 62 62 73 73 73 76 76 76 
60 60 60 33 33 33 24 24 24 33 33 33 68 68 68 47 47 47 27 27 27 55 55 55 
55 55 55 37 37 37 21 21 21 27 27 27 18 18 18 1 1 1 1 1 1 27 27 27 28 28 28 26 26 26 23 23 23 20 20 20 20 20 20 21 21 21 22 22 22 26 26 26 
29 29 29 33 33 33 34 34 34 35 35 35 35 35 35 33 33 33 31 31 31 30 30 30 
27 27 27 27 27 27 29 29 29 30 30 30 33 33 33 31 31 31 30 30 30 32 32 32 
36 36 36 35 35 35 37 37 37 42 42 42 42 42 42 39 39 39 39 39 39 37 37 37 
34 34 34 31 31 31 42 42 42 63 63 63 71 71 71 59 59 59 45 45 45 41 41 41 
45 45 45 46 46 46 46 46 46 46 46 46 45 45 45 52 52 52 63 63 63 69 69 69 
61 61 61 40 40 40 25 25 25 27 27 27 55 55 55 62 62 62 36 36 36 48 48 48 
45 45 45 32 32 32 19 19 19 29 29 29 25 25 25 1 1 1 1 1 1 21 21 21 23 23 23 21 21 21 19 19 19 22 22 22 23 23 23 25 25 25 25 25 25 27 27 27 
28 28 28 31 31 31 31 31 31 32 32 32 33 33 33 32 32 32 31 31 31 30 30 30 
26 26 26 27 27 27 28 28 28 29 29 29 32 32 32 30 30 30 29 29 29 30 30 30 
35 35 35 35 35 35 38 38 38 43 43 43 42 42 42 38 38 38 39 39 39 37 37 37 
34 34 34 29 29 29 39 39 39 57 57 57 68 68 68 62 62 62 49 49 49 41 41 41 
43 43 43 45 45 45 45 45 45 44 44 44 42 42 42 47 47 47 59 59 59 66 66 66 
61 61 61 43 43 43 26 26 26 22 22 22 41 41 41 67 67 67 52 52 52 43 43 43 
38 38 38 28 28 28 20 20 20 32 32 32 28 28 28 2 2 2 0 0 0 17 17 17 20 20 20 21 21 21 22 22 22 27 27 27 29 29 29 30 30 30 31 31 31 31 31 31 
31 31 31 30 30 30 30 30 30 32 32 32 33 33 33 32 32 32 31 31 31 30 30 30 
26 26 26 27 27 27 28 28 28 29 29 29 30 30 30 28 28 28 27 27 27 29 29 29 
34 34 34 35 35 35 39 39 39 43 43 43 41 41 41 38 38 38 39 39 39 37 37 37 
34 34 34 27 27 27 35 35 35 49 49 49 62 62 62 64 64 64 53 53 53 42 42 42 
41 41 41 44 44 44 45 45 45 45 45 45 40 40 40 42 42 42 54 54 54 63 63 63 
60 60 60 45 45 45 28 28 28 20 20 20 27 27 27 57 57 57 58 58 58 36 36 36 
30 30 30 25 25 25 25 25 25 39 39 39 42 42 42 8 8 8 1 1 1 18 18 18 24 24 24 27 27 27 30 30 30 32 32 32 33 33 33 34 34 34 36 36 36 38 38 38 
36 36 36 33 33 33 32 32 32 33 33 33 33 33 33 32 32 32 31 31 31 30 30 30 
26 26 26 27 27 27 28 28 28 29 29 29 30 30 30 27 27 27 26 26 26 28 28 28 
33 33 33 35 35 35 40 40 40 43 43 43 40 40 40 38 38 38 39 39 39 37 37 37 
33 33 33 26 26 26 33 33 33 43 43 43 59 59 59 66 66 66 58 58 58 44 44 44 
39 39 39 43 43 43 46 46 46 45 45 45 39 39 39 38 38 38 49 49 49 60 60 60 
60 60 60 47 47 47 30 30 30 23 23 23 23 23 23 39 39 39 46 46 46 28 28 28 
23 23 23 25 25 25 31 31 31 47 47 47 64 64 64 23 23 23 2 2 2 26 26 26 33 33 33 34 34 34 34 34 34 33 33 33 33 33 33 35 35 35 39 39 39 39 39 39 
39 39 39 39 39 39 34 34 34 30 30 30 29 29 29 29 29 29 28 28 28 28 28 28 
25 25 25 25 25 25 25 25 25 25 25 25 28 28 28 26 26 26 26 26 26 28 28 28 
33 33 33 38 38 38 43 43 43 42 42 42 36 36 36 35 35 35 36 36 36 36 36 36 
33 33 33 28 28 28 29 29 29 37 37 37 51 51 51 64 64 64 61 61 61 51 51 51 
43 43 43 41 41 41 45 45 45 48 48 48 39 39 39 34 34 34 44 44 44 58 58 58 
60 60 60 47 47 47 33 33 33 23 23 23 21 21 21 27 27 27 31 31 31 20 20 20 
21 21 21 25 25 25 31 31 31 54 54 54 84 84 84 41 41 41 3 3 3 30 30 30 33 33 33 31 31 31 31 31 31 32 32 32 32 32 32 35 35 35 40 40 40 37 37 37 
37 37 37 39 39 39 33 33 33 27 27 27 26 26 26 27 27 27 27 27 27 27 27 27 
24 24 24 24 24 24 24 24 24 24 24 24 26 26 26 25 25 25 26 26 26 28 28 28 
33 33 33 39 39 39 43 43 43 40 40 40 35 35 35 33 33 33 34 34 34 34 34 34 
32 32 32 28 28 28 28 28 28 35 35 35 46 46 46 59 59 59 62 62 62 54 54 54 
46 46 46 40 40 40 44 44 44 48 48 48 41 41 41 34 34 34 39 39 39 54 54 54 
59 59 59 49 49 49 35 35 35 21 21 21 20 20 20 25 25 25 28 28 28 21 21 21 
22 22 22 23 23 23 29 29 29 65 65 65 100 100 100 69 69 69 12 12 12 38 38 38 40 40 40 38 38 38 39 39 39 38 38 38 35 35 35 33 33 33 35 35 35 31 31 31 
32 32 32 34 34 34 30 30 30 24 24 24 24 24 24 25 25 25 27 27 27 27 27 27 
24 24 24 24 24 24 24 24 24 24 24 24 25 25 25 24 24 24 24 24 24 27 27 27 
32 32 32 39 39 39 43 43 43 40 40 40 35 35 35 33 33 33 34 34 34 34 34 34 
32 32 32 27 27 27 27 27 27 31 31 31 41 41 41 55 55 55 60 60 60 55 55 55 
48 48 48 42 42 42 43 43 43 47 47 47 43 43 43 34 34 34 35 35 35 48 48 48 
55 55 55 50 50 50 37 37 37 22 22 22 19 19 19 24 24 24 29 29 29 23 23 23 
22 22 22 20 20 20 23 23 23 57 57 57 93 93 93 90 90 90 31 31 31 35 35 35 42 42 42 43 43 43 43 43 43 42 42 42 37 37 37 33 33 33 32 32 32 27 27 27 
28 28 28 31 31 31 27 27 27 22 22 22 22 22 22 24 24 24 26 26 26 27 27 27 
24 24 24 24 24 24 24 24 24 24 24 24 24 24 24 22 22 22 23 23 23 25 25 25 
32 32 32 39 39 39 43 43 43 40 40 40 35 35 35 33 33 33 34 34 34 34 34 34 
32 32 32 27 27 27 25 25 25 28 28 28 37 37 37 51 51 51 58 58 58 57 57 57 
49 49 49 42 42 42 41 41 41 46 46 46 44 44 44 34 34 34 33 33 33 43 43 43 
50 50 50 49 49 49 38 38 38 23 23 23 20 20 20 23 23 23 26 26 26 18 18 18 
17 17 17 15 15 15 15 15 15 34 34 34 53 53 53 69 69 69 43 43 43 