P3
# Created by IrfanView
45 45
255
24 24 24 32 32 32 41 41 41 48 48 48 45 45 45 44 44 44 52 52 52 61 61 61 59 59 59 
47 47 47 37 37 37 27 27 27 23 23 23 27 27 27 31 31 31 35 35 35 46 46 46 
35 35 35 32 32 32 54 54 54 53 53 53 36 36 36 28 28 28 24 24 24 24 24 24 
22 22 22 22 22 22 42 42 42 42 42 42 53 53 53 53 53 53 60 60 60 48 48 48 
29 29 29 22 22 22 21 21 21 42 42 42 44 44 44 50 50 50 41 41 41 24 24 24 
22 22 22 25 25 25 27 27 27 33 33 33 24 24 24 24 24 24 28 28 28 37 37 37 42 42 42 46 46 46 48 48 48 42 42 42 43 43 43 
45 45 45 36 36 36 32 32 32 28 28 28 29 29 29 40 40 40 49 49 49 42 42 42 
34 34 34 51 51 51 84 84 84 97 97 97 62 62 62 36 36 36 27 27 27 26 26 26 
22 22 22 25 25 25 31 31 31 51 51 51 55 55 55 61 61 61 57 57 57 48 48 48 
57 57 57 48 48 48 23 23 23 30 30 30 53 53 53 44 44 44 31 31 31 24 24 24 
24 24 24 27 27 27 45 45 45 39 39 39 26 26 26 26 26 26 29 29 29 35 35 35 43 43 43 49 49 49 43 43 43 33 33 33 32 32 32 
36 36 36 38 38 38 46 46 46 55 55 55 69 69 69 75 75 75 67 67 67 83 83 83 
82 82 82 113 113 113 119 119 119 104 104 104 82 82 82 54 54 54 37 37 37 33 33 33 
29 29 29 26 26 26 29 29 29 54 54 54 56 56 56 57 57 57 59 59 59 45 45 45 
37 37 37 41 41 41 32 32 32 33 33 33 57 57 57 58 58 58 38 38 38 28 28 28 
27 27 27 29 29 29 42 42 42 40 40 40 30 30 30 30 30 30 32 32 32 37 37 37 41 41 41 42 42 42 40 40 40 40 40 40 44 44 44 
37 37 37 35 35 35 38 38 38 45 45 45 50 50 50 66 66 66 113 113 113 130 130 130 
129 129 129 129 129 129 127 127 127 120 120 120 111 111 111 90 90 90 58 58 58 55 55 55 
36 36 36 34 34 34 34 34 34 40 40 40 49 49 49 73 73 73 52 52 52 42 42 42 
40 40 40 40 40 40 40 40 40 43 43 43 48 48 48 58 58 58 40 40 40 28 28 28 
24 24 24 28 28 28 41 41 41 43 43 43 28 28 28 28 28 28 41 41 41 43 43 43 41 41 41 34 34 34 36 36 36 45 45 45 60 60 60 
84 84 84 83 83 83 76 76 76 80 80 80 99 99 99 117 117 117 125 125 125 131 131 131 
132 132 132 135 135 135 135 135 135 134 134 134 132 132 132 107 107 107 83 83 83 68 68 68 
70 70 70 48 48 48 54 54 54 66 66 66 64 64 64 73 73 73 67 67 67 44 44 44 
33 33 33 35 35 35 48 48 48 70 70 70 62 62 62 71 71 71 59 59 59 48 48 48 
36 36 36 35 35 35 44 44 44 34 34 34 32 32 32 33 33 33 45 45 45 38 38 38 33 33 33 29 29 29 32 32 32 56 56 56 81 81 81 
101 101 101 108 108 108 116 116 116 115 115 115 116 116 116 121 121 121 125 125 125 130 130 130 
131 131 131 135 135 135 136 136 136 140 140 140 142 142 142 123 123 123 137 137 137 144 144 144 
114 114 114 91 91 91 92 92 92 87 87 87 73 73 73 64 64 64 76 76 76 56 56 56 
30 30 30 49 49 49 95 95 95 123 123 123 105 105 105 88 88 88 84 84 84 59 59 59 
47 47 47 41 41 41 31 31 31 39 39 39 45 45 45 38 38 38 38 38 38 35 35 35 27 27 27 29 29 29 41 41 41 68 68 68 93 93 93 
103 103 103 112 112 112 114 114 114 115 115 115 116 116 116 121 121 121 125 125 125 128 128 128 
129 129 129 133 133 133 135 135 135 141 141 141 147 147 147 118 118 118 138 138 138 145 145 145 
132 132 132 139 139 139 124 124 124 73 73 73 86 86 86 56 56 56 58 58 58 62 62 62 
47 47 47 63 63 63 93 93 93 87 87 87 99 99 99 122 122 122 112 112 112 96 96 96 
75 75 75 60 60 60 69 69 69 44 44 44 48 48 48 39 39 39 32 32 32 27 27 27 29 29 29 35 35 35 52 52 52 74 74 74 92 92 92 
102 102 102 110 110 110 113 113 113 117 117 117 119 119 119 120 120 120 124 124 124 128 128 128 
133 133 133 132 132 132 136 136 136 144 144 144 145 145 145 135 135 135 130 130 130 133 133 133 
128 128 128 125 125 125 107 107 107 75 75 75 83 83 83 74 74 74 68 68 68 105 105 105 
113 113 113 90 90 90 92 92 92 118 118 118 129 129 129 123 123 123 110 110 110 94 94 94 
74 74 74 62 62 62 54 54 54 42 42 42 38 38 38 29 29 29 28 28 28 29 29 29 33 33 33 49 49 49 69 69 69 80 80 80 93 93 93 
105 105 105 111 111 111 115 115 115 118 118 118 121 121 121 122 122 122 126 126 126 130 130 130 
133 133 133 136 136 136 142 142 142 148 148 148 141 141 141 143 143 143 151 151 151 153 153 153 
153 153 153 152 152 152 140 140 140 114 114 114 93 93 93 63 63 63 96 96 96 137 137 137 
140 140 140 137 137 137 131 131 131 127 127 127 124 124 124 119 119 119 111 111 111 99 99 99 
84 84 84 64 64 64 50 50 50 42 42 42 33 33 33 30 30 30 38 38 38 33 33 33 45 45 45 68 68 68 75 75 75 85 85 85 100 100 100 
110 110 110 116 116 116 119 119 119 120 120 120 123 123 123 126 126 126 130 130 130 131 131 131 
135 135 135 141 141 141 143 143 143 144 144 144 137 137 137 143 143 143 150 150 150 153 153 153 
153 153 153 153 153 153 151 151 151 147 147 147 123 123 123 76 76 76 122 122 122 138 138 138 
137 137 137 133 133 133 129 129 129 123 123 123 122 122 122 117 117 117 112 112 112 104 104 104 
90 90 90 74 74 74 59 59 59 44 44 44 33 33 33 32 32 32 36 36 36 43 43 43 65 65 65 74 74 74 79 79 79 92 92 92 102 102 102 
115 115 115 121 121 121 123 123 123 123 123 123 125 125 125 128 128 128 132 132 132 134 134 134 
140 140 140 145 145 145 148 148 148 147 147 147 144 144 144 145 145 145 148 148 148 153 153 153 
153 153 153 155 155 155 156 156 156 157 157 157 148 148 148 141 141 141 142 142 142 138 138 138 
136 136 136 131 131 131 127 127 127 123 123 123 118 118 118 113 113 113 109 109 109 105 105 105 
91 91 91 78 78 78 56 56 56 47 47 47 29 29 29 32 32 32 33 33 33 46 46 46 72 72 72 72 72 72 72 72 72 74 74 74 77 77 77 
92 92 92 109 109 109 118 118 118 124 124 124 128 128 128 129 129 129 130 130 130 134 134 134 
136 136 136 143 143 143 146 146 146 149 149 149 147 147 147 147 147 147 153 153 153 153 153 153 
156 156 156 160 160 160 166 166 166 160 160 160 151 151 151 147 147 147 142 142 142 140 140 140 
135 135 135 128 128 128 129 129 129 124 124 124 118 118 118 111 111 111 107 107 107 106 106 106 
98 98 98 85 85 85 66 66 66 50 50 50 32 32 32 36 36 36 40 40 40 57 57 57 75 75 75 73 73 73 66 66 66 68 68 68 75 75 75 
86 86 86 89 89 89 92 92 92 102 102 102 118 118 118 123 123 123 128 128 128 129 129 129 
134 134 134 138 138 138 143 143 143 146 146 146 150 150 150 151 151 151 151 151 151 153 153 153 
155 155 155 153 153 153 155 155 155 154 154 154 149 149 149 143 143 143 140 140 140 140 140 140 
136 136 136 134 134 134 129 129 129 124 124 124 120 120 120 111 111 111 104 104 104 103 103 103 
102 102 102 91 91 91 76 76 76 62 62 62 34 34 34 34 34 34 41 41 41 64 64 64 76 76 76 83 83 83 77 77 77 76 76 76 94 94 94 
99 99 99 100 100 100 86 86 86 78 78 78 83 83 83 95 95 95 111 111 111 124 124 124 
126 126 126 131 131 131 136 136 136 137 137 137 141 141 141 146 146 146 145 145 145 143 143 143 
143 143 143 142 142 142 144 144 144 149 149 149 147 147 147 143 143 143 142 142 142 145 145 145 
142 142 142 139 139 139 132 132 132 127 127 127 120 120 120 111 111 111 101 101 101 100 100 100 
104 104 104 105 105 105 94 94 94 74 74 74 34 34 34 38 38 38 41 41 41 66 66 66 80 80 80 90 90 90 82 82 82 82 82 82 99 99 99 
105 105 105 112 112 112 115 115 115 100 100 100 87 87 87 86 86 86 98 98 98 113 113 113 
118 118 118 124 124 124 127 127 127 133 133 133 137 137 137 135 135 135 134 134 134 133 133 133 
133 133 133 128 128 128 126 126 126 126 126 126 128 128 128 126 126 126 125 125 125 129 129 129 
127 127 127 118 118 118 114 114 114 117 117 117 117 117 117 113 113 113 103 103 103 100 100 100 
102 102 102 104 104 104 103 103 103 91 91 91 41 41 41 40 40 40 45 45 45 67 67 67 88 88 88 97 97 97 83 83 83 76 76 76 68 68 68 
65 65 65 84 84 84 63 63 63 81 81 81 75 75 75 88 88 88 91 91 91 96 96 96 
108 108 108 118 118 118 124 124 124 131 131 131 138 138 138 135 135 135 130 130 130 127 127 127 
121 121 121 106 106 106 102 102 102 91 91 91 86 86 86 86 86 86 92 92 92 104 104 104 
108 108 108 106 106 106 103 103 103 97 97 97 96 96 96 103 103 103 102 102 102 100 100 100 
103 103 103 106 106 106 103 103 103 90 90 90 61 61 61 46 46 46 48 48 48 69 69 69 92 92 92 105 105 105 96 96 96 82 82 82 74 74 74 
88 88 88 113 113 113 69 69 69 57 57 57 70 70 70 133 133 133 104 104 104 89 89 89 
90 90 90 110 110 110 123 123 123 137 137 137 148 148 148 139 139 139 127 127 127 119 119 119 
112 112 112 101 101 101 97 97 97 94 94 94 92 92 92 95 95 95 107 107 107 115 115 115 
117 117 117 108 108 108 107 107 107 101 101 101 88 88 88 92 92 92 102 102 102 104 104 104 
105 105 105 105 105 105 104 104 104 94 94 94 75 75 75 40 40 40 50 50 50 73 73 73 92 92 92 101 101 101 99 99 99 91 91 91 84 84 84 
90 90 90 98 98 98 105 105 105 105 105 105 120 120 120 119 119 119 110 110 110 114 114 114 
104 104 104 100 100 100 123 123 123 140 140 140 147 147 147 132 132 132 118 118 118 103 103 103 
99 99 99 96 96 96 99 99 99 109 109 109 123 123 123 78 78 78 95 95 95 94 94 94 
108 108 108 111 111 111 109 109 109 104 104 104 99 99 99 101 101 101 108 108 108 108 108 108 
104 104 104 102 102 102 106 106 106 101 101 101 72 72 72 43 43 43 59 59 59 76 76 76 93 93 93 100 100 100 100 100 100 101 101 101 95 95 95 
92 92 92 103 103 103 108 108 108 115 115 115 116 116 116 117 117 117 117 117 117 121 121 121 
93 93 93 103 103 103 124 124 124 141 141 141 137 137 137 122 122 122 108 108 108 99 99 99 
121 121 121 111 111 111 120 120 120 127 127 127 146 146 146 75 75 75 68 68 68 61 61 61 
102 102 102 90 90 90 89 89 89 93 93 93 92 92 92 98 98 98 110 110 110 109 109 109 
103 103 103 105 105 105 108 108 108 100 100 100 74 74 74 45 45 45 63 63 63 82 82 82 95 95 95 100 100 100 102 102 102 106 106 106 107 107 107 
101 101 101 101 101 101 99 99 99 105 105 105 102 102 102 103 103 103 102 102 102 91 91 91 
84 84 84 106 106 106 122 122 122 135 135 135 127 127 127 116 116 116 104 104 104 103 103 103 
112 112 112 113 113 113 111 111 111 111 111 111 118 118 118 114 114 114 101 101 101 106 106 106 
113 113 113 107 107 107 96 96 96 95 95 95 95 95 95 106 106 106 114 114 114 116 116 116 
111 111 111 105 105 105 106 106 106 98 98 98 70 70 70 47 47 47 65 65 65 84 84 84 98 98 98 105 105 105 103 103 103 109 109 109 112 112 112 
112 112 112 106 106 106 101 101 101 103 103 103 104 104 104 108 108 108 93 93 93 84 84 84 
91 91 91 108 108 108 122 122 122 130 130 130 122 122 122 114 114 114 106 106 106 101 101 101 
109 109 109 111 111 111 107 107 107 105 105 105 113 113 113 118 118 118 119 119 119 120 120 120 
114 114 114 106 106 106 101 101 101 108 108 108 113 113 113 119 119 119 122 122 122 119 119 119 
111 111 111 106 106 106 101 101 101 95 95 95 65 65 65 44 44 44 64 64 64 84 84 84 97 97 97 106 106 106 107 107 107 111 111 111 113 113 113 
117 117 117 113 113 113 110 110 110 113 113 113 119 119 119 112 112 112 86 86 86 82 82 82 
96 96 96 113 113 113 123 123 123 124 124 124 118 118 118 109 109 109 108 108 108 104 104 104 
109 109 109 119 119 119 122 122 122 114 114 114 108 108 108 107 107 107 109 109 109 109 109 109 
109 109 109 111 111 111 115 115 115 121 121 121 121 121 121 122 122 122 122 122 122 117 117 117 
112 112 112 105 105 105 101 101 101 97 97 97 68 68 68 44 44 44 66 66 66 87 87 87 99 99 99 106 106 106 108 108 108 110 110 110 115 115 115 
119 119 119 116 116 116 120 120 120 123 123 123 127 127 127 108 108 108 82 82 82 84 84 84 
104 104 104 118 118 118 122 122 122 121 121 121 114 114 114 107 107 107 106 106 106 109 109 109 
115 115 115 126 126 126 130 130 130 124 124 124 127 127 127 125 125 125 126 126 126 124 124 124 
124 124 124 124 124 124 121 121 121 123 123 123 121 121 121 122 122 122 122 122 122 119 119 119 
112 112 112 102 102 102 98 98 98 97 97 97 68 68 68 49 49 49 65 65 65 87 87 87 96 96 96 102 102 102 108 108 108 112 112 112 118 118 118 
121 121 121 122 122 122 127 127 127 133 133 133 133 133 133 107 107 107 79 79 79 97 97 97 
112 112 112 126 126 126 136 136 136 127 127 127 117 117 117 107 107 107 101 101 101 108 108 108 
118 118 118 138 138 138 138 138 138 134 134 134 132 132 132 133 133 133 137 137 137 136 136 136 
129 129 129 125 125 125 124 124 124 124 124 124 123 123 123 122 122 122 121 121 121 114 114 114 
110 110 110 100 100 100 97 97 97 99 99 99 56 56 56 46 46 46 64 64 64 87 87 87 97 97 97 104 104 104 109 109 109 115 115 115 124 124 124 
124 124 124 128 128 128 130 130 130 131 131 131 126 126 126 101 101 101 85 85 85 106 106 106 
121 121 121 133 133 133 136 136 136 128 128 128 119 119 119 108 108 108 97 97 97 100 100 100 
118 118 118 138 138 138 143 143 143 147 147 147 145 145 145 141 141 141 138 138 138 138 138 138 
133 133 133 128 128 128 123 123 123 124 124 124 124 124 124 125 125 125 119 119 119 112 112 112 
109 109 109 100 100 100 98 98 98 94 94 94 48 48 48 44 44 44 62 62 62 83 83 83 92 92 92 102 102 102 107 107 107 117 117 117 125 125 125 
129 129 129 133 133 133 135 135 135 131 131 131 119 119 119 85 85 85 88 88 88 113 113 113 
126 126 126 137 137 137 136 136 136 133 133 133 123 123 123 109 109 109 96 96 96 100 100 100 
108 108 108 125 125 125 135 135 135 147 147 147 152 152 152 148 148 148 143 143 143 141 141 141 
136 136 136 131 131 131 121 121 121 121 121 121 126 126 126 125 125 125 116 116 116 110 110 110 
107 107 107 101 101 101 97 97 97 88 88 88 49 49 49 42 42 42 59 59 59 71 71 71 84 84 84 101 101 101 112 112 112 117 117 117 125 125 125 
130 130 130 135 135 135 134 134 134 130 130 130 104 104 104 88 88 88 93 93 93 114 114 114 
133 133 133 154 154 154 165 165 165 140 140 140 122 122 122 108 108 108 102 102 102 104 104 104 
102 102 102 118 118 118 127 127 127 143 143 143 153 153 153 153 153 153 149 149 149 143 143 143 
137 137 137 131 131 131 125 125 125 123 123 123 125 125 125 122 122 122 110 110 110 111 111 111 
103 103 103 96 96 96 89 89 89 77 77 77 51 51 51 37 37 37 50 50 50 66 66 66 74 74 74 95 95 95 111 111 111 116 116 116 126 126 126 
128 128 128 134 134 134 136 136 136 131 131 131 101 101 101 90 90 90 93 93 93 116 116 116 
132 132 132 158 158 158 166 166 166 134 134 134 118 118 118 104 104 104 107 107 107 105 105 105 
102 102 102 123 123 123 121 121 121 133 133 133 145 145 145 147 147 147 145 145 145 140 140 140 
136 136 136 132 132 132 125 125 125 118 118 118 122 122 122 117 117 117 106 106 106 103 103 103 
99 99 99 90 90 90 76 76 76 66 66 66 48 48 48 40 40 40 45 45 45 61 61 61 69 69 69 90 90 90 106 106 106 115 115 115 121 121 121 
130 130 130 129 129 129 134 134 134 135 135 135 121 121 121 95 95 95 85 85 85 103 103 103 
122 122 122 129 129 129 133 133 133 122 122 122 106 106 106 98 98 98 100 100 100 95 95 95 
117 117 117 133 133 133 120 120 120 130 130 130 137 137 137 142 142 142 137 137 137 134 134 134 
132 132 132 126 126 126 121 121 121 114 114 114 111 111 111 114 114 114 104 104 104 98 98 98 
84 84 84 75 75 75 65 65 65 53 53 53 35 35 35 39 39 39 46 46 46 60 60 60 73 73 73 76 76 76 97 97 97 110 110 110 118 118 118 
125 125 125 127 127 127 130 130 130 131 131 131 124 124 124 115 115 115 97 97 97 85 85 85 
97 97 97 106 106 106 107 107 107 100 100 100 101 101 101 102 102 102 107 107 107 123 123 123 
139 139 139 139 139 139 126 126 126 129 129 129 137 137 137 140 140 140 138 138 138 135 135 135 
129 129 129 122 122 122 117 117 117 107 107 107 107 107 107 103 103 103 99 99 99 81 81 81 
73 73 73 58 58 58 52 52 52 40 40 40 27 27 27 34 34 34 40 40 40 53 53 53 62 62 62 72 72 72 98 98 98 111 111 111 116 116 116 
116 116 116 111 111 111 114 114 114 115 115 115 106 106 106 84 84 84 79 79 79 82 82 82 
93 93 93 114 114 114 111 111 111 117 117 117 106 106 106 100 100 100 104 104 104 117 117 117 
124 124 124 135 135 135 135 135 135 131 131 131 137 137 137 137 137 137 131 131 131 130 130 130 
122 122 122 119 119 119 115 115 115 110 110 110 100 100 100 94 94 94 86 86 86 66 66 66 
60 60 60 45 45 45 41 41 41 33 33 33 24 24 24 29 29 29 36 36 36 47 47 47 50 50 50 63 63 63 93 93 93 115 115 115 119 119 119 
95 95 95 90 90 90 94 94 94 100 100 100 91 91 91 75 75 75 80 80 80 82 82 82 
94 94 94 114 114 114 116 116 116 101 101 101 91 91 91 86 86 86 88 88 88 86 86 86 
95 95 95 110 110 110 114 114 114 127 127 127 138 138 138 139 139 139 129 129 129 120 120 120 
108 108 108 114 114 114 97 97 97 101 101 101 95 95 95 83 83 83 79 79 79 64 64 64 
50 50 50 43 43 43 38 38 38 33 33 33 25 25 25 27 27 27 33 33 33 37 37 37 42 42 42 59 59 59 85 85 85 112 112 112 121 121 121 
79 79 79 79 79 79 86 86 86 100 100 100 92 92 92 88 88 88 100 100 100 93 93 93 
115 115 115 119 119 119 113 113 113 102 102 102 98 98 98 104 104 104 101 101 101 98 98 98 
95 95 95 99 99 99 91 91 91 110 110 110 135 135 135 135 135 135 123 123 123 111 111 111 
101 101 101 106 106 106 87 87 87 88 88 88 82 82 82 71 71 71 63 63 63 56 56 56 
41 41 41 38 38 38 37 37 37 30 30 30 27 27 27 27 27 27 34 34 34 35 35 35 42 42 42 52 52 52 75 75 75 95 95 95 94 94 94 
79 79 79 88 88 88 105 105 105 103 103 103 87 87 87 74 74 74 80 80 80 83 83 83 
92 92 92 100 100 100 106 106 106 102 102 102 93 93 93 91 91 91 96 96 96 104 104 104 
103 103 103 102 102 102 86 86 86 93 93 93 112 112 112 131 131 131 121 121 121 102 102 102 
103 103 103 92 92 92 85 85 85 77 77 77 70 70 70 56 56 56 55 55 55 45 45 45 
40 40 40 40 40 40 33 33 33 26 26 26 27 27 27 25 25 25 29 29 29 36 36 36 42 42 42 47 47 47 65 65 65 79 79 79 91 91 91 
100 100 100 121 121 121 130 130 130 123 123 123 100 100 100 85 85 85 83 83 83 86 86 86 
87 87 87 85 85 85 86 86 86 88 88 88 89 89 89 90 90 90 88 88 88 87 87 87 
96 96 96 100 100 100 98 98 98 91 91 91 89 89 89 113 113 113 123 123 123 114 114 114 
109 109 109 85 85 85 67 67 67 60 60 60 52 52 52 48 48 48 49 49 49 36 36 36 
34 34 34 31 31 31 27 27 27 24 24 24 26 26 26 27 27 27 29 29 29 36 36 36 39 39 39 47 47 47 58 58 58 71 71 71 87 87 87 
107 107 107 119 119 119 128 128 128 123 123 123 109 109 109 93 93 93 89 89 89 97 97 97 
111 111 111 113 113 113 108 108 108 111 111 111 112 112 112 100 100 100 99 99 99 104 104 104 
117 117 117 127 127 127 118 118 118 101 101 101 97 97 97 104 104 104 121 121 121 115 115 115 
91 91 91 76 76 76 64 64 64 52 52 52 41 41 41 44 44 44 39 39 39 33 33 33 
34 34 34 28 28 28 26 26 26 25 25 25 26 26 26 27 27 27 28 28 28 31 31 31 33 33 33 39 39 39 45 45 45 53 53 53 72 72 72 
87 87 87 96 96 96 116 116 116 121 121 121 116 116 116 110 110 110 97 97 97 93 93 93 
97 97 97 106 106 106 101 101 101 101 101 101 102 102 102 103 103 103 111 111 111 122 122 122 
133 133 133 133 133 133 135 135 135 118 118 118 110 110 110 102 102 102 108 108 108 103 103 103 
80 80 80 69 69 69 52 52 52 39 39 39 36 36 36 40 40 40 34 34 34 32 32 32 
32 32 32 24 24 24 26 26 26 23 23 23 26 26 26 25 25 25 55 55 55 35 35 35 29 29 29 34 34 34 36 36 36 39 39 39 50 50 50 
62 62 62 74 74 74 94 94 94 114 114 114 121 121 121 121 121 121 118 118 118 107 107 107 
102 102 102 101 101 101 102 102 102 103 103 103 109 109 109 117 117 117 129 129 129 134 134 134 
135 135 135 141 141 141 138 138 138 120 120 120 106 106 106 93 93 93 95 95 95 83 83 83 
72 72 72 56 56 56 53 53 53 38 38 38 34 34 34 39 39 39 34 34 34 32 32 32 
28 28 28 26 26 26 23 23 23 20 20 20 26 26 26 31 31 31 73 73 73 53 53 53 28 28 28 28 28 28 33 33 33 33 33 33 41 41 41 
43 43 43 51 51 51 73 73 73 100 100 100 116 116 116 124 124 124 128 128 128 118 118 118 
114 114 114 108 108 108 114 114 114 120 120 120 120 120 120 125 125 125 135 135 135 139 139 139 
136 136 136 136 136 136 128 128 128 107 107 107 89 89 89 75 75 75 67 67 67 73 73 73 
60 60 60 50 50 50 45 45 45 38 38 38 41 41 41 40 40 40 29 29 29 28 28 28 
24 24 24 23 23 23 21 21 21 22 22 22 25 25 25 36 36 36 66 66 66 59 59 59 33 33 33 31 31 31 28 28 28 27 27 27 31 31 31 
35 35 35 45 45 45 58 58 58 79 79 79 101 101 101 118 118 118 125 125 125 129 129 129 
132 132 132 123 123 123 127 127 127 133 133 133 141 141 141 142 142 142 141 141 141 138 138 138 
134 134 134 127 127 127 106 106 106 97 97 97 78 78 78 61 61 61 61 61 61 52 52 52 
42 42 42 44 44 44 37 37 37 36 36 36 36 36 36 28 28 28 23 23 23 26 26 26 
24 24 24 26 26 26 24 24 24 23 23 23 27 27 27 43 43 43 68 68 68 61 61 61 49 49 49 29 29 29 28 28 28 23 23 23 26 26 26 
32 32 32 41 41 41 47 47 47 66 66 66 73 73 73 90 90 90 107 107 107 119 119 119 
132 132 132 128 128 128 140 140 140 137 137 137 143 143 143 143 143 143 137 137 137 130 130 130 
117 117 117 99 99 99 80 80 80 66 66 66 63 63 63 45 45 45 43 43 43 45 45 45 
38 38 38 36 36 36 37 37 37 33 33 33 33 33 33 25 25 25 24 24 24 23 23 23 
25 25 25 31 31 31 24 24 24 25 25 25 26 26 26 49 49 49 71 71 71 67 67 67 67 67 67 45 45 45 30 30 30 27 27 27 27 27 27 
27 27 27 30 30 30 44 44 44 50 50 50 55 55 55 71 71 71 84 84 84 112 112 112 
119 119 119 126 126 126 127 127 127 131 131 131 138 138 138 131 131 131 116 116 116 99 99 99 
82 82 82 76 76 76 55 55 55 51 51 51 48 48 48 42 42 42 41 41 41 39 39 39 
38 38 38 32 32 32 30 30 30 29 29 29 28 28 28 25 25 25 25 25 25 24 24 24 
26 26 26 33 33 33 30 30 30 25 25 25 27 27 27 53 53 53 72 72 72 70 70 70 69 69 69 52 52 52 33 33 33 28 28 28 30 30 30 
26 26 26 26 26 26 39 39 39 43 43 43 50 50 50 59 59 59 71 71 71 93 93 93 
102 102 102 112 112 112 112 112 112 115 115 115 115 115 115 99 99 99 86 86 86 78 78 78 
58 58 58 64 64 64 44 44 44 42 42 42 44 44 44 40 40 40 36 36 36 39 39 39 
37 37 37 31 31 31 32 32 32 27 27 27 28 28 28 26 26 26 27 27 27 30 30 30 
36 36 36 44 44 44 32 32 32 25 25 25 26 26 26 53 53 53 73 73 73 72 72 72 70 70 70 64 64 64 51 51 51 33 33 33 30 30 30 
29 29 29 27 27 27 29 29 29 34 34 34 43 43 43 48 48 48 60 60 60 72 72 72 
85 85 85 92 92 92 90 90 90 100 100 100 91 91 91 78 78 78 66 66 66 51 51 51 
48 48 48 54 54 54 48 48 48 37 37 37 36 36 36 34 34 34 36 36 36 34 34 34 
26 26 26 32 32 32 32 32 32 27 27 27 27 27 27 27 27 27 32 32 32 44 44 44 
52 52 52 59 59 59 30 30 30 27 27 27 27 27 27 51 51 51 79 79 79 76 76 76 71 71 71 67 67 67 68 68 68 55 55 55 40 40 40 
33 33 33 30 30 30 30 30 30 33 33 33 37 37 37 41 41 41 45 45 45 55 55 55 
65 65 65 67 67 67 72 72 72 73 73 73 73 73 73 61 61 61 53 53 53 42 42 42 
43 43 43 46 46 46 40 40 40 33 33 33 34 34 34 32 32 32 35 35 35 36 36 36 
29 29 29 30 30 30 32 32 32 31 31 31 30 30 30 37 37 37 46 46 46 57 57 57 
63 63 63 64 64 64 26 26 26 27 27 27 