<?xml version="1.0" standalone="no"?>
<!DOCTYPE svg PUBLIC "-//W3C//DTD SVG 20010904//EN"
 "http://www.w3.org/TR/2001/REC-SVG-20010904/DTD/svg10.dtd">
<svg version="1.0" xmlns="http://www.w3.org/2000/svg"
 width="300.000000pt" height="249.000000pt" viewBox="0 0 300.000000 249.000000"
 preserveAspectRatio="xMidYMid meet">

<g transform="translate(0.000000,249.000000) scale(0.100000,-0.100000)"
fill="#000000" stroke="none">
<path d="M1489 2412 c-19 -26 -83 -112 -144 -190 -109 -140 -110 -142 -150
-142 -38 0 -405 36 -615 61 l-95 11 -169 -46 c-93 -25 -173 -49 -177 -53 -4
-5 -12 -82 -18 -173 -29 -453 -43 -702 -38 -713 3 -8 80 -29 186 -52 100 -22
181 -43 181 -47 0 -7 -76 -109 -326 -436 -64 -84 -114 -155 -111 -158 2 -3
182 -47 398 -100 377 -90 1252 -304 1409 -344 l75 -19 133 102 c183 140 291
223 553 427 124 96 255 198 291 225 37 28 67 52 67 55 1 6 -108 135 -304 360
-82 95 -181 210 -220 255 -38 46 -92 108 -118 138 l-48 55 8 149 8 148 -25 27
c-23 25 -34 28 -150 38 -69 6 -135 13 -147 16 -13 2 -96 90 -206 217 -102 117
-192 218 -200 225 -12 10 -20 4 -48 -36z m35 -109 c9 -32 39 -253 35 -257 -9
-8 -229 18 -229 27 0 12 172 246 182 246 4 1 9 -7 12 -16z m-1101 -279 c15 -3
32 -14 37 -24 14 -26 13 -83 -2 -98 -10 -10 -8 -16 6 -30 17 -16 17 -16 14 3
-2 15 3 20 22 21 35 0 50 11 50 38 0 12 12 33 26 45 l26 23 -7 -74 c-4 -40
-11 -77 -17 -83 -6 -7 -9 -2 -6 15 2 17 -2 26 -14 28 -14 3 -18 -3 -18 -26 0
-16 -2 -31 -5 -33 -4 -5 -337 40 -343 45 -1 2 1 35 4 75 5 52 11 71 21 71 11
0 14 -14 12 -62 l-3 -62 65 -12 c35 -7 77 -13 92 -13 l28 -1 -3 73 -3 72 -55
3 c-30 2 -59 8 -65 13 -10 10 66 6 138 -7z m121 6 c14 -5 26 -16 26 -25 0 -12
-8 -15 -35 -12 -42 5 -50 11 -42 32 7 18 16 19 51 5z m221 -40 c127 -15 127
-15 121 -58 -3 -21 -8 -68 -11 -105 -5 -45 -11 -67 -18 -64 -7 2 -10 19 -9 41
3 29 -2 44 -19 62 -12 13 -19 27 -16 31 4 3 7 1 7 -5 0 -7 9 -12 21 -12 16 0
20 5 17 27 -4 35 -56 53 -75 26 -19 -25 -16 -61 7 -80 11 -10 20 -24 20 -32 0
-11 -3 -10 -13 4 -17 23 -37 12 -37 -21 0 -13 -5 -24 -11 -24 -7 0 -9 26 -4
86 7 81 6 86 -11 82 -15 -2 -21 -16 -26 -62 -11 -85 -20 -83 -12 3 7 68 6 73
-12 69 -16 -3 -20 -16 -28 -81 -5 -50 -13 -77 -21 -77 -9 0 -10 11 -5 43 4 23
11 68 15 100 4 33 11 57 18 57 7 0 53 -5 102 -10z m211 -47 c10 -15 15 -16 25
-5 31 29 32 18 13 -135 -3 -24 -10 -43 -16 -43 -7 0 -8 27 -3 81 7 76 6 81
-11 77 -15 -3 -21 -18 -30 -76 -11 -73 -18 -91 -31 -78 -11 11 -5 117 7 131 6
7 8 25 4 39 -5 21 -3 26 11 26 10 0 24 -8 31 -17z m139 -20 c11 -14 16 -15 28
-4 12 10 32 10 92 2 88 -13 96 -16 89 -36 -4 -8 -10 -13 -14 -10 -20 12 -38
-9 -44 -53 -13 -89 -18 -112 -26 -107 -4 2 -5 15 -3 29 6 29 -12 42 -34 25
-13 -12 -15 -11 -11 6 3 14 11 19 26 18 24 -3 36 26 30 68 -3 21 -9 24 -43 24
l-40 0 -10 -67 c-15 -97 -28 -97 -20 0 7 78 6 84 -11 80 -15 -2 -21 -18 -29
-73 -8 -56 -14 -71 -29 -73 -17 -4 -18 1 -12 59 4 35 12 67 18 70 6 4 8 14 5
22 -3 8 0 20 6 26 15 15 18 14 32 -6z m349 -2 c17 -6 85 -17 150 -25 66 -9
122 -18 125 -22 3 -3 -1 -9 -9 -14 -10 -6 -2 -10 26 -12 l39 -3 -3 -59 c-2
-38 1 -62 9 -66 6 -4 13 -24 14 -44 l2 -37 -41 5 c-75 10 -224 23 -296 27 -14
0 -30 5 -37 11 -7 5 -22 7 -34 3 -15 -5 -19 -4 -14 4 5 8 -2 11 -22 9 -27 -3
-28 -2 -25 42 2 25 7 48 10 51 4 3 29 -1 55 -8 45 -14 48 -16 33 -32 -11 -12
-26 -16 -46 -13 -21 3 -30 0 -30 -10 0 -9 14 -14 45 -16 50 -2 49 -4 59 126 4
63 -5 77 -31 51 -15 -15 -83 -3 -83 15 0 7 3 16 7 19 9 10 62 9 97 -2z m-26
-88 c3 -21 -1 -23 -37 -23 -37 0 -41 2 -41 26 0 23 3 25 38 22 30 -2 38 -7 40
-25z m-127 -39 c-9 -38 -9 -38 -10 -7 -1 33 10 74 16 57 2 -6 -1 -28 -6 -50z
m-947 29 c27 -3 58 -9 70 -13 21 -9 21 -9 -1 -9 -14 -1 -23 -7 -23 -16 0 -8
-4 -15 -10 -15 -5 0 -10 10 -10 23 -1 21 -1 22 -15 3 -13 -17 -15 -18 -15 -3
0 20 -16 23 -23 5 -4 -10 -8 -9 -16 2 -7 10 -11 11 -11 3 0 -21 -21 -15 -47
13 l-25 27 39 -7 c21 -4 60 -10 87 -13z m-114 -33 c0 -15 -19 -22 -40 -15 -25
8 -26 22 -2 27 21 5 42 -1 42 -12z m240 12 c0 -5 -7 -17 -15 -28 -14 -19 -14
-19 -15 2 0 11 3 24 7 27 9 10 23 9 23 -1z m-50 -22 c0 -5 -4 -10 -10 -10 -5
0 -10 5 -10 10 0 6 5 10 10 10 6 0 10 -4 10 -10z m198 0 c12 0 22 -5 22 -11 0
-8 -14 -10 -40 -6 -27 3 -40 1 -40 -6 0 -8 -3 -8 -8 1 -5 7 -16 10 -25 6 -9
-3 -17 -2 -17 3 0 19 16 25 50 19 19 -3 45 -6 58 -6z m-178 -31 c85 -12 165
-25 178 -30 27 -10 28 -37 12 -294 -15 -240 -21 -295 -29 -295 -7 0 -6 51 5
285 l6 121 -38 60 c-59 93 -112 131 -203 149 -21 5 -31 4 -27 -3 3 -5 26 -13
50 -16 76 -12 172 -123 192 -224 11 -54 -13 -37 -32 23 -10 33 -33 74 -57 101
-109 123 -238 111 -335 -32 -11 -17 -12 -14 -6 16 8 45 37 77 99 107 36 18 42
23 20 18 -16 -3 -47 -17 -67 -31 -47 -30 -48 -30 -48 2 0 20 4 25 16 20 27
-11 38 6 13 20 -23 13 -23 13 14 14 20 0 37 5 37 10 0 6 10 8 23 5 12 -2 92
-14 177 -26z m277 1 c6 -22 8 -22 123 -40 134 -20 180 -31 177 -43 -1 -6 6
-12 15 -15 14 -3 16 2 11 32 -4 28 -2 37 11 42 26 10 66 -12 66 -36 0 -24 8
-25 32 -3 17 15 18 13 18 -58 0 -112 -21 -603 -26 -608 -4 -4 -68 8 -324 62
-63 14 -132 28 -152 31 -46 8 -53 35 -8 28 25 -4 30 -1 30 17 0 17 -6 21 -30
21 -28 0 -30 3 -30 34 0 19 4 37 9 40 8 5 309 -49 341 -62 8 -3 23 -6 32 -7
39 -5 97 -15 112 -21 11 -4 16 -1 16 10 0 20 -37 35 -103 41 -28 3 -54 10 -58
16 -4 7 -12 8 -18 5 -6 -4 -15 -5 -21 -1 -13 8 -1 35 16 35 18 0 18 16 -1 24
-15 5 -45 -28 -45 -51 0 -18 -37 -16 -165 11 -67 14 -110 27 -109 34 1 7 2 30
3 52 1 28 5 40 16 40 8 0 15 -9 15 -20 0 -23 -4 -22 110 -44 103 -19 100 -19
100 -2 0 10 -19 18 -57 25 -104 20 -108 22 -111 65 l-3 39 65 -7 c100 -10 116
-19 116 -61 0 -19 1 -35 3 -35 1 -1 56 -11 122 -24 66 -13 123 -21 128 -19 4
2 7 22 7 43 0 28 -5 40 -17 44 -17 5 -379 71 -450 82 l-33 5 0 94 c0 63 4 95
11 95 6 0 9 -9 6 -20 -3 -11 -1 -23 4 -26 5 -3 9 -1 9 5 0 5 3 16 6 24 3 8 -1
21 -9 28 -7 8 -16 33 -19 57 -6 41 -6 42 24 42 22 0 31 -6 35 -20z m90 -6 c-3
-3 -12 -4 -19 -1 -8 3 -5 6 6 6 11 1 17 -2 13 -5z m132 -10 c17 -4 31 -11 31
-16 0 -11 -60 -1 -74 13 -12 11 -1 11 43 3z m351 -74 c0 -5 -11 -10 -25 -10
-14 0 -25 5 -25 10 0 6 11 10 25 10 14 0 25 -4 25 -10z m50 -20 c12 -8 11 -10
-7 -10 -13 0 -23 5 -23 10 0 13 11 13 30 0z m-59 -19 c30 -5 121 -20 203 -33
106 -16 154 -28 170 -41 17 -15 31 -18 74 -14 36 4 52 2 53 -6 4 -45 -4 -185
-12 -197 -10 -18 -11 -9 -9 96 1 80 -2 84 -83 84 -22 0 -51 8 -65 18 -39 28
-154 56 -201 49 -73 -9 -146 -51 -187 -106 -21 -28 -40 -49 -42 -47 -2 3 -1
50 3 105 8 113 3 108 96 92z m459 -46 c25 -30 -18 -47 -61 -24 -16 8 -18 13
-8 25 15 18 53 18 69 -1z m-1291 -19 c69 -36 64 -156 -8 -185 -109 -46 -200
91 -116 175 28 28 80 32 124 10z m1095 -17 c74 -27 143 -103 185 -203 37 -88
38 -120 10 -207 -25 -75 -56 -119 -112 -160 -35 -26 -48 -29 -112 -29 -86 0
-135 16 -203 65 -64 45 -133 151 -140 213 -4 39 -3 44 14 40 12 -2 21 -16 26
-41 28 -134 131 -236 254 -252 103 -14 191 38 234 137 19 43 22 65 18 129 -11
192 -151 325 -315 299 -77 -13 -173 -82 -173 -126 0 -13 -38 -30 -47 -20 -6 5
46 76 79 109 11 10 38 30 61 43 55 31 143 33 221 3z m-20 -160 c13 -6 34 -30
46 -53 29 -54 18 -101 -30 -133 -80 -55 -170 -6 -170 93 0 28 8 44 34 70 37
37 74 44 120 23z m-1354 -39 c16 -38 100 -117 145 -136 88 -36 182 1 234 94 5
9 13 14 17 10 12 -13 -44 -86 -88 -115 -72 -48 -192 -30 -254 39 -26 27 -84
118 -84 130 0 19 19 6 30 -22z m31 -102 c13 -23 -8 -24 -39 -2 -15 10 -22 25
-22 47 l1 32 25 -30 c14 -16 29 -38 35 -47z m341 -38 c-17 -30 -48 -48 -60
-35 -7 6 56 64 70 65 4 0 -1 -14 -10 -30z m1224 -182 c-3 -56 -11 -107 -16
-112 -6 -6 -10 -6 -11 -1 0 6 -2 26 -4 45 -4 46 17 170 29 170 5 0 6 -41 2
-102z m-1100 -40 c10 -7 8 -48 -1 -48 -17 0 -185 43 -185 48 0 3 7 13 15 22
15 16 21 16 88 2 40 -8 77 -19 83 -24z m143 -27 c96 -23 101 -25 94 -51 -7
-24 1 -25 -110 1 -85 20 -93 23 -93 45 0 29 6 29 109 5z m-252 -28 c12 -5 14
-17 10 -50 -2 -24 -6 -46 -9 -48 -5 -5 -147 31 -155 39 -3 3 7 22 22 42 26 34
29 36 73 29 24 -4 51 -9 59 -12z m483 -24 c90 -21 115 -38 92 -61 -7 -7 -34
-5 -89 7 -114 24 -113 24 -113 51 0 29 -3 29 110 3z m-348 -6 l78 -16 0 -44
c0 -29 -5 -46 -15 -49 -8 -3 -48 2 -90 12 l-75 18 0 48 c0 55 -4 54 102 31z
m226 -49 l82 -17 0 -48 c0 -26 -3 -50 -7 -52 -5 -3 -48 5 -98 17 l-90 21 -3
54 c-3 47 -1 52 15 47 10 -2 55 -13 101 -22z m352 3 c82 -19 95 -25 98 -45 4
-26 -15 -28 -88 -11 -113 25 -120 29 -120 54 0 30 -8 30 110 2z m-862 -23 c19
-6 22 -13 22 -55 0 -27 -3 -49 -6 -49 -15 0 -100 24 -107 30 -8 7 48 80 62 80
3 0 16 -3 29 -6z m820 -49 c19 -5 22 -12 22 -55 0 -48 -1 -50 -27 -49 -16 0
-66 11 -113 22 l-85 22 -3 39 c-6 71 -14 71 206 21z m374 -26 c-2 -13 -5 -25
-5 -25 -1 -1 -45 8 -97 20 -88 19 -95 23 -98 47 l-3 25 103 -21 c99 -21 103
-23 100 -46z m-1042 41 c51 -12 97 -23 102 -26 15 -9 9 -84 -7 -90 -8 -4 -56
4 -105 16 l-90 22 0 49 c0 27 1 49 3 49 2 0 45 -9 97 -20z m1178 -73 c3 -25 2
-26 -30 -20 -57 11 -78 22 -78 41 0 28 7 31 58 18 40 -10 47 -16 50 -39z
m-858 -2 c6 -4 2 -94 -4 -102 -4 -5 -172 40 -180 47 -5 5 -5 29 -2 53 l7 45
86 -20 c47 -10 89 -21 93 -23z m545 17 l70 -17 -1 -47 c0 -26 -3 -50 -6 -54
-4 -3 -53 5 -110 18 -99 22 -103 24 -106 52 -2 16 -1 39 3 53 7 28 16 27 150
-5z m-1095 -74 c0 -39 -3 -49 -14 -45 -8 3 -31 9 -50 13 -42 7 -43 12 -14 50
29 38 37 43 59 37 15 -4 19 -15 19 -55z m675 30 c124 -30 115 -23 115 -78 0
-33 -4 -50 -12 -50 -7 0 -55 10 -105 22 l-93 22 0 53 c0 60 -10 57 95 31z
m673 -17 c12 -7 15 -21 13 -58 -1 -26 -4 -49 -5 -50 -2 -2 -74 13 -128 28 -37
10 -38 11 -38 58 0 26 2 50 5 53 7 7 131 -19 153 -31z m-1249 15 c31 -8 68
-17 84 -20 24 -6 27 -11 27 -51 0 -24 -4 -46 -8 -49 -4 -2 -45 5 -90 16 l-82
20 0 49 c0 27 3 49 6 49 3 0 32 -6 63 -14z m1314 -33 c3 -5 8 -29 11 -55 7
-44 6 -48 -13 -48 -19 0 -21 6 -21 55 0 48 10 70 23 48z m-1078 -24 l85 -21 0
-43 c0 -52 -3 -55 -43 -45 -18 5 -58 14 -89 20 l-58 11 0 50 c0 27 5 49 10 49
6 0 49 -10 95 -21z m600 -3 l90 -23 -3 -49 c-2 -27 -5 -50 -6 -51 -1 -1 -35 6
-76 16 -41 11 -87 22 -102 25 -29 7 -36 32 -22 84 8 27 8 27 119 -2z m-940
-44 l70 -18 3 -47 c4 -54 16 -52 -113 -18 l-60 16 -3 43 c-4 50 -1 50 103 24z
m573 -8 l72 -16 0 -49 c0 -27 -5 -49 -10 -49 -6 0 -49 10 -95 21 l-85 21 0 50
c0 47 1 50 23 44 12 -3 55 -13 95 -22z m680 -73 l3 -52 -38 7 c-21 4 -65 14
-98 23 -59 16 -60 17 -63 55 -6 65 -4 66 100 41 l93 -22 3 -52z m-1382 34 c-3
-8 -13 -11 -25 -8 -26 7 -26 11 2 41 l22 24 3 -22 c2 -12 1 -28 -2 -35z m335
-1 l69 -16 0 -42 c0 -24 -2 -45 -6 -48 -6 -7 -156 30 -167 41 -13 13 3 81 20
81 8 0 45 -7 84 -16z m602 -14 l97 -22 0 -49 c0 -31 -4 -49 -12 -49 -6 0 -60
12 -120 26 l-108 26 0 33 c0 46 9 66 29 61 9 -2 60 -14 114 -26z m598 0 c38
-10 49 -33 49 -96 0 -27 7 -27 -115 5 -57 15 -60 18 -63 50 -7 67 11 72 129
41z m-891 -106 c0 -29 -4 -44 -12 -44 -7 0 -55 9 -105 21 l-93 21 0 43 c0 23
2 44 5 47 3 3 51 -6 105 -20 l100 -24 0 -44z m550 46 l65 -16 3 -52 c2 -29 0
-52 -4 -52 -3 0 -34 7 -68 16 -144 36 -136 33 -136 62 0 15 3 37 6 49 7 25 10
24 134 -7z m-446 -26 c151 -38 136 -29 136 -80 l0 -46 -37 7 c-21 3 -69 14
-108 24 l-70 17 -3 47 c-4 54 -5 53 82 31z m659 -25 l87 -21 0 -49 c0 -55 -2
-56 -80 -38 -126 28 -120 24 -120 79 0 33 4 50 13 50 6 0 51 -10 100 -21z
m-413 -35 c149 -34 140 -29 140 -79 0 -30 -4 -45 -12 -45 -7 1 -56 11 -108 24
l-95 23 -3 47 c-2 25 1 46 5 46 4 0 37 -7 73 -16z m568 -5 c31 -11 42 -32 42
-82 0 -22 -4 -27 -17 -24 -10 3 -30 8 -45 11 -25 6 -28 11 -28 50 0 35 6 56
15 56 1 0 16 -5 33 -11z m-260 -70 l92 -21 0 -48 0 -48 -117 30 c-65 16 -119
31 -121 32 -1 2 0 22 4 45 6 37 10 42 28 37 12 -3 63 -15 114 -27z m227 -55
c39 -9 76 -24 83 -32 13 -17 17 -82 5 -82 -5 1 -48 11 -98 23 l-90 22 -3 48
c-3 43 -1 48 15 43 10 -3 50 -13 88 -22z"/>
<path d="M1513 1883 c9 -2 25 -2 35 0 9 3 1 5 -18 5 -19 0 -27 -2 -17 -5z"/>
<path d="M1663 1863 c9 -2 23 -2 30 0 6 3 -1 5 -18 5 -16 0 -22 -2 -12 -5z"/>
<path d="M1518 1788 c-2 -40 -2 -75 -1 -77 3 -4 217 -40 221 -36 1 1 5 38 9
81 l6 79 -94 13 c-147 19 -137 24 -141 -60z"/>
<path d="M777 1654 c-9 -10 4 -34 19 -34 8 0 14 4 14 9 0 12 -26 32 -33 25z"/>
<path d="M862 1621 c14 -23 33 -23 33 0 0 8 -10 15 -23 17 -21 3 -22 2 -10
-17z"/>
<path d="M952 1605 c12 -27 48 -35 48 -10 0 14 -29 35 -49 35 -7 0 -7 -8 1
-25z"/>
<path d="M1040 1621 c0 -6 5 -13 10 -16 6 -3 10 -15 10 -26 0 -12 5 -19 13
-17 20 7 21 41 1 55 -21 15 -34 17 -34 4z"/>
<path d="M1124 1594 c3 -9 6 -25 6 -37 0 -20 0 -20 14 -2 10 14 11 25 5 37
-12 22 -33 24 -25 2z"/>
<path d="M680 1539 c0 -17 4 -28 10 -24 6 3 10 17 10 31 0 13 -4 24 -10 24 -5
0 -10 -14 -10 -31z"/>
<path d="M732 1530 c1 -16 5 -27 10 -24 11 7 10 54 -1 54 -5 0 -9 -13 -9 -30z"/>
<path d="M784 1523 c4 -34 20 -33 24 2 2 17 -1 25 -12 25 -10 0 -14 -8 -12
-27z"/>
<path d="M850 1530 c0 -5 10 -20 22 -32 20 -20 22 -20 34 -3 10 14 11 22 3 32
-13 15 -59 18 -59 3z"/>
<path d="M942 1500 c7 -11 21 -20 30 -20 11 0 18 8 18 20 0 16 -7 20 -30 20
-28 0 -29 -2 -18 -20z"/>
<path d="M1020 1504 c0 -9 28 -34 39 -34 17 0 24 22 10 31 -16 10 -49 12 -49
3z"/>
<path d="M1126 1484 c-9 -24 -7 -54 4 -54 6 0 10 9 10 19 0 11 3 26 6 35 3 9
2 16 -4 16 -5 0 -13 -7 -16 -16z"/>
<path d="M756 1402 c-9 -15 14 -29 69 -40 50 -11 65 -9 65 8 0 23 -122 52
-134 32z"/>
<path d="M713 1284 c4 -4 28 -10 54 -15 27 -4 63 -11 81 -15 17 -3 32 -2 32 2
0 5 -29 15 -65 22 -71 13 -112 16 -102 6z"/>
<path d="M975 1160 c3 -5 15 -10 26 -10 11 0 17 5 14 10 -3 6 -15 10 -26 10
-11 0 -17 -4 -14 -10z"/>
<path d="M750 1145 c0 -18 48 -31 62 -17 16 16 0 32 -33 32 -19 0 -29 -5 -29
-15z"/>
<path d="M1086 1091 c-10 -16 5 -41 24 -41 19 0 30 17 23 38 -5 14 -39 16 -47
3z"/>
</g>
</svg>
