/* XPM */
static char * hypnotoad_xpm[] = {
"50 40 9 1",
"   c #FFFFFF",
".  c #000000",
"+  c #C2BE00",
"@  c #B80700",
"#  c #3F3300",
"$  c #9F6900",
"%  c #B1A052",
"&  c #603944",
"*  c #C9FFF2",
"     .....        .....                           ",
"    .+++++.      .+++++.                          ",
"    .+@@@+..    ..+@@@+.                          ",
"    .@...@.#.  .#.@...@.                          ",
"    .+@@@+.##..##.+@@@+.                          ",
"    .++++..######.+++++.                          ",
"     ....#########.....#.                         ",
"      .################$.                         ",
"     .$########$$$$$$$$$.                         ",
"     .$$######$$$$$$$$$$$.                        ",
"    .$$$$###$$$$$$$$$$$$$.                        ",
"   .$$$$$$$$$$$$$$$$$$$$#$.                       ",
"    .............$$$$.$$#$.                       ",
"    .%%%%%%%%%%%%...$$.$##$.                      ",
"    .%%%%%%%%%%%%%%%.$.$##$$.                     ",
"     .%%%%%%%%%%%%%.$$$$$#$$$..           ...     ",
"      .%%%%%%%%%%%%%.$$$$$$$.&&..        .###..   ",
"      .%%%%%%%%%%%%%%%%$$$$$.&&.#..     .######.  ",
"      .%%%%%%%%%%%%%%%%$$$$.&&&.##$..  .########. ",
"      .%%%%%%%%%%%%%%%%$$$.&&&&.##$$$. .########. ",
"      ..%%%%%%%%%%%%%%%%..&&&&.$####$$..#########.",
"      .&..%%%%%%%%%%%%..&&&&&.$$$####$..###.#####.",
"     ..&&&............&&&&&&.$$$$$####$.##.######.",
"    .$..&&&&&&&&&&&&&&&&&&..$$$$$$$###$.##.#####. ",
"    .$.%..&&&&.&.&.&.&&...$$$$$##$$$$$$##.######. ",
"    .$$.%%.............%%%$$$$$#.$$$$$$##.######. ",
"    .$$.%%%%%%%%.****.%%%%$$$$$#.##$$$$#.#######. ",
"    .$.$.%%%%%%%.****.%%%%$$$$$##.#$$$##.######.  ",
"     ..$.%%%%%%%%....%%%%%.$$$$$#.$#$$#..######.  ",
"      .$$.%%%%%%%%%%%%%%%%%.$$$$$.$$$$#.######.   ",
"  .....$$.%%%%%%%%%%%%%%%%%%.$$$$$.$###.######.   ",
" .$$$$.$$$.%%%%%%%%%%%%%%%%%%..$$$.$###.#####.    ",
".$.$$$.$$$$.%%%%%%%%%%%%.....$$$$$.$###.####.     ",
" .$.$$.$$$$$...%%%%%%%%.$$$$$$$$$.$$#..######..   ",
"  .$$$.$$$$$$$.%%%%%%%%%...$$$$$$....##########.. ",
"   ....$$$$$.............$$$$$$..   .###..#...###.",
"       ..$$$.            ..$.$.     .#.. .#.  ....",
"        .$..$.             .$.       .   .##.     ",
"        .$. .               .             .#.     ",
"         .                                 .      "};
